M48
;GenerationSoftware,Autodesk,EAGLE,9.2.2*%
;CreationDate,2019-06-06T16:44:59Z*%
FMAT,2
ICI,OFF
METRIC,TZ,000.000
T4C0.300
T3C0.813
T2C0.914
%
G90
M71
T2
X6270Y99850
X19730Y183850
X22270Y181310
X19730Y181310
X22270Y178770
X19730Y178770
X22270Y176230
X19730Y176230
X22270Y173690
X19730Y173690
X22270Y171150
X19730Y171150
X3730Y102390
X6270Y102390
X3730Y99850
X22270Y183850
X3730Y97310
X6270Y97310
X3730Y94770
X6270Y94770
X3730Y92230
X6270Y92230
X3730Y89690
X6270Y89690
X3730Y87150
X6270Y87150
X3730Y84610
X6270Y84610
X22270Y101690
X22270Y159850
X19730Y99150
X22270Y135850
X19730Y135850
X22270Y133310
X19730Y133310
X22270Y130770
X19730Y130770
X22270Y128230
X19730Y128230
X22270Y125690
X19730Y125690
X22270Y123150
X19730Y123150
X19730Y104230
X19730Y159850
X22270Y157310
X19730Y157310
X22270Y154770
X19730Y154770
X22270Y152230
X19730Y152230
X22270Y149690
X19730Y149690
X22270Y147150
X19730Y147150
X22270Y99150
X19730Y101690
X19730Y39850
X22270Y61310
X19730Y63850
X22270Y63850
X19730Y27150
X22270Y27150
X19730Y29690
X22270Y29690
X19730Y32230
X22270Y32230
X19730Y34770
X22270Y34770
X19730Y37310
X22270Y37310
X19730Y61310
X22270Y39850
X19730Y3150
X22270Y3150
X19730Y5690
X22270Y5690
X19730Y8230
X22270Y8230
X19730Y10770
X22270Y10770
X19730Y13310
X22270Y13310
X19730Y15850
X22270Y15850
X19730Y82770
X22270Y104230
X19730Y106770
X22270Y106770
X19730Y109310
X22270Y109310
X19730Y111850
X22270Y111850
X19730Y75150
X22270Y75150
X19730Y77690
X22270Y77690
X19730Y80230
X22270Y80230
X22270Y82770
X19730Y85310
X22270Y85310
X19730Y87850
X22270Y87850
X19730Y51150
X22270Y51150
X19730Y53690
X22270Y53690
X19730Y56230
X22270Y56230
X19730Y58770
X22270Y58770
T3
X10270Y110000
X11810Y58910
X7730Y110000
X4190Y76690
X4190Y74150
X4190Y61450
X4190Y58910
X4190Y71610
X4190Y69070
X4190Y63990
X4190Y66530
X11810Y61450
X11810Y63990
X11810Y66530
X11810Y69070
X11810Y71610
X11810Y74150
X11810Y76690
T4
X20803Y103124
X21692Y41961
X21336Y84277
X24536Y179045
X24714Y174422
X21336Y62408
X16891Y174422
X24003Y22581
X25425Y37871
X25425Y55651
X24003Y79477
X23647Y34849
X21692Y19202
X21869Y89967
X24003Y48006
X18669Y22047
X4978Y113792
X18669Y163576
X23825Y158420
X17958Y89078
X21692Y43028
X18847Y172110
X17958Y140462
X24003Y5334
X23292Y24536
X8001Y85877
X18313Y102946
X20447Y139751
X25425Y126416
X22581Y95834
X13691Y86944
X8001Y86944
X25248Y153086
X7468Y108458
X26137Y60096
X26137Y43739
X5690Y111836
X23647Y134595
X18669Y60274
X22403Y49784
X1956Y111836
X23647Y108102
M30