M48
;GenerationSoftware,Autodesk,EAGLE,9.2.2*%
;CreationDate,2019-06-06T15:16:29Z*%
FMAT,2
ICI,OFF
METRIC,TZ,000.000
T3C0.813
T2C1.016
%
G90
M71
T2
X6350Y4620
X3810Y17320
X3810Y14780
X3810Y12240
X3810Y9700
X3810Y7160
X3810Y4620
X6350Y17320
X6350Y14780
X6350Y12240
X6350Y9700
X6350Y7160
T3
X43000Y16000
X211000Y16000
X187000Y16000
X163000Y16000
X139000Y16000
X115000Y16000
X91000Y16000
X67000Y16000
X16222Y4440
X32711Y18551
X20777Y14207
X18390Y13338
X30324Y17682
X27937Y16813
X23163Y15076
X25550Y15945
X16003Y12470
X13616Y11601
X35098Y19420
X18609Y5309
X20996Y6178
X23383Y7047
X25770Y7915
X28157Y8784
X30543Y9653
X32930Y10522
X35317Y11390
X37704Y12259
M30