G04 EAGLE Gerber RS-274X export*
G75*
%MOMM*%
%FSLAX34Y34*%
%LPD*%
%INTop Copper*%
%IPPOS*%
%AMOC8*
5,1,8,0,0,1.08239X$1,22.5*%
G01*
%ADD10C,1.219200*%
%ADD11P,1.484606X8X112.500000*%
%ADD12P,1.319650X8X22.500000*%
%ADD13C,1.219200*%
%ADD14C,1.270000*%
%ADD15C,0.508000*%
%ADD16C,0.203200*%
%ADD17C,0.900000*%


D10*
X35804Y766900D02*
X47996Y766900D01*
X47996Y741500D02*
X35804Y741500D01*
X35804Y614500D02*
X47996Y614500D01*
X47996Y589100D02*
X35804Y589100D01*
X35804Y716100D02*
X47996Y716100D01*
X47996Y690700D02*
X35804Y690700D01*
X35804Y639900D02*
X47996Y639900D01*
X47996Y665300D02*
X35804Y665300D01*
X112004Y589100D02*
X124196Y589100D01*
X124196Y614500D02*
X112004Y614500D01*
X112004Y639900D02*
X124196Y639900D01*
X124196Y665300D02*
X112004Y665300D01*
X112004Y690700D02*
X124196Y690700D01*
X124196Y716100D02*
X112004Y716100D01*
X112004Y741500D02*
X124196Y741500D01*
X124196Y766900D02*
X112004Y766900D01*
D11*
X62700Y846100D03*
X37300Y846100D03*
X62700Y871500D03*
X37300Y871500D03*
X62700Y896900D03*
X37300Y896900D03*
X62700Y922300D03*
X37300Y922300D03*
X62700Y947700D03*
X37300Y947700D03*
X62700Y973100D03*
X37300Y973100D03*
X62700Y998500D03*
X37300Y998500D03*
X62700Y1023900D03*
X37300Y1023900D03*
X197300Y1711500D03*
X222700Y1711500D03*
X197300Y1736900D03*
X222700Y1736900D03*
X197300Y1762300D03*
X222700Y1762300D03*
X197300Y1787700D03*
X222700Y1787700D03*
X197300Y1813100D03*
X222700Y1813100D03*
X197300Y1838500D03*
X222700Y1838500D03*
D12*
X102700Y1100000D03*
D13*
X77300Y1100000D03*
D11*
X197300Y1471500D03*
X222700Y1471500D03*
X197300Y1496900D03*
X222700Y1496900D03*
X197300Y1522300D03*
X222700Y1522300D03*
X197300Y1547700D03*
X222700Y1547700D03*
X197300Y1573100D03*
X222700Y1573100D03*
X197300Y1598500D03*
X222700Y1598500D03*
X197300Y1231500D03*
X222700Y1231500D03*
X197300Y1256900D03*
X222700Y1256900D03*
X197300Y1282300D03*
X222700Y1282300D03*
X197300Y1307700D03*
X222700Y1307700D03*
X197300Y1333100D03*
X222700Y1333100D03*
X197300Y1358500D03*
X222700Y1358500D03*
X197300Y991500D03*
X222700Y991500D03*
X197300Y1016900D03*
X222700Y1016900D03*
X197300Y1042300D03*
X222700Y1042300D03*
X197300Y1067700D03*
X222700Y1067700D03*
X197300Y1093100D03*
X222700Y1093100D03*
X197300Y1118500D03*
X222700Y1118500D03*
X197300Y751500D03*
X222700Y751500D03*
X197300Y776900D03*
X222700Y776900D03*
X197300Y802300D03*
X222700Y802300D03*
X197300Y827700D03*
X222700Y827700D03*
X197300Y853100D03*
X222700Y853100D03*
X197300Y878500D03*
X222700Y878500D03*
X197300Y511500D03*
X222700Y511500D03*
X197300Y536900D03*
X222700Y536900D03*
X197300Y562300D03*
X222700Y562300D03*
X197300Y587700D03*
X222700Y587700D03*
X197300Y613100D03*
X222700Y613100D03*
X197300Y638500D03*
X222700Y638500D03*
X197300Y271500D03*
X222700Y271500D03*
X197300Y296900D03*
X222700Y296900D03*
X197300Y322300D03*
X222700Y322300D03*
X197300Y347700D03*
X222700Y347700D03*
X197300Y373100D03*
X222700Y373100D03*
X197300Y398500D03*
X222700Y398500D03*
X197300Y31500D03*
X222700Y31500D03*
X197300Y56900D03*
X222700Y56900D03*
X197300Y82300D03*
X222700Y82300D03*
X197300Y107700D03*
X222700Y107700D03*
X197300Y133100D03*
X222700Y133100D03*
X197300Y158500D03*
X222700Y158500D03*
D14*
X62700Y846100D02*
X37300Y871500D01*
X62700Y871500D02*
X37300Y846100D01*
X37300Y871500D01*
X62700Y871500D01*
X62700Y846100D01*
X37300Y846100D01*
X62700Y871500D02*
X149000Y957800D01*
X149000Y1423200D02*
X197300Y1471500D01*
X149000Y1028300D02*
X149000Y957800D01*
X149000Y1028300D02*
X149000Y1183200D01*
X149000Y1423200D01*
X197300Y1471500D02*
X222700Y1496900D01*
X222700Y1256900D02*
X197300Y1231500D01*
X149000Y1183200D01*
X222700Y1016900D02*
X197300Y991500D01*
X163600Y957800D01*
X149000Y957800D01*
X149000Y1028300D02*
X77300Y1100000D01*
X159900Y788900D02*
X197300Y751500D01*
X159900Y788900D02*
X115150Y833650D01*
X102700Y846100D01*
X62700Y846100D01*
X159900Y548900D02*
X197300Y511500D01*
X159900Y548900D02*
X159900Y675640D01*
X159900Y788900D01*
X159900Y308900D02*
X197300Y271500D01*
X159900Y308900D02*
X159900Y548900D01*
X222700Y296900D02*
X197300Y271500D01*
X222700Y56900D02*
X197300Y31500D01*
X159900Y68900D01*
X159900Y308900D01*
X197300Y511500D02*
X222700Y536900D01*
X197300Y751500D02*
X222700Y776900D01*
D15*
X118100Y766900D02*
X118100Y830700D01*
X115150Y833650D01*
D14*
X149000Y1423200D02*
X149000Y1663200D01*
X197300Y1711500D01*
X222700Y1736900D01*
D16*
X72898Y640080D02*
X42672Y640080D01*
X72898Y640080D02*
X108458Y675640D01*
X159900Y675640D01*
X42672Y640080D02*
X41900Y639900D01*
X42672Y666750D02*
X42672Y689864D01*
X42672Y666750D02*
X41900Y665300D01*
X42672Y689864D02*
X41900Y690700D01*
X40894Y743204D02*
X40894Y747038D01*
X19558Y768374D01*
X19558Y892556D02*
X39116Y912114D01*
X53340Y912114D01*
X62230Y921004D01*
X40894Y743204D02*
X41900Y741500D01*
X62230Y921004D02*
X62700Y922300D01*
X19558Y892556D02*
X19558Y833942D01*
X32000Y821500D01*
X32000Y811000D01*
X19558Y798558D01*
X19558Y768374D01*
X179578Y1299718D02*
X179578Y1404620D01*
X179578Y1299718D02*
X195580Y1283716D01*
X197300Y1282300D01*
X195580Y336042D02*
X195580Y323596D01*
X195580Y336042D02*
X184134Y347488D01*
X184134Y399272D01*
X215138Y430276D01*
X216916Y430276D01*
X195580Y323596D02*
X197300Y322300D01*
X179578Y819658D02*
X179578Y890778D01*
X179578Y819658D02*
X195580Y803656D01*
X197300Y802300D01*
X197358Y1763776D02*
X209804Y1763776D01*
X218694Y1772666D01*
X225806Y1772666D01*
X247142Y1751330D01*
X247142Y1744218D01*
X186690Y1635760D02*
X186690Y1532636D01*
X195580Y1523746D01*
X197300Y1762300D02*
X197358Y1763776D01*
X195580Y1523746D02*
X197300Y1522300D01*
D17*
X179578Y1404620D03*
X216916Y430276D03*
X179578Y890778D03*
X247142Y1744218D03*
X186690Y1635760D03*
D16*
X49784Y1150366D02*
X49784Y1137920D01*
X49784Y1150366D02*
X131572Y1232154D01*
X131572Y1722882D01*
X195580Y1786890D01*
X197300Y1787700D01*
X195580Y120904D02*
X195580Y108458D01*
X195580Y120904D02*
X184690Y131794D01*
X184690Y218472D02*
X186690Y220472D01*
X184690Y218472D02*
X184690Y131794D01*
X195580Y108458D02*
X197300Y107700D01*
X197358Y586740D02*
X209804Y586740D01*
X224028Y572516D01*
X225806Y572516D01*
X240030Y558292D01*
X240030Y480060D01*
X197358Y586740D02*
X197300Y587700D01*
X197358Y1546860D02*
X209804Y1546860D01*
X224028Y1532636D01*
X225806Y1532636D01*
X236474Y1521968D01*
X236474Y1445514D01*
X186690Y1395730D01*
X186690Y1317498D01*
X195580Y1308608D01*
X197358Y1546860D02*
X197300Y1547700D01*
X195580Y1308608D02*
X197300Y1307700D01*
X225806Y576072D02*
X225806Y572516D01*
X225806Y576072D02*
X254254Y604520D01*
X254254Y864108D01*
X218694Y899668D01*
X209804Y1788668D02*
X197358Y1788668D01*
X209804Y1788668D02*
X218694Y1797558D01*
X227584Y1797558D01*
X261366Y1763776D01*
X261366Y942340D01*
X218694Y899668D01*
X197300Y1787700D02*
X197358Y1788668D01*
D17*
X49784Y1137920D03*
X186690Y220472D03*
X240030Y480060D03*
X218694Y899668D03*
D16*
X197358Y144018D02*
X197358Y133350D01*
X197358Y144018D02*
X211582Y158242D01*
X211582Y186690D01*
X216916Y192024D01*
X236474Y348488D02*
X222250Y362712D01*
X206248Y362712D01*
X197358Y371602D01*
X197358Y133350D02*
X197300Y133100D01*
X197358Y371602D02*
X197300Y373100D01*
X197358Y853440D02*
X197358Y864108D01*
X208026Y874776D01*
X208026Y956564D01*
X236474Y985012D01*
X236474Y1041908D01*
X222250Y1056132D02*
X221972Y1056410D01*
X222250Y1056132D02*
X236474Y1041908D01*
X221972Y1056410D02*
X220194Y1056410D01*
X211582Y1065022D01*
X211582Y1077468D01*
X197358Y1091692D01*
X197358Y853440D02*
X197300Y853100D01*
X197358Y1091692D02*
X197300Y1093100D01*
X222250Y1056132D02*
X211582Y1045464D01*
X211582Y1038352D01*
X215138Y1034796D01*
X215138Y1027684D01*
X211582Y1024128D01*
X204470Y1024128D01*
X197358Y1031240D01*
X193802Y1031240D01*
X183134Y1041908D01*
X183134Y1177036D01*
X232918Y1226820D01*
X232918Y1285494D01*
X220472Y1297940D01*
X218694Y1297940D01*
X208026Y1308608D01*
X208026Y1321054D01*
X197358Y1331722D01*
X197300Y1333100D01*
X195580Y625856D02*
X195580Y613410D01*
X195580Y625856D02*
X186690Y634746D01*
X186690Y695198D01*
X240030Y748538D01*
X240030Y794766D01*
X213360Y842772D02*
X206248Y842772D01*
X197358Y851662D01*
X195580Y613410D02*
X197300Y613100D01*
X197358Y851662D02*
X197300Y853100D01*
X197358Y1811782D02*
X209804Y1811782D01*
X220472Y1801114D01*
X234696Y1801114D01*
X245364Y1790446D01*
X197358Y1811782D02*
X197300Y1813100D01*
D17*
X216916Y192024D03*
X236474Y348488D03*
X240030Y794766D03*
X213360Y842772D03*
X245364Y1790446D03*
D16*
X197358Y199136D02*
X197358Y160020D01*
X197358Y199136D02*
X240030Y241808D01*
X240030Y318262D01*
X220472Y337820D01*
X218694Y337820D01*
X208026Y348488D01*
X208026Y350266D01*
X195580Y362712D01*
X193802Y362712D01*
X187690Y368824D01*
X187690Y390382D01*
X195580Y398272D01*
X197358Y160020D02*
X197300Y158500D01*
X195580Y398272D02*
X197300Y398500D01*
X197358Y1120140D02*
X197358Y1185926D01*
X236474Y1225042D01*
X236474Y1308608D01*
X222250Y1322832D01*
X218694Y1322832D01*
X208026Y1333500D01*
X208026Y1347724D01*
X197358Y1358392D01*
X197358Y1120140D02*
X197300Y1118500D01*
X197358Y1358392D02*
X197300Y1358500D01*
X197358Y1587754D02*
X197358Y1598422D01*
X197358Y1587754D02*
X211582Y1573530D01*
X211582Y1569974D01*
X224028Y1557528D01*
X227584Y1557528D01*
X240030Y1545082D01*
X240030Y1443736D01*
X197358Y1401064D01*
X197358Y1360170D01*
X197358Y1598422D02*
X197300Y1598500D01*
X197358Y1360170D02*
X197300Y1358500D01*
X208026Y1070356D02*
X208026Y1031240D01*
X208026Y1070356D02*
X195580Y1082802D01*
X193802Y1082802D01*
X186690Y1089914D01*
X186690Y1109472D01*
X195580Y1118362D01*
X197300Y1118500D01*
X216916Y419608D02*
X197358Y400050D01*
X213360Y624078D02*
X197358Y640080D01*
X197358Y400050D02*
X197300Y398500D01*
X197300Y638500D02*
X197358Y640080D01*
X190246Y1744218D02*
X168910Y1744218D01*
X190246Y1744218D02*
X193802Y1747774D01*
X225806Y1747774D01*
X232918Y1740662D01*
X232918Y1635760D01*
X197358Y1600200D01*
X197300Y1598500D01*
D17*
X208026Y1031240D03*
X216916Y419608D03*
X213360Y624078D03*
X168910Y1744218D03*
D16*
X40894Y819658D02*
X40894Y801511D01*
X40892Y801404D01*
X40886Y801298D01*
X40876Y801192D01*
X40863Y801086D01*
X40845Y800980D01*
X40824Y800876D01*
X40799Y800772D01*
X40770Y800669D01*
X40738Y800568D01*
X40701Y800468D01*
X40661Y800369D01*
X40618Y800271D01*
X40571Y800175D01*
X40520Y800081D01*
X40466Y799989D01*
X40409Y799899D01*
X40349Y799811D01*
X40285Y799726D01*
X40218Y799643D01*
X40148Y799562D01*
X40076Y799484D01*
X40000Y799408D01*
X39922Y799336D01*
X39841Y799266D01*
X39758Y799199D01*
X39673Y799135D01*
X39585Y799075D01*
X39495Y799018D01*
X39403Y798964D01*
X39309Y798913D01*
X39213Y798866D01*
X39115Y798823D01*
X39016Y798783D01*
X38916Y798746D01*
X38815Y798714D01*
X38712Y798685D01*
X38608Y798660D01*
X38504Y798639D01*
X38398Y798621D01*
X38292Y798608D01*
X38186Y798598D01*
X38080Y798592D01*
X37973Y798590D01*
X28462Y798590D01*
X28355Y798588D01*
X28249Y798582D01*
X28143Y798572D01*
X28037Y798559D01*
X27931Y798541D01*
X27827Y798520D01*
X27723Y798495D01*
X27620Y798466D01*
X27519Y798434D01*
X27419Y798397D01*
X27320Y798357D01*
X27222Y798314D01*
X27126Y798267D01*
X27032Y798216D01*
X26940Y798162D01*
X26850Y798105D01*
X26762Y798045D01*
X26677Y797981D01*
X26594Y797914D01*
X26513Y797844D01*
X26435Y797772D01*
X26359Y797696D01*
X26287Y797618D01*
X26217Y797537D01*
X26150Y797454D01*
X26086Y797369D01*
X26026Y797281D01*
X25969Y797191D01*
X25915Y797099D01*
X25864Y797005D01*
X25817Y796909D01*
X25774Y796811D01*
X25734Y796712D01*
X25697Y796612D01*
X25665Y796511D01*
X25636Y796408D01*
X25611Y796304D01*
X25590Y796200D01*
X25572Y796094D01*
X25559Y795988D01*
X25549Y795882D01*
X25543Y795776D01*
X25541Y795669D01*
X25541Y794622D01*
X25543Y794515D01*
X25549Y794409D01*
X25559Y794303D01*
X25572Y794197D01*
X25590Y794091D01*
X25611Y793987D01*
X25636Y793883D01*
X25665Y793780D01*
X25697Y793679D01*
X25734Y793579D01*
X25774Y793480D01*
X25817Y793382D01*
X25864Y793286D01*
X25915Y793192D01*
X25969Y793100D01*
X26026Y793010D01*
X26086Y792922D01*
X26150Y792837D01*
X26217Y792754D01*
X26287Y792673D01*
X26359Y792595D01*
X26435Y792519D01*
X26513Y792447D01*
X26594Y792377D01*
X26677Y792310D01*
X26762Y792246D01*
X26850Y792186D01*
X26940Y792129D01*
X27032Y792075D01*
X27126Y792024D01*
X27222Y791977D01*
X27320Y791934D01*
X27419Y791894D01*
X27519Y791857D01*
X27620Y791825D01*
X27723Y791796D01*
X27827Y791771D01*
X27931Y791750D01*
X28037Y791732D01*
X28143Y791719D01*
X28249Y791709D01*
X28355Y791703D01*
X28462Y791701D01*
X53326Y791701D01*
X53433Y791699D01*
X53539Y791693D01*
X53645Y791683D01*
X53751Y791670D01*
X53857Y791652D01*
X53961Y791631D01*
X54065Y791606D01*
X54168Y791577D01*
X54269Y791545D01*
X54369Y791508D01*
X54468Y791468D01*
X54566Y791425D01*
X54662Y791378D01*
X54756Y791327D01*
X54848Y791273D01*
X54938Y791216D01*
X55026Y791156D01*
X55111Y791092D01*
X55194Y791025D01*
X55275Y790955D01*
X55353Y790883D01*
X55429Y790807D01*
X55501Y790729D01*
X55571Y790648D01*
X55638Y790565D01*
X55702Y790480D01*
X55762Y790392D01*
X55819Y790302D01*
X55873Y790210D01*
X55924Y790116D01*
X55971Y790020D01*
X56014Y789922D01*
X56054Y789823D01*
X56091Y789723D01*
X56123Y789622D01*
X56152Y789519D01*
X56177Y789415D01*
X56198Y789311D01*
X56216Y789205D01*
X56229Y789099D01*
X56239Y788993D01*
X56245Y788887D01*
X56247Y788780D01*
X56247Y787732D01*
X56245Y787625D01*
X56239Y787519D01*
X56229Y787413D01*
X56216Y787307D01*
X56198Y787201D01*
X56177Y787097D01*
X56152Y786993D01*
X56123Y786890D01*
X56091Y786789D01*
X56054Y786689D01*
X56014Y786590D01*
X55971Y786492D01*
X55924Y786396D01*
X55873Y786302D01*
X55819Y786210D01*
X55762Y786120D01*
X55702Y786032D01*
X55638Y785947D01*
X55571Y785864D01*
X55501Y785783D01*
X55429Y785705D01*
X55353Y785629D01*
X55275Y785557D01*
X55194Y785487D01*
X55111Y785420D01*
X55026Y785356D01*
X54938Y785296D01*
X54848Y785239D01*
X54756Y785185D01*
X54662Y785134D01*
X54566Y785087D01*
X54468Y785044D01*
X54369Y785004D01*
X54269Y784967D01*
X54168Y784935D01*
X54065Y784906D01*
X53961Y784881D01*
X53857Y784860D01*
X53751Y784842D01*
X53645Y784829D01*
X53539Y784819D01*
X53433Y784813D01*
X53326Y784811D01*
X28462Y784811D01*
X28355Y784809D01*
X28249Y784803D01*
X28143Y784793D01*
X28037Y784780D01*
X27931Y784762D01*
X27827Y784741D01*
X27723Y784716D01*
X27620Y784687D01*
X27519Y784655D01*
X27419Y784618D01*
X27320Y784578D01*
X27222Y784535D01*
X27126Y784488D01*
X27032Y784437D01*
X26940Y784383D01*
X26850Y784326D01*
X26762Y784266D01*
X26677Y784202D01*
X26594Y784135D01*
X26513Y784065D01*
X26435Y783993D01*
X26359Y783917D01*
X26287Y783839D01*
X26217Y783758D01*
X26150Y783675D01*
X26086Y783590D01*
X26026Y783502D01*
X25969Y783412D01*
X25915Y783320D01*
X25864Y783226D01*
X25817Y783130D01*
X25774Y783032D01*
X25734Y782933D01*
X25697Y782833D01*
X25665Y782732D01*
X25636Y782629D01*
X25611Y782525D01*
X25590Y782421D01*
X25572Y782315D01*
X25559Y782209D01*
X25549Y782103D01*
X25543Y781997D01*
X25541Y781890D01*
X25541Y780842D01*
X25543Y780735D01*
X25549Y780629D01*
X25559Y780523D01*
X25572Y780417D01*
X25590Y780311D01*
X25611Y780207D01*
X25636Y780103D01*
X25665Y780000D01*
X25697Y779899D01*
X25734Y779799D01*
X25774Y779700D01*
X25817Y779602D01*
X25864Y779506D01*
X25915Y779412D01*
X25969Y779320D01*
X26026Y779230D01*
X26086Y779142D01*
X26150Y779057D01*
X26217Y778974D01*
X26287Y778893D01*
X26359Y778815D01*
X26435Y778739D01*
X26513Y778667D01*
X26594Y778597D01*
X26677Y778530D01*
X26762Y778466D01*
X26850Y778406D01*
X26940Y778349D01*
X27032Y778295D01*
X27126Y778244D01*
X27222Y778197D01*
X27320Y778154D01*
X27419Y778114D01*
X27519Y778077D01*
X27620Y778045D01*
X27723Y778016D01*
X27827Y777991D01*
X27931Y777970D01*
X28037Y777952D01*
X28143Y777939D01*
X28249Y777929D01*
X28355Y777923D01*
X28462Y777921D01*
X37973Y777921D01*
X38080Y777919D01*
X38186Y777913D01*
X38292Y777903D01*
X38398Y777890D01*
X38504Y777872D01*
X38608Y777851D01*
X38712Y777826D01*
X38815Y777797D01*
X38916Y777765D01*
X39016Y777728D01*
X39115Y777688D01*
X39213Y777645D01*
X39309Y777598D01*
X39403Y777547D01*
X39495Y777493D01*
X39585Y777436D01*
X39673Y777376D01*
X39758Y777312D01*
X39841Y777245D01*
X39922Y777175D01*
X40000Y777103D01*
X40076Y777027D01*
X40148Y776949D01*
X40218Y776868D01*
X40285Y776785D01*
X40349Y776700D01*
X40409Y776612D01*
X40466Y776522D01*
X40520Y776430D01*
X40571Y776336D01*
X40618Y776240D01*
X40661Y776142D01*
X40701Y776043D01*
X40738Y775943D01*
X40770Y775842D01*
X40799Y775739D01*
X40824Y775635D01*
X40845Y775531D01*
X40863Y775425D01*
X40876Y775319D01*
X40886Y775213D01*
X40892Y775107D01*
X40894Y775000D01*
X40894Y768096D01*
X40894Y819658D02*
X23114Y837438D01*
X23114Y883666D01*
X35560Y896112D01*
X40894Y768096D02*
X41900Y766900D01*
X35560Y896112D02*
X37300Y896900D01*
X40894Y721646D02*
X40894Y716534D01*
X40894Y721646D02*
X16002Y746538D01*
X16002Y901446D01*
X35560Y921004D01*
X40894Y716534D02*
X41900Y716100D01*
X35560Y921004D02*
X37300Y922300D01*
X222250Y808990D02*
X222250Y803656D01*
X222250Y808990D02*
X208026Y823214D01*
X208026Y830326D01*
X195580Y842772D01*
X193802Y842772D01*
X186690Y849884D01*
X186690Y940562D01*
X232918Y986790D01*
X232918Y1033018D01*
X224028Y1041908D01*
X222250Y803656D02*
X222700Y802300D01*
X224028Y1041908D02*
X222700Y1042300D01*
X224028Y1509522D02*
X224028Y1521968D01*
X224028Y1509522D02*
X232918Y1500632D01*
X232918Y1447292D01*
X183134Y1397508D01*
X183134Y1306830D01*
X197358Y1292606D01*
X213360Y1292606D01*
X222250Y1283716D01*
X224028Y1521968D02*
X222700Y1522300D01*
X222250Y1283716D02*
X222700Y1282300D01*
X222250Y563626D02*
X209804Y563626D01*
X195580Y577850D01*
X193802Y577850D01*
X179578Y592074D01*
X179578Y693420D01*
X232918Y746760D01*
X232918Y792988D01*
X224028Y801878D01*
X222250Y563626D02*
X222700Y562300D01*
X224028Y801878D02*
X222700Y802300D01*
X224028Y120904D02*
X224028Y108458D01*
X224028Y120904D02*
X240030Y136906D01*
X240030Y225806D01*
X224028Y108458D02*
X222700Y107700D01*
X224028Y588518D02*
X224028Y600964D01*
X250698Y627634D01*
X250698Y800100D01*
X224028Y826770D01*
X224028Y588518D02*
X222700Y587700D01*
X224028Y826770D02*
X222700Y827700D01*
X254254Y556514D02*
X254254Y378714D01*
X252476Y1530858D02*
X252476Y1738884D01*
X254254Y1740662D01*
X254254Y1756664D01*
X224028Y1786890D01*
X222700Y1787700D01*
X236474Y1113028D02*
X236474Y1081024D01*
X236474Y1113028D02*
X247142Y1123696D01*
X247142Y1434846D01*
X252476Y1440180D01*
X252476Y1530858D01*
D17*
X240030Y225806D03*
X254254Y378714D03*
X254254Y556514D03*
X252476Y1530858D03*
X236474Y1081024D03*
D16*
X19558Y1118362D02*
X19558Y1125474D01*
X128016Y1233932D01*
X128016Y1758442D01*
X193802Y1824228D01*
X211582Y1824228D01*
X222250Y1813560D01*
X222700Y1813100D01*
X224028Y1105916D02*
X224028Y1093470D01*
X224028Y1105916D02*
X240030Y1121918D01*
X240030Y1315720D01*
X224028Y1331722D01*
X224028Y1093470D02*
X222700Y1093100D01*
X224028Y1331722D02*
X222700Y1333100D01*
X224028Y625856D02*
X224028Y613410D01*
X224028Y625856D02*
X247142Y648970D01*
X247142Y798322D01*
X227584Y817880D01*
X218694Y817880D01*
X211582Y824992D01*
X211582Y830326D01*
X222250Y840994D01*
X222250Y851662D01*
X224028Y613410D02*
X222700Y613100D01*
X222250Y851662D02*
X222700Y853100D01*
X224028Y1081024D02*
X224028Y1091692D01*
X224028Y1081024D02*
X240030Y1065022D01*
X240030Y983234D01*
X211582Y954786D01*
X211582Y864108D01*
X222250Y853440D01*
X224028Y1091692D02*
X222700Y1093100D01*
X222250Y853440D02*
X222700Y853100D01*
X222250Y384048D02*
X222250Y373380D01*
X222250Y384048D02*
X211582Y394716D01*
X211582Y403606D01*
X224028Y416052D01*
X224028Y497840D01*
X213360Y602742D02*
X186690Y602742D01*
X213360Y602742D02*
X222250Y611632D01*
X222250Y373380D02*
X222700Y373100D01*
X222250Y611632D02*
X222700Y613100D01*
X224028Y1333500D02*
X236474Y1345946D01*
X224028Y1333500D02*
X222700Y1333100D01*
D17*
X19558Y1118362D03*
X224028Y497840D03*
X186690Y602742D03*
X236474Y1345946D03*
D16*
X37338Y1098804D02*
X37338Y1024128D01*
X37338Y1098804D02*
X56896Y1118362D01*
X37338Y1024128D02*
X37300Y1023900D01*
X224028Y220472D02*
X224028Y160020D01*
X224028Y220472D02*
X243586Y240030D01*
X243586Y378714D01*
X224028Y398272D01*
X224028Y160020D02*
X222700Y158500D01*
X224028Y398272D02*
X222700Y398500D01*
X261366Y437388D02*
X261366Y600964D01*
X238252Y1584198D02*
X224028Y1598422D01*
X222700Y1598500D01*
D17*
X56896Y1118362D03*
X261366Y437388D03*
X261366Y600964D03*
X238252Y1584198D03*
D16*
X117348Y748538D02*
X117348Y743204D01*
X117348Y748538D02*
X26670Y839216D01*
X26670Y874776D01*
X39116Y887222D01*
X42672Y887222D01*
X51562Y896112D01*
X51562Y899668D01*
X64008Y912114D01*
X67564Y912114D01*
X74676Y919226D01*
X74676Y1084580D01*
X117348Y743204D02*
X118100Y741500D01*
D17*
X74676Y1084580D03*
D16*
X60452Y714756D02*
X117348Y714756D01*
X60452Y714756D02*
X51562Y705866D01*
X33782Y705866D01*
X12446Y727202D01*
X12446Y1084580D01*
X138684Y1210818D01*
X138684Y1671320D01*
X188468Y1721104D01*
X118100Y716100D02*
X117348Y714756D01*
D17*
X188468Y1721104D03*
D16*
X136906Y869442D02*
X80010Y869442D01*
X225806Y958342D02*
X225806Y963676D01*
X254254Y992124D01*
X254254Y1264158D01*
D17*
X80010Y869442D03*
X136906Y869442D03*
X225806Y958342D03*
X254254Y1264158D03*
D16*
X117348Y664972D02*
X103124Y664972D01*
X69342Y631190D01*
X32004Y631190D01*
X8890Y654304D01*
X8890Y1086358D01*
X135128Y1212596D01*
X135128Y1721104D01*
X165354Y1751330D01*
X227584Y1751330D01*
X245364Y1733550D01*
X245364Y1438402D01*
X204470Y1397508D01*
X183134Y1029462D02*
X195580Y1017016D01*
X118100Y665300D02*
X117348Y664972D01*
X195580Y1017016D02*
X197300Y1016900D01*
D17*
X204470Y1397508D03*
X183134Y1029462D03*
D16*
X113792Y858774D02*
X80010Y858774D01*
X113792Y858774D02*
X195580Y776986D01*
X197300Y776900D01*
D17*
X80010Y858774D03*
D16*
X119126Y613410D02*
X119126Y608076D01*
X149352Y577850D01*
X149352Y65786D01*
X193802Y21336D01*
X227584Y21336D01*
X247142Y40894D01*
X247142Y462280D01*
X232918Y476504D01*
X232918Y540512D01*
X225806Y547624D01*
X208026Y547624D01*
X197358Y536956D01*
X119126Y613410D02*
X118100Y614500D01*
X197300Y536900D02*
X197358Y536956D01*
X232918Y300482D02*
X232918Y245364D01*
X232918Y300482D02*
X225806Y307594D01*
X208026Y307594D01*
X197358Y296926D01*
X197300Y296900D01*
D17*
X232918Y245364D03*
D16*
X225806Y67564D02*
X240030Y53340D01*
X225806Y67564D02*
X206248Y67564D01*
X197358Y58674D01*
X197300Y56900D01*
D17*
X240030Y53340D03*
M02*
