G04 EAGLE Gerber RS-274X export*
G75*
%MOMM*%
%FSLAX34Y34*%
%LPD*%
%IN*%
%IPPOS*%
%AMOC8*
5,1,8,0,0,1.08239X$1,22.5*%
G01*
%ADD10C,0.254000*%


D10*
X0Y616421D02*
X381Y607706D01*
X1519Y599057D01*
X3407Y590539D01*
X6031Y582219D01*
X9369Y574160D01*
X13397Y566421D01*
X18085Y559064D01*
X23396Y552143D01*
X29289Y545711D01*
X85711Y489289D01*
X91604Y482857D01*
X96915Y475936D01*
X101603Y468579D01*
X105631Y460840D01*
X108969Y452781D01*
X111593Y444461D01*
X113481Y435943D01*
X114619Y427294D01*
X115000Y418579D01*
X115000Y20000D01*
X115076Y18257D01*
X115304Y16527D01*
X115681Y14824D01*
X116206Y13160D01*
X116874Y11548D01*
X117680Y10000D01*
X118617Y8528D01*
X119679Y7144D01*
X120858Y5858D01*
X122144Y4679D01*
X123528Y3617D01*
X125000Y2680D01*
X126548Y1874D01*
X128160Y1206D01*
X129824Y681D01*
X131527Y304D01*
X133257Y76D01*
X135000Y0D01*
X250000Y0D01*
X251743Y76D01*
X253473Y304D01*
X255176Y681D01*
X256840Y1206D01*
X258452Y1874D01*
X260000Y2680D01*
X261472Y3617D01*
X262856Y4679D01*
X264142Y5858D01*
X265321Y7144D01*
X266383Y8528D01*
X267321Y10000D01*
X268126Y11548D01*
X268794Y13160D01*
X269319Y14824D01*
X269696Y16527D01*
X269924Y18257D01*
X270000Y20000D01*
X270000Y1850000D01*
X269924Y1851743D01*
X269696Y1853473D01*
X269319Y1855176D01*
X268794Y1856840D01*
X268126Y1858452D01*
X267321Y1860000D01*
X266383Y1861472D01*
X265321Y1862856D01*
X264142Y1864142D01*
X262856Y1865321D01*
X261472Y1866383D01*
X260000Y1867321D01*
X258452Y1868126D01*
X256840Y1868794D01*
X255176Y1869319D01*
X253473Y1869696D01*
X251743Y1869924D01*
X250000Y1870000D01*
X135000Y1870000D01*
X133257Y1869924D01*
X131527Y1869696D01*
X129824Y1869319D01*
X128160Y1868794D01*
X126548Y1868126D01*
X125000Y1867321D01*
X123528Y1866383D01*
X122144Y1865321D01*
X120858Y1864142D01*
X119679Y1862856D01*
X118617Y1861472D01*
X117680Y1860000D01*
X116874Y1858452D01*
X116206Y1856840D01*
X115681Y1855176D01*
X115304Y1853473D01*
X115076Y1851743D01*
X115000Y1850000D01*
X115000Y1271421D01*
X114619Y1262706D01*
X113481Y1254057D01*
X111593Y1245539D01*
X108969Y1237219D01*
X105631Y1229160D01*
X101603Y1221421D01*
X96915Y1214064D01*
X91604Y1207143D01*
X85711Y1200711D01*
X29289Y1144289D01*
X23396Y1137857D01*
X18085Y1130936D01*
X13397Y1123579D01*
X9369Y1115840D01*
X6031Y1107781D01*
X3407Y1099461D01*
X1519Y1090943D01*
X381Y1082294D01*
X0Y1073579D01*
X0Y616421D01*
M02*
