G04 EAGLE Gerber RS-274X export*
G75*
%MOMM*%
%FSLAX34Y34*%
%LPD*%
%INSilkscreen Bottom*%
%IPPOS*%
%AMOC8*
5,1,8,0,0,1.08239X$1,22.5*%
G01*
%ADD10C,0.152400*%
%ADD11C,0.127000*%


D10*
X188410Y1698800D02*
X231590Y1698800D01*
X235400Y1720390D02*
X231590Y1724200D01*
X235400Y1728010D01*
X235400Y1745790D01*
X231590Y1749600D01*
X235400Y1753410D01*
X235400Y1771190D01*
X231590Y1775000D01*
X188410Y1775000D02*
X184600Y1771190D01*
X184600Y1753410D01*
X188410Y1749600D01*
X184600Y1745790D01*
X184600Y1728010D01*
X188410Y1724200D01*
X184600Y1720390D01*
X231590Y1775000D02*
X235400Y1778810D01*
X235400Y1796590D01*
X231590Y1800400D01*
X235400Y1804210D01*
X235400Y1821990D01*
X231590Y1825800D01*
X184600Y1778810D02*
X188410Y1775000D01*
X184600Y1778810D02*
X184600Y1796590D01*
X188410Y1800400D02*
X184600Y1804210D01*
X188410Y1800400D02*
X184600Y1796590D01*
X184600Y1804210D02*
X184600Y1821990D01*
X188410Y1825800D01*
X184600Y1702610D02*
X188410Y1698800D01*
X184600Y1702610D02*
X184600Y1720390D01*
X231590Y1698800D02*
X235400Y1702610D01*
X235400Y1720390D01*
X231590Y1851200D02*
X188410Y1851200D01*
X231590Y1825800D02*
X235400Y1829610D01*
X235400Y1847390D01*
X231590Y1851200D01*
X188410Y1851200D02*
X184600Y1847390D01*
X184600Y1829610D01*
X188410Y1825800D01*
D11*
X180155Y1710230D02*
X177615Y1707055D01*
X180155Y1710230D02*
X168725Y1710230D01*
X168725Y1707055D02*
X168725Y1713405D01*
X180156Y1735948D02*
X180154Y1736052D01*
X180148Y1736157D01*
X180139Y1736261D01*
X180126Y1736364D01*
X180108Y1736467D01*
X180088Y1736569D01*
X180063Y1736671D01*
X180035Y1736771D01*
X180003Y1736871D01*
X179967Y1736969D01*
X179928Y1737066D01*
X179886Y1737161D01*
X179840Y1737255D01*
X179790Y1737347D01*
X179738Y1737437D01*
X179682Y1737525D01*
X179622Y1737611D01*
X179560Y1737695D01*
X179495Y1737776D01*
X179427Y1737855D01*
X179355Y1737932D01*
X179282Y1738005D01*
X179205Y1738077D01*
X179126Y1738145D01*
X179045Y1738210D01*
X178961Y1738272D01*
X178875Y1738332D01*
X178787Y1738388D01*
X178697Y1738440D01*
X178605Y1738490D01*
X178511Y1738536D01*
X178416Y1738578D01*
X178319Y1738617D01*
X178221Y1738653D01*
X178121Y1738685D01*
X178021Y1738713D01*
X177919Y1738738D01*
X177817Y1738758D01*
X177714Y1738776D01*
X177611Y1738789D01*
X177507Y1738798D01*
X177402Y1738804D01*
X177298Y1738806D01*
X180155Y1735948D02*
X180153Y1735830D01*
X180147Y1735711D01*
X180138Y1735593D01*
X180125Y1735476D01*
X180107Y1735359D01*
X180087Y1735242D01*
X180062Y1735126D01*
X180034Y1735011D01*
X180001Y1734898D01*
X179966Y1734785D01*
X179926Y1734673D01*
X179884Y1734563D01*
X179837Y1734454D01*
X179787Y1734346D01*
X179734Y1734241D01*
X179677Y1734137D01*
X179617Y1734035D01*
X179554Y1733935D01*
X179487Y1733837D01*
X179418Y1733741D01*
X179345Y1733648D01*
X179269Y1733557D01*
X179191Y1733468D01*
X179109Y1733382D01*
X179025Y1733299D01*
X178939Y1733218D01*
X178849Y1733141D01*
X178758Y1733066D01*
X178664Y1732994D01*
X178567Y1732925D01*
X178469Y1732860D01*
X178368Y1732797D01*
X178265Y1732738D01*
X178161Y1732682D01*
X178055Y1732630D01*
X177947Y1732581D01*
X177838Y1732536D01*
X177727Y1732494D01*
X177615Y1732456D01*
X175076Y1737853D02*
X175151Y1737929D01*
X175230Y1738004D01*
X175311Y1738075D01*
X175395Y1738144D01*
X175481Y1738209D01*
X175569Y1738271D01*
X175659Y1738331D01*
X175751Y1738387D01*
X175846Y1738440D01*
X175942Y1738489D01*
X176040Y1738535D01*
X176139Y1738578D01*
X176240Y1738617D01*
X176342Y1738652D01*
X176445Y1738684D01*
X176549Y1738712D01*
X176654Y1738737D01*
X176761Y1738758D01*
X176867Y1738775D01*
X176974Y1738788D01*
X177082Y1738797D01*
X177190Y1738803D01*
X177298Y1738805D01*
X175075Y1737853D02*
X168725Y1732455D01*
X168725Y1738805D01*
X168725Y1757855D02*
X168725Y1761030D01*
X168727Y1761141D01*
X168733Y1761251D01*
X168742Y1761362D01*
X168756Y1761472D01*
X168773Y1761581D01*
X168794Y1761690D01*
X168819Y1761798D01*
X168848Y1761905D01*
X168880Y1762011D01*
X168916Y1762116D01*
X168956Y1762219D01*
X168999Y1762321D01*
X169046Y1762422D01*
X169097Y1762521D01*
X169150Y1762618D01*
X169207Y1762712D01*
X169268Y1762805D01*
X169331Y1762896D01*
X169398Y1762985D01*
X169468Y1763071D01*
X169541Y1763154D01*
X169616Y1763236D01*
X169694Y1763314D01*
X169776Y1763389D01*
X169859Y1763462D01*
X169945Y1763532D01*
X170034Y1763599D01*
X170125Y1763662D01*
X170218Y1763723D01*
X170313Y1763780D01*
X170409Y1763833D01*
X170508Y1763884D01*
X170609Y1763931D01*
X170711Y1763974D01*
X170814Y1764014D01*
X170919Y1764050D01*
X171025Y1764082D01*
X171132Y1764111D01*
X171240Y1764136D01*
X171349Y1764157D01*
X171458Y1764174D01*
X171568Y1764188D01*
X171679Y1764197D01*
X171789Y1764203D01*
X171900Y1764205D01*
X172011Y1764203D01*
X172121Y1764197D01*
X172232Y1764188D01*
X172342Y1764174D01*
X172451Y1764157D01*
X172560Y1764136D01*
X172668Y1764111D01*
X172775Y1764082D01*
X172881Y1764050D01*
X172986Y1764014D01*
X173089Y1763974D01*
X173191Y1763931D01*
X173292Y1763884D01*
X173391Y1763833D01*
X173488Y1763780D01*
X173582Y1763723D01*
X173675Y1763662D01*
X173766Y1763599D01*
X173855Y1763532D01*
X173941Y1763462D01*
X174024Y1763389D01*
X174106Y1763314D01*
X174184Y1763236D01*
X174259Y1763154D01*
X174332Y1763071D01*
X174402Y1762985D01*
X174469Y1762896D01*
X174532Y1762805D01*
X174593Y1762712D01*
X174650Y1762618D01*
X174703Y1762521D01*
X174754Y1762422D01*
X174801Y1762321D01*
X174844Y1762219D01*
X174884Y1762116D01*
X174920Y1762011D01*
X174952Y1761905D01*
X174981Y1761798D01*
X175006Y1761690D01*
X175027Y1761581D01*
X175044Y1761472D01*
X175058Y1761362D01*
X175067Y1761251D01*
X175073Y1761141D01*
X175075Y1761030D01*
X180155Y1761665D02*
X180155Y1757855D01*
X180155Y1761665D02*
X180153Y1761765D01*
X180147Y1761864D01*
X180137Y1761964D01*
X180124Y1762062D01*
X180106Y1762161D01*
X180085Y1762258D01*
X180060Y1762354D01*
X180031Y1762450D01*
X179998Y1762544D01*
X179962Y1762637D01*
X179922Y1762728D01*
X179878Y1762818D01*
X179831Y1762906D01*
X179781Y1762992D01*
X179727Y1763076D01*
X179670Y1763158D01*
X179610Y1763237D01*
X179546Y1763315D01*
X179480Y1763389D01*
X179411Y1763461D01*
X179339Y1763530D01*
X179265Y1763596D01*
X179187Y1763660D01*
X179108Y1763720D01*
X179026Y1763777D01*
X178942Y1763831D01*
X178856Y1763881D01*
X178768Y1763928D01*
X178678Y1763972D01*
X178587Y1764012D01*
X178494Y1764048D01*
X178400Y1764081D01*
X178304Y1764110D01*
X178208Y1764135D01*
X178111Y1764156D01*
X178012Y1764174D01*
X177914Y1764187D01*
X177814Y1764197D01*
X177715Y1764203D01*
X177615Y1764205D01*
X177515Y1764203D01*
X177416Y1764197D01*
X177316Y1764187D01*
X177218Y1764174D01*
X177119Y1764156D01*
X177022Y1764135D01*
X176926Y1764110D01*
X176830Y1764081D01*
X176736Y1764048D01*
X176643Y1764012D01*
X176552Y1763972D01*
X176462Y1763928D01*
X176374Y1763881D01*
X176288Y1763831D01*
X176204Y1763777D01*
X176122Y1763720D01*
X176043Y1763660D01*
X175965Y1763596D01*
X175891Y1763530D01*
X175819Y1763461D01*
X175750Y1763389D01*
X175684Y1763315D01*
X175620Y1763237D01*
X175560Y1763158D01*
X175503Y1763076D01*
X175449Y1762992D01*
X175399Y1762906D01*
X175352Y1762818D01*
X175308Y1762728D01*
X175268Y1762637D01*
X175232Y1762544D01*
X175199Y1762450D01*
X175170Y1762354D01*
X175145Y1762258D01*
X175124Y1762161D01*
X175106Y1762062D01*
X175093Y1761964D01*
X175083Y1761864D01*
X175077Y1761765D01*
X175075Y1761665D01*
X175075Y1759125D01*
X171265Y1783255D02*
X180155Y1785795D01*
X171265Y1783255D02*
X171265Y1789605D01*
X173805Y1787700D02*
X168725Y1787700D01*
X168725Y1808655D02*
X168725Y1812465D01*
X168727Y1812565D01*
X168733Y1812664D01*
X168743Y1812764D01*
X168756Y1812862D01*
X168774Y1812961D01*
X168795Y1813058D01*
X168820Y1813154D01*
X168849Y1813250D01*
X168882Y1813344D01*
X168918Y1813437D01*
X168958Y1813528D01*
X169002Y1813618D01*
X169049Y1813706D01*
X169099Y1813792D01*
X169153Y1813876D01*
X169210Y1813958D01*
X169270Y1814037D01*
X169334Y1814115D01*
X169400Y1814189D01*
X169469Y1814261D01*
X169541Y1814330D01*
X169615Y1814396D01*
X169693Y1814460D01*
X169772Y1814520D01*
X169854Y1814577D01*
X169938Y1814631D01*
X170024Y1814681D01*
X170112Y1814728D01*
X170202Y1814772D01*
X170293Y1814812D01*
X170386Y1814848D01*
X170480Y1814881D01*
X170576Y1814910D01*
X170672Y1814935D01*
X170769Y1814956D01*
X170868Y1814974D01*
X170966Y1814987D01*
X171066Y1814997D01*
X171165Y1815003D01*
X171265Y1815005D01*
X172535Y1815005D01*
X172635Y1815003D01*
X172734Y1814997D01*
X172834Y1814987D01*
X172932Y1814974D01*
X173031Y1814956D01*
X173128Y1814935D01*
X173224Y1814910D01*
X173320Y1814881D01*
X173414Y1814848D01*
X173507Y1814812D01*
X173598Y1814772D01*
X173688Y1814728D01*
X173776Y1814681D01*
X173862Y1814631D01*
X173946Y1814577D01*
X174028Y1814520D01*
X174107Y1814460D01*
X174185Y1814396D01*
X174259Y1814330D01*
X174331Y1814261D01*
X174400Y1814189D01*
X174466Y1814115D01*
X174530Y1814037D01*
X174590Y1813958D01*
X174647Y1813876D01*
X174701Y1813792D01*
X174751Y1813706D01*
X174798Y1813618D01*
X174842Y1813528D01*
X174882Y1813437D01*
X174918Y1813344D01*
X174951Y1813250D01*
X174980Y1813154D01*
X175005Y1813058D01*
X175026Y1812961D01*
X175044Y1812862D01*
X175057Y1812764D01*
X175067Y1812664D01*
X175073Y1812565D01*
X175075Y1812465D01*
X175075Y1808655D01*
X180155Y1808655D01*
X180155Y1815005D01*
X175075Y1834055D02*
X175075Y1837865D01*
X175073Y1837965D01*
X175067Y1838064D01*
X175057Y1838164D01*
X175044Y1838262D01*
X175026Y1838361D01*
X175005Y1838458D01*
X174980Y1838554D01*
X174951Y1838650D01*
X174918Y1838744D01*
X174882Y1838837D01*
X174842Y1838928D01*
X174798Y1839018D01*
X174751Y1839106D01*
X174701Y1839192D01*
X174647Y1839276D01*
X174590Y1839358D01*
X174530Y1839437D01*
X174466Y1839515D01*
X174400Y1839589D01*
X174331Y1839661D01*
X174259Y1839730D01*
X174185Y1839796D01*
X174107Y1839860D01*
X174028Y1839920D01*
X173946Y1839977D01*
X173862Y1840031D01*
X173776Y1840081D01*
X173688Y1840128D01*
X173598Y1840172D01*
X173507Y1840212D01*
X173414Y1840248D01*
X173320Y1840281D01*
X173224Y1840310D01*
X173128Y1840335D01*
X173031Y1840356D01*
X172932Y1840374D01*
X172834Y1840387D01*
X172734Y1840397D01*
X172635Y1840403D01*
X172535Y1840405D01*
X171900Y1840405D01*
X171789Y1840403D01*
X171679Y1840397D01*
X171568Y1840388D01*
X171458Y1840374D01*
X171349Y1840357D01*
X171240Y1840336D01*
X171132Y1840311D01*
X171025Y1840282D01*
X170919Y1840250D01*
X170814Y1840214D01*
X170711Y1840174D01*
X170609Y1840131D01*
X170508Y1840084D01*
X170409Y1840033D01*
X170313Y1839980D01*
X170218Y1839923D01*
X170125Y1839862D01*
X170034Y1839799D01*
X169945Y1839732D01*
X169859Y1839662D01*
X169776Y1839589D01*
X169694Y1839514D01*
X169616Y1839436D01*
X169541Y1839354D01*
X169468Y1839271D01*
X169398Y1839185D01*
X169331Y1839096D01*
X169268Y1839005D01*
X169207Y1838912D01*
X169150Y1838818D01*
X169097Y1838721D01*
X169046Y1838622D01*
X168999Y1838521D01*
X168956Y1838419D01*
X168916Y1838316D01*
X168880Y1838211D01*
X168848Y1838105D01*
X168819Y1837998D01*
X168794Y1837890D01*
X168773Y1837781D01*
X168756Y1837672D01*
X168742Y1837562D01*
X168733Y1837451D01*
X168727Y1837341D01*
X168725Y1837230D01*
X168727Y1837119D01*
X168733Y1837009D01*
X168742Y1836898D01*
X168756Y1836788D01*
X168773Y1836679D01*
X168794Y1836570D01*
X168819Y1836462D01*
X168848Y1836355D01*
X168880Y1836249D01*
X168916Y1836144D01*
X168956Y1836041D01*
X168999Y1835939D01*
X169046Y1835838D01*
X169097Y1835739D01*
X169150Y1835643D01*
X169207Y1835548D01*
X169268Y1835455D01*
X169331Y1835364D01*
X169398Y1835275D01*
X169468Y1835189D01*
X169541Y1835106D01*
X169616Y1835024D01*
X169694Y1834946D01*
X169776Y1834871D01*
X169859Y1834798D01*
X169945Y1834728D01*
X170034Y1834661D01*
X170125Y1834598D01*
X170218Y1834537D01*
X170313Y1834480D01*
X170409Y1834427D01*
X170508Y1834376D01*
X170609Y1834329D01*
X170711Y1834286D01*
X170814Y1834246D01*
X170919Y1834210D01*
X171025Y1834178D01*
X171132Y1834149D01*
X171240Y1834124D01*
X171349Y1834103D01*
X171458Y1834086D01*
X171568Y1834072D01*
X171679Y1834063D01*
X171789Y1834057D01*
X171900Y1834055D01*
X175075Y1834055D01*
X175215Y1834057D01*
X175355Y1834063D01*
X175495Y1834072D01*
X175634Y1834086D01*
X175773Y1834103D01*
X175911Y1834124D01*
X176049Y1834149D01*
X176186Y1834178D01*
X176322Y1834210D01*
X176457Y1834247D01*
X176591Y1834287D01*
X176724Y1834330D01*
X176856Y1834378D01*
X176987Y1834428D01*
X177116Y1834483D01*
X177243Y1834541D01*
X177369Y1834602D01*
X177493Y1834667D01*
X177615Y1834736D01*
X177735Y1834807D01*
X177853Y1834882D01*
X177970Y1834960D01*
X178084Y1835042D01*
X178195Y1835126D01*
X178304Y1835214D01*
X178411Y1835304D01*
X178516Y1835398D01*
X178617Y1835494D01*
X178716Y1835593D01*
X178812Y1835694D01*
X178906Y1835799D01*
X178996Y1835906D01*
X179084Y1836015D01*
X179168Y1836126D01*
X179250Y1836240D01*
X179328Y1836357D01*
X179403Y1836475D01*
X179474Y1836595D01*
X179543Y1836717D01*
X179608Y1836841D01*
X179669Y1836967D01*
X179727Y1837094D01*
X179782Y1837223D01*
X179832Y1837354D01*
X179880Y1837486D01*
X179923Y1837619D01*
X179963Y1837753D01*
X180000Y1837888D01*
X180032Y1838024D01*
X180061Y1838161D01*
X180086Y1838299D01*
X180107Y1838437D01*
X180124Y1838576D01*
X180138Y1838715D01*
X180147Y1838855D01*
X180153Y1838995D01*
X180155Y1839135D01*
X243655Y1703245D02*
X252545Y1703245D01*
X243655Y1703245D02*
X243555Y1703243D01*
X243456Y1703237D01*
X243356Y1703227D01*
X243258Y1703214D01*
X243159Y1703196D01*
X243062Y1703175D01*
X242966Y1703150D01*
X242870Y1703121D01*
X242776Y1703088D01*
X242683Y1703052D01*
X242592Y1703012D01*
X242502Y1702968D01*
X242414Y1702921D01*
X242328Y1702871D01*
X242244Y1702817D01*
X242162Y1702760D01*
X242083Y1702700D01*
X242005Y1702636D01*
X241931Y1702570D01*
X241859Y1702501D01*
X241790Y1702429D01*
X241724Y1702355D01*
X241660Y1702277D01*
X241600Y1702198D01*
X241543Y1702116D01*
X241489Y1702032D01*
X241439Y1701946D01*
X241392Y1701858D01*
X241348Y1701768D01*
X241308Y1701677D01*
X241272Y1701584D01*
X241239Y1701490D01*
X241210Y1701394D01*
X241185Y1701298D01*
X241164Y1701201D01*
X241146Y1701102D01*
X241133Y1701004D01*
X241123Y1700904D01*
X241117Y1700805D01*
X241115Y1700705D01*
X241115Y1699435D01*
X241115Y1709225D02*
X252545Y1709225D01*
X252545Y1712400D01*
X252543Y1712511D01*
X252537Y1712621D01*
X252528Y1712732D01*
X252514Y1712842D01*
X252497Y1712951D01*
X252476Y1713060D01*
X252451Y1713168D01*
X252422Y1713275D01*
X252390Y1713381D01*
X252354Y1713486D01*
X252314Y1713589D01*
X252271Y1713691D01*
X252224Y1713792D01*
X252173Y1713891D01*
X252120Y1713988D01*
X252063Y1714082D01*
X252002Y1714175D01*
X251939Y1714266D01*
X251872Y1714355D01*
X251802Y1714441D01*
X251729Y1714524D01*
X251654Y1714606D01*
X251576Y1714684D01*
X251494Y1714759D01*
X251411Y1714832D01*
X251325Y1714902D01*
X251236Y1714969D01*
X251145Y1715032D01*
X251052Y1715093D01*
X250958Y1715150D01*
X250861Y1715203D01*
X250762Y1715254D01*
X250661Y1715301D01*
X250559Y1715344D01*
X250456Y1715384D01*
X250351Y1715420D01*
X250245Y1715452D01*
X250138Y1715481D01*
X250030Y1715506D01*
X249921Y1715527D01*
X249812Y1715544D01*
X249702Y1715558D01*
X249591Y1715567D01*
X249481Y1715573D01*
X249370Y1715575D01*
X249259Y1715573D01*
X249149Y1715567D01*
X249038Y1715558D01*
X248928Y1715544D01*
X248819Y1715527D01*
X248710Y1715506D01*
X248602Y1715481D01*
X248495Y1715452D01*
X248389Y1715420D01*
X248284Y1715384D01*
X248181Y1715344D01*
X248079Y1715301D01*
X247978Y1715254D01*
X247879Y1715203D01*
X247783Y1715150D01*
X247688Y1715093D01*
X247595Y1715032D01*
X247504Y1714969D01*
X247415Y1714902D01*
X247329Y1714832D01*
X247246Y1714759D01*
X247164Y1714684D01*
X247086Y1714606D01*
X247011Y1714524D01*
X246938Y1714441D01*
X246868Y1714355D01*
X246801Y1714266D01*
X246738Y1714175D01*
X246677Y1714082D01*
X246620Y1713988D01*
X246567Y1713891D01*
X246516Y1713792D01*
X246469Y1713691D01*
X246426Y1713589D01*
X246386Y1713486D01*
X246350Y1713381D01*
X246318Y1713275D01*
X246289Y1713168D01*
X246264Y1713060D01*
X246243Y1712951D01*
X246226Y1712842D01*
X246212Y1712732D01*
X246203Y1712621D01*
X246197Y1712511D01*
X246195Y1712400D01*
X246195Y1709225D01*
X246830Y1720084D02*
X247055Y1720087D01*
X247280Y1720095D01*
X247504Y1720108D01*
X247728Y1720127D01*
X247952Y1720151D01*
X248175Y1720180D01*
X248397Y1720215D01*
X248618Y1720255D01*
X248838Y1720301D01*
X249057Y1720351D01*
X249275Y1720407D01*
X249492Y1720468D01*
X249707Y1720534D01*
X249920Y1720605D01*
X250131Y1720682D01*
X250341Y1720763D01*
X250549Y1720849D01*
X250754Y1720940D01*
X250957Y1721036D01*
X250958Y1721036D02*
X251046Y1721068D01*
X251133Y1721104D01*
X251219Y1721143D01*
X251303Y1721186D01*
X251385Y1721232D01*
X251465Y1721281D01*
X251543Y1721333D01*
X251619Y1721389D01*
X251693Y1721447D01*
X251764Y1721509D01*
X251833Y1721573D01*
X251899Y1721640D01*
X251962Y1721709D01*
X252023Y1721781D01*
X252081Y1721855D01*
X252135Y1721932D01*
X252187Y1722010D01*
X252235Y1722091D01*
X252280Y1722173D01*
X252322Y1722258D01*
X252360Y1722344D01*
X252395Y1722431D01*
X252427Y1722519D01*
X252454Y1722609D01*
X252479Y1722700D01*
X252499Y1722792D01*
X252516Y1722884D01*
X252529Y1722978D01*
X252538Y1723071D01*
X252544Y1723165D01*
X252546Y1723259D01*
X252544Y1723353D01*
X252538Y1723447D01*
X252529Y1723540D01*
X252516Y1723634D01*
X252499Y1723726D01*
X252479Y1723818D01*
X252454Y1723909D01*
X252427Y1723999D01*
X252395Y1724087D01*
X252360Y1724174D01*
X252322Y1724260D01*
X252280Y1724345D01*
X252235Y1724427D01*
X252187Y1724508D01*
X252135Y1724586D01*
X252081Y1724663D01*
X252023Y1724737D01*
X251962Y1724809D01*
X251899Y1724878D01*
X251833Y1724945D01*
X251764Y1725009D01*
X251693Y1725071D01*
X251619Y1725129D01*
X251543Y1725185D01*
X251465Y1725237D01*
X251385Y1725286D01*
X251303Y1725332D01*
X251219Y1725375D01*
X251133Y1725414D01*
X251046Y1725450D01*
X250958Y1725482D01*
X250957Y1725482D02*
X250754Y1725578D01*
X250549Y1725669D01*
X250341Y1725755D01*
X250131Y1725836D01*
X249920Y1725913D01*
X249707Y1725984D01*
X249492Y1726050D01*
X249275Y1726111D01*
X249057Y1726167D01*
X248838Y1726217D01*
X248618Y1726263D01*
X248397Y1726303D01*
X248175Y1726338D01*
X247952Y1726367D01*
X247728Y1726391D01*
X247504Y1726410D01*
X247280Y1726423D01*
X247055Y1726431D01*
X246830Y1726434D01*
X246830Y1720084D02*
X246605Y1720087D01*
X246380Y1720095D01*
X246156Y1720108D01*
X245932Y1720127D01*
X245708Y1720151D01*
X245485Y1720180D01*
X245263Y1720215D01*
X245042Y1720255D01*
X244822Y1720301D01*
X244603Y1720351D01*
X244385Y1720407D01*
X244168Y1720468D01*
X243953Y1720534D01*
X243740Y1720605D01*
X243529Y1720682D01*
X243319Y1720763D01*
X243111Y1720849D01*
X242906Y1720940D01*
X242703Y1721036D01*
X242615Y1721068D01*
X242528Y1721104D01*
X242442Y1721143D01*
X242358Y1721186D01*
X242276Y1721232D01*
X242196Y1721281D01*
X242118Y1721333D01*
X242042Y1721389D01*
X241968Y1721447D01*
X241897Y1721509D01*
X241828Y1721573D01*
X241762Y1721640D01*
X241699Y1721709D01*
X241638Y1721781D01*
X241580Y1721855D01*
X241526Y1721932D01*
X241474Y1722010D01*
X241426Y1722091D01*
X241381Y1722173D01*
X241339Y1722258D01*
X241301Y1722344D01*
X241266Y1722431D01*
X241234Y1722519D01*
X241207Y1722609D01*
X241182Y1722700D01*
X241162Y1722792D01*
X241145Y1722884D01*
X241132Y1722978D01*
X241123Y1723071D01*
X241117Y1723165D01*
X241115Y1723259D01*
X242703Y1725482D02*
X242906Y1725578D01*
X243111Y1725669D01*
X243319Y1725755D01*
X243529Y1725836D01*
X243740Y1725913D01*
X243953Y1725984D01*
X244168Y1726050D01*
X244385Y1726111D01*
X244603Y1726167D01*
X244822Y1726217D01*
X245042Y1726263D01*
X245263Y1726303D01*
X245485Y1726338D01*
X245708Y1726367D01*
X245932Y1726391D01*
X246156Y1726410D01*
X246380Y1726423D01*
X246605Y1726431D01*
X246830Y1726434D01*
X242703Y1725482D02*
X242615Y1725450D01*
X242528Y1725414D01*
X242442Y1725375D01*
X242358Y1725332D01*
X242276Y1725286D01*
X242196Y1725237D01*
X242118Y1725185D01*
X242042Y1725129D01*
X241968Y1725071D01*
X241897Y1725009D01*
X241828Y1724945D01*
X241762Y1724878D01*
X241699Y1724809D01*
X241638Y1724737D01*
X241580Y1724663D01*
X241526Y1724586D01*
X241474Y1724508D01*
X241426Y1724427D01*
X241381Y1724345D01*
X241339Y1724260D01*
X241301Y1724174D01*
X241266Y1724087D01*
X241234Y1723999D01*
X241207Y1723909D01*
X241182Y1723818D01*
X241162Y1723726D01*
X241145Y1723634D01*
X241132Y1723540D01*
X241123Y1723447D01*
X241117Y1723353D01*
X241115Y1723259D01*
X243655Y1720719D02*
X250005Y1725799D01*
D10*
X231590Y1458800D02*
X188410Y1458800D01*
X231590Y1484200D02*
X235400Y1480390D01*
X231590Y1484200D02*
X235400Y1488010D01*
X235400Y1505790D01*
X231590Y1509600D01*
X235400Y1513410D01*
X235400Y1531190D01*
X231590Y1535000D01*
X188410Y1535000D02*
X184600Y1531190D01*
X184600Y1513410D01*
X188410Y1509600D01*
X184600Y1505790D01*
X184600Y1488010D01*
X188410Y1484200D01*
X184600Y1480390D01*
X231590Y1535000D02*
X235400Y1538810D01*
X235400Y1556590D01*
X231590Y1560400D01*
X235400Y1564210D01*
X235400Y1581990D01*
X231590Y1585800D01*
X184600Y1538810D02*
X188410Y1535000D01*
X184600Y1538810D02*
X184600Y1556590D01*
X188410Y1560400D02*
X184600Y1564210D01*
X188410Y1560400D02*
X184600Y1556590D01*
X184600Y1564210D02*
X184600Y1581990D01*
X188410Y1585800D01*
X184600Y1462610D02*
X188410Y1458800D01*
X184600Y1462610D02*
X184600Y1480390D01*
X231590Y1458800D02*
X235400Y1462610D01*
X235400Y1480390D01*
X231590Y1611200D02*
X188410Y1611200D01*
X231590Y1585800D02*
X235400Y1589610D01*
X235400Y1607390D01*
X231590Y1611200D01*
X188410Y1611200D02*
X184600Y1607390D01*
X184600Y1589610D01*
X188410Y1585800D01*
D11*
X180155Y1470230D02*
X177615Y1467055D01*
X180155Y1470230D02*
X168725Y1470230D01*
X168725Y1467055D02*
X168725Y1473405D01*
X180156Y1495948D02*
X180154Y1496052D01*
X180148Y1496157D01*
X180139Y1496261D01*
X180126Y1496364D01*
X180108Y1496467D01*
X180088Y1496569D01*
X180063Y1496671D01*
X180035Y1496771D01*
X180003Y1496871D01*
X179967Y1496969D01*
X179928Y1497066D01*
X179886Y1497161D01*
X179840Y1497255D01*
X179790Y1497347D01*
X179738Y1497437D01*
X179682Y1497525D01*
X179622Y1497611D01*
X179560Y1497695D01*
X179495Y1497776D01*
X179427Y1497855D01*
X179355Y1497932D01*
X179282Y1498005D01*
X179205Y1498077D01*
X179126Y1498145D01*
X179045Y1498210D01*
X178961Y1498272D01*
X178875Y1498332D01*
X178787Y1498388D01*
X178697Y1498440D01*
X178605Y1498490D01*
X178511Y1498536D01*
X178416Y1498578D01*
X178319Y1498617D01*
X178221Y1498653D01*
X178121Y1498685D01*
X178021Y1498713D01*
X177919Y1498738D01*
X177817Y1498758D01*
X177714Y1498776D01*
X177611Y1498789D01*
X177507Y1498798D01*
X177402Y1498804D01*
X177298Y1498806D01*
X180155Y1495948D02*
X180153Y1495830D01*
X180147Y1495711D01*
X180138Y1495593D01*
X180125Y1495476D01*
X180107Y1495359D01*
X180087Y1495242D01*
X180062Y1495126D01*
X180034Y1495011D01*
X180001Y1494898D01*
X179966Y1494785D01*
X179926Y1494673D01*
X179884Y1494563D01*
X179837Y1494454D01*
X179787Y1494346D01*
X179734Y1494241D01*
X179677Y1494137D01*
X179617Y1494035D01*
X179554Y1493935D01*
X179487Y1493837D01*
X179418Y1493741D01*
X179345Y1493648D01*
X179269Y1493557D01*
X179191Y1493468D01*
X179109Y1493382D01*
X179025Y1493299D01*
X178939Y1493218D01*
X178849Y1493141D01*
X178758Y1493066D01*
X178664Y1492994D01*
X178567Y1492925D01*
X178469Y1492860D01*
X178368Y1492797D01*
X178265Y1492738D01*
X178161Y1492682D01*
X178055Y1492630D01*
X177947Y1492581D01*
X177838Y1492536D01*
X177727Y1492494D01*
X177615Y1492456D01*
X175076Y1497853D02*
X175151Y1497929D01*
X175230Y1498004D01*
X175311Y1498075D01*
X175395Y1498144D01*
X175481Y1498209D01*
X175569Y1498271D01*
X175659Y1498331D01*
X175751Y1498387D01*
X175846Y1498440D01*
X175942Y1498489D01*
X176040Y1498535D01*
X176139Y1498578D01*
X176240Y1498617D01*
X176342Y1498652D01*
X176445Y1498684D01*
X176549Y1498712D01*
X176654Y1498737D01*
X176761Y1498758D01*
X176867Y1498775D01*
X176974Y1498788D01*
X177082Y1498797D01*
X177190Y1498803D01*
X177298Y1498805D01*
X175075Y1497853D02*
X168725Y1492455D01*
X168725Y1498805D01*
X168725Y1517855D02*
X168725Y1521030D01*
X168727Y1521141D01*
X168733Y1521251D01*
X168742Y1521362D01*
X168756Y1521472D01*
X168773Y1521581D01*
X168794Y1521690D01*
X168819Y1521798D01*
X168848Y1521905D01*
X168880Y1522011D01*
X168916Y1522116D01*
X168956Y1522219D01*
X168999Y1522321D01*
X169046Y1522422D01*
X169097Y1522521D01*
X169150Y1522618D01*
X169207Y1522712D01*
X169268Y1522805D01*
X169331Y1522896D01*
X169398Y1522985D01*
X169468Y1523071D01*
X169541Y1523154D01*
X169616Y1523236D01*
X169694Y1523314D01*
X169776Y1523389D01*
X169859Y1523462D01*
X169945Y1523532D01*
X170034Y1523599D01*
X170125Y1523662D01*
X170218Y1523723D01*
X170313Y1523780D01*
X170409Y1523833D01*
X170508Y1523884D01*
X170609Y1523931D01*
X170711Y1523974D01*
X170814Y1524014D01*
X170919Y1524050D01*
X171025Y1524082D01*
X171132Y1524111D01*
X171240Y1524136D01*
X171349Y1524157D01*
X171458Y1524174D01*
X171568Y1524188D01*
X171679Y1524197D01*
X171789Y1524203D01*
X171900Y1524205D01*
X172011Y1524203D01*
X172121Y1524197D01*
X172232Y1524188D01*
X172342Y1524174D01*
X172451Y1524157D01*
X172560Y1524136D01*
X172668Y1524111D01*
X172775Y1524082D01*
X172881Y1524050D01*
X172986Y1524014D01*
X173089Y1523974D01*
X173191Y1523931D01*
X173292Y1523884D01*
X173391Y1523833D01*
X173488Y1523780D01*
X173582Y1523723D01*
X173675Y1523662D01*
X173766Y1523599D01*
X173855Y1523532D01*
X173941Y1523462D01*
X174024Y1523389D01*
X174106Y1523314D01*
X174184Y1523236D01*
X174259Y1523154D01*
X174332Y1523071D01*
X174402Y1522985D01*
X174469Y1522896D01*
X174532Y1522805D01*
X174593Y1522712D01*
X174650Y1522618D01*
X174703Y1522521D01*
X174754Y1522422D01*
X174801Y1522321D01*
X174844Y1522219D01*
X174884Y1522116D01*
X174920Y1522011D01*
X174952Y1521905D01*
X174981Y1521798D01*
X175006Y1521690D01*
X175027Y1521581D01*
X175044Y1521472D01*
X175058Y1521362D01*
X175067Y1521251D01*
X175073Y1521141D01*
X175075Y1521030D01*
X180155Y1521665D02*
X180155Y1517855D01*
X180155Y1521665D02*
X180153Y1521765D01*
X180147Y1521864D01*
X180137Y1521964D01*
X180124Y1522062D01*
X180106Y1522161D01*
X180085Y1522258D01*
X180060Y1522354D01*
X180031Y1522450D01*
X179998Y1522544D01*
X179962Y1522637D01*
X179922Y1522728D01*
X179878Y1522818D01*
X179831Y1522906D01*
X179781Y1522992D01*
X179727Y1523076D01*
X179670Y1523158D01*
X179610Y1523237D01*
X179546Y1523315D01*
X179480Y1523389D01*
X179411Y1523461D01*
X179339Y1523530D01*
X179265Y1523596D01*
X179187Y1523660D01*
X179108Y1523720D01*
X179026Y1523777D01*
X178942Y1523831D01*
X178856Y1523881D01*
X178768Y1523928D01*
X178678Y1523972D01*
X178587Y1524012D01*
X178494Y1524048D01*
X178400Y1524081D01*
X178304Y1524110D01*
X178208Y1524135D01*
X178111Y1524156D01*
X178012Y1524174D01*
X177914Y1524187D01*
X177814Y1524197D01*
X177715Y1524203D01*
X177615Y1524205D01*
X177515Y1524203D01*
X177416Y1524197D01*
X177316Y1524187D01*
X177218Y1524174D01*
X177119Y1524156D01*
X177022Y1524135D01*
X176926Y1524110D01*
X176830Y1524081D01*
X176736Y1524048D01*
X176643Y1524012D01*
X176552Y1523972D01*
X176462Y1523928D01*
X176374Y1523881D01*
X176288Y1523831D01*
X176204Y1523777D01*
X176122Y1523720D01*
X176043Y1523660D01*
X175965Y1523596D01*
X175891Y1523530D01*
X175819Y1523461D01*
X175750Y1523389D01*
X175684Y1523315D01*
X175620Y1523237D01*
X175560Y1523158D01*
X175503Y1523076D01*
X175449Y1522992D01*
X175399Y1522906D01*
X175352Y1522818D01*
X175308Y1522728D01*
X175268Y1522637D01*
X175232Y1522544D01*
X175199Y1522450D01*
X175170Y1522354D01*
X175145Y1522258D01*
X175124Y1522161D01*
X175106Y1522062D01*
X175093Y1521964D01*
X175083Y1521864D01*
X175077Y1521765D01*
X175075Y1521665D01*
X175075Y1519125D01*
X171265Y1543255D02*
X180155Y1545795D01*
X171265Y1543255D02*
X171265Y1549605D01*
X173805Y1547700D02*
X168725Y1547700D01*
X168725Y1568655D02*
X168725Y1572465D01*
X168727Y1572565D01*
X168733Y1572664D01*
X168743Y1572764D01*
X168756Y1572862D01*
X168774Y1572961D01*
X168795Y1573058D01*
X168820Y1573154D01*
X168849Y1573250D01*
X168882Y1573344D01*
X168918Y1573437D01*
X168958Y1573528D01*
X169002Y1573618D01*
X169049Y1573706D01*
X169099Y1573792D01*
X169153Y1573876D01*
X169210Y1573958D01*
X169270Y1574037D01*
X169334Y1574115D01*
X169400Y1574189D01*
X169469Y1574261D01*
X169541Y1574330D01*
X169615Y1574396D01*
X169693Y1574460D01*
X169772Y1574520D01*
X169854Y1574577D01*
X169938Y1574631D01*
X170024Y1574681D01*
X170112Y1574728D01*
X170202Y1574772D01*
X170293Y1574812D01*
X170386Y1574848D01*
X170480Y1574881D01*
X170576Y1574910D01*
X170672Y1574935D01*
X170769Y1574956D01*
X170868Y1574974D01*
X170966Y1574987D01*
X171066Y1574997D01*
X171165Y1575003D01*
X171265Y1575005D01*
X172535Y1575005D01*
X172635Y1575003D01*
X172734Y1574997D01*
X172834Y1574987D01*
X172932Y1574974D01*
X173031Y1574956D01*
X173128Y1574935D01*
X173224Y1574910D01*
X173320Y1574881D01*
X173414Y1574848D01*
X173507Y1574812D01*
X173598Y1574772D01*
X173688Y1574728D01*
X173776Y1574681D01*
X173862Y1574631D01*
X173946Y1574577D01*
X174028Y1574520D01*
X174107Y1574460D01*
X174185Y1574396D01*
X174259Y1574330D01*
X174331Y1574261D01*
X174400Y1574189D01*
X174466Y1574115D01*
X174530Y1574037D01*
X174590Y1573958D01*
X174647Y1573876D01*
X174701Y1573792D01*
X174751Y1573706D01*
X174798Y1573618D01*
X174842Y1573528D01*
X174882Y1573437D01*
X174918Y1573344D01*
X174951Y1573250D01*
X174980Y1573154D01*
X175005Y1573058D01*
X175026Y1572961D01*
X175044Y1572862D01*
X175057Y1572764D01*
X175067Y1572664D01*
X175073Y1572565D01*
X175075Y1572465D01*
X175075Y1568655D01*
X180155Y1568655D01*
X180155Y1575005D01*
X175075Y1594055D02*
X175075Y1597865D01*
X175073Y1597965D01*
X175067Y1598064D01*
X175057Y1598164D01*
X175044Y1598262D01*
X175026Y1598361D01*
X175005Y1598458D01*
X174980Y1598554D01*
X174951Y1598650D01*
X174918Y1598744D01*
X174882Y1598837D01*
X174842Y1598928D01*
X174798Y1599018D01*
X174751Y1599106D01*
X174701Y1599192D01*
X174647Y1599276D01*
X174590Y1599358D01*
X174530Y1599437D01*
X174466Y1599515D01*
X174400Y1599589D01*
X174331Y1599661D01*
X174259Y1599730D01*
X174185Y1599796D01*
X174107Y1599860D01*
X174028Y1599920D01*
X173946Y1599977D01*
X173862Y1600031D01*
X173776Y1600081D01*
X173688Y1600128D01*
X173598Y1600172D01*
X173507Y1600212D01*
X173414Y1600248D01*
X173320Y1600281D01*
X173224Y1600310D01*
X173128Y1600335D01*
X173031Y1600356D01*
X172932Y1600374D01*
X172834Y1600387D01*
X172734Y1600397D01*
X172635Y1600403D01*
X172535Y1600405D01*
X171900Y1600405D01*
X171789Y1600403D01*
X171679Y1600397D01*
X171568Y1600388D01*
X171458Y1600374D01*
X171349Y1600357D01*
X171240Y1600336D01*
X171132Y1600311D01*
X171025Y1600282D01*
X170919Y1600250D01*
X170814Y1600214D01*
X170711Y1600174D01*
X170609Y1600131D01*
X170508Y1600084D01*
X170409Y1600033D01*
X170313Y1599980D01*
X170218Y1599923D01*
X170125Y1599862D01*
X170034Y1599799D01*
X169945Y1599732D01*
X169859Y1599662D01*
X169776Y1599589D01*
X169694Y1599514D01*
X169616Y1599436D01*
X169541Y1599354D01*
X169468Y1599271D01*
X169398Y1599185D01*
X169331Y1599096D01*
X169268Y1599005D01*
X169207Y1598912D01*
X169150Y1598818D01*
X169097Y1598721D01*
X169046Y1598622D01*
X168999Y1598521D01*
X168956Y1598419D01*
X168916Y1598316D01*
X168880Y1598211D01*
X168848Y1598105D01*
X168819Y1597998D01*
X168794Y1597890D01*
X168773Y1597781D01*
X168756Y1597672D01*
X168742Y1597562D01*
X168733Y1597451D01*
X168727Y1597341D01*
X168725Y1597230D01*
X168727Y1597119D01*
X168733Y1597009D01*
X168742Y1596898D01*
X168756Y1596788D01*
X168773Y1596679D01*
X168794Y1596570D01*
X168819Y1596462D01*
X168848Y1596355D01*
X168880Y1596249D01*
X168916Y1596144D01*
X168956Y1596041D01*
X168999Y1595939D01*
X169046Y1595838D01*
X169097Y1595739D01*
X169150Y1595643D01*
X169207Y1595548D01*
X169268Y1595455D01*
X169331Y1595364D01*
X169398Y1595275D01*
X169468Y1595189D01*
X169541Y1595106D01*
X169616Y1595024D01*
X169694Y1594946D01*
X169776Y1594871D01*
X169859Y1594798D01*
X169945Y1594728D01*
X170034Y1594661D01*
X170125Y1594598D01*
X170218Y1594537D01*
X170313Y1594480D01*
X170409Y1594427D01*
X170508Y1594376D01*
X170609Y1594329D01*
X170711Y1594286D01*
X170814Y1594246D01*
X170919Y1594210D01*
X171025Y1594178D01*
X171132Y1594149D01*
X171240Y1594124D01*
X171349Y1594103D01*
X171458Y1594086D01*
X171568Y1594072D01*
X171679Y1594063D01*
X171789Y1594057D01*
X171900Y1594055D01*
X175075Y1594055D01*
X175215Y1594057D01*
X175355Y1594063D01*
X175495Y1594072D01*
X175634Y1594086D01*
X175773Y1594103D01*
X175911Y1594124D01*
X176049Y1594149D01*
X176186Y1594178D01*
X176322Y1594210D01*
X176457Y1594247D01*
X176591Y1594287D01*
X176724Y1594330D01*
X176856Y1594378D01*
X176987Y1594428D01*
X177116Y1594483D01*
X177243Y1594541D01*
X177369Y1594602D01*
X177493Y1594667D01*
X177615Y1594736D01*
X177735Y1594807D01*
X177853Y1594882D01*
X177970Y1594960D01*
X178084Y1595042D01*
X178195Y1595126D01*
X178304Y1595214D01*
X178411Y1595304D01*
X178516Y1595398D01*
X178617Y1595494D01*
X178716Y1595593D01*
X178812Y1595694D01*
X178906Y1595799D01*
X178996Y1595906D01*
X179084Y1596015D01*
X179168Y1596126D01*
X179250Y1596240D01*
X179328Y1596357D01*
X179403Y1596475D01*
X179474Y1596595D01*
X179543Y1596717D01*
X179608Y1596841D01*
X179669Y1596967D01*
X179727Y1597094D01*
X179782Y1597223D01*
X179832Y1597354D01*
X179880Y1597486D01*
X179923Y1597619D01*
X179963Y1597753D01*
X180000Y1597888D01*
X180032Y1598024D01*
X180061Y1598161D01*
X180086Y1598299D01*
X180107Y1598437D01*
X180124Y1598576D01*
X180138Y1598715D01*
X180147Y1598855D01*
X180153Y1598995D01*
X180155Y1599135D01*
X243655Y1463245D02*
X252545Y1463245D01*
X243655Y1463245D02*
X243555Y1463243D01*
X243456Y1463237D01*
X243356Y1463227D01*
X243258Y1463214D01*
X243159Y1463196D01*
X243062Y1463175D01*
X242966Y1463150D01*
X242870Y1463121D01*
X242776Y1463088D01*
X242683Y1463052D01*
X242592Y1463012D01*
X242502Y1462968D01*
X242414Y1462921D01*
X242328Y1462871D01*
X242244Y1462817D01*
X242162Y1462760D01*
X242083Y1462700D01*
X242005Y1462636D01*
X241931Y1462570D01*
X241859Y1462501D01*
X241790Y1462429D01*
X241724Y1462355D01*
X241660Y1462277D01*
X241600Y1462198D01*
X241543Y1462116D01*
X241489Y1462032D01*
X241439Y1461946D01*
X241392Y1461858D01*
X241348Y1461768D01*
X241308Y1461677D01*
X241272Y1461584D01*
X241239Y1461490D01*
X241210Y1461394D01*
X241185Y1461298D01*
X241164Y1461201D01*
X241146Y1461102D01*
X241133Y1461004D01*
X241123Y1460904D01*
X241117Y1460805D01*
X241115Y1460705D01*
X241115Y1459435D01*
X241115Y1469225D02*
X252545Y1469225D01*
X252545Y1472400D01*
X252543Y1472511D01*
X252537Y1472621D01*
X252528Y1472732D01*
X252514Y1472842D01*
X252497Y1472951D01*
X252476Y1473060D01*
X252451Y1473168D01*
X252422Y1473275D01*
X252390Y1473381D01*
X252354Y1473486D01*
X252314Y1473589D01*
X252271Y1473691D01*
X252224Y1473792D01*
X252173Y1473891D01*
X252120Y1473988D01*
X252063Y1474082D01*
X252002Y1474175D01*
X251939Y1474266D01*
X251872Y1474355D01*
X251802Y1474441D01*
X251729Y1474524D01*
X251654Y1474606D01*
X251576Y1474684D01*
X251494Y1474759D01*
X251411Y1474832D01*
X251325Y1474902D01*
X251236Y1474969D01*
X251145Y1475032D01*
X251052Y1475093D01*
X250958Y1475150D01*
X250861Y1475203D01*
X250762Y1475254D01*
X250661Y1475301D01*
X250559Y1475344D01*
X250456Y1475384D01*
X250351Y1475420D01*
X250245Y1475452D01*
X250138Y1475481D01*
X250030Y1475506D01*
X249921Y1475527D01*
X249812Y1475544D01*
X249702Y1475558D01*
X249591Y1475567D01*
X249481Y1475573D01*
X249370Y1475575D01*
X249259Y1475573D01*
X249149Y1475567D01*
X249038Y1475558D01*
X248928Y1475544D01*
X248819Y1475527D01*
X248710Y1475506D01*
X248602Y1475481D01*
X248495Y1475452D01*
X248389Y1475420D01*
X248284Y1475384D01*
X248181Y1475344D01*
X248079Y1475301D01*
X247978Y1475254D01*
X247879Y1475203D01*
X247783Y1475150D01*
X247688Y1475093D01*
X247595Y1475032D01*
X247504Y1474969D01*
X247415Y1474902D01*
X247329Y1474832D01*
X247246Y1474759D01*
X247164Y1474684D01*
X247086Y1474606D01*
X247011Y1474524D01*
X246938Y1474441D01*
X246868Y1474355D01*
X246801Y1474266D01*
X246738Y1474175D01*
X246677Y1474082D01*
X246620Y1473988D01*
X246567Y1473891D01*
X246516Y1473792D01*
X246469Y1473691D01*
X246426Y1473589D01*
X246386Y1473486D01*
X246350Y1473381D01*
X246318Y1473275D01*
X246289Y1473168D01*
X246264Y1473060D01*
X246243Y1472951D01*
X246226Y1472842D01*
X246212Y1472732D01*
X246203Y1472621D01*
X246197Y1472511D01*
X246195Y1472400D01*
X246195Y1469225D01*
X250005Y1480084D02*
X252545Y1483259D01*
X241115Y1483259D01*
X241115Y1480084D02*
X241115Y1486434D01*
D10*
X231590Y1218800D02*
X188410Y1218800D01*
X231590Y1244200D02*
X235400Y1240390D01*
X231590Y1244200D02*
X235400Y1248010D01*
X235400Y1265790D01*
X231590Y1269600D01*
X235400Y1273410D01*
X235400Y1291190D01*
X231590Y1295000D01*
X188410Y1295000D02*
X184600Y1291190D01*
X184600Y1273410D01*
X188410Y1269600D01*
X184600Y1265790D01*
X184600Y1248010D01*
X188410Y1244200D01*
X184600Y1240390D01*
X231590Y1295000D02*
X235400Y1298810D01*
X235400Y1316590D01*
X231590Y1320400D01*
X235400Y1324210D01*
X235400Y1341990D01*
X231590Y1345800D01*
X184600Y1298810D02*
X188410Y1295000D01*
X184600Y1298810D02*
X184600Y1316590D01*
X188410Y1320400D02*
X184600Y1324210D01*
X188410Y1320400D02*
X184600Y1316590D01*
X184600Y1324210D02*
X184600Y1341990D01*
X188410Y1345800D01*
X184600Y1222610D02*
X188410Y1218800D01*
X184600Y1222610D02*
X184600Y1240390D01*
X231590Y1218800D02*
X235400Y1222610D01*
X235400Y1240390D01*
X231590Y1371200D02*
X188410Y1371200D01*
X231590Y1345800D02*
X235400Y1349610D01*
X235400Y1367390D01*
X231590Y1371200D01*
X188410Y1371200D02*
X184600Y1367390D01*
X184600Y1349610D01*
X188410Y1345800D01*
D11*
X180155Y1230230D02*
X177615Y1227055D01*
X180155Y1230230D02*
X168725Y1230230D01*
X168725Y1227055D02*
X168725Y1233405D01*
X180156Y1255948D02*
X180154Y1256052D01*
X180148Y1256157D01*
X180139Y1256261D01*
X180126Y1256364D01*
X180108Y1256467D01*
X180088Y1256569D01*
X180063Y1256671D01*
X180035Y1256771D01*
X180003Y1256871D01*
X179967Y1256969D01*
X179928Y1257066D01*
X179886Y1257161D01*
X179840Y1257255D01*
X179790Y1257347D01*
X179738Y1257437D01*
X179682Y1257525D01*
X179622Y1257611D01*
X179560Y1257695D01*
X179495Y1257776D01*
X179427Y1257855D01*
X179355Y1257932D01*
X179282Y1258005D01*
X179205Y1258077D01*
X179126Y1258145D01*
X179045Y1258210D01*
X178961Y1258272D01*
X178875Y1258332D01*
X178787Y1258388D01*
X178697Y1258440D01*
X178605Y1258490D01*
X178511Y1258536D01*
X178416Y1258578D01*
X178319Y1258617D01*
X178221Y1258653D01*
X178121Y1258685D01*
X178021Y1258713D01*
X177919Y1258738D01*
X177817Y1258758D01*
X177714Y1258776D01*
X177611Y1258789D01*
X177507Y1258798D01*
X177402Y1258804D01*
X177298Y1258806D01*
X180155Y1255948D02*
X180153Y1255830D01*
X180147Y1255711D01*
X180138Y1255593D01*
X180125Y1255476D01*
X180107Y1255359D01*
X180087Y1255242D01*
X180062Y1255126D01*
X180034Y1255011D01*
X180001Y1254898D01*
X179966Y1254785D01*
X179926Y1254673D01*
X179884Y1254563D01*
X179837Y1254454D01*
X179787Y1254346D01*
X179734Y1254241D01*
X179677Y1254137D01*
X179617Y1254035D01*
X179554Y1253935D01*
X179487Y1253837D01*
X179418Y1253741D01*
X179345Y1253648D01*
X179269Y1253557D01*
X179191Y1253468D01*
X179109Y1253382D01*
X179025Y1253299D01*
X178939Y1253218D01*
X178849Y1253141D01*
X178758Y1253066D01*
X178664Y1252994D01*
X178567Y1252925D01*
X178469Y1252860D01*
X178368Y1252797D01*
X178265Y1252738D01*
X178161Y1252682D01*
X178055Y1252630D01*
X177947Y1252581D01*
X177838Y1252536D01*
X177727Y1252494D01*
X177615Y1252456D01*
X175076Y1257853D02*
X175151Y1257929D01*
X175230Y1258004D01*
X175311Y1258075D01*
X175395Y1258144D01*
X175481Y1258209D01*
X175569Y1258271D01*
X175659Y1258331D01*
X175751Y1258387D01*
X175846Y1258440D01*
X175942Y1258489D01*
X176040Y1258535D01*
X176139Y1258578D01*
X176240Y1258617D01*
X176342Y1258652D01*
X176445Y1258684D01*
X176549Y1258712D01*
X176654Y1258737D01*
X176761Y1258758D01*
X176867Y1258775D01*
X176974Y1258788D01*
X177082Y1258797D01*
X177190Y1258803D01*
X177298Y1258805D01*
X175075Y1257853D02*
X168725Y1252455D01*
X168725Y1258805D01*
X168725Y1277855D02*
X168725Y1281030D01*
X168727Y1281141D01*
X168733Y1281251D01*
X168742Y1281362D01*
X168756Y1281472D01*
X168773Y1281581D01*
X168794Y1281690D01*
X168819Y1281798D01*
X168848Y1281905D01*
X168880Y1282011D01*
X168916Y1282116D01*
X168956Y1282219D01*
X168999Y1282321D01*
X169046Y1282422D01*
X169097Y1282521D01*
X169150Y1282618D01*
X169207Y1282712D01*
X169268Y1282805D01*
X169331Y1282896D01*
X169398Y1282985D01*
X169468Y1283071D01*
X169541Y1283154D01*
X169616Y1283236D01*
X169694Y1283314D01*
X169776Y1283389D01*
X169859Y1283462D01*
X169945Y1283532D01*
X170034Y1283599D01*
X170125Y1283662D01*
X170218Y1283723D01*
X170313Y1283780D01*
X170409Y1283833D01*
X170508Y1283884D01*
X170609Y1283931D01*
X170711Y1283974D01*
X170814Y1284014D01*
X170919Y1284050D01*
X171025Y1284082D01*
X171132Y1284111D01*
X171240Y1284136D01*
X171349Y1284157D01*
X171458Y1284174D01*
X171568Y1284188D01*
X171679Y1284197D01*
X171789Y1284203D01*
X171900Y1284205D01*
X172011Y1284203D01*
X172121Y1284197D01*
X172232Y1284188D01*
X172342Y1284174D01*
X172451Y1284157D01*
X172560Y1284136D01*
X172668Y1284111D01*
X172775Y1284082D01*
X172881Y1284050D01*
X172986Y1284014D01*
X173089Y1283974D01*
X173191Y1283931D01*
X173292Y1283884D01*
X173391Y1283833D01*
X173488Y1283780D01*
X173582Y1283723D01*
X173675Y1283662D01*
X173766Y1283599D01*
X173855Y1283532D01*
X173941Y1283462D01*
X174024Y1283389D01*
X174106Y1283314D01*
X174184Y1283236D01*
X174259Y1283154D01*
X174332Y1283071D01*
X174402Y1282985D01*
X174469Y1282896D01*
X174532Y1282805D01*
X174593Y1282712D01*
X174650Y1282618D01*
X174703Y1282521D01*
X174754Y1282422D01*
X174801Y1282321D01*
X174844Y1282219D01*
X174884Y1282116D01*
X174920Y1282011D01*
X174952Y1281905D01*
X174981Y1281798D01*
X175006Y1281690D01*
X175027Y1281581D01*
X175044Y1281472D01*
X175058Y1281362D01*
X175067Y1281251D01*
X175073Y1281141D01*
X175075Y1281030D01*
X180155Y1281665D02*
X180155Y1277855D01*
X180155Y1281665D02*
X180153Y1281765D01*
X180147Y1281864D01*
X180137Y1281964D01*
X180124Y1282062D01*
X180106Y1282161D01*
X180085Y1282258D01*
X180060Y1282354D01*
X180031Y1282450D01*
X179998Y1282544D01*
X179962Y1282637D01*
X179922Y1282728D01*
X179878Y1282818D01*
X179831Y1282906D01*
X179781Y1282992D01*
X179727Y1283076D01*
X179670Y1283158D01*
X179610Y1283237D01*
X179546Y1283315D01*
X179480Y1283389D01*
X179411Y1283461D01*
X179339Y1283530D01*
X179265Y1283596D01*
X179187Y1283660D01*
X179108Y1283720D01*
X179026Y1283777D01*
X178942Y1283831D01*
X178856Y1283881D01*
X178768Y1283928D01*
X178678Y1283972D01*
X178587Y1284012D01*
X178494Y1284048D01*
X178400Y1284081D01*
X178304Y1284110D01*
X178208Y1284135D01*
X178111Y1284156D01*
X178012Y1284174D01*
X177914Y1284187D01*
X177814Y1284197D01*
X177715Y1284203D01*
X177615Y1284205D01*
X177515Y1284203D01*
X177416Y1284197D01*
X177316Y1284187D01*
X177218Y1284174D01*
X177119Y1284156D01*
X177022Y1284135D01*
X176926Y1284110D01*
X176830Y1284081D01*
X176736Y1284048D01*
X176643Y1284012D01*
X176552Y1283972D01*
X176462Y1283928D01*
X176374Y1283881D01*
X176288Y1283831D01*
X176204Y1283777D01*
X176122Y1283720D01*
X176043Y1283660D01*
X175965Y1283596D01*
X175891Y1283530D01*
X175819Y1283461D01*
X175750Y1283389D01*
X175684Y1283315D01*
X175620Y1283237D01*
X175560Y1283158D01*
X175503Y1283076D01*
X175449Y1282992D01*
X175399Y1282906D01*
X175352Y1282818D01*
X175308Y1282728D01*
X175268Y1282637D01*
X175232Y1282544D01*
X175199Y1282450D01*
X175170Y1282354D01*
X175145Y1282258D01*
X175124Y1282161D01*
X175106Y1282062D01*
X175093Y1281964D01*
X175083Y1281864D01*
X175077Y1281765D01*
X175075Y1281665D01*
X175075Y1279125D01*
X171265Y1303255D02*
X180155Y1305795D01*
X171265Y1303255D02*
X171265Y1309605D01*
X173805Y1307700D02*
X168725Y1307700D01*
X168725Y1328655D02*
X168725Y1332465D01*
X168727Y1332565D01*
X168733Y1332664D01*
X168743Y1332764D01*
X168756Y1332862D01*
X168774Y1332961D01*
X168795Y1333058D01*
X168820Y1333154D01*
X168849Y1333250D01*
X168882Y1333344D01*
X168918Y1333437D01*
X168958Y1333528D01*
X169002Y1333618D01*
X169049Y1333706D01*
X169099Y1333792D01*
X169153Y1333876D01*
X169210Y1333958D01*
X169270Y1334037D01*
X169334Y1334115D01*
X169400Y1334189D01*
X169469Y1334261D01*
X169541Y1334330D01*
X169615Y1334396D01*
X169693Y1334460D01*
X169772Y1334520D01*
X169854Y1334577D01*
X169938Y1334631D01*
X170024Y1334681D01*
X170112Y1334728D01*
X170202Y1334772D01*
X170293Y1334812D01*
X170386Y1334848D01*
X170480Y1334881D01*
X170576Y1334910D01*
X170672Y1334935D01*
X170769Y1334956D01*
X170868Y1334974D01*
X170966Y1334987D01*
X171066Y1334997D01*
X171165Y1335003D01*
X171265Y1335005D01*
X172535Y1335005D01*
X172635Y1335003D01*
X172734Y1334997D01*
X172834Y1334987D01*
X172932Y1334974D01*
X173031Y1334956D01*
X173128Y1334935D01*
X173224Y1334910D01*
X173320Y1334881D01*
X173414Y1334848D01*
X173507Y1334812D01*
X173598Y1334772D01*
X173688Y1334728D01*
X173776Y1334681D01*
X173862Y1334631D01*
X173946Y1334577D01*
X174028Y1334520D01*
X174107Y1334460D01*
X174185Y1334396D01*
X174259Y1334330D01*
X174331Y1334261D01*
X174400Y1334189D01*
X174466Y1334115D01*
X174530Y1334037D01*
X174590Y1333958D01*
X174647Y1333876D01*
X174701Y1333792D01*
X174751Y1333706D01*
X174798Y1333618D01*
X174842Y1333528D01*
X174882Y1333437D01*
X174918Y1333344D01*
X174951Y1333250D01*
X174980Y1333154D01*
X175005Y1333058D01*
X175026Y1332961D01*
X175044Y1332862D01*
X175057Y1332764D01*
X175067Y1332664D01*
X175073Y1332565D01*
X175075Y1332465D01*
X175075Y1328655D01*
X180155Y1328655D01*
X180155Y1335005D01*
X175075Y1354055D02*
X175075Y1357865D01*
X175073Y1357965D01*
X175067Y1358064D01*
X175057Y1358164D01*
X175044Y1358262D01*
X175026Y1358361D01*
X175005Y1358458D01*
X174980Y1358554D01*
X174951Y1358650D01*
X174918Y1358744D01*
X174882Y1358837D01*
X174842Y1358928D01*
X174798Y1359018D01*
X174751Y1359106D01*
X174701Y1359192D01*
X174647Y1359276D01*
X174590Y1359358D01*
X174530Y1359437D01*
X174466Y1359515D01*
X174400Y1359589D01*
X174331Y1359661D01*
X174259Y1359730D01*
X174185Y1359796D01*
X174107Y1359860D01*
X174028Y1359920D01*
X173946Y1359977D01*
X173862Y1360031D01*
X173776Y1360081D01*
X173688Y1360128D01*
X173598Y1360172D01*
X173507Y1360212D01*
X173414Y1360248D01*
X173320Y1360281D01*
X173224Y1360310D01*
X173128Y1360335D01*
X173031Y1360356D01*
X172932Y1360374D01*
X172834Y1360387D01*
X172734Y1360397D01*
X172635Y1360403D01*
X172535Y1360405D01*
X171900Y1360405D01*
X171789Y1360403D01*
X171679Y1360397D01*
X171568Y1360388D01*
X171458Y1360374D01*
X171349Y1360357D01*
X171240Y1360336D01*
X171132Y1360311D01*
X171025Y1360282D01*
X170919Y1360250D01*
X170814Y1360214D01*
X170711Y1360174D01*
X170609Y1360131D01*
X170508Y1360084D01*
X170409Y1360033D01*
X170313Y1359980D01*
X170218Y1359923D01*
X170125Y1359862D01*
X170034Y1359799D01*
X169945Y1359732D01*
X169859Y1359662D01*
X169776Y1359589D01*
X169694Y1359514D01*
X169616Y1359436D01*
X169541Y1359354D01*
X169468Y1359271D01*
X169398Y1359185D01*
X169331Y1359096D01*
X169268Y1359005D01*
X169207Y1358912D01*
X169150Y1358818D01*
X169097Y1358721D01*
X169046Y1358622D01*
X168999Y1358521D01*
X168956Y1358419D01*
X168916Y1358316D01*
X168880Y1358211D01*
X168848Y1358105D01*
X168819Y1357998D01*
X168794Y1357890D01*
X168773Y1357781D01*
X168756Y1357672D01*
X168742Y1357562D01*
X168733Y1357451D01*
X168727Y1357341D01*
X168725Y1357230D01*
X168727Y1357119D01*
X168733Y1357009D01*
X168742Y1356898D01*
X168756Y1356788D01*
X168773Y1356679D01*
X168794Y1356570D01*
X168819Y1356462D01*
X168848Y1356355D01*
X168880Y1356249D01*
X168916Y1356144D01*
X168956Y1356041D01*
X168999Y1355939D01*
X169046Y1355838D01*
X169097Y1355739D01*
X169150Y1355643D01*
X169207Y1355548D01*
X169268Y1355455D01*
X169331Y1355364D01*
X169398Y1355275D01*
X169468Y1355189D01*
X169541Y1355106D01*
X169616Y1355024D01*
X169694Y1354946D01*
X169776Y1354871D01*
X169859Y1354798D01*
X169945Y1354728D01*
X170034Y1354661D01*
X170125Y1354598D01*
X170218Y1354537D01*
X170313Y1354480D01*
X170409Y1354427D01*
X170508Y1354376D01*
X170609Y1354329D01*
X170711Y1354286D01*
X170814Y1354246D01*
X170919Y1354210D01*
X171025Y1354178D01*
X171132Y1354149D01*
X171240Y1354124D01*
X171349Y1354103D01*
X171458Y1354086D01*
X171568Y1354072D01*
X171679Y1354063D01*
X171789Y1354057D01*
X171900Y1354055D01*
X175075Y1354055D01*
X175215Y1354057D01*
X175355Y1354063D01*
X175495Y1354072D01*
X175634Y1354086D01*
X175773Y1354103D01*
X175911Y1354124D01*
X176049Y1354149D01*
X176186Y1354178D01*
X176322Y1354210D01*
X176457Y1354247D01*
X176591Y1354287D01*
X176724Y1354330D01*
X176856Y1354378D01*
X176987Y1354428D01*
X177116Y1354483D01*
X177243Y1354541D01*
X177369Y1354602D01*
X177493Y1354667D01*
X177615Y1354736D01*
X177735Y1354807D01*
X177853Y1354882D01*
X177970Y1354960D01*
X178084Y1355042D01*
X178195Y1355126D01*
X178304Y1355214D01*
X178411Y1355304D01*
X178516Y1355398D01*
X178617Y1355494D01*
X178716Y1355593D01*
X178812Y1355694D01*
X178906Y1355799D01*
X178996Y1355906D01*
X179084Y1356015D01*
X179168Y1356126D01*
X179250Y1356240D01*
X179328Y1356357D01*
X179403Y1356475D01*
X179474Y1356595D01*
X179543Y1356717D01*
X179608Y1356841D01*
X179669Y1356967D01*
X179727Y1357094D01*
X179782Y1357223D01*
X179832Y1357354D01*
X179880Y1357486D01*
X179923Y1357619D01*
X179963Y1357753D01*
X180000Y1357888D01*
X180032Y1358024D01*
X180061Y1358161D01*
X180086Y1358299D01*
X180107Y1358437D01*
X180124Y1358576D01*
X180138Y1358715D01*
X180147Y1358855D01*
X180153Y1358995D01*
X180155Y1359135D01*
X243655Y1223245D02*
X252545Y1223245D01*
X243655Y1223245D02*
X243555Y1223243D01*
X243456Y1223237D01*
X243356Y1223227D01*
X243258Y1223214D01*
X243159Y1223196D01*
X243062Y1223175D01*
X242966Y1223150D01*
X242870Y1223121D01*
X242776Y1223088D01*
X242683Y1223052D01*
X242592Y1223012D01*
X242502Y1222968D01*
X242414Y1222921D01*
X242328Y1222871D01*
X242244Y1222817D01*
X242162Y1222760D01*
X242083Y1222700D01*
X242005Y1222636D01*
X241931Y1222570D01*
X241859Y1222501D01*
X241790Y1222429D01*
X241724Y1222355D01*
X241660Y1222277D01*
X241600Y1222198D01*
X241543Y1222116D01*
X241489Y1222032D01*
X241439Y1221946D01*
X241392Y1221858D01*
X241348Y1221768D01*
X241308Y1221677D01*
X241272Y1221584D01*
X241239Y1221490D01*
X241210Y1221394D01*
X241185Y1221298D01*
X241164Y1221201D01*
X241146Y1221102D01*
X241133Y1221004D01*
X241123Y1220904D01*
X241117Y1220805D01*
X241115Y1220705D01*
X241115Y1219435D01*
X241115Y1229225D02*
X252545Y1229225D01*
X252545Y1232400D01*
X252543Y1232511D01*
X252537Y1232621D01*
X252528Y1232732D01*
X252514Y1232842D01*
X252497Y1232951D01*
X252476Y1233060D01*
X252451Y1233168D01*
X252422Y1233275D01*
X252390Y1233381D01*
X252354Y1233486D01*
X252314Y1233589D01*
X252271Y1233691D01*
X252224Y1233792D01*
X252173Y1233891D01*
X252120Y1233988D01*
X252063Y1234082D01*
X252002Y1234175D01*
X251939Y1234266D01*
X251872Y1234355D01*
X251802Y1234441D01*
X251729Y1234524D01*
X251654Y1234606D01*
X251576Y1234684D01*
X251494Y1234759D01*
X251411Y1234832D01*
X251325Y1234902D01*
X251236Y1234969D01*
X251145Y1235032D01*
X251052Y1235093D01*
X250958Y1235150D01*
X250861Y1235203D01*
X250762Y1235254D01*
X250661Y1235301D01*
X250559Y1235344D01*
X250456Y1235384D01*
X250351Y1235420D01*
X250245Y1235452D01*
X250138Y1235481D01*
X250030Y1235506D01*
X249921Y1235527D01*
X249812Y1235544D01*
X249702Y1235558D01*
X249591Y1235567D01*
X249481Y1235573D01*
X249370Y1235575D01*
X249259Y1235573D01*
X249149Y1235567D01*
X249038Y1235558D01*
X248928Y1235544D01*
X248819Y1235527D01*
X248710Y1235506D01*
X248602Y1235481D01*
X248495Y1235452D01*
X248389Y1235420D01*
X248284Y1235384D01*
X248181Y1235344D01*
X248079Y1235301D01*
X247978Y1235254D01*
X247879Y1235203D01*
X247783Y1235150D01*
X247688Y1235093D01*
X247595Y1235032D01*
X247504Y1234969D01*
X247415Y1234902D01*
X247329Y1234832D01*
X247246Y1234759D01*
X247164Y1234684D01*
X247086Y1234606D01*
X247011Y1234524D01*
X246938Y1234441D01*
X246868Y1234355D01*
X246801Y1234266D01*
X246738Y1234175D01*
X246677Y1234082D01*
X246620Y1233988D01*
X246567Y1233891D01*
X246516Y1233792D01*
X246469Y1233691D01*
X246426Y1233589D01*
X246386Y1233486D01*
X246350Y1233381D01*
X246318Y1233275D01*
X246289Y1233168D01*
X246264Y1233060D01*
X246243Y1232951D01*
X246226Y1232842D01*
X246212Y1232732D01*
X246203Y1232621D01*
X246197Y1232511D01*
X246195Y1232400D01*
X246195Y1229225D01*
X252546Y1243576D02*
X252544Y1243680D01*
X252538Y1243785D01*
X252529Y1243889D01*
X252516Y1243992D01*
X252498Y1244095D01*
X252478Y1244197D01*
X252453Y1244299D01*
X252425Y1244399D01*
X252393Y1244499D01*
X252357Y1244597D01*
X252318Y1244694D01*
X252276Y1244789D01*
X252230Y1244883D01*
X252180Y1244975D01*
X252128Y1245065D01*
X252072Y1245153D01*
X252012Y1245239D01*
X251950Y1245323D01*
X251885Y1245404D01*
X251817Y1245483D01*
X251745Y1245560D01*
X251672Y1245633D01*
X251595Y1245705D01*
X251516Y1245773D01*
X251435Y1245838D01*
X251351Y1245900D01*
X251265Y1245960D01*
X251177Y1246016D01*
X251087Y1246068D01*
X250995Y1246118D01*
X250901Y1246164D01*
X250806Y1246206D01*
X250709Y1246245D01*
X250611Y1246281D01*
X250511Y1246313D01*
X250411Y1246341D01*
X250309Y1246366D01*
X250207Y1246386D01*
X250104Y1246404D01*
X250001Y1246417D01*
X249897Y1246426D01*
X249792Y1246432D01*
X249688Y1246434D01*
X252545Y1243576D02*
X252543Y1243458D01*
X252537Y1243339D01*
X252528Y1243221D01*
X252515Y1243104D01*
X252497Y1242987D01*
X252477Y1242870D01*
X252452Y1242754D01*
X252424Y1242639D01*
X252391Y1242526D01*
X252356Y1242413D01*
X252316Y1242301D01*
X252274Y1242191D01*
X252227Y1242082D01*
X252177Y1241974D01*
X252124Y1241869D01*
X252067Y1241765D01*
X252007Y1241663D01*
X251944Y1241563D01*
X251877Y1241465D01*
X251808Y1241369D01*
X251735Y1241276D01*
X251659Y1241185D01*
X251581Y1241096D01*
X251499Y1241010D01*
X251415Y1240927D01*
X251329Y1240846D01*
X251239Y1240769D01*
X251148Y1240694D01*
X251054Y1240622D01*
X250957Y1240553D01*
X250859Y1240488D01*
X250758Y1240425D01*
X250655Y1240366D01*
X250551Y1240310D01*
X250445Y1240258D01*
X250337Y1240209D01*
X250228Y1240164D01*
X250117Y1240122D01*
X250005Y1240084D01*
X247466Y1245482D02*
X247541Y1245558D01*
X247620Y1245633D01*
X247701Y1245704D01*
X247785Y1245773D01*
X247871Y1245838D01*
X247959Y1245900D01*
X248049Y1245960D01*
X248141Y1246016D01*
X248236Y1246069D01*
X248332Y1246118D01*
X248430Y1246164D01*
X248529Y1246207D01*
X248630Y1246246D01*
X248732Y1246281D01*
X248835Y1246313D01*
X248939Y1246341D01*
X249044Y1246366D01*
X249151Y1246387D01*
X249257Y1246404D01*
X249364Y1246417D01*
X249472Y1246426D01*
X249580Y1246432D01*
X249688Y1246434D01*
X247465Y1245481D02*
X241115Y1240084D01*
X241115Y1246434D01*
D10*
X231590Y978800D02*
X188410Y978800D01*
X231590Y1004200D02*
X235400Y1000390D01*
X231590Y1004200D02*
X235400Y1008010D01*
X235400Y1025790D01*
X231590Y1029600D01*
X235400Y1033410D01*
X235400Y1051190D01*
X231590Y1055000D01*
X188410Y1055000D02*
X184600Y1051190D01*
X184600Y1033410D01*
X188410Y1029600D01*
X184600Y1025790D01*
X184600Y1008010D01*
X188410Y1004200D01*
X184600Y1000390D01*
X231590Y1055000D02*
X235400Y1058810D01*
X235400Y1076590D01*
X231590Y1080400D01*
X235400Y1084210D01*
X235400Y1101990D01*
X231590Y1105800D01*
X184600Y1058810D02*
X188410Y1055000D01*
X184600Y1058810D02*
X184600Y1076590D01*
X188410Y1080400D02*
X184600Y1084210D01*
X188410Y1080400D02*
X184600Y1076590D01*
X184600Y1084210D02*
X184600Y1101990D01*
X188410Y1105800D01*
X184600Y982610D02*
X188410Y978800D01*
X184600Y982610D02*
X184600Y1000390D01*
X231590Y978800D02*
X235400Y982610D01*
X235400Y1000390D01*
X231590Y1131200D02*
X188410Y1131200D01*
X231590Y1105800D02*
X235400Y1109610D01*
X235400Y1127390D01*
X231590Y1131200D01*
X188410Y1131200D02*
X184600Y1127390D01*
X184600Y1109610D01*
X188410Y1105800D01*
D11*
X180155Y990230D02*
X177615Y987055D01*
X180155Y990230D02*
X168725Y990230D01*
X168725Y987055D02*
X168725Y993405D01*
X180156Y1015948D02*
X180154Y1016052D01*
X180148Y1016157D01*
X180139Y1016261D01*
X180126Y1016364D01*
X180108Y1016467D01*
X180088Y1016569D01*
X180063Y1016671D01*
X180035Y1016771D01*
X180003Y1016871D01*
X179967Y1016969D01*
X179928Y1017066D01*
X179886Y1017161D01*
X179840Y1017255D01*
X179790Y1017347D01*
X179738Y1017437D01*
X179682Y1017525D01*
X179622Y1017611D01*
X179560Y1017695D01*
X179495Y1017776D01*
X179427Y1017855D01*
X179355Y1017932D01*
X179282Y1018005D01*
X179205Y1018077D01*
X179126Y1018145D01*
X179045Y1018210D01*
X178961Y1018272D01*
X178875Y1018332D01*
X178787Y1018388D01*
X178697Y1018440D01*
X178605Y1018490D01*
X178511Y1018536D01*
X178416Y1018578D01*
X178319Y1018617D01*
X178221Y1018653D01*
X178121Y1018685D01*
X178021Y1018713D01*
X177919Y1018738D01*
X177817Y1018758D01*
X177714Y1018776D01*
X177611Y1018789D01*
X177507Y1018798D01*
X177402Y1018804D01*
X177298Y1018806D01*
X180155Y1015948D02*
X180153Y1015830D01*
X180147Y1015711D01*
X180138Y1015593D01*
X180125Y1015476D01*
X180107Y1015359D01*
X180087Y1015242D01*
X180062Y1015126D01*
X180034Y1015011D01*
X180001Y1014898D01*
X179966Y1014785D01*
X179926Y1014673D01*
X179884Y1014563D01*
X179837Y1014454D01*
X179787Y1014346D01*
X179734Y1014241D01*
X179677Y1014137D01*
X179617Y1014035D01*
X179554Y1013935D01*
X179487Y1013837D01*
X179418Y1013741D01*
X179345Y1013648D01*
X179269Y1013557D01*
X179191Y1013468D01*
X179109Y1013382D01*
X179025Y1013299D01*
X178939Y1013218D01*
X178849Y1013141D01*
X178758Y1013066D01*
X178664Y1012994D01*
X178567Y1012925D01*
X178469Y1012860D01*
X178368Y1012797D01*
X178265Y1012738D01*
X178161Y1012682D01*
X178055Y1012630D01*
X177947Y1012581D01*
X177838Y1012536D01*
X177727Y1012494D01*
X177615Y1012456D01*
X175076Y1017853D02*
X175151Y1017929D01*
X175230Y1018004D01*
X175311Y1018075D01*
X175395Y1018144D01*
X175481Y1018209D01*
X175569Y1018271D01*
X175659Y1018331D01*
X175751Y1018387D01*
X175846Y1018440D01*
X175942Y1018489D01*
X176040Y1018535D01*
X176139Y1018578D01*
X176240Y1018617D01*
X176342Y1018652D01*
X176445Y1018684D01*
X176549Y1018712D01*
X176654Y1018737D01*
X176761Y1018758D01*
X176867Y1018775D01*
X176974Y1018788D01*
X177082Y1018797D01*
X177190Y1018803D01*
X177298Y1018805D01*
X175075Y1017853D02*
X168725Y1012455D01*
X168725Y1018805D01*
X168725Y1037855D02*
X168725Y1041030D01*
X168727Y1041141D01*
X168733Y1041251D01*
X168742Y1041362D01*
X168756Y1041472D01*
X168773Y1041581D01*
X168794Y1041690D01*
X168819Y1041798D01*
X168848Y1041905D01*
X168880Y1042011D01*
X168916Y1042116D01*
X168956Y1042219D01*
X168999Y1042321D01*
X169046Y1042422D01*
X169097Y1042521D01*
X169150Y1042618D01*
X169207Y1042712D01*
X169268Y1042805D01*
X169331Y1042896D01*
X169398Y1042985D01*
X169468Y1043071D01*
X169541Y1043154D01*
X169616Y1043236D01*
X169694Y1043314D01*
X169776Y1043389D01*
X169859Y1043462D01*
X169945Y1043532D01*
X170034Y1043599D01*
X170125Y1043662D01*
X170218Y1043723D01*
X170313Y1043780D01*
X170409Y1043833D01*
X170508Y1043884D01*
X170609Y1043931D01*
X170711Y1043974D01*
X170814Y1044014D01*
X170919Y1044050D01*
X171025Y1044082D01*
X171132Y1044111D01*
X171240Y1044136D01*
X171349Y1044157D01*
X171458Y1044174D01*
X171568Y1044188D01*
X171679Y1044197D01*
X171789Y1044203D01*
X171900Y1044205D01*
X172011Y1044203D01*
X172121Y1044197D01*
X172232Y1044188D01*
X172342Y1044174D01*
X172451Y1044157D01*
X172560Y1044136D01*
X172668Y1044111D01*
X172775Y1044082D01*
X172881Y1044050D01*
X172986Y1044014D01*
X173089Y1043974D01*
X173191Y1043931D01*
X173292Y1043884D01*
X173391Y1043833D01*
X173488Y1043780D01*
X173582Y1043723D01*
X173675Y1043662D01*
X173766Y1043599D01*
X173855Y1043532D01*
X173941Y1043462D01*
X174024Y1043389D01*
X174106Y1043314D01*
X174184Y1043236D01*
X174259Y1043154D01*
X174332Y1043071D01*
X174402Y1042985D01*
X174469Y1042896D01*
X174532Y1042805D01*
X174593Y1042712D01*
X174650Y1042618D01*
X174703Y1042521D01*
X174754Y1042422D01*
X174801Y1042321D01*
X174844Y1042219D01*
X174884Y1042116D01*
X174920Y1042011D01*
X174952Y1041905D01*
X174981Y1041798D01*
X175006Y1041690D01*
X175027Y1041581D01*
X175044Y1041472D01*
X175058Y1041362D01*
X175067Y1041251D01*
X175073Y1041141D01*
X175075Y1041030D01*
X180155Y1041665D02*
X180155Y1037855D01*
X180155Y1041665D02*
X180153Y1041765D01*
X180147Y1041864D01*
X180137Y1041964D01*
X180124Y1042062D01*
X180106Y1042161D01*
X180085Y1042258D01*
X180060Y1042354D01*
X180031Y1042450D01*
X179998Y1042544D01*
X179962Y1042637D01*
X179922Y1042728D01*
X179878Y1042818D01*
X179831Y1042906D01*
X179781Y1042992D01*
X179727Y1043076D01*
X179670Y1043158D01*
X179610Y1043237D01*
X179546Y1043315D01*
X179480Y1043389D01*
X179411Y1043461D01*
X179339Y1043530D01*
X179265Y1043596D01*
X179187Y1043660D01*
X179108Y1043720D01*
X179026Y1043777D01*
X178942Y1043831D01*
X178856Y1043881D01*
X178768Y1043928D01*
X178678Y1043972D01*
X178587Y1044012D01*
X178494Y1044048D01*
X178400Y1044081D01*
X178304Y1044110D01*
X178208Y1044135D01*
X178111Y1044156D01*
X178012Y1044174D01*
X177914Y1044187D01*
X177814Y1044197D01*
X177715Y1044203D01*
X177615Y1044205D01*
X177515Y1044203D01*
X177416Y1044197D01*
X177316Y1044187D01*
X177218Y1044174D01*
X177119Y1044156D01*
X177022Y1044135D01*
X176926Y1044110D01*
X176830Y1044081D01*
X176736Y1044048D01*
X176643Y1044012D01*
X176552Y1043972D01*
X176462Y1043928D01*
X176374Y1043881D01*
X176288Y1043831D01*
X176204Y1043777D01*
X176122Y1043720D01*
X176043Y1043660D01*
X175965Y1043596D01*
X175891Y1043530D01*
X175819Y1043461D01*
X175750Y1043389D01*
X175684Y1043315D01*
X175620Y1043237D01*
X175560Y1043158D01*
X175503Y1043076D01*
X175449Y1042992D01*
X175399Y1042906D01*
X175352Y1042818D01*
X175308Y1042728D01*
X175268Y1042637D01*
X175232Y1042544D01*
X175199Y1042450D01*
X175170Y1042354D01*
X175145Y1042258D01*
X175124Y1042161D01*
X175106Y1042062D01*
X175093Y1041964D01*
X175083Y1041864D01*
X175077Y1041765D01*
X175075Y1041665D01*
X175075Y1039125D01*
X171265Y1063255D02*
X180155Y1065795D01*
X171265Y1063255D02*
X171265Y1069605D01*
X173805Y1067700D02*
X168725Y1067700D01*
X168725Y1088655D02*
X168725Y1092465D01*
X168727Y1092565D01*
X168733Y1092664D01*
X168743Y1092764D01*
X168756Y1092862D01*
X168774Y1092961D01*
X168795Y1093058D01*
X168820Y1093154D01*
X168849Y1093250D01*
X168882Y1093344D01*
X168918Y1093437D01*
X168958Y1093528D01*
X169002Y1093618D01*
X169049Y1093706D01*
X169099Y1093792D01*
X169153Y1093876D01*
X169210Y1093958D01*
X169270Y1094037D01*
X169334Y1094115D01*
X169400Y1094189D01*
X169469Y1094261D01*
X169541Y1094330D01*
X169615Y1094396D01*
X169693Y1094460D01*
X169772Y1094520D01*
X169854Y1094577D01*
X169938Y1094631D01*
X170024Y1094681D01*
X170112Y1094728D01*
X170202Y1094772D01*
X170293Y1094812D01*
X170386Y1094848D01*
X170480Y1094881D01*
X170576Y1094910D01*
X170672Y1094935D01*
X170769Y1094956D01*
X170868Y1094974D01*
X170966Y1094987D01*
X171066Y1094997D01*
X171165Y1095003D01*
X171265Y1095005D01*
X172535Y1095005D01*
X172635Y1095003D01*
X172734Y1094997D01*
X172834Y1094987D01*
X172932Y1094974D01*
X173031Y1094956D01*
X173128Y1094935D01*
X173224Y1094910D01*
X173320Y1094881D01*
X173414Y1094848D01*
X173507Y1094812D01*
X173598Y1094772D01*
X173688Y1094728D01*
X173776Y1094681D01*
X173862Y1094631D01*
X173946Y1094577D01*
X174028Y1094520D01*
X174107Y1094460D01*
X174185Y1094396D01*
X174259Y1094330D01*
X174331Y1094261D01*
X174400Y1094189D01*
X174466Y1094115D01*
X174530Y1094037D01*
X174590Y1093958D01*
X174647Y1093876D01*
X174701Y1093792D01*
X174751Y1093706D01*
X174798Y1093618D01*
X174842Y1093528D01*
X174882Y1093437D01*
X174918Y1093344D01*
X174951Y1093250D01*
X174980Y1093154D01*
X175005Y1093058D01*
X175026Y1092961D01*
X175044Y1092862D01*
X175057Y1092764D01*
X175067Y1092664D01*
X175073Y1092565D01*
X175075Y1092465D01*
X175075Y1088655D01*
X180155Y1088655D01*
X180155Y1095005D01*
X175075Y1114055D02*
X175075Y1117865D01*
X175073Y1117965D01*
X175067Y1118064D01*
X175057Y1118164D01*
X175044Y1118262D01*
X175026Y1118361D01*
X175005Y1118458D01*
X174980Y1118554D01*
X174951Y1118650D01*
X174918Y1118744D01*
X174882Y1118837D01*
X174842Y1118928D01*
X174798Y1119018D01*
X174751Y1119106D01*
X174701Y1119192D01*
X174647Y1119276D01*
X174590Y1119358D01*
X174530Y1119437D01*
X174466Y1119515D01*
X174400Y1119589D01*
X174331Y1119661D01*
X174259Y1119730D01*
X174185Y1119796D01*
X174107Y1119860D01*
X174028Y1119920D01*
X173946Y1119977D01*
X173862Y1120031D01*
X173776Y1120081D01*
X173688Y1120128D01*
X173598Y1120172D01*
X173507Y1120212D01*
X173414Y1120248D01*
X173320Y1120281D01*
X173224Y1120310D01*
X173128Y1120335D01*
X173031Y1120356D01*
X172932Y1120374D01*
X172834Y1120387D01*
X172734Y1120397D01*
X172635Y1120403D01*
X172535Y1120405D01*
X171900Y1120405D01*
X171789Y1120403D01*
X171679Y1120397D01*
X171568Y1120388D01*
X171458Y1120374D01*
X171349Y1120357D01*
X171240Y1120336D01*
X171132Y1120311D01*
X171025Y1120282D01*
X170919Y1120250D01*
X170814Y1120214D01*
X170711Y1120174D01*
X170609Y1120131D01*
X170508Y1120084D01*
X170409Y1120033D01*
X170313Y1119980D01*
X170218Y1119923D01*
X170125Y1119862D01*
X170034Y1119799D01*
X169945Y1119732D01*
X169859Y1119662D01*
X169776Y1119589D01*
X169694Y1119514D01*
X169616Y1119436D01*
X169541Y1119354D01*
X169468Y1119271D01*
X169398Y1119185D01*
X169331Y1119096D01*
X169268Y1119005D01*
X169207Y1118912D01*
X169150Y1118818D01*
X169097Y1118721D01*
X169046Y1118622D01*
X168999Y1118521D01*
X168956Y1118419D01*
X168916Y1118316D01*
X168880Y1118211D01*
X168848Y1118105D01*
X168819Y1117998D01*
X168794Y1117890D01*
X168773Y1117781D01*
X168756Y1117672D01*
X168742Y1117562D01*
X168733Y1117451D01*
X168727Y1117341D01*
X168725Y1117230D01*
X168727Y1117119D01*
X168733Y1117009D01*
X168742Y1116898D01*
X168756Y1116788D01*
X168773Y1116679D01*
X168794Y1116570D01*
X168819Y1116462D01*
X168848Y1116355D01*
X168880Y1116249D01*
X168916Y1116144D01*
X168956Y1116041D01*
X168999Y1115939D01*
X169046Y1115838D01*
X169097Y1115739D01*
X169150Y1115643D01*
X169207Y1115548D01*
X169268Y1115455D01*
X169331Y1115364D01*
X169398Y1115275D01*
X169468Y1115189D01*
X169541Y1115106D01*
X169616Y1115024D01*
X169694Y1114946D01*
X169776Y1114871D01*
X169859Y1114798D01*
X169945Y1114728D01*
X170034Y1114661D01*
X170125Y1114598D01*
X170218Y1114537D01*
X170313Y1114480D01*
X170409Y1114427D01*
X170508Y1114376D01*
X170609Y1114329D01*
X170711Y1114286D01*
X170814Y1114246D01*
X170919Y1114210D01*
X171025Y1114178D01*
X171132Y1114149D01*
X171240Y1114124D01*
X171349Y1114103D01*
X171458Y1114086D01*
X171568Y1114072D01*
X171679Y1114063D01*
X171789Y1114057D01*
X171900Y1114055D01*
X175075Y1114055D01*
X175215Y1114057D01*
X175355Y1114063D01*
X175495Y1114072D01*
X175634Y1114086D01*
X175773Y1114103D01*
X175911Y1114124D01*
X176049Y1114149D01*
X176186Y1114178D01*
X176322Y1114210D01*
X176457Y1114247D01*
X176591Y1114287D01*
X176724Y1114330D01*
X176856Y1114378D01*
X176987Y1114428D01*
X177116Y1114483D01*
X177243Y1114541D01*
X177369Y1114602D01*
X177493Y1114667D01*
X177615Y1114736D01*
X177735Y1114807D01*
X177853Y1114882D01*
X177970Y1114960D01*
X178084Y1115042D01*
X178195Y1115126D01*
X178304Y1115214D01*
X178411Y1115304D01*
X178516Y1115398D01*
X178617Y1115494D01*
X178716Y1115593D01*
X178812Y1115694D01*
X178906Y1115799D01*
X178996Y1115906D01*
X179084Y1116015D01*
X179168Y1116126D01*
X179250Y1116240D01*
X179328Y1116357D01*
X179403Y1116475D01*
X179474Y1116595D01*
X179543Y1116717D01*
X179608Y1116841D01*
X179669Y1116967D01*
X179727Y1117094D01*
X179782Y1117223D01*
X179832Y1117354D01*
X179880Y1117486D01*
X179923Y1117619D01*
X179963Y1117753D01*
X180000Y1117888D01*
X180032Y1118024D01*
X180061Y1118161D01*
X180086Y1118299D01*
X180107Y1118437D01*
X180124Y1118576D01*
X180138Y1118715D01*
X180147Y1118855D01*
X180153Y1118995D01*
X180155Y1119135D01*
X243655Y983245D02*
X252545Y983245D01*
X243655Y983245D02*
X243555Y983243D01*
X243456Y983237D01*
X243356Y983227D01*
X243258Y983214D01*
X243159Y983196D01*
X243062Y983175D01*
X242966Y983150D01*
X242870Y983121D01*
X242776Y983088D01*
X242683Y983052D01*
X242592Y983012D01*
X242502Y982968D01*
X242414Y982921D01*
X242328Y982871D01*
X242244Y982817D01*
X242162Y982760D01*
X242083Y982700D01*
X242005Y982636D01*
X241931Y982570D01*
X241859Y982501D01*
X241790Y982429D01*
X241724Y982355D01*
X241660Y982277D01*
X241600Y982198D01*
X241543Y982116D01*
X241489Y982032D01*
X241439Y981946D01*
X241392Y981858D01*
X241348Y981768D01*
X241308Y981677D01*
X241272Y981584D01*
X241239Y981490D01*
X241210Y981394D01*
X241185Y981298D01*
X241164Y981201D01*
X241146Y981102D01*
X241133Y981004D01*
X241123Y980904D01*
X241117Y980805D01*
X241115Y980705D01*
X241115Y979435D01*
X241115Y989225D02*
X252545Y989225D01*
X252545Y992400D01*
X252543Y992511D01*
X252537Y992621D01*
X252528Y992732D01*
X252514Y992842D01*
X252497Y992951D01*
X252476Y993060D01*
X252451Y993168D01*
X252422Y993275D01*
X252390Y993381D01*
X252354Y993486D01*
X252314Y993589D01*
X252271Y993691D01*
X252224Y993792D01*
X252173Y993891D01*
X252120Y993988D01*
X252063Y994082D01*
X252002Y994175D01*
X251939Y994266D01*
X251872Y994355D01*
X251802Y994441D01*
X251729Y994524D01*
X251654Y994606D01*
X251576Y994684D01*
X251494Y994759D01*
X251411Y994832D01*
X251325Y994902D01*
X251236Y994969D01*
X251145Y995032D01*
X251052Y995093D01*
X250958Y995150D01*
X250861Y995203D01*
X250762Y995254D01*
X250661Y995301D01*
X250559Y995344D01*
X250456Y995384D01*
X250351Y995420D01*
X250245Y995452D01*
X250138Y995481D01*
X250030Y995506D01*
X249921Y995527D01*
X249812Y995544D01*
X249702Y995558D01*
X249591Y995567D01*
X249481Y995573D01*
X249370Y995575D01*
X249259Y995573D01*
X249149Y995567D01*
X249038Y995558D01*
X248928Y995544D01*
X248819Y995527D01*
X248710Y995506D01*
X248602Y995481D01*
X248495Y995452D01*
X248389Y995420D01*
X248284Y995384D01*
X248181Y995344D01*
X248079Y995301D01*
X247978Y995254D01*
X247879Y995203D01*
X247783Y995150D01*
X247688Y995093D01*
X247595Y995032D01*
X247504Y994969D01*
X247415Y994902D01*
X247329Y994832D01*
X247246Y994759D01*
X247164Y994684D01*
X247086Y994606D01*
X247011Y994524D01*
X246938Y994441D01*
X246868Y994355D01*
X246801Y994266D01*
X246738Y994175D01*
X246677Y994082D01*
X246620Y993988D01*
X246567Y993891D01*
X246516Y993792D01*
X246469Y993691D01*
X246426Y993589D01*
X246386Y993486D01*
X246350Y993381D01*
X246318Y993275D01*
X246289Y993168D01*
X246264Y993060D01*
X246243Y992951D01*
X246226Y992842D01*
X246212Y992732D01*
X246203Y992621D01*
X246197Y992511D01*
X246195Y992400D01*
X246195Y989225D01*
X241115Y1000084D02*
X241115Y1003259D01*
X241117Y1003370D01*
X241123Y1003480D01*
X241132Y1003591D01*
X241146Y1003701D01*
X241163Y1003810D01*
X241184Y1003919D01*
X241209Y1004027D01*
X241238Y1004134D01*
X241270Y1004240D01*
X241306Y1004345D01*
X241346Y1004448D01*
X241389Y1004550D01*
X241436Y1004651D01*
X241487Y1004750D01*
X241540Y1004847D01*
X241597Y1004941D01*
X241658Y1005034D01*
X241721Y1005125D01*
X241788Y1005214D01*
X241858Y1005300D01*
X241931Y1005383D01*
X242006Y1005465D01*
X242084Y1005543D01*
X242166Y1005618D01*
X242249Y1005691D01*
X242335Y1005761D01*
X242424Y1005828D01*
X242515Y1005891D01*
X242608Y1005952D01*
X242703Y1006009D01*
X242799Y1006062D01*
X242898Y1006113D01*
X242999Y1006160D01*
X243101Y1006203D01*
X243204Y1006243D01*
X243309Y1006279D01*
X243415Y1006311D01*
X243522Y1006340D01*
X243630Y1006365D01*
X243739Y1006386D01*
X243848Y1006403D01*
X243958Y1006417D01*
X244069Y1006426D01*
X244179Y1006432D01*
X244290Y1006434D01*
X244401Y1006432D01*
X244511Y1006426D01*
X244622Y1006417D01*
X244732Y1006403D01*
X244841Y1006386D01*
X244950Y1006365D01*
X245058Y1006340D01*
X245165Y1006311D01*
X245271Y1006279D01*
X245376Y1006243D01*
X245479Y1006203D01*
X245581Y1006160D01*
X245682Y1006113D01*
X245781Y1006062D01*
X245878Y1006009D01*
X245972Y1005952D01*
X246065Y1005891D01*
X246156Y1005828D01*
X246245Y1005761D01*
X246331Y1005691D01*
X246414Y1005618D01*
X246496Y1005543D01*
X246574Y1005465D01*
X246649Y1005383D01*
X246722Y1005300D01*
X246792Y1005214D01*
X246859Y1005125D01*
X246922Y1005034D01*
X246983Y1004941D01*
X247040Y1004847D01*
X247093Y1004750D01*
X247144Y1004651D01*
X247191Y1004550D01*
X247234Y1004448D01*
X247274Y1004345D01*
X247310Y1004240D01*
X247342Y1004134D01*
X247371Y1004027D01*
X247396Y1003919D01*
X247417Y1003810D01*
X247434Y1003701D01*
X247448Y1003591D01*
X247457Y1003480D01*
X247463Y1003370D01*
X247465Y1003259D01*
X252545Y1003894D02*
X252545Y1000084D01*
X252545Y1003894D02*
X252543Y1003994D01*
X252537Y1004093D01*
X252527Y1004193D01*
X252514Y1004291D01*
X252496Y1004390D01*
X252475Y1004487D01*
X252450Y1004583D01*
X252421Y1004679D01*
X252388Y1004773D01*
X252352Y1004866D01*
X252312Y1004957D01*
X252268Y1005047D01*
X252221Y1005135D01*
X252171Y1005221D01*
X252117Y1005305D01*
X252060Y1005387D01*
X252000Y1005466D01*
X251936Y1005544D01*
X251870Y1005618D01*
X251801Y1005690D01*
X251729Y1005759D01*
X251655Y1005825D01*
X251577Y1005889D01*
X251498Y1005949D01*
X251416Y1006006D01*
X251332Y1006060D01*
X251246Y1006110D01*
X251158Y1006157D01*
X251068Y1006201D01*
X250977Y1006241D01*
X250884Y1006277D01*
X250790Y1006310D01*
X250694Y1006339D01*
X250598Y1006364D01*
X250501Y1006385D01*
X250402Y1006403D01*
X250304Y1006416D01*
X250204Y1006426D01*
X250105Y1006432D01*
X250005Y1006434D01*
X249905Y1006432D01*
X249806Y1006426D01*
X249706Y1006416D01*
X249608Y1006403D01*
X249509Y1006385D01*
X249412Y1006364D01*
X249316Y1006339D01*
X249220Y1006310D01*
X249126Y1006277D01*
X249033Y1006241D01*
X248942Y1006201D01*
X248852Y1006157D01*
X248764Y1006110D01*
X248678Y1006060D01*
X248594Y1006006D01*
X248512Y1005949D01*
X248433Y1005889D01*
X248355Y1005825D01*
X248281Y1005759D01*
X248209Y1005690D01*
X248140Y1005618D01*
X248074Y1005544D01*
X248010Y1005466D01*
X247950Y1005387D01*
X247893Y1005305D01*
X247839Y1005221D01*
X247789Y1005135D01*
X247742Y1005047D01*
X247698Y1004957D01*
X247658Y1004866D01*
X247622Y1004773D01*
X247589Y1004679D01*
X247560Y1004583D01*
X247535Y1004487D01*
X247514Y1004390D01*
X247496Y1004291D01*
X247483Y1004193D01*
X247473Y1004093D01*
X247467Y1003994D01*
X247465Y1003894D01*
X247465Y1001354D01*
D10*
X231590Y738800D02*
X188410Y738800D01*
X231590Y764200D02*
X235400Y760390D01*
X231590Y764200D02*
X235400Y768010D01*
X235400Y785790D01*
X231590Y789600D01*
X235400Y793410D01*
X235400Y811190D01*
X231590Y815000D01*
X188410Y815000D02*
X184600Y811190D01*
X184600Y793410D01*
X188410Y789600D01*
X184600Y785790D01*
X184600Y768010D01*
X188410Y764200D01*
X184600Y760390D01*
X231590Y815000D02*
X235400Y818810D01*
X235400Y836590D01*
X231590Y840400D01*
X235400Y844210D01*
X235400Y861990D01*
X231590Y865800D01*
X184600Y818810D02*
X188410Y815000D01*
X184600Y818810D02*
X184600Y836590D01*
X188410Y840400D02*
X184600Y844210D01*
X188410Y840400D02*
X184600Y836590D01*
X184600Y844210D02*
X184600Y861990D01*
X188410Y865800D01*
X184600Y742610D02*
X188410Y738800D01*
X184600Y742610D02*
X184600Y760390D01*
X231590Y738800D02*
X235400Y742610D01*
X235400Y760390D01*
X231590Y891200D02*
X188410Y891200D01*
X231590Y865800D02*
X235400Y869610D01*
X235400Y887390D01*
X231590Y891200D01*
X188410Y891200D02*
X184600Y887390D01*
X184600Y869610D01*
X188410Y865800D01*
D11*
X180155Y750230D02*
X177615Y747055D01*
X180155Y750230D02*
X168725Y750230D01*
X168725Y747055D02*
X168725Y753405D01*
X180156Y775948D02*
X180154Y776052D01*
X180148Y776157D01*
X180139Y776261D01*
X180126Y776364D01*
X180108Y776467D01*
X180088Y776569D01*
X180063Y776671D01*
X180035Y776771D01*
X180003Y776871D01*
X179967Y776969D01*
X179928Y777066D01*
X179886Y777161D01*
X179840Y777255D01*
X179790Y777347D01*
X179738Y777437D01*
X179682Y777525D01*
X179622Y777611D01*
X179560Y777695D01*
X179495Y777776D01*
X179427Y777855D01*
X179355Y777932D01*
X179282Y778005D01*
X179205Y778077D01*
X179126Y778145D01*
X179045Y778210D01*
X178961Y778272D01*
X178875Y778332D01*
X178787Y778388D01*
X178697Y778440D01*
X178605Y778490D01*
X178511Y778536D01*
X178416Y778578D01*
X178319Y778617D01*
X178221Y778653D01*
X178121Y778685D01*
X178021Y778713D01*
X177919Y778738D01*
X177817Y778758D01*
X177714Y778776D01*
X177611Y778789D01*
X177507Y778798D01*
X177402Y778804D01*
X177298Y778806D01*
X180155Y775948D02*
X180153Y775830D01*
X180147Y775711D01*
X180138Y775593D01*
X180125Y775476D01*
X180107Y775359D01*
X180087Y775242D01*
X180062Y775126D01*
X180034Y775011D01*
X180001Y774898D01*
X179966Y774785D01*
X179926Y774673D01*
X179884Y774563D01*
X179837Y774454D01*
X179787Y774346D01*
X179734Y774241D01*
X179677Y774137D01*
X179617Y774035D01*
X179554Y773935D01*
X179487Y773837D01*
X179418Y773741D01*
X179345Y773648D01*
X179269Y773557D01*
X179191Y773468D01*
X179109Y773382D01*
X179025Y773299D01*
X178939Y773218D01*
X178849Y773141D01*
X178758Y773066D01*
X178664Y772994D01*
X178567Y772925D01*
X178469Y772860D01*
X178368Y772797D01*
X178265Y772738D01*
X178161Y772682D01*
X178055Y772630D01*
X177947Y772581D01*
X177838Y772536D01*
X177727Y772494D01*
X177615Y772456D01*
X175076Y777853D02*
X175151Y777929D01*
X175230Y778004D01*
X175311Y778075D01*
X175395Y778144D01*
X175481Y778209D01*
X175569Y778271D01*
X175659Y778331D01*
X175751Y778387D01*
X175846Y778440D01*
X175942Y778489D01*
X176040Y778535D01*
X176139Y778578D01*
X176240Y778617D01*
X176342Y778652D01*
X176445Y778684D01*
X176549Y778712D01*
X176654Y778737D01*
X176761Y778758D01*
X176867Y778775D01*
X176974Y778788D01*
X177082Y778797D01*
X177190Y778803D01*
X177298Y778805D01*
X175075Y777853D02*
X168725Y772455D01*
X168725Y778805D01*
X168725Y797855D02*
X168725Y801030D01*
X168727Y801141D01*
X168733Y801251D01*
X168742Y801362D01*
X168756Y801472D01*
X168773Y801581D01*
X168794Y801690D01*
X168819Y801798D01*
X168848Y801905D01*
X168880Y802011D01*
X168916Y802116D01*
X168956Y802219D01*
X168999Y802321D01*
X169046Y802422D01*
X169097Y802521D01*
X169150Y802618D01*
X169207Y802712D01*
X169268Y802805D01*
X169331Y802896D01*
X169398Y802985D01*
X169468Y803071D01*
X169541Y803154D01*
X169616Y803236D01*
X169694Y803314D01*
X169776Y803389D01*
X169859Y803462D01*
X169945Y803532D01*
X170034Y803599D01*
X170125Y803662D01*
X170218Y803723D01*
X170313Y803780D01*
X170409Y803833D01*
X170508Y803884D01*
X170609Y803931D01*
X170711Y803974D01*
X170814Y804014D01*
X170919Y804050D01*
X171025Y804082D01*
X171132Y804111D01*
X171240Y804136D01*
X171349Y804157D01*
X171458Y804174D01*
X171568Y804188D01*
X171679Y804197D01*
X171789Y804203D01*
X171900Y804205D01*
X172011Y804203D01*
X172121Y804197D01*
X172232Y804188D01*
X172342Y804174D01*
X172451Y804157D01*
X172560Y804136D01*
X172668Y804111D01*
X172775Y804082D01*
X172881Y804050D01*
X172986Y804014D01*
X173089Y803974D01*
X173191Y803931D01*
X173292Y803884D01*
X173391Y803833D01*
X173488Y803780D01*
X173582Y803723D01*
X173675Y803662D01*
X173766Y803599D01*
X173855Y803532D01*
X173941Y803462D01*
X174024Y803389D01*
X174106Y803314D01*
X174184Y803236D01*
X174259Y803154D01*
X174332Y803071D01*
X174402Y802985D01*
X174469Y802896D01*
X174532Y802805D01*
X174593Y802712D01*
X174650Y802618D01*
X174703Y802521D01*
X174754Y802422D01*
X174801Y802321D01*
X174844Y802219D01*
X174884Y802116D01*
X174920Y802011D01*
X174952Y801905D01*
X174981Y801798D01*
X175006Y801690D01*
X175027Y801581D01*
X175044Y801472D01*
X175058Y801362D01*
X175067Y801251D01*
X175073Y801141D01*
X175075Y801030D01*
X180155Y801665D02*
X180155Y797855D01*
X180155Y801665D02*
X180153Y801765D01*
X180147Y801864D01*
X180137Y801964D01*
X180124Y802062D01*
X180106Y802161D01*
X180085Y802258D01*
X180060Y802354D01*
X180031Y802450D01*
X179998Y802544D01*
X179962Y802637D01*
X179922Y802728D01*
X179878Y802818D01*
X179831Y802906D01*
X179781Y802992D01*
X179727Y803076D01*
X179670Y803158D01*
X179610Y803237D01*
X179546Y803315D01*
X179480Y803389D01*
X179411Y803461D01*
X179339Y803530D01*
X179265Y803596D01*
X179187Y803660D01*
X179108Y803720D01*
X179026Y803777D01*
X178942Y803831D01*
X178856Y803881D01*
X178768Y803928D01*
X178678Y803972D01*
X178587Y804012D01*
X178494Y804048D01*
X178400Y804081D01*
X178304Y804110D01*
X178208Y804135D01*
X178111Y804156D01*
X178012Y804174D01*
X177914Y804187D01*
X177814Y804197D01*
X177715Y804203D01*
X177615Y804205D01*
X177515Y804203D01*
X177416Y804197D01*
X177316Y804187D01*
X177218Y804174D01*
X177119Y804156D01*
X177022Y804135D01*
X176926Y804110D01*
X176830Y804081D01*
X176736Y804048D01*
X176643Y804012D01*
X176552Y803972D01*
X176462Y803928D01*
X176374Y803881D01*
X176288Y803831D01*
X176204Y803777D01*
X176122Y803720D01*
X176043Y803660D01*
X175965Y803596D01*
X175891Y803530D01*
X175819Y803461D01*
X175750Y803389D01*
X175684Y803315D01*
X175620Y803237D01*
X175560Y803158D01*
X175503Y803076D01*
X175449Y802992D01*
X175399Y802906D01*
X175352Y802818D01*
X175308Y802728D01*
X175268Y802637D01*
X175232Y802544D01*
X175199Y802450D01*
X175170Y802354D01*
X175145Y802258D01*
X175124Y802161D01*
X175106Y802062D01*
X175093Y801964D01*
X175083Y801864D01*
X175077Y801765D01*
X175075Y801665D01*
X175075Y799125D01*
X171265Y823255D02*
X180155Y825795D01*
X171265Y823255D02*
X171265Y829605D01*
X173805Y827700D02*
X168725Y827700D01*
X168725Y848655D02*
X168725Y852465D01*
X168727Y852565D01*
X168733Y852664D01*
X168743Y852764D01*
X168756Y852862D01*
X168774Y852961D01*
X168795Y853058D01*
X168820Y853154D01*
X168849Y853250D01*
X168882Y853344D01*
X168918Y853437D01*
X168958Y853528D01*
X169002Y853618D01*
X169049Y853706D01*
X169099Y853792D01*
X169153Y853876D01*
X169210Y853958D01*
X169270Y854037D01*
X169334Y854115D01*
X169400Y854189D01*
X169469Y854261D01*
X169541Y854330D01*
X169615Y854396D01*
X169693Y854460D01*
X169772Y854520D01*
X169854Y854577D01*
X169938Y854631D01*
X170024Y854681D01*
X170112Y854728D01*
X170202Y854772D01*
X170293Y854812D01*
X170386Y854848D01*
X170480Y854881D01*
X170576Y854910D01*
X170672Y854935D01*
X170769Y854956D01*
X170868Y854974D01*
X170966Y854987D01*
X171066Y854997D01*
X171165Y855003D01*
X171265Y855005D01*
X172535Y855005D01*
X172635Y855003D01*
X172734Y854997D01*
X172834Y854987D01*
X172932Y854974D01*
X173031Y854956D01*
X173128Y854935D01*
X173224Y854910D01*
X173320Y854881D01*
X173414Y854848D01*
X173507Y854812D01*
X173598Y854772D01*
X173688Y854728D01*
X173776Y854681D01*
X173862Y854631D01*
X173946Y854577D01*
X174028Y854520D01*
X174107Y854460D01*
X174185Y854396D01*
X174259Y854330D01*
X174331Y854261D01*
X174400Y854189D01*
X174466Y854115D01*
X174530Y854037D01*
X174590Y853958D01*
X174647Y853876D01*
X174701Y853792D01*
X174751Y853706D01*
X174798Y853618D01*
X174842Y853528D01*
X174882Y853437D01*
X174918Y853344D01*
X174951Y853250D01*
X174980Y853154D01*
X175005Y853058D01*
X175026Y852961D01*
X175044Y852862D01*
X175057Y852764D01*
X175067Y852664D01*
X175073Y852565D01*
X175075Y852465D01*
X175075Y848655D01*
X180155Y848655D01*
X180155Y855005D01*
X175075Y874055D02*
X175075Y877865D01*
X175073Y877965D01*
X175067Y878064D01*
X175057Y878164D01*
X175044Y878262D01*
X175026Y878361D01*
X175005Y878458D01*
X174980Y878554D01*
X174951Y878650D01*
X174918Y878744D01*
X174882Y878837D01*
X174842Y878928D01*
X174798Y879018D01*
X174751Y879106D01*
X174701Y879192D01*
X174647Y879276D01*
X174590Y879358D01*
X174530Y879437D01*
X174466Y879515D01*
X174400Y879589D01*
X174331Y879661D01*
X174259Y879730D01*
X174185Y879796D01*
X174107Y879860D01*
X174028Y879920D01*
X173946Y879977D01*
X173862Y880031D01*
X173776Y880081D01*
X173688Y880128D01*
X173598Y880172D01*
X173507Y880212D01*
X173414Y880248D01*
X173320Y880281D01*
X173224Y880310D01*
X173128Y880335D01*
X173031Y880356D01*
X172932Y880374D01*
X172834Y880387D01*
X172734Y880397D01*
X172635Y880403D01*
X172535Y880405D01*
X171900Y880405D01*
X171789Y880403D01*
X171679Y880397D01*
X171568Y880388D01*
X171458Y880374D01*
X171349Y880357D01*
X171240Y880336D01*
X171132Y880311D01*
X171025Y880282D01*
X170919Y880250D01*
X170814Y880214D01*
X170711Y880174D01*
X170609Y880131D01*
X170508Y880084D01*
X170409Y880033D01*
X170313Y879980D01*
X170218Y879923D01*
X170125Y879862D01*
X170034Y879799D01*
X169945Y879732D01*
X169859Y879662D01*
X169776Y879589D01*
X169694Y879514D01*
X169616Y879436D01*
X169541Y879354D01*
X169468Y879271D01*
X169398Y879185D01*
X169331Y879096D01*
X169268Y879005D01*
X169207Y878912D01*
X169150Y878818D01*
X169097Y878721D01*
X169046Y878622D01*
X168999Y878521D01*
X168956Y878419D01*
X168916Y878316D01*
X168880Y878211D01*
X168848Y878105D01*
X168819Y877998D01*
X168794Y877890D01*
X168773Y877781D01*
X168756Y877672D01*
X168742Y877562D01*
X168733Y877451D01*
X168727Y877341D01*
X168725Y877230D01*
X168727Y877119D01*
X168733Y877009D01*
X168742Y876898D01*
X168756Y876788D01*
X168773Y876679D01*
X168794Y876570D01*
X168819Y876462D01*
X168848Y876355D01*
X168880Y876249D01*
X168916Y876144D01*
X168956Y876041D01*
X168999Y875939D01*
X169046Y875838D01*
X169097Y875739D01*
X169150Y875643D01*
X169207Y875548D01*
X169268Y875455D01*
X169331Y875364D01*
X169398Y875275D01*
X169468Y875189D01*
X169541Y875106D01*
X169616Y875024D01*
X169694Y874946D01*
X169776Y874871D01*
X169859Y874798D01*
X169945Y874728D01*
X170034Y874661D01*
X170125Y874598D01*
X170218Y874537D01*
X170313Y874480D01*
X170409Y874427D01*
X170508Y874376D01*
X170609Y874329D01*
X170711Y874286D01*
X170814Y874246D01*
X170919Y874210D01*
X171025Y874178D01*
X171132Y874149D01*
X171240Y874124D01*
X171349Y874103D01*
X171458Y874086D01*
X171568Y874072D01*
X171679Y874063D01*
X171789Y874057D01*
X171900Y874055D01*
X175075Y874055D01*
X175215Y874057D01*
X175355Y874063D01*
X175495Y874072D01*
X175634Y874086D01*
X175773Y874103D01*
X175911Y874124D01*
X176049Y874149D01*
X176186Y874178D01*
X176322Y874210D01*
X176457Y874247D01*
X176591Y874287D01*
X176724Y874330D01*
X176856Y874378D01*
X176987Y874428D01*
X177116Y874483D01*
X177243Y874541D01*
X177369Y874602D01*
X177493Y874667D01*
X177615Y874736D01*
X177735Y874807D01*
X177853Y874882D01*
X177970Y874960D01*
X178084Y875042D01*
X178195Y875126D01*
X178304Y875214D01*
X178411Y875304D01*
X178516Y875398D01*
X178617Y875494D01*
X178716Y875593D01*
X178812Y875694D01*
X178906Y875799D01*
X178996Y875906D01*
X179084Y876015D01*
X179168Y876126D01*
X179250Y876240D01*
X179328Y876357D01*
X179403Y876475D01*
X179474Y876595D01*
X179543Y876717D01*
X179608Y876841D01*
X179669Y876967D01*
X179727Y877094D01*
X179782Y877223D01*
X179832Y877354D01*
X179880Y877486D01*
X179923Y877619D01*
X179963Y877753D01*
X180000Y877888D01*
X180032Y878024D01*
X180061Y878161D01*
X180086Y878299D01*
X180107Y878437D01*
X180124Y878576D01*
X180138Y878715D01*
X180147Y878855D01*
X180153Y878995D01*
X180155Y879135D01*
X243655Y743245D02*
X252545Y743245D01*
X243655Y743245D02*
X243555Y743243D01*
X243456Y743237D01*
X243356Y743227D01*
X243258Y743214D01*
X243159Y743196D01*
X243062Y743175D01*
X242966Y743150D01*
X242870Y743121D01*
X242776Y743088D01*
X242683Y743052D01*
X242592Y743012D01*
X242502Y742968D01*
X242414Y742921D01*
X242328Y742871D01*
X242244Y742817D01*
X242162Y742760D01*
X242083Y742700D01*
X242005Y742636D01*
X241931Y742570D01*
X241859Y742501D01*
X241790Y742429D01*
X241724Y742355D01*
X241660Y742277D01*
X241600Y742198D01*
X241543Y742116D01*
X241489Y742032D01*
X241439Y741946D01*
X241392Y741858D01*
X241348Y741768D01*
X241308Y741677D01*
X241272Y741584D01*
X241239Y741490D01*
X241210Y741394D01*
X241185Y741298D01*
X241164Y741201D01*
X241146Y741102D01*
X241133Y741004D01*
X241123Y740904D01*
X241117Y740805D01*
X241115Y740705D01*
X241115Y739435D01*
X241115Y749225D02*
X252545Y749225D01*
X252545Y752400D01*
X252543Y752511D01*
X252537Y752621D01*
X252528Y752732D01*
X252514Y752842D01*
X252497Y752951D01*
X252476Y753060D01*
X252451Y753168D01*
X252422Y753275D01*
X252390Y753381D01*
X252354Y753486D01*
X252314Y753589D01*
X252271Y753691D01*
X252224Y753792D01*
X252173Y753891D01*
X252120Y753988D01*
X252063Y754082D01*
X252002Y754175D01*
X251939Y754266D01*
X251872Y754355D01*
X251802Y754441D01*
X251729Y754524D01*
X251654Y754606D01*
X251576Y754684D01*
X251494Y754759D01*
X251411Y754832D01*
X251325Y754902D01*
X251236Y754969D01*
X251145Y755032D01*
X251052Y755093D01*
X250958Y755150D01*
X250861Y755203D01*
X250762Y755254D01*
X250661Y755301D01*
X250559Y755344D01*
X250456Y755384D01*
X250351Y755420D01*
X250245Y755452D01*
X250138Y755481D01*
X250030Y755506D01*
X249921Y755527D01*
X249812Y755544D01*
X249702Y755558D01*
X249591Y755567D01*
X249481Y755573D01*
X249370Y755575D01*
X249259Y755573D01*
X249149Y755567D01*
X249038Y755558D01*
X248928Y755544D01*
X248819Y755527D01*
X248710Y755506D01*
X248602Y755481D01*
X248495Y755452D01*
X248389Y755420D01*
X248284Y755384D01*
X248181Y755344D01*
X248079Y755301D01*
X247978Y755254D01*
X247879Y755203D01*
X247783Y755150D01*
X247688Y755093D01*
X247595Y755032D01*
X247504Y754969D01*
X247415Y754902D01*
X247329Y754832D01*
X247246Y754759D01*
X247164Y754684D01*
X247086Y754606D01*
X247011Y754524D01*
X246938Y754441D01*
X246868Y754355D01*
X246801Y754266D01*
X246738Y754175D01*
X246677Y754082D01*
X246620Y753988D01*
X246567Y753891D01*
X246516Y753792D01*
X246469Y753691D01*
X246426Y753589D01*
X246386Y753486D01*
X246350Y753381D01*
X246318Y753275D01*
X246289Y753168D01*
X246264Y753060D01*
X246243Y752951D01*
X246226Y752842D01*
X246212Y752732D01*
X246203Y752621D01*
X246197Y752511D01*
X246195Y752400D01*
X246195Y749225D01*
X243655Y760084D02*
X252545Y762624D01*
X243655Y760084D02*
X243655Y766434D01*
X246195Y764529D02*
X241115Y764529D01*
D10*
X231590Y498800D02*
X188410Y498800D01*
X231590Y524200D02*
X235400Y520390D01*
X231590Y524200D02*
X235400Y528010D01*
X235400Y545790D01*
X231590Y549600D01*
X235400Y553410D01*
X235400Y571190D01*
X231590Y575000D01*
X188410Y575000D02*
X184600Y571190D01*
X184600Y553410D01*
X188410Y549600D01*
X184600Y545790D01*
X184600Y528010D01*
X188410Y524200D01*
X184600Y520390D01*
X231590Y575000D02*
X235400Y578810D01*
X235400Y596590D01*
X231590Y600400D01*
X235400Y604210D01*
X235400Y621990D01*
X231590Y625800D01*
X184600Y578810D02*
X188410Y575000D01*
X184600Y578810D02*
X184600Y596590D01*
X188410Y600400D02*
X184600Y604210D01*
X188410Y600400D02*
X184600Y596590D01*
X184600Y604210D02*
X184600Y621990D01*
X188410Y625800D01*
X184600Y502610D02*
X188410Y498800D01*
X184600Y502610D02*
X184600Y520390D01*
X231590Y498800D02*
X235400Y502610D01*
X235400Y520390D01*
X231590Y651200D02*
X188410Y651200D01*
X231590Y625800D02*
X235400Y629610D01*
X235400Y647390D01*
X231590Y651200D01*
X188410Y651200D02*
X184600Y647390D01*
X184600Y629610D01*
X188410Y625800D01*
D11*
X180155Y510230D02*
X177615Y507055D01*
X180155Y510230D02*
X168725Y510230D01*
X168725Y507055D02*
X168725Y513405D01*
X180156Y535948D02*
X180154Y536052D01*
X180148Y536157D01*
X180139Y536261D01*
X180126Y536364D01*
X180108Y536467D01*
X180088Y536569D01*
X180063Y536671D01*
X180035Y536771D01*
X180003Y536871D01*
X179967Y536969D01*
X179928Y537066D01*
X179886Y537161D01*
X179840Y537255D01*
X179790Y537347D01*
X179738Y537437D01*
X179682Y537525D01*
X179622Y537611D01*
X179560Y537695D01*
X179495Y537776D01*
X179427Y537855D01*
X179355Y537932D01*
X179282Y538005D01*
X179205Y538077D01*
X179126Y538145D01*
X179045Y538210D01*
X178961Y538272D01*
X178875Y538332D01*
X178787Y538388D01*
X178697Y538440D01*
X178605Y538490D01*
X178511Y538536D01*
X178416Y538578D01*
X178319Y538617D01*
X178221Y538653D01*
X178121Y538685D01*
X178021Y538713D01*
X177919Y538738D01*
X177817Y538758D01*
X177714Y538776D01*
X177611Y538789D01*
X177507Y538798D01*
X177402Y538804D01*
X177298Y538806D01*
X180155Y535948D02*
X180153Y535830D01*
X180147Y535711D01*
X180138Y535593D01*
X180125Y535476D01*
X180107Y535359D01*
X180087Y535242D01*
X180062Y535126D01*
X180034Y535011D01*
X180001Y534898D01*
X179966Y534785D01*
X179926Y534673D01*
X179884Y534563D01*
X179837Y534454D01*
X179787Y534346D01*
X179734Y534241D01*
X179677Y534137D01*
X179617Y534035D01*
X179554Y533935D01*
X179487Y533837D01*
X179418Y533741D01*
X179345Y533648D01*
X179269Y533557D01*
X179191Y533468D01*
X179109Y533382D01*
X179025Y533299D01*
X178939Y533218D01*
X178849Y533141D01*
X178758Y533066D01*
X178664Y532994D01*
X178567Y532925D01*
X178469Y532860D01*
X178368Y532797D01*
X178265Y532738D01*
X178161Y532682D01*
X178055Y532630D01*
X177947Y532581D01*
X177838Y532536D01*
X177727Y532494D01*
X177615Y532456D01*
X175076Y537853D02*
X175151Y537929D01*
X175230Y538004D01*
X175311Y538075D01*
X175395Y538144D01*
X175481Y538209D01*
X175569Y538271D01*
X175659Y538331D01*
X175751Y538387D01*
X175846Y538440D01*
X175942Y538489D01*
X176040Y538535D01*
X176139Y538578D01*
X176240Y538617D01*
X176342Y538652D01*
X176445Y538684D01*
X176549Y538712D01*
X176654Y538737D01*
X176761Y538758D01*
X176867Y538775D01*
X176974Y538788D01*
X177082Y538797D01*
X177190Y538803D01*
X177298Y538805D01*
X175075Y537853D02*
X168725Y532455D01*
X168725Y538805D01*
X168725Y557855D02*
X168725Y561030D01*
X168727Y561141D01*
X168733Y561251D01*
X168742Y561362D01*
X168756Y561472D01*
X168773Y561581D01*
X168794Y561690D01*
X168819Y561798D01*
X168848Y561905D01*
X168880Y562011D01*
X168916Y562116D01*
X168956Y562219D01*
X168999Y562321D01*
X169046Y562422D01*
X169097Y562521D01*
X169150Y562618D01*
X169207Y562712D01*
X169268Y562805D01*
X169331Y562896D01*
X169398Y562985D01*
X169468Y563071D01*
X169541Y563154D01*
X169616Y563236D01*
X169694Y563314D01*
X169776Y563389D01*
X169859Y563462D01*
X169945Y563532D01*
X170034Y563599D01*
X170125Y563662D01*
X170218Y563723D01*
X170313Y563780D01*
X170409Y563833D01*
X170508Y563884D01*
X170609Y563931D01*
X170711Y563974D01*
X170814Y564014D01*
X170919Y564050D01*
X171025Y564082D01*
X171132Y564111D01*
X171240Y564136D01*
X171349Y564157D01*
X171458Y564174D01*
X171568Y564188D01*
X171679Y564197D01*
X171789Y564203D01*
X171900Y564205D01*
X172011Y564203D01*
X172121Y564197D01*
X172232Y564188D01*
X172342Y564174D01*
X172451Y564157D01*
X172560Y564136D01*
X172668Y564111D01*
X172775Y564082D01*
X172881Y564050D01*
X172986Y564014D01*
X173089Y563974D01*
X173191Y563931D01*
X173292Y563884D01*
X173391Y563833D01*
X173488Y563780D01*
X173582Y563723D01*
X173675Y563662D01*
X173766Y563599D01*
X173855Y563532D01*
X173941Y563462D01*
X174024Y563389D01*
X174106Y563314D01*
X174184Y563236D01*
X174259Y563154D01*
X174332Y563071D01*
X174402Y562985D01*
X174469Y562896D01*
X174532Y562805D01*
X174593Y562712D01*
X174650Y562618D01*
X174703Y562521D01*
X174754Y562422D01*
X174801Y562321D01*
X174844Y562219D01*
X174884Y562116D01*
X174920Y562011D01*
X174952Y561905D01*
X174981Y561798D01*
X175006Y561690D01*
X175027Y561581D01*
X175044Y561472D01*
X175058Y561362D01*
X175067Y561251D01*
X175073Y561141D01*
X175075Y561030D01*
X180155Y561665D02*
X180155Y557855D01*
X180155Y561665D02*
X180153Y561765D01*
X180147Y561864D01*
X180137Y561964D01*
X180124Y562062D01*
X180106Y562161D01*
X180085Y562258D01*
X180060Y562354D01*
X180031Y562450D01*
X179998Y562544D01*
X179962Y562637D01*
X179922Y562728D01*
X179878Y562818D01*
X179831Y562906D01*
X179781Y562992D01*
X179727Y563076D01*
X179670Y563158D01*
X179610Y563237D01*
X179546Y563315D01*
X179480Y563389D01*
X179411Y563461D01*
X179339Y563530D01*
X179265Y563596D01*
X179187Y563660D01*
X179108Y563720D01*
X179026Y563777D01*
X178942Y563831D01*
X178856Y563881D01*
X178768Y563928D01*
X178678Y563972D01*
X178587Y564012D01*
X178494Y564048D01*
X178400Y564081D01*
X178304Y564110D01*
X178208Y564135D01*
X178111Y564156D01*
X178012Y564174D01*
X177914Y564187D01*
X177814Y564197D01*
X177715Y564203D01*
X177615Y564205D01*
X177515Y564203D01*
X177416Y564197D01*
X177316Y564187D01*
X177218Y564174D01*
X177119Y564156D01*
X177022Y564135D01*
X176926Y564110D01*
X176830Y564081D01*
X176736Y564048D01*
X176643Y564012D01*
X176552Y563972D01*
X176462Y563928D01*
X176374Y563881D01*
X176288Y563831D01*
X176204Y563777D01*
X176122Y563720D01*
X176043Y563660D01*
X175965Y563596D01*
X175891Y563530D01*
X175819Y563461D01*
X175750Y563389D01*
X175684Y563315D01*
X175620Y563237D01*
X175560Y563158D01*
X175503Y563076D01*
X175449Y562992D01*
X175399Y562906D01*
X175352Y562818D01*
X175308Y562728D01*
X175268Y562637D01*
X175232Y562544D01*
X175199Y562450D01*
X175170Y562354D01*
X175145Y562258D01*
X175124Y562161D01*
X175106Y562062D01*
X175093Y561964D01*
X175083Y561864D01*
X175077Y561765D01*
X175075Y561665D01*
X175075Y559125D01*
X171265Y583255D02*
X180155Y585795D01*
X171265Y583255D02*
X171265Y589605D01*
X173805Y587700D02*
X168725Y587700D01*
X168725Y608655D02*
X168725Y612465D01*
X168727Y612565D01*
X168733Y612664D01*
X168743Y612764D01*
X168756Y612862D01*
X168774Y612961D01*
X168795Y613058D01*
X168820Y613154D01*
X168849Y613250D01*
X168882Y613344D01*
X168918Y613437D01*
X168958Y613528D01*
X169002Y613618D01*
X169049Y613706D01*
X169099Y613792D01*
X169153Y613876D01*
X169210Y613958D01*
X169270Y614037D01*
X169334Y614115D01*
X169400Y614189D01*
X169469Y614261D01*
X169541Y614330D01*
X169615Y614396D01*
X169693Y614460D01*
X169772Y614520D01*
X169854Y614577D01*
X169938Y614631D01*
X170024Y614681D01*
X170112Y614728D01*
X170202Y614772D01*
X170293Y614812D01*
X170386Y614848D01*
X170480Y614881D01*
X170576Y614910D01*
X170672Y614935D01*
X170769Y614956D01*
X170868Y614974D01*
X170966Y614987D01*
X171066Y614997D01*
X171165Y615003D01*
X171265Y615005D01*
X172535Y615005D01*
X172635Y615003D01*
X172734Y614997D01*
X172834Y614987D01*
X172932Y614974D01*
X173031Y614956D01*
X173128Y614935D01*
X173224Y614910D01*
X173320Y614881D01*
X173414Y614848D01*
X173507Y614812D01*
X173598Y614772D01*
X173688Y614728D01*
X173776Y614681D01*
X173862Y614631D01*
X173946Y614577D01*
X174028Y614520D01*
X174107Y614460D01*
X174185Y614396D01*
X174259Y614330D01*
X174331Y614261D01*
X174400Y614189D01*
X174466Y614115D01*
X174530Y614037D01*
X174590Y613958D01*
X174647Y613876D01*
X174701Y613792D01*
X174751Y613706D01*
X174798Y613618D01*
X174842Y613528D01*
X174882Y613437D01*
X174918Y613344D01*
X174951Y613250D01*
X174980Y613154D01*
X175005Y613058D01*
X175026Y612961D01*
X175044Y612862D01*
X175057Y612764D01*
X175067Y612664D01*
X175073Y612565D01*
X175075Y612465D01*
X175075Y608655D01*
X180155Y608655D01*
X180155Y615005D01*
X175075Y634055D02*
X175075Y637865D01*
X175073Y637965D01*
X175067Y638064D01*
X175057Y638164D01*
X175044Y638262D01*
X175026Y638361D01*
X175005Y638458D01*
X174980Y638554D01*
X174951Y638650D01*
X174918Y638744D01*
X174882Y638837D01*
X174842Y638928D01*
X174798Y639018D01*
X174751Y639106D01*
X174701Y639192D01*
X174647Y639276D01*
X174590Y639358D01*
X174530Y639437D01*
X174466Y639515D01*
X174400Y639589D01*
X174331Y639661D01*
X174259Y639730D01*
X174185Y639796D01*
X174107Y639860D01*
X174028Y639920D01*
X173946Y639977D01*
X173862Y640031D01*
X173776Y640081D01*
X173688Y640128D01*
X173598Y640172D01*
X173507Y640212D01*
X173414Y640248D01*
X173320Y640281D01*
X173224Y640310D01*
X173128Y640335D01*
X173031Y640356D01*
X172932Y640374D01*
X172834Y640387D01*
X172734Y640397D01*
X172635Y640403D01*
X172535Y640405D01*
X171900Y640405D01*
X171789Y640403D01*
X171679Y640397D01*
X171568Y640388D01*
X171458Y640374D01*
X171349Y640357D01*
X171240Y640336D01*
X171132Y640311D01*
X171025Y640282D01*
X170919Y640250D01*
X170814Y640214D01*
X170711Y640174D01*
X170609Y640131D01*
X170508Y640084D01*
X170409Y640033D01*
X170313Y639980D01*
X170218Y639923D01*
X170125Y639862D01*
X170034Y639799D01*
X169945Y639732D01*
X169859Y639662D01*
X169776Y639589D01*
X169694Y639514D01*
X169616Y639436D01*
X169541Y639354D01*
X169468Y639271D01*
X169398Y639185D01*
X169331Y639096D01*
X169268Y639005D01*
X169207Y638912D01*
X169150Y638818D01*
X169097Y638721D01*
X169046Y638622D01*
X168999Y638521D01*
X168956Y638419D01*
X168916Y638316D01*
X168880Y638211D01*
X168848Y638105D01*
X168819Y637998D01*
X168794Y637890D01*
X168773Y637781D01*
X168756Y637672D01*
X168742Y637562D01*
X168733Y637451D01*
X168727Y637341D01*
X168725Y637230D01*
X168727Y637119D01*
X168733Y637009D01*
X168742Y636898D01*
X168756Y636788D01*
X168773Y636679D01*
X168794Y636570D01*
X168819Y636462D01*
X168848Y636355D01*
X168880Y636249D01*
X168916Y636144D01*
X168956Y636041D01*
X168999Y635939D01*
X169046Y635838D01*
X169097Y635739D01*
X169150Y635643D01*
X169207Y635548D01*
X169268Y635455D01*
X169331Y635364D01*
X169398Y635275D01*
X169468Y635189D01*
X169541Y635106D01*
X169616Y635024D01*
X169694Y634946D01*
X169776Y634871D01*
X169859Y634798D01*
X169945Y634728D01*
X170034Y634661D01*
X170125Y634598D01*
X170218Y634537D01*
X170313Y634480D01*
X170409Y634427D01*
X170508Y634376D01*
X170609Y634329D01*
X170711Y634286D01*
X170814Y634246D01*
X170919Y634210D01*
X171025Y634178D01*
X171132Y634149D01*
X171240Y634124D01*
X171349Y634103D01*
X171458Y634086D01*
X171568Y634072D01*
X171679Y634063D01*
X171789Y634057D01*
X171900Y634055D01*
X175075Y634055D01*
X175215Y634057D01*
X175355Y634063D01*
X175495Y634072D01*
X175634Y634086D01*
X175773Y634103D01*
X175911Y634124D01*
X176049Y634149D01*
X176186Y634178D01*
X176322Y634210D01*
X176457Y634247D01*
X176591Y634287D01*
X176724Y634330D01*
X176856Y634378D01*
X176987Y634428D01*
X177116Y634483D01*
X177243Y634541D01*
X177369Y634602D01*
X177493Y634667D01*
X177615Y634736D01*
X177735Y634807D01*
X177853Y634882D01*
X177970Y634960D01*
X178084Y635042D01*
X178195Y635126D01*
X178304Y635214D01*
X178411Y635304D01*
X178516Y635398D01*
X178617Y635494D01*
X178716Y635593D01*
X178812Y635694D01*
X178906Y635799D01*
X178996Y635906D01*
X179084Y636015D01*
X179168Y636126D01*
X179250Y636240D01*
X179328Y636357D01*
X179403Y636475D01*
X179474Y636595D01*
X179543Y636717D01*
X179608Y636841D01*
X179669Y636967D01*
X179727Y637094D01*
X179782Y637223D01*
X179832Y637354D01*
X179880Y637486D01*
X179923Y637619D01*
X179963Y637753D01*
X180000Y637888D01*
X180032Y638024D01*
X180061Y638161D01*
X180086Y638299D01*
X180107Y638437D01*
X180124Y638576D01*
X180138Y638715D01*
X180147Y638855D01*
X180153Y638995D01*
X180155Y639135D01*
X243655Y503245D02*
X252545Y503245D01*
X243655Y503245D02*
X243555Y503243D01*
X243456Y503237D01*
X243356Y503227D01*
X243258Y503214D01*
X243159Y503196D01*
X243062Y503175D01*
X242966Y503150D01*
X242870Y503121D01*
X242776Y503088D01*
X242683Y503052D01*
X242592Y503012D01*
X242502Y502968D01*
X242414Y502921D01*
X242328Y502871D01*
X242244Y502817D01*
X242162Y502760D01*
X242083Y502700D01*
X242005Y502636D01*
X241931Y502570D01*
X241859Y502501D01*
X241790Y502429D01*
X241724Y502355D01*
X241660Y502277D01*
X241600Y502198D01*
X241543Y502116D01*
X241489Y502032D01*
X241439Y501946D01*
X241392Y501858D01*
X241348Y501768D01*
X241308Y501677D01*
X241272Y501584D01*
X241239Y501490D01*
X241210Y501394D01*
X241185Y501298D01*
X241164Y501201D01*
X241146Y501102D01*
X241133Y501004D01*
X241123Y500904D01*
X241117Y500805D01*
X241115Y500705D01*
X241115Y499435D01*
X241115Y509225D02*
X252545Y509225D01*
X252545Y512400D01*
X252543Y512511D01*
X252537Y512621D01*
X252528Y512732D01*
X252514Y512842D01*
X252497Y512951D01*
X252476Y513060D01*
X252451Y513168D01*
X252422Y513275D01*
X252390Y513381D01*
X252354Y513486D01*
X252314Y513589D01*
X252271Y513691D01*
X252224Y513792D01*
X252173Y513891D01*
X252120Y513988D01*
X252063Y514082D01*
X252002Y514175D01*
X251939Y514266D01*
X251872Y514355D01*
X251802Y514441D01*
X251729Y514524D01*
X251654Y514606D01*
X251576Y514684D01*
X251494Y514759D01*
X251411Y514832D01*
X251325Y514902D01*
X251236Y514969D01*
X251145Y515032D01*
X251052Y515093D01*
X250958Y515150D01*
X250861Y515203D01*
X250762Y515254D01*
X250661Y515301D01*
X250559Y515344D01*
X250456Y515384D01*
X250351Y515420D01*
X250245Y515452D01*
X250138Y515481D01*
X250030Y515506D01*
X249921Y515527D01*
X249812Y515544D01*
X249702Y515558D01*
X249591Y515567D01*
X249481Y515573D01*
X249370Y515575D01*
X249259Y515573D01*
X249149Y515567D01*
X249038Y515558D01*
X248928Y515544D01*
X248819Y515527D01*
X248710Y515506D01*
X248602Y515481D01*
X248495Y515452D01*
X248389Y515420D01*
X248284Y515384D01*
X248181Y515344D01*
X248079Y515301D01*
X247978Y515254D01*
X247879Y515203D01*
X247783Y515150D01*
X247688Y515093D01*
X247595Y515032D01*
X247504Y514969D01*
X247415Y514902D01*
X247329Y514832D01*
X247246Y514759D01*
X247164Y514684D01*
X247086Y514606D01*
X247011Y514524D01*
X246938Y514441D01*
X246868Y514355D01*
X246801Y514266D01*
X246738Y514175D01*
X246677Y514082D01*
X246620Y513988D01*
X246567Y513891D01*
X246516Y513792D01*
X246469Y513691D01*
X246426Y513589D01*
X246386Y513486D01*
X246350Y513381D01*
X246318Y513275D01*
X246289Y513168D01*
X246264Y513060D01*
X246243Y512951D01*
X246226Y512842D01*
X246212Y512732D01*
X246203Y512621D01*
X246197Y512511D01*
X246195Y512400D01*
X246195Y509225D01*
X241115Y520084D02*
X241115Y523894D01*
X241117Y523994D01*
X241123Y524093D01*
X241133Y524193D01*
X241146Y524291D01*
X241164Y524390D01*
X241185Y524487D01*
X241210Y524583D01*
X241239Y524679D01*
X241272Y524773D01*
X241308Y524866D01*
X241348Y524957D01*
X241392Y525047D01*
X241439Y525135D01*
X241489Y525221D01*
X241543Y525305D01*
X241600Y525387D01*
X241660Y525466D01*
X241724Y525544D01*
X241790Y525618D01*
X241859Y525690D01*
X241931Y525759D01*
X242005Y525825D01*
X242083Y525889D01*
X242162Y525949D01*
X242244Y526006D01*
X242328Y526060D01*
X242414Y526110D01*
X242502Y526157D01*
X242592Y526201D01*
X242683Y526241D01*
X242776Y526277D01*
X242870Y526310D01*
X242966Y526339D01*
X243062Y526364D01*
X243159Y526385D01*
X243258Y526403D01*
X243356Y526416D01*
X243456Y526426D01*
X243555Y526432D01*
X243655Y526434D01*
X244925Y526434D01*
X245025Y526432D01*
X245124Y526426D01*
X245224Y526416D01*
X245322Y526403D01*
X245421Y526385D01*
X245518Y526364D01*
X245614Y526339D01*
X245710Y526310D01*
X245804Y526277D01*
X245897Y526241D01*
X245988Y526201D01*
X246078Y526157D01*
X246166Y526110D01*
X246252Y526060D01*
X246336Y526006D01*
X246418Y525949D01*
X246497Y525889D01*
X246575Y525825D01*
X246649Y525759D01*
X246721Y525690D01*
X246790Y525618D01*
X246856Y525544D01*
X246920Y525466D01*
X246980Y525387D01*
X247037Y525305D01*
X247091Y525221D01*
X247141Y525135D01*
X247188Y525047D01*
X247232Y524957D01*
X247272Y524866D01*
X247308Y524773D01*
X247341Y524679D01*
X247370Y524583D01*
X247395Y524487D01*
X247416Y524390D01*
X247434Y524291D01*
X247447Y524193D01*
X247457Y524093D01*
X247463Y523994D01*
X247465Y523894D01*
X247465Y520084D01*
X252545Y520084D01*
X252545Y526434D01*
D10*
X231590Y258800D02*
X188410Y258800D01*
X231590Y284200D02*
X235400Y280390D01*
X231590Y284200D02*
X235400Y288010D01*
X235400Y305790D01*
X231590Y309600D01*
X235400Y313410D01*
X235400Y331190D01*
X231590Y335000D01*
X188410Y335000D02*
X184600Y331190D01*
X184600Y313410D01*
X188410Y309600D01*
X184600Y305790D01*
X184600Y288010D01*
X188410Y284200D01*
X184600Y280390D01*
X231590Y335000D02*
X235400Y338810D01*
X235400Y356590D01*
X231590Y360400D01*
X235400Y364210D01*
X235400Y381990D01*
X231590Y385800D01*
X184600Y338810D02*
X188410Y335000D01*
X184600Y338810D02*
X184600Y356590D01*
X188410Y360400D02*
X184600Y364210D01*
X188410Y360400D02*
X184600Y356590D01*
X184600Y364210D02*
X184600Y381990D01*
X188410Y385800D01*
X184600Y262610D02*
X188410Y258800D01*
X184600Y262610D02*
X184600Y280390D01*
X231590Y258800D02*
X235400Y262610D01*
X235400Y280390D01*
X231590Y411200D02*
X188410Y411200D01*
X231590Y385800D02*
X235400Y389610D01*
X235400Y407390D01*
X231590Y411200D01*
X188410Y411200D02*
X184600Y407390D01*
X184600Y389610D01*
X188410Y385800D01*
D11*
X180155Y270230D02*
X177615Y267055D01*
X180155Y270230D02*
X168725Y270230D01*
X168725Y267055D02*
X168725Y273405D01*
X180156Y295948D02*
X180154Y296052D01*
X180148Y296157D01*
X180139Y296261D01*
X180126Y296364D01*
X180108Y296467D01*
X180088Y296569D01*
X180063Y296671D01*
X180035Y296771D01*
X180003Y296871D01*
X179967Y296969D01*
X179928Y297066D01*
X179886Y297161D01*
X179840Y297255D01*
X179790Y297347D01*
X179738Y297437D01*
X179682Y297525D01*
X179622Y297611D01*
X179560Y297695D01*
X179495Y297776D01*
X179427Y297855D01*
X179355Y297932D01*
X179282Y298005D01*
X179205Y298077D01*
X179126Y298145D01*
X179045Y298210D01*
X178961Y298272D01*
X178875Y298332D01*
X178787Y298388D01*
X178697Y298440D01*
X178605Y298490D01*
X178511Y298536D01*
X178416Y298578D01*
X178319Y298617D01*
X178221Y298653D01*
X178121Y298685D01*
X178021Y298713D01*
X177919Y298738D01*
X177817Y298758D01*
X177714Y298776D01*
X177611Y298789D01*
X177507Y298798D01*
X177402Y298804D01*
X177298Y298806D01*
X180155Y295948D02*
X180153Y295830D01*
X180147Y295711D01*
X180138Y295593D01*
X180125Y295476D01*
X180107Y295359D01*
X180087Y295242D01*
X180062Y295126D01*
X180034Y295011D01*
X180001Y294898D01*
X179966Y294785D01*
X179926Y294673D01*
X179884Y294563D01*
X179837Y294454D01*
X179787Y294346D01*
X179734Y294241D01*
X179677Y294137D01*
X179617Y294035D01*
X179554Y293935D01*
X179487Y293837D01*
X179418Y293741D01*
X179345Y293648D01*
X179269Y293557D01*
X179191Y293468D01*
X179109Y293382D01*
X179025Y293299D01*
X178939Y293218D01*
X178849Y293141D01*
X178758Y293066D01*
X178664Y292994D01*
X178567Y292925D01*
X178469Y292860D01*
X178368Y292797D01*
X178265Y292738D01*
X178161Y292682D01*
X178055Y292630D01*
X177947Y292581D01*
X177838Y292536D01*
X177727Y292494D01*
X177615Y292456D01*
X175076Y297853D02*
X175151Y297929D01*
X175230Y298004D01*
X175311Y298075D01*
X175395Y298144D01*
X175481Y298209D01*
X175569Y298271D01*
X175659Y298331D01*
X175751Y298387D01*
X175846Y298440D01*
X175942Y298489D01*
X176040Y298535D01*
X176139Y298578D01*
X176240Y298617D01*
X176342Y298652D01*
X176445Y298684D01*
X176549Y298712D01*
X176654Y298737D01*
X176761Y298758D01*
X176867Y298775D01*
X176974Y298788D01*
X177082Y298797D01*
X177190Y298803D01*
X177298Y298805D01*
X175075Y297853D02*
X168725Y292455D01*
X168725Y298805D01*
X168725Y317855D02*
X168725Y321030D01*
X168727Y321141D01*
X168733Y321251D01*
X168742Y321362D01*
X168756Y321472D01*
X168773Y321581D01*
X168794Y321690D01*
X168819Y321798D01*
X168848Y321905D01*
X168880Y322011D01*
X168916Y322116D01*
X168956Y322219D01*
X168999Y322321D01*
X169046Y322422D01*
X169097Y322521D01*
X169150Y322618D01*
X169207Y322712D01*
X169268Y322805D01*
X169331Y322896D01*
X169398Y322985D01*
X169468Y323071D01*
X169541Y323154D01*
X169616Y323236D01*
X169694Y323314D01*
X169776Y323389D01*
X169859Y323462D01*
X169945Y323532D01*
X170034Y323599D01*
X170125Y323662D01*
X170218Y323723D01*
X170313Y323780D01*
X170409Y323833D01*
X170508Y323884D01*
X170609Y323931D01*
X170711Y323974D01*
X170814Y324014D01*
X170919Y324050D01*
X171025Y324082D01*
X171132Y324111D01*
X171240Y324136D01*
X171349Y324157D01*
X171458Y324174D01*
X171568Y324188D01*
X171679Y324197D01*
X171789Y324203D01*
X171900Y324205D01*
X172011Y324203D01*
X172121Y324197D01*
X172232Y324188D01*
X172342Y324174D01*
X172451Y324157D01*
X172560Y324136D01*
X172668Y324111D01*
X172775Y324082D01*
X172881Y324050D01*
X172986Y324014D01*
X173089Y323974D01*
X173191Y323931D01*
X173292Y323884D01*
X173391Y323833D01*
X173488Y323780D01*
X173582Y323723D01*
X173675Y323662D01*
X173766Y323599D01*
X173855Y323532D01*
X173941Y323462D01*
X174024Y323389D01*
X174106Y323314D01*
X174184Y323236D01*
X174259Y323154D01*
X174332Y323071D01*
X174402Y322985D01*
X174469Y322896D01*
X174532Y322805D01*
X174593Y322712D01*
X174650Y322618D01*
X174703Y322521D01*
X174754Y322422D01*
X174801Y322321D01*
X174844Y322219D01*
X174884Y322116D01*
X174920Y322011D01*
X174952Y321905D01*
X174981Y321798D01*
X175006Y321690D01*
X175027Y321581D01*
X175044Y321472D01*
X175058Y321362D01*
X175067Y321251D01*
X175073Y321141D01*
X175075Y321030D01*
X180155Y321665D02*
X180155Y317855D01*
X180155Y321665D02*
X180153Y321765D01*
X180147Y321864D01*
X180137Y321964D01*
X180124Y322062D01*
X180106Y322161D01*
X180085Y322258D01*
X180060Y322354D01*
X180031Y322450D01*
X179998Y322544D01*
X179962Y322637D01*
X179922Y322728D01*
X179878Y322818D01*
X179831Y322906D01*
X179781Y322992D01*
X179727Y323076D01*
X179670Y323158D01*
X179610Y323237D01*
X179546Y323315D01*
X179480Y323389D01*
X179411Y323461D01*
X179339Y323530D01*
X179265Y323596D01*
X179187Y323660D01*
X179108Y323720D01*
X179026Y323777D01*
X178942Y323831D01*
X178856Y323881D01*
X178768Y323928D01*
X178678Y323972D01*
X178587Y324012D01*
X178494Y324048D01*
X178400Y324081D01*
X178304Y324110D01*
X178208Y324135D01*
X178111Y324156D01*
X178012Y324174D01*
X177914Y324187D01*
X177814Y324197D01*
X177715Y324203D01*
X177615Y324205D01*
X177515Y324203D01*
X177416Y324197D01*
X177316Y324187D01*
X177218Y324174D01*
X177119Y324156D01*
X177022Y324135D01*
X176926Y324110D01*
X176830Y324081D01*
X176736Y324048D01*
X176643Y324012D01*
X176552Y323972D01*
X176462Y323928D01*
X176374Y323881D01*
X176288Y323831D01*
X176204Y323777D01*
X176122Y323720D01*
X176043Y323660D01*
X175965Y323596D01*
X175891Y323530D01*
X175819Y323461D01*
X175750Y323389D01*
X175684Y323315D01*
X175620Y323237D01*
X175560Y323158D01*
X175503Y323076D01*
X175449Y322992D01*
X175399Y322906D01*
X175352Y322818D01*
X175308Y322728D01*
X175268Y322637D01*
X175232Y322544D01*
X175199Y322450D01*
X175170Y322354D01*
X175145Y322258D01*
X175124Y322161D01*
X175106Y322062D01*
X175093Y321964D01*
X175083Y321864D01*
X175077Y321765D01*
X175075Y321665D01*
X175075Y319125D01*
X171265Y343255D02*
X180155Y345795D01*
X171265Y343255D02*
X171265Y349605D01*
X173805Y347700D02*
X168725Y347700D01*
X168725Y368655D02*
X168725Y372465D01*
X168727Y372565D01*
X168733Y372664D01*
X168743Y372764D01*
X168756Y372862D01*
X168774Y372961D01*
X168795Y373058D01*
X168820Y373154D01*
X168849Y373250D01*
X168882Y373344D01*
X168918Y373437D01*
X168958Y373528D01*
X169002Y373618D01*
X169049Y373706D01*
X169099Y373792D01*
X169153Y373876D01*
X169210Y373958D01*
X169270Y374037D01*
X169334Y374115D01*
X169400Y374189D01*
X169469Y374261D01*
X169541Y374330D01*
X169615Y374396D01*
X169693Y374460D01*
X169772Y374520D01*
X169854Y374577D01*
X169938Y374631D01*
X170024Y374681D01*
X170112Y374728D01*
X170202Y374772D01*
X170293Y374812D01*
X170386Y374848D01*
X170480Y374881D01*
X170576Y374910D01*
X170672Y374935D01*
X170769Y374956D01*
X170868Y374974D01*
X170966Y374987D01*
X171066Y374997D01*
X171165Y375003D01*
X171265Y375005D01*
X172535Y375005D01*
X172635Y375003D01*
X172734Y374997D01*
X172834Y374987D01*
X172932Y374974D01*
X173031Y374956D01*
X173128Y374935D01*
X173224Y374910D01*
X173320Y374881D01*
X173414Y374848D01*
X173507Y374812D01*
X173598Y374772D01*
X173688Y374728D01*
X173776Y374681D01*
X173862Y374631D01*
X173946Y374577D01*
X174028Y374520D01*
X174107Y374460D01*
X174185Y374396D01*
X174259Y374330D01*
X174331Y374261D01*
X174400Y374189D01*
X174466Y374115D01*
X174530Y374037D01*
X174590Y373958D01*
X174647Y373876D01*
X174701Y373792D01*
X174751Y373706D01*
X174798Y373618D01*
X174842Y373528D01*
X174882Y373437D01*
X174918Y373344D01*
X174951Y373250D01*
X174980Y373154D01*
X175005Y373058D01*
X175026Y372961D01*
X175044Y372862D01*
X175057Y372764D01*
X175067Y372664D01*
X175073Y372565D01*
X175075Y372465D01*
X175075Y368655D01*
X180155Y368655D01*
X180155Y375005D01*
X175075Y394055D02*
X175075Y397865D01*
X175073Y397965D01*
X175067Y398064D01*
X175057Y398164D01*
X175044Y398262D01*
X175026Y398361D01*
X175005Y398458D01*
X174980Y398554D01*
X174951Y398650D01*
X174918Y398744D01*
X174882Y398837D01*
X174842Y398928D01*
X174798Y399018D01*
X174751Y399106D01*
X174701Y399192D01*
X174647Y399276D01*
X174590Y399358D01*
X174530Y399437D01*
X174466Y399515D01*
X174400Y399589D01*
X174331Y399661D01*
X174259Y399730D01*
X174185Y399796D01*
X174107Y399860D01*
X174028Y399920D01*
X173946Y399977D01*
X173862Y400031D01*
X173776Y400081D01*
X173688Y400128D01*
X173598Y400172D01*
X173507Y400212D01*
X173414Y400248D01*
X173320Y400281D01*
X173224Y400310D01*
X173128Y400335D01*
X173031Y400356D01*
X172932Y400374D01*
X172834Y400387D01*
X172734Y400397D01*
X172635Y400403D01*
X172535Y400405D01*
X171900Y400405D01*
X171789Y400403D01*
X171679Y400397D01*
X171568Y400388D01*
X171458Y400374D01*
X171349Y400357D01*
X171240Y400336D01*
X171132Y400311D01*
X171025Y400282D01*
X170919Y400250D01*
X170814Y400214D01*
X170711Y400174D01*
X170609Y400131D01*
X170508Y400084D01*
X170409Y400033D01*
X170313Y399980D01*
X170218Y399923D01*
X170125Y399862D01*
X170034Y399799D01*
X169945Y399732D01*
X169859Y399662D01*
X169776Y399589D01*
X169694Y399514D01*
X169616Y399436D01*
X169541Y399354D01*
X169468Y399271D01*
X169398Y399185D01*
X169331Y399096D01*
X169268Y399005D01*
X169207Y398912D01*
X169150Y398818D01*
X169097Y398721D01*
X169046Y398622D01*
X168999Y398521D01*
X168956Y398419D01*
X168916Y398316D01*
X168880Y398211D01*
X168848Y398105D01*
X168819Y397998D01*
X168794Y397890D01*
X168773Y397781D01*
X168756Y397672D01*
X168742Y397562D01*
X168733Y397451D01*
X168727Y397341D01*
X168725Y397230D01*
X168727Y397119D01*
X168733Y397009D01*
X168742Y396898D01*
X168756Y396788D01*
X168773Y396679D01*
X168794Y396570D01*
X168819Y396462D01*
X168848Y396355D01*
X168880Y396249D01*
X168916Y396144D01*
X168956Y396041D01*
X168999Y395939D01*
X169046Y395838D01*
X169097Y395739D01*
X169150Y395643D01*
X169207Y395548D01*
X169268Y395455D01*
X169331Y395364D01*
X169398Y395275D01*
X169468Y395189D01*
X169541Y395106D01*
X169616Y395024D01*
X169694Y394946D01*
X169776Y394871D01*
X169859Y394798D01*
X169945Y394728D01*
X170034Y394661D01*
X170125Y394598D01*
X170218Y394537D01*
X170313Y394480D01*
X170409Y394427D01*
X170508Y394376D01*
X170609Y394329D01*
X170711Y394286D01*
X170814Y394246D01*
X170919Y394210D01*
X171025Y394178D01*
X171132Y394149D01*
X171240Y394124D01*
X171349Y394103D01*
X171458Y394086D01*
X171568Y394072D01*
X171679Y394063D01*
X171789Y394057D01*
X171900Y394055D01*
X175075Y394055D01*
X175215Y394057D01*
X175355Y394063D01*
X175495Y394072D01*
X175634Y394086D01*
X175773Y394103D01*
X175911Y394124D01*
X176049Y394149D01*
X176186Y394178D01*
X176322Y394210D01*
X176457Y394247D01*
X176591Y394287D01*
X176724Y394330D01*
X176856Y394378D01*
X176987Y394428D01*
X177116Y394483D01*
X177243Y394541D01*
X177369Y394602D01*
X177493Y394667D01*
X177615Y394736D01*
X177735Y394807D01*
X177853Y394882D01*
X177970Y394960D01*
X178084Y395042D01*
X178195Y395126D01*
X178304Y395214D01*
X178411Y395304D01*
X178516Y395398D01*
X178617Y395494D01*
X178716Y395593D01*
X178812Y395694D01*
X178906Y395799D01*
X178996Y395906D01*
X179084Y396015D01*
X179168Y396126D01*
X179250Y396240D01*
X179328Y396357D01*
X179403Y396475D01*
X179474Y396595D01*
X179543Y396717D01*
X179608Y396841D01*
X179669Y396967D01*
X179727Y397094D01*
X179782Y397223D01*
X179832Y397354D01*
X179880Y397486D01*
X179923Y397619D01*
X179963Y397753D01*
X180000Y397888D01*
X180032Y398024D01*
X180061Y398161D01*
X180086Y398299D01*
X180107Y398437D01*
X180124Y398576D01*
X180138Y398715D01*
X180147Y398855D01*
X180153Y398995D01*
X180155Y399135D01*
X243655Y263245D02*
X252545Y263245D01*
X243655Y263245D02*
X243555Y263243D01*
X243456Y263237D01*
X243356Y263227D01*
X243258Y263214D01*
X243159Y263196D01*
X243062Y263175D01*
X242966Y263150D01*
X242870Y263121D01*
X242776Y263088D01*
X242683Y263052D01*
X242592Y263012D01*
X242502Y262968D01*
X242414Y262921D01*
X242328Y262871D01*
X242244Y262817D01*
X242162Y262760D01*
X242083Y262700D01*
X242005Y262636D01*
X241931Y262570D01*
X241859Y262501D01*
X241790Y262429D01*
X241724Y262355D01*
X241660Y262277D01*
X241600Y262198D01*
X241543Y262116D01*
X241489Y262032D01*
X241439Y261946D01*
X241392Y261858D01*
X241348Y261768D01*
X241308Y261677D01*
X241272Y261584D01*
X241239Y261490D01*
X241210Y261394D01*
X241185Y261298D01*
X241164Y261201D01*
X241146Y261102D01*
X241133Y261004D01*
X241123Y260904D01*
X241117Y260805D01*
X241115Y260705D01*
X241115Y259435D01*
X241115Y269225D02*
X252545Y269225D01*
X252545Y272400D01*
X252543Y272511D01*
X252537Y272621D01*
X252528Y272732D01*
X252514Y272842D01*
X252497Y272951D01*
X252476Y273060D01*
X252451Y273168D01*
X252422Y273275D01*
X252390Y273381D01*
X252354Y273486D01*
X252314Y273589D01*
X252271Y273691D01*
X252224Y273792D01*
X252173Y273891D01*
X252120Y273988D01*
X252063Y274082D01*
X252002Y274175D01*
X251939Y274266D01*
X251872Y274355D01*
X251802Y274441D01*
X251729Y274524D01*
X251654Y274606D01*
X251576Y274684D01*
X251494Y274759D01*
X251411Y274832D01*
X251325Y274902D01*
X251236Y274969D01*
X251145Y275032D01*
X251052Y275093D01*
X250958Y275150D01*
X250861Y275203D01*
X250762Y275254D01*
X250661Y275301D01*
X250559Y275344D01*
X250456Y275384D01*
X250351Y275420D01*
X250245Y275452D01*
X250138Y275481D01*
X250030Y275506D01*
X249921Y275527D01*
X249812Y275544D01*
X249702Y275558D01*
X249591Y275567D01*
X249481Y275573D01*
X249370Y275575D01*
X249259Y275573D01*
X249149Y275567D01*
X249038Y275558D01*
X248928Y275544D01*
X248819Y275527D01*
X248710Y275506D01*
X248602Y275481D01*
X248495Y275452D01*
X248389Y275420D01*
X248284Y275384D01*
X248181Y275344D01*
X248079Y275301D01*
X247978Y275254D01*
X247879Y275203D01*
X247783Y275150D01*
X247688Y275093D01*
X247595Y275032D01*
X247504Y274969D01*
X247415Y274902D01*
X247329Y274832D01*
X247246Y274759D01*
X247164Y274684D01*
X247086Y274606D01*
X247011Y274524D01*
X246938Y274441D01*
X246868Y274355D01*
X246801Y274266D01*
X246738Y274175D01*
X246677Y274082D01*
X246620Y273988D01*
X246567Y273891D01*
X246516Y273792D01*
X246469Y273691D01*
X246426Y273589D01*
X246386Y273486D01*
X246350Y273381D01*
X246318Y273275D01*
X246289Y273168D01*
X246264Y273060D01*
X246243Y272951D01*
X246226Y272842D01*
X246212Y272732D01*
X246203Y272621D01*
X246197Y272511D01*
X246195Y272400D01*
X246195Y269225D01*
X247465Y280084D02*
X247465Y283894D01*
X247463Y283994D01*
X247457Y284093D01*
X247447Y284193D01*
X247434Y284291D01*
X247416Y284390D01*
X247395Y284487D01*
X247370Y284583D01*
X247341Y284679D01*
X247308Y284773D01*
X247272Y284866D01*
X247232Y284957D01*
X247188Y285047D01*
X247141Y285135D01*
X247091Y285221D01*
X247037Y285305D01*
X246980Y285387D01*
X246920Y285466D01*
X246856Y285544D01*
X246790Y285618D01*
X246721Y285690D01*
X246649Y285759D01*
X246575Y285825D01*
X246497Y285889D01*
X246418Y285949D01*
X246336Y286006D01*
X246252Y286060D01*
X246166Y286110D01*
X246078Y286157D01*
X245988Y286201D01*
X245897Y286241D01*
X245804Y286277D01*
X245710Y286310D01*
X245614Y286339D01*
X245518Y286364D01*
X245421Y286385D01*
X245322Y286403D01*
X245224Y286416D01*
X245124Y286426D01*
X245025Y286432D01*
X244925Y286434D01*
X244290Y286434D01*
X244179Y286432D01*
X244069Y286426D01*
X243958Y286417D01*
X243848Y286403D01*
X243739Y286386D01*
X243630Y286365D01*
X243522Y286340D01*
X243415Y286311D01*
X243309Y286279D01*
X243204Y286243D01*
X243101Y286203D01*
X242999Y286160D01*
X242898Y286113D01*
X242799Y286062D01*
X242703Y286009D01*
X242608Y285952D01*
X242515Y285891D01*
X242424Y285828D01*
X242335Y285761D01*
X242249Y285691D01*
X242166Y285618D01*
X242084Y285543D01*
X242006Y285465D01*
X241931Y285383D01*
X241858Y285300D01*
X241788Y285214D01*
X241721Y285125D01*
X241658Y285034D01*
X241597Y284941D01*
X241540Y284847D01*
X241487Y284750D01*
X241436Y284651D01*
X241389Y284550D01*
X241346Y284448D01*
X241306Y284345D01*
X241270Y284240D01*
X241238Y284134D01*
X241209Y284027D01*
X241184Y283919D01*
X241163Y283810D01*
X241146Y283701D01*
X241132Y283591D01*
X241123Y283480D01*
X241117Y283370D01*
X241115Y283259D01*
X241117Y283148D01*
X241123Y283038D01*
X241132Y282927D01*
X241146Y282817D01*
X241163Y282708D01*
X241184Y282599D01*
X241209Y282491D01*
X241238Y282384D01*
X241270Y282278D01*
X241306Y282173D01*
X241346Y282070D01*
X241389Y281968D01*
X241436Y281867D01*
X241487Y281768D01*
X241540Y281672D01*
X241597Y281577D01*
X241658Y281484D01*
X241721Y281393D01*
X241788Y281304D01*
X241858Y281218D01*
X241931Y281135D01*
X242006Y281053D01*
X242084Y280975D01*
X242166Y280900D01*
X242249Y280827D01*
X242335Y280757D01*
X242424Y280690D01*
X242515Y280627D01*
X242608Y280566D01*
X242703Y280509D01*
X242799Y280456D01*
X242898Y280405D01*
X242999Y280358D01*
X243101Y280315D01*
X243204Y280275D01*
X243309Y280239D01*
X243415Y280207D01*
X243522Y280178D01*
X243630Y280153D01*
X243739Y280132D01*
X243848Y280115D01*
X243958Y280101D01*
X244069Y280092D01*
X244179Y280086D01*
X244290Y280084D01*
X247465Y280084D01*
X247605Y280086D01*
X247745Y280092D01*
X247885Y280101D01*
X248024Y280115D01*
X248163Y280132D01*
X248301Y280153D01*
X248439Y280178D01*
X248576Y280207D01*
X248712Y280239D01*
X248847Y280276D01*
X248981Y280316D01*
X249114Y280359D01*
X249246Y280407D01*
X249377Y280457D01*
X249506Y280512D01*
X249633Y280570D01*
X249759Y280631D01*
X249883Y280696D01*
X250005Y280765D01*
X250125Y280836D01*
X250243Y280911D01*
X250360Y280989D01*
X250474Y281071D01*
X250585Y281155D01*
X250694Y281243D01*
X250801Y281333D01*
X250906Y281427D01*
X251007Y281523D01*
X251106Y281622D01*
X251202Y281723D01*
X251296Y281828D01*
X251386Y281935D01*
X251474Y282044D01*
X251558Y282155D01*
X251640Y282269D01*
X251718Y282386D01*
X251793Y282504D01*
X251864Y282624D01*
X251933Y282746D01*
X251998Y282870D01*
X252059Y282996D01*
X252117Y283123D01*
X252172Y283252D01*
X252222Y283383D01*
X252270Y283515D01*
X252313Y283648D01*
X252353Y283782D01*
X252390Y283917D01*
X252422Y284053D01*
X252451Y284190D01*
X252476Y284328D01*
X252497Y284466D01*
X252514Y284605D01*
X252528Y284744D01*
X252537Y284884D01*
X252543Y285024D01*
X252545Y285164D01*
D10*
X231590Y18800D02*
X188410Y18800D01*
X231590Y44200D02*
X235400Y40390D01*
X231590Y44200D02*
X235400Y48010D01*
X235400Y65790D01*
X231590Y69600D01*
X235400Y73410D01*
X235400Y91190D01*
X231590Y95000D01*
X188410Y95000D02*
X184600Y91190D01*
X184600Y73410D01*
X188410Y69600D01*
X184600Y65790D01*
X184600Y48010D01*
X188410Y44200D01*
X184600Y40390D01*
X231590Y95000D02*
X235400Y98810D01*
X235400Y116590D01*
X231590Y120400D01*
X235400Y124210D01*
X235400Y141990D01*
X231590Y145800D01*
X184600Y98810D02*
X188410Y95000D01*
X184600Y98810D02*
X184600Y116590D01*
X188410Y120400D02*
X184600Y124210D01*
X188410Y120400D02*
X184600Y116590D01*
X184600Y124210D02*
X184600Y141990D01*
X188410Y145800D01*
X184600Y22610D02*
X188410Y18800D01*
X184600Y22610D02*
X184600Y40390D01*
X231590Y18800D02*
X235400Y22610D01*
X235400Y40390D01*
X231590Y171200D02*
X188410Y171200D01*
X231590Y145800D02*
X235400Y149610D01*
X235400Y167390D01*
X231590Y171200D01*
X188410Y171200D02*
X184600Y167390D01*
X184600Y149610D01*
X188410Y145800D01*
D11*
X180155Y30230D02*
X177615Y27055D01*
X180155Y30230D02*
X168725Y30230D01*
X168725Y27055D02*
X168725Y33405D01*
X180156Y55948D02*
X180154Y56052D01*
X180148Y56157D01*
X180139Y56261D01*
X180126Y56364D01*
X180108Y56467D01*
X180088Y56569D01*
X180063Y56671D01*
X180035Y56771D01*
X180003Y56871D01*
X179967Y56969D01*
X179928Y57066D01*
X179886Y57161D01*
X179840Y57255D01*
X179790Y57347D01*
X179738Y57437D01*
X179682Y57525D01*
X179622Y57611D01*
X179560Y57695D01*
X179495Y57776D01*
X179427Y57855D01*
X179355Y57932D01*
X179282Y58005D01*
X179205Y58077D01*
X179126Y58145D01*
X179045Y58210D01*
X178961Y58272D01*
X178875Y58332D01*
X178787Y58388D01*
X178697Y58440D01*
X178605Y58490D01*
X178511Y58536D01*
X178416Y58578D01*
X178319Y58617D01*
X178221Y58653D01*
X178121Y58685D01*
X178021Y58713D01*
X177919Y58738D01*
X177817Y58758D01*
X177714Y58776D01*
X177611Y58789D01*
X177507Y58798D01*
X177402Y58804D01*
X177298Y58806D01*
X180155Y55948D02*
X180153Y55830D01*
X180147Y55711D01*
X180138Y55593D01*
X180125Y55476D01*
X180107Y55359D01*
X180087Y55242D01*
X180062Y55126D01*
X180034Y55011D01*
X180001Y54898D01*
X179966Y54785D01*
X179926Y54673D01*
X179884Y54563D01*
X179837Y54454D01*
X179787Y54346D01*
X179734Y54241D01*
X179677Y54137D01*
X179617Y54035D01*
X179554Y53935D01*
X179487Y53837D01*
X179418Y53741D01*
X179345Y53648D01*
X179269Y53557D01*
X179191Y53468D01*
X179109Y53382D01*
X179025Y53299D01*
X178939Y53218D01*
X178849Y53141D01*
X178758Y53066D01*
X178664Y52994D01*
X178567Y52925D01*
X178469Y52860D01*
X178368Y52797D01*
X178265Y52738D01*
X178161Y52682D01*
X178055Y52630D01*
X177947Y52581D01*
X177838Y52536D01*
X177727Y52494D01*
X177615Y52456D01*
X175076Y57853D02*
X175151Y57929D01*
X175230Y58004D01*
X175311Y58075D01*
X175395Y58144D01*
X175481Y58209D01*
X175569Y58271D01*
X175659Y58331D01*
X175751Y58387D01*
X175846Y58440D01*
X175942Y58489D01*
X176040Y58535D01*
X176139Y58578D01*
X176240Y58617D01*
X176342Y58652D01*
X176445Y58684D01*
X176549Y58712D01*
X176654Y58737D01*
X176761Y58758D01*
X176867Y58775D01*
X176974Y58788D01*
X177082Y58797D01*
X177190Y58803D01*
X177298Y58805D01*
X175075Y57853D02*
X168725Y52455D01*
X168725Y58805D01*
X168725Y77855D02*
X168725Y81030D01*
X168727Y81141D01*
X168733Y81251D01*
X168742Y81362D01*
X168756Y81472D01*
X168773Y81581D01*
X168794Y81690D01*
X168819Y81798D01*
X168848Y81905D01*
X168880Y82011D01*
X168916Y82116D01*
X168956Y82219D01*
X168999Y82321D01*
X169046Y82422D01*
X169097Y82521D01*
X169150Y82617D01*
X169207Y82712D01*
X169268Y82805D01*
X169331Y82896D01*
X169398Y82985D01*
X169468Y83071D01*
X169541Y83154D01*
X169616Y83236D01*
X169694Y83314D01*
X169776Y83389D01*
X169859Y83462D01*
X169945Y83532D01*
X170034Y83599D01*
X170125Y83662D01*
X170218Y83723D01*
X170313Y83780D01*
X170409Y83833D01*
X170508Y83884D01*
X170609Y83931D01*
X170711Y83974D01*
X170814Y84014D01*
X170919Y84050D01*
X171025Y84082D01*
X171132Y84111D01*
X171240Y84136D01*
X171349Y84157D01*
X171458Y84174D01*
X171568Y84188D01*
X171679Y84197D01*
X171789Y84203D01*
X171900Y84205D01*
X172011Y84203D01*
X172121Y84197D01*
X172232Y84188D01*
X172342Y84174D01*
X172451Y84157D01*
X172560Y84136D01*
X172668Y84111D01*
X172775Y84082D01*
X172881Y84050D01*
X172986Y84014D01*
X173089Y83974D01*
X173191Y83931D01*
X173292Y83884D01*
X173391Y83833D01*
X173488Y83780D01*
X173582Y83723D01*
X173675Y83662D01*
X173766Y83599D01*
X173855Y83532D01*
X173941Y83462D01*
X174024Y83389D01*
X174106Y83314D01*
X174184Y83236D01*
X174259Y83154D01*
X174332Y83071D01*
X174402Y82985D01*
X174469Y82896D01*
X174532Y82805D01*
X174593Y82712D01*
X174650Y82618D01*
X174703Y82521D01*
X174754Y82422D01*
X174801Y82321D01*
X174844Y82219D01*
X174884Y82116D01*
X174920Y82011D01*
X174952Y81905D01*
X174981Y81798D01*
X175006Y81690D01*
X175027Y81581D01*
X175044Y81472D01*
X175058Y81362D01*
X175067Y81251D01*
X175073Y81141D01*
X175075Y81030D01*
X180155Y81665D02*
X180155Y77855D01*
X180155Y81665D02*
X180153Y81765D01*
X180147Y81864D01*
X180137Y81964D01*
X180124Y82062D01*
X180106Y82161D01*
X180085Y82258D01*
X180060Y82354D01*
X180031Y82450D01*
X179998Y82544D01*
X179962Y82637D01*
X179922Y82728D01*
X179878Y82818D01*
X179831Y82906D01*
X179781Y82992D01*
X179727Y83076D01*
X179670Y83158D01*
X179610Y83237D01*
X179546Y83315D01*
X179480Y83389D01*
X179411Y83461D01*
X179339Y83530D01*
X179265Y83596D01*
X179187Y83660D01*
X179108Y83720D01*
X179026Y83777D01*
X178942Y83831D01*
X178856Y83881D01*
X178768Y83928D01*
X178678Y83972D01*
X178587Y84012D01*
X178494Y84048D01*
X178400Y84081D01*
X178304Y84110D01*
X178208Y84135D01*
X178111Y84156D01*
X178012Y84174D01*
X177914Y84187D01*
X177814Y84197D01*
X177715Y84203D01*
X177615Y84205D01*
X177515Y84203D01*
X177416Y84197D01*
X177316Y84187D01*
X177218Y84174D01*
X177119Y84156D01*
X177022Y84135D01*
X176926Y84110D01*
X176830Y84081D01*
X176736Y84048D01*
X176643Y84012D01*
X176552Y83972D01*
X176462Y83928D01*
X176374Y83881D01*
X176288Y83831D01*
X176204Y83777D01*
X176122Y83720D01*
X176043Y83660D01*
X175965Y83596D01*
X175891Y83530D01*
X175819Y83461D01*
X175750Y83389D01*
X175684Y83315D01*
X175620Y83237D01*
X175560Y83158D01*
X175503Y83076D01*
X175449Y82992D01*
X175399Y82906D01*
X175352Y82818D01*
X175308Y82728D01*
X175268Y82637D01*
X175232Y82544D01*
X175199Y82450D01*
X175170Y82354D01*
X175145Y82258D01*
X175124Y82161D01*
X175106Y82062D01*
X175093Y81964D01*
X175083Y81864D01*
X175077Y81765D01*
X175075Y81665D01*
X175075Y79125D01*
X171265Y103255D02*
X180155Y105795D01*
X171265Y103255D02*
X171265Y109605D01*
X173805Y107700D02*
X168725Y107700D01*
X168725Y128655D02*
X168725Y132465D01*
X168727Y132565D01*
X168733Y132664D01*
X168743Y132764D01*
X168756Y132862D01*
X168774Y132961D01*
X168795Y133058D01*
X168820Y133154D01*
X168849Y133250D01*
X168882Y133344D01*
X168918Y133437D01*
X168958Y133528D01*
X169002Y133618D01*
X169049Y133706D01*
X169099Y133792D01*
X169153Y133876D01*
X169210Y133958D01*
X169270Y134037D01*
X169334Y134115D01*
X169400Y134189D01*
X169469Y134261D01*
X169541Y134330D01*
X169615Y134396D01*
X169693Y134460D01*
X169772Y134520D01*
X169854Y134577D01*
X169938Y134631D01*
X170024Y134681D01*
X170112Y134728D01*
X170202Y134772D01*
X170293Y134812D01*
X170386Y134848D01*
X170480Y134881D01*
X170576Y134910D01*
X170672Y134935D01*
X170769Y134956D01*
X170868Y134974D01*
X170966Y134987D01*
X171066Y134997D01*
X171165Y135003D01*
X171265Y135005D01*
X172535Y135005D01*
X172635Y135003D01*
X172734Y134997D01*
X172834Y134987D01*
X172932Y134974D01*
X173031Y134956D01*
X173128Y134935D01*
X173224Y134910D01*
X173320Y134881D01*
X173414Y134848D01*
X173507Y134812D01*
X173598Y134772D01*
X173688Y134728D01*
X173776Y134681D01*
X173862Y134631D01*
X173946Y134577D01*
X174028Y134520D01*
X174107Y134460D01*
X174185Y134396D01*
X174259Y134330D01*
X174331Y134261D01*
X174400Y134189D01*
X174466Y134115D01*
X174530Y134037D01*
X174590Y133958D01*
X174647Y133876D01*
X174701Y133792D01*
X174751Y133706D01*
X174798Y133618D01*
X174842Y133528D01*
X174882Y133437D01*
X174918Y133344D01*
X174951Y133250D01*
X174980Y133154D01*
X175005Y133058D01*
X175026Y132961D01*
X175044Y132862D01*
X175057Y132764D01*
X175067Y132664D01*
X175073Y132565D01*
X175075Y132465D01*
X175075Y128655D01*
X180155Y128655D01*
X180155Y135005D01*
X175075Y154055D02*
X175075Y157865D01*
X175073Y157965D01*
X175067Y158064D01*
X175057Y158164D01*
X175044Y158262D01*
X175026Y158361D01*
X175005Y158458D01*
X174980Y158554D01*
X174951Y158650D01*
X174918Y158744D01*
X174882Y158837D01*
X174842Y158928D01*
X174798Y159018D01*
X174751Y159106D01*
X174701Y159192D01*
X174647Y159276D01*
X174590Y159358D01*
X174530Y159437D01*
X174466Y159515D01*
X174400Y159589D01*
X174331Y159661D01*
X174259Y159730D01*
X174185Y159796D01*
X174107Y159860D01*
X174028Y159920D01*
X173946Y159977D01*
X173862Y160031D01*
X173776Y160081D01*
X173688Y160128D01*
X173598Y160172D01*
X173507Y160212D01*
X173414Y160248D01*
X173320Y160281D01*
X173224Y160310D01*
X173128Y160335D01*
X173031Y160356D01*
X172932Y160374D01*
X172834Y160387D01*
X172734Y160397D01*
X172635Y160403D01*
X172535Y160405D01*
X171900Y160405D01*
X171789Y160403D01*
X171679Y160397D01*
X171568Y160388D01*
X171458Y160374D01*
X171349Y160357D01*
X171240Y160336D01*
X171132Y160311D01*
X171025Y160282D01*
X170919Y160250D01*
X170814Y160214D01*
X170711Y160174D01*
X170609Y160131D01*
X170508Y160084D01*
X170409Y160033D01*
X170313Y159980D01*
X170218Y159923D01*
X170125Y159862D01*
X170034Y159799D01*
X169945Y159732D01*
X169859Y159662D01*
X169776Y159589D01*
X169694Y159514D01*
X169616Y159436D01*
X169541Y159354D01*
X169468Y159271D01*
X169398Y159185D01*
X169331Y159096D01*
X169268Y159005D01*
X169207Y158912D01*
X169150Y158818D01*
X169097Y158721D01*
X169046Y158622D01*
X168999Y158521D01*
X168956Y158419D01*
X168916Y158316D01*
X168880Y158211D01*
X168848Y158105D01*
X168819Y157998D01*
X168794Y157890D01*
X168773Y157781D01*
X168756Y157672D01*
X168742Y157562D01*
X168733Y157451D01*
X168727Y157341D01*
X168725Y157230D01*
X168727Y157119D01*
X168733Y157009D01*
X168742Y156898D01*
X168756Y156788D01*
X168773Y156679D01*
X168794Y156570D01*
X168819Y156462D01*
X168848Y156355D01*
X168880Y156249D01*
X168916Y156144D01*
X168956Y156041D01*
X168999Y155939D01*
X169046Y155838D01*
X169097Y155739D01*
X169150Y155643D01*
X169207Y155548D01*
X169268Y155455D01*
X169331Y155364D01*
X169398Y155275D01*
X169468Y155189D01*
X169541Y155106D01*
X169616Y155024D01*
X169694Y154946D01*
X169776Y154871D01*
X169859Y154798D01*
X169945Y154728D01*
X170034Y154661D01*
X170125Y154598D01*
X170218Y154537D01*
X170313Y154480D01*
X170409Y154427D01*
X170508Y154376D01*
X170609Y154329D01*
X170711Y154286D01*
X170814Y154246D01*
X170919Y154210D01*
X171025Y154178D01*
X171132Y154149D01*
X171240Y154124D01*
X171349Y154103D01*
X171458Y154086D01*
X171568Y154072D01*
X171679Y154063D01*
X171789Y154057D01*
X171900Y154055D01*
X175075Y154055D01*
X175215Y154057D01*
X175355Y154063D01*
X175495Y154072D01*
X175634Y154086D01*
X175773Y154103D01*
X175911Y154124D01*
X176049Y154149D01*
X176186Y154178D01*
X176322Y154210D01*
X176457Y154247D01*
X176591Y154287D01*
X176724Y154330D01*
X176856Y154378D01*
X176987Y154428D01*
X177116Y154483D01*
X177243Y154541D01*
X177369Y154602D01*
X177493Y154667D01*
X177615Y154736D01*
X177735Y154807D01*
X177853Y154882D01*
X177970Y154960D01*
X178084Y155042D01*
X178195Y155126D01*
X178304Y155214D01*
X178411Y155304D01*
X178516Y155398D01*
X178617Y155494D01*
X178716Y155593D01*
X178812Y155694D01*
X178906Y155799D01*
X178996Y155906D01*
X179084Y156015D01*
X179168Y156126D01*
X179250Y156240D01*
X179328Y156357D01*
X179403Y156475D01*
X179474Y156595D01*
X179543Y156717D01*
X179608Y156841D01*
X179669Y156967D01*
X179727Y157094D01*
X179782Y157223D01*
X179832Y157354D01*
X179880Y157486D01*
X179923Y157619D01*
X179963Y157753D01*
X180000Y157888D01*
X180032Y158024D01*
X180061Y158161D01*
X180086Y158299D01*
X180107Y158437D01*
X180124Y158576D01*
X180138Y158715D01*
X180147Y158855D01*
X180153Y158995D01*
X180155Y159135D01*
X243655Y23245D02*
X252545Y23245D01*
X243655Y23245D02*
X243555Y23243D01*
X243456Y23237D01*
X243356Y23227D01*
X243258Y23214D01*
X243159Y23196D01*
X243062Y23175D01*
X242966Y23150D01*
X242870Y23121D01*
X242776Y23088D01*
X242683Y23052D01*
X242592Y23012D01*
X242502Y22968D01*
X242414Y22921D01*
X242328Y22871D01*
X242244Y22817D01*
X242162Y22760D01*
X242083Y22700D01*
X242005Y22636D01*
X241931Y22570D01*
X241859Y22501D01*
X241790Y22429D01*
X241724Y22355D01*
X241660Y22277D01*
X241600Y22198D01*
X241543Y22116D01*
X241489Y22032D01*
X241439Y21946D01*
X241392Y21858D01*
X241348Y21768D01*
X241308Y21677D01*
X241272Y21584D01*
X241239Y21490D01*
X241210Y21394D01*
X241185Y21298D01*
X241164Y21201D01*
X241146Y21102D01*
X241133Y21004D01*
X241123Y20904D01*
X241117Y20805D01*
X241115Y20705D01*
X241115Y19435D01*
X241115Y29225D02*
X252545Y29225D01*
X252545Y32400D01*
X252543Y32511D01*
X252537Y32621D01*
X252528Y32732D01*
X252514Y32842D01*
X252497Y32951D01*
X252476Y33060D01*
X252451Y33168D01*
X252422Y33275D01*
X252390Y33381D01*
X252354Y33486D01*
X252314Y33589D01*
X252271Y33691D01*
X252224Y33792D01*
X252173Y33891D01*
X252120Y33988D01*
X252063Y34082D01*
X252002Y34175D01*
X251939Y34266D01*
X251872Y34355D01*
X251802Y34441D01*
X251729Y34524D01*
X251654Y34606D01*
X251576Y34684D01*
X251494Y34759D01*
X251411Y34832D01*
X251325Y34902D01*
X251236Y34969D01*
X251145Y35032D01*
X251052Y35093D01*
X250958Y35150D01*
X250861Y35203D01*
X250762Y35254D01*
X250661Y35301D01*
X250559Y35344D01*
X250456Y35384D01*
X250351Y35420D01*
X250245Y35452D01*
X250138Y35481D01*
X250030Y35506D01*
X249921Y35527D01*
X249812Y35544D01*
X249702Y35558D01*
X249591Y35567D01*
X249481Y35573D01*
X249370Y35575D01*
X249259Y35573D01*
X249149Y35567D01*
X249038Y35558D01*
X248928Y35544D01*
X248819Y35527D01*
X248710Y35506D01*
X248602Y35481D01*
X248495Y35452D01*
X248389Y35420D01*
X248284Y35384D01*
X248181Y35344D01*
X248079Y35301D01*
X247978Y35254D01*
X247879Y35203D01*
X247783Y35150D01*
X247688Y35093D01*
X247595Y35032D01*
X247504Y34969D01*
X247415Y34902D01*
X247329Y34832D01*
X247246Y34759D01*
X247164Y34684D01*
X247086Y34606D01*
X247011Y34524D01*
X246938Y34441D01*
X246868Y34355D01*
X246801Y34266D01*
X246738Y34175D01*
X246677Y34082D01*
X246620Y33987D01*
X246567Y33891D01*
X246516Y33792D01*
X246469Y33691D01*
X246426Y33589D01*
X246386Y33486D01*
X246350Y33381D01*
X246318Y33275D01*
X246289Y33168D01*
X246264Y33060D01*
X246243Y32951D01*
X246226Y32842D01*
X246212Y32732D01*
X246203Y32621D01*
X246197Y32511D01*
X246195Y32400D01*
X246195Y29225D01*
X251275Y40084D02*
X252545Y40084D01*
X252545Y46434D01*
X241115Y43259D01*
M02*
