G04 EAGLE Gerber RS-274X export*
G75*
%MOMM*%
%FSLAX34Y34*%
%LPD*%
%INBottom Copper*%
%IPPOS*%
%AMOC8*
5,1,8,0,0,1.08239X$1,22.5*%
G01*
%ADD10C,1.320800*%
%ADD11P,2.749271X8X202.500000*%
%ADD12P,1.649562X8X292.500000*%
%ADD13C,0.812800*%
%ADD14C,0.609600*%


D10*
X348717Y200401D02*
X353235Y187989D01*
X329366Y179302D02*
X324849Y191714D01*
X205508Y148277D02*
X210025Y135866D01*
X186157Y127178D02*
X181640Y139590D01*
X300981Y183026D02*
X305498Y170615D01*
X281630Y161928D02*
X277113Y174339D01*
X229376Y156964D02*
X233894Y144553D01*
X257762Y153240D02*
X253244Y165652D01*
X157772Y130902D02*
X162289Y118491D01*
X138421Y109804D02*
X133903Y122215D01*
X159965Y50611D02*
X164483Y38199D01*
X188351Y46886D02*
X183834Y59298D01*
X207702Y67985D02*
X212219Y55574D01*
X236087Y64261D02*
X231570Y76672D01*
X255438Y85360D02*
X259956Y72948D01*
X283824Y81636D02*
X279306Y94047D01*
X303175Y102734D02*
X307692Y90323D01*
X331560Y99010D02*
X327043Y111422D01*
X350911Y120109D02*
X355428Y107698D01*
X379297Y116385D02*
X374779Y128796D01*
D11*
X430000Y160000D03*
X670000Y160000D03*
X910000Y160000D03*
X1150000Y160000D03*
X1390000Y160000D03*
X1630000Y160000D03*
X1870000Y160000D03*
X2110000Y160000D03*
D12*
X38100Y173200D03*
X38100Y147800D03*
X38100Y122400D03*
X38100Y97000D03*
X38100Y71600D03*
X38100Y46200D03*
X63500Y173200D03*
X63500Y147800D03*
X63500Y122400D03*
X63500Y97000D03*
X63500Y71600D03*
X63500Y46200D03*
D13*
X63500Y147800D02*
X38100Y173200D01*
D14*
X353170Y113903D02*
X367073Y100000D01*
X393854Y123854D02*
X430000Y160000D01*
X393854Y123854D02*
X393854Y110355D01*
X383499Y100000D01*
X367073Y100000D01*
X329301Y105216D02*
X329301Y125301D01*
X405000Y201000D01*
X629000Y201000D02*
X670000Y160000D01*
X629000Y201000D02*
X405000Y201000D01*
X313455Y96529D02*
X305433Y96529D01*
X313455Y96529D02*
X325530Y84453D01*
X834453Y84453D02*
X910000Y160000D01*
X834453Y84453D02*
X325530Y84453D01*
X289586Y87841D02*
X281565Y87841D01*
X289586Y87841D02*
X302881Y74547D01*
X1064547Y74547D02*
X1150000Y160000D01*
X1064547Y74547D02*
X302881Y74547D01*
X265718Y79154D02*
X257697Y79154D01*
X265718Y79154D02*
X280231Y64641D01*
X1294641Y64641D02*
X1390000Y160000D01*
X1294641Y64641D02*
X280231Y64641D01*
X241850Y70467D02*
X233829Y70467D01*
X241850Y70467D02*
X257582Y54735D01*
X1524735Y54735D02*
X1630000Y160000D01*
X1524735Y54735D02*
X257582Y54735D01*
X217982Y61779D02*
X209960Y61779D01*
X217982Y61779D02*
X234932Y44829D01*
X1754829Y44829D02*
X1870000Y160000D01*
X1754829Y44829D02*
X234932Y44829D01*
X280370Y147370D02*
X337361Y147370D01*
X400897Y210906D01*
X1909835Y210906D01*
X1962741Y158000D01*
X280370Y147370D02*
X233000Y100000D01*
X208000Y100000D01*
X186092Y78092D01*
X186092Y53092D01*
X1962741Y158000D02*
X2108000Y158000D01*
X2110000Y160000D01*
M02*
