G04 EAGLE Gerber RS-274X export*
G75*
%MOMM*%
%FSLAX34Y34*%
%LPD*%
%IN*%
%IPPOS*%
%AMOC8*
5,1,8,0,0,1.08239X$1,22.5*%
G01*
%ADD10C,0.254000*%


D10*
X0Y45000D02*
X95Y42821D01*
X380Y40659D01*
X852Y38530D01*
X1508Y36450D01*
X2342Y34435D01*
X3349Y32500D01*
X4521Y30661D01*
X5849Y28930D01*
X7322Y27322D01*
X8930Y25849D01*
X10661Y24521D01*
X12500Y23349D01*
X14435Y22342D01*
X16450Y21508D01*
X18530Y20852D01*
X20659Y20380D01*
X22821Y20095D01*
X25000Y20000D01*
X174631Y20000D01*
X182885Y20360D01*
X191077Y21439D01*
X199143Y23227D01*
X204580Y24860D01*
X212969Y27255D01*
X221534Y28910D01*
X230211Y29812D01*
X236254Y29992D01*
X2144985Y29992D01*
X2147123Y30041D01*
X2149249Y30277D01*
X2151346Y30696D01*
X2153398Y31297D01*
X2155391Y32075D01*
X2157308Y33023D01*
X2159135Y34135D01*
X2160858Y35402D01*
X2162464Y36814D01*
X2163941Y38361D01*
X2165278Y40030D01*
X2166464Y41810D01*
X2167490Y43687D01*
X2168349Y45645D01*
X2169034Y47671D01*
X2169540Y49749D01*
X2169862Y51864D01*
X2170000Y53998D01*
X2170000Y54015D01*
X2170000Y205000D01*
X2169905Y207179D01*
X2169620Y209341D01*
X2169148Y211470D01*
X2168492Y213551D01*
X2167658Y215565D01*
X2166651Y217500D01*
X2165479Y219339D01*
X2164151Y221070D01*
X2162678Y222678D01*
X2161070Y224151D01*
X2159339Y225479D01*
X2157500Y226651D01*
X2155565Y227658D01*
X2153551Y228492D01*
X2151470Y229148D01*
X2149341Y229620D01*
X2147179Y229905D01*
X2145000Y230000D01*
X25000Y230000D01*
X22821Y229905D01*
X20659Y229620D01*
X18530Y229148D01*
X16450Y228492D01*
X14435Y227658D01*
X12500Y226651D01*
X10661Y225479D01*
X8930Y224151D01*
X7322Y222678D01*
X5849Y221070D01*
X4521Y219339D01*
X3349Y217500D01*
X2342Y215565D01*
X1508Y213551D01*
X852Y211470D01*
X380Y209341D01*
X95Y207179D01*
X0Y205000D01*
X0Y45000D01*
M02*
