G04 EAGLE Gerber RS-274X export*
G75*
%MOMM*%
%FSLAX34Y34*%
%LPD*%
%INSilkscreen Bottom*%
%IPPOS*%
%AMOC8*
5,1,8,0,0,1.08239X$1,22.5*%
G01*
%ADD10C,0.228600*%
%ADD11C,0.406400*%
%ADD12C,0.152400*%

G36*
X1914050Y54631D02*
X1914050Y54631D01*
X1914101Y54633D01*
X1914133Y54651D01*
X1914169Y54659D01*
X1914208Y54692D01*
X1914253Y54716D01*
X1914274Y54746D01*
X1914302Y54769D01*
X1914323Y54816D01*
X1914353Y54858D01*
X1914361Y54900D01*
X1914373Y54928D01*
X1914372Y54958D01*
X1914380Y55000D01*
X1914380Y95000D01*
X1914369Y95050D01*
X1914367Y95101D01*
X1914349Y95133D01*
X1914341Y95169D01*
X1914308Y95208D01*
X1914284Y95253D01*
X1914254Y95274D01*
X1914231Y95302D01*
X1914184Y95323D01*
X1914142Y95353D01*
X1914100Y95361D01*
X1914072Y95373D01*
X1914042Y95372D01*
X1914000Y95380D01*
X1894000Y95380D01*
X1893950Y95369D01*
X1893899Y95367D01*
X1893867Y95349D01*
X1893831Y95341D01*
X1893792Y95308D01*
X1893747Y95284D01*
X1893726Y95254D01*
X1893698Y95231D01*
X1893677Y95184D01*
X1893647Y95142D01*
X1893639Y95100D01*
X1893627Y95072D01*
X1893628Y95042D01*
X1893620Y95000D01*
X1893620Y75380D01*
X1874380Y75380D01*
X1874380Y115000D01*
X1874369Y115050D01*
X1874367Y115101D01*
X1874349Y115133D01*
X1874341Y115169D01*
X1874308Y115208D01*
X1874284Y115253D01*
X1874254Y115274D01*
X1874231Y115302D01*
X1874184Y115323D01*
X1874142Y115353D01*
X1874100Y115361D01*
X1874072Y115373D01*
X1874042Y115372D01*
X1874000Y115380D01*
X1854000Y115380D01*
X1853950Y115369D01*
X1853899Y115367D01*
X1853867Y115349D01*
X1853831Y115341D01*
X1853792Y115308D01*
X1853747Y115284D01*
X1853726Y115254D01*
X1853698Y115231D01*
X1853677Y115184D01*
X1853647Y115142D01*
X1853639Y115100D01*
X1853627Y115072D01*
X1853628Y115042D01*
X1853620Y115000D01*
X1853620Y55000D01*
X1853631Y54950D01*
X1853633Y54899D01*
X1853651Y54867D01*
X1853659Y54831D01*
X1853692Y54792D01*
X1853716Y54747D01*
X1853746Y54726D01*
X1853769Y54698D01*
X1853816Y54677D01*
X1853858Y54647D01*
X1853900Y54639D01*
X1853928Y54627D01*
X1853958Y54628D01*
X1854000Y54620D01*
X1914000Y54620D01*
X1914050Y54631D01*
G37*
G36*
X1834050Y54631D02*
X1834050Y54631D01*
X1834101Y54633D01*
X1834133Y54651D01*
X1834169Y54659D01*
X1834208Y54692D01*
X1834253Y54716D01*
X1834274Y54746D01*
X1834302Y54769D01*
X1834323Y54816D01*
X1834353Y54858D01*
X1834361Y54900D01*
X1834373Y54928D01*
X1834372Y54958D01*
X1834380Y55000D01*
X1834380Y115000D01*
X1834369Y115050D01*
X1834367Y115101D01*
X1834349Y115133D01*
X1834341Y115169D01*
X1834308Y115208D01*
X1834284Y115253D01*
X1834254Y115274D01*
X1834231Y115302D01*
X1834184Y115323D01*
X1834142Y115353D01*
X1834100Y115361D01*
X1834072Y115373D01*
X1834042Y115372D01*
X1834000Y115380D01*
X1774000Y115380D01*
X1773950Y115369D01*
X1773899Y115367D01*
X1773867Y115349D01*
X1773831Y115341D01*
X1773792Y115308D01*
X1773747Y115284D01*
X1773726Y115254D01*
X1773698Y115231D01*
X1773677Y115184D01*
X1773647Y115142D01*
X1773639Y115100D01*
X1773627Y115072D01*
X1773628Y115042D01*
X1773620Y115000D01*
X1773620Y75000D01*
X1773631Y74950D01*
X1773633Y74899D01*
X1773651Y74867D01*
X1773659Y74831D01*
X1773692Y74792D01*
X1773716Y74747D01*
X1773746Y74726D01*
X1773769Y74698D01*
X1773816Y74677D01*
X1773858Y74647D01*
X1773900Y74639D01*
X1773928Y74627D01*
X1773958Y74628D01*
X1774000Y74620D01*
X1794000Y74620D01*
X1794050Y74631D01*
X1794101Y74633D01*
X1794133Y74651D01*
X1794169Y74659D01*
X1794208Y74692D01*
X1794253Y74716D01*
X1794274Y74746D01*
X1794302Y74769D01*
X1794323Y74816D01*
X1794353Y74858D01*
X1794361Y74900D01*
X1794373Y74928D01*
X1794372Y74958D01*
X1794380Y75000D01*
X1794380Y94620D01*
X1813620Y94620D01*
X1813620Y55000D01*
X1813631Y54950D01*
X1813633Y54899D01*
X1813651Y54867D01*
X1813659Y54831D01*
X1813692Y54792D01*
X1813716Y54747D01*
X1813746Y54726D01*
X1813769Y54698D01*
X1813816Y54677D01*
X1813858Y54647D01*
X1813900Y54639D01*
X1813928Y54627D01*
X1813958Y54628D01*
X1814000Y54620D01*
X1834000Y54620D01*
X1834050Y54631D01*
G37*
D10*
X22557Y182143D02*
X12143Y185614D01*
X22557Y189086D01*
X12143Y195725D02*
X12143Y198040D01*
X12143Y195725D02*
X12145Y195642D01*
X12151Y195560D01*
X12161Y195478D01*
X12174Y195396D01*
X12192Y195316D01*
X12213Y195236D01*
X12238Y195157D01*
X12267Y195080D01*
X12300Y195004D01*
X12336Y194930D01*
X12376Y194857D01*
X12419Y194786D01*
X12465Y194718D01*
X12514Y194652D01*
X12567Y194588D01*
X12623Y194527D01*
X12681Y194469D01*
X12742Y194413D01*
X12806Y194360D01*
X12872Y194311D01*
X12940Y194265D01*
X13011Y194222D01*
X13084Y194182D01*
X13158Y194146D01*
X13234Y194113D01*
X13311Y194084D01*
X13390Y194059D01*
X13470Y194038D01*
X13550Y194020D01*
X13632Y194007D01*
X13714Y193997D01*
X13796Y193991D01*
X13879Y193989D01*
X13879Y193990D02*
X17350Y193990D01*
X17350Y193989D02*
X17433Y193991D01*
X17515Y193997D01*
X17597Y194007D01*
X17679Y194020D01*
X17759Y194038D01*
X17839Y194059D01*
X17918Y194084D01*
X17995Y194113D01*
X18071Y194146D01*
X18145Y194182D01*
X18218Y194222D01*
X18289Y194265D01*
X18357Y194311D01*
X18423Y194360D01*
X18487Y194413D01*
X18548Y194469D01*
X18606Y194527D01*
X18662Y194588D01*
X18715Y194652D01*
X18764Y194718D01*
X18810Y194786D01*
X18853Y194857D01*
X18893Y194930D01*
X18929Y195004D01*
X18962Y195080D01*
X18991Y195157D01*
X19016Y195236D01*
X19037Y195316D01*
X19055Y195396D01*
X19068Y195478D01*
X19078Y195560D01*
X19084Y195642D01*
X19086Y195725D01*
X19086Y198040D01*
X12143Y204488D02*
X12143Y206803D01*
X12143Y204488D02*
X12145Y204405D01*
X12151Y204323D01*
X12161Y204241D01*
X12174Y204159D01*
X12192Y204079D01*
X12213Y203999D01*
X12238Y203920D01*
X12267Y203843D01*
X12300Y203767D01*
X12336Y203693D01*
X12376Y203620D01*
X12419Y203549D01*
X12465Y203481D01*
X12514Y203415D01*
X12567Y203351D01*
X12623Y203290D01*
X12681Y203232D01*
X12742Y203176D01*
X12806Y203123D01*
X12872Y203074D01*
X12940Y203028D01*
X13011Y202985D01*
X13084Y202945D01*
X13158Y202909D01*
X13234Y202876D01*
X13311Y202847D01*
X13390Y202822D01*
X13470Y202801D01*
X13550Y202783D01*
X13632Y202770D01*
X13714Y202760D01*
X13796Y202754D01*
X13879Y202752D01*
X13879Y202753D02*
X17350Y202753D01*
X17350Y202752D02*
X17433Y202754D01*
X17515Y202760D01*
X17597Y202770D01*
X17679Y202783D01*
X17759Y202801D01*
X17839Y202822D01*
X17918Y202847D01*
X17995Y202876D01*
X18071Y202909D01*
X18145Y202945D01*
X18218Y202985D01*
X18289Y203028D01*
X18357Y203074D01*
X18423Y203123D01*
X18487Y203176D01*
X18548Y203232D01*
X18606Y203290D01*
X18662Y203351D01*
X18715Y203415D01*
X18764Y203481D01*
X18810Y203549D01*
X18853Y203620D01*
X18893Y203693D01*
X18929Y203767D01*
X18962Y203843D01*
X18991Y203920D01*
X19016Y203999D01*
X19037Y204079D01*
X19055Y204159D01*
X19068Y204241D01*
X19078Y204323D01*
X19084Y204405D01*
X19086Y204488D01*
X19086Y206803D01*
X86929Y176929D02*
X86929Y175193D01*
X86929Y176929D02*
X81143Y176929D01*
X81143Y173457D01*
X81145Y173364D01*
X81151Y173271D01*
X81160Y173178D01*
X81173Y173086D01*
X81190Y172994D01*
X81210Y172903D01*
X81234Y172813D01*
X81262Y172724D01*
X81293Y172636D01*
X81328Y172550D01*
X81366Y172465D01*
X81408Y172382D01*
X81453Y172300D01*
X81501Y172220D01*
X81553Y172142D01*
X81607Y172067D01*
X81665Y171994D01*
X81725Y171923D01*
X81788Y171854D01*
X81854Y171788D01*
X81923Y171725D01*
X81994Y171665D01*
X82067Y171607D01*
X82142Y171553D01*
X82220Y171501D01*
X82300Y171453D01*
X82382Y171408D01*
X82465Y171366D01*
X82550Y171328D01*
X82636Y171293D01*
X82724Y171262D01*
X82813Y171234D01*
X82903Y171210D01*
X82994Y171190D01*
X83086Y171173D01*
X83178Y171160D01*
X83271Y171151D01*
X83364Y171145D01*
X83457Y171143D01*
X89243Y171143D01*
X89339Y171145D01*
X89434Y171151D01*
X89529Y171161D01*
X89624Y171175D01*
X89718Y171192D01*
X89811Y171214D01*
X89903Y171239D01*
X89994Y171268D01*
X90084Y171301D01*
X90173Y171338D01*
X90259Y171378D01*
X90344Y171422D01*
X90427Y171469D01*
X90509Y171520D01*
X90588Y171574D01*
X90664Y171631D01*
X90739Y171691D01*
X90810Y171755D01*
X90879Y171821D01*
X90945Y171890D01*
X91009Y171961D01*
X91069Y172036D01*
X91126Y172112D01*
X91180Y172191D01*
X91231Y172272D01*
X91278Y172356D01*
X91322Y172441D01*
X91362Y172527D01*
X91399Y172616D01*
X91432Y172706D01*
X91461Y172797D01*
X91486Y172889D01*
X91508Y172982D01*
X91525Y173076D01*
X91539Y173171D01*
X91549Y173266D01*
X91555Y173361D01*
X91557Y173457D01*
X91557Y176929D01*
X91557Y183335D02*
X81143Y183335D01*
X81143Y189121D02*
X91557Y183335D01*
X91557Y189121D02*
X81143Y189121D01*
X81143Y195527D02*
X91557Y195527D01*
X91557Y198420D01*
X91555Y198526D01*
X91549Y198631D01*
X91540Y198736D01*
X91526Y198841D01*
X91509Y198945D01*
X91488Y199049D01*
X91463Y199152D01*
X91434Y199253D01*
X91402Y199354D01*
X91366Y199453D01*
X91327Y199551D01*
X91283Y199648D01*
X91237Y199743D01*
X91187Y199836D01*
X91133Y199927D01*
X91077Y200016D01*
X91017Y200103D01*
X90954Y200188D01*
X90888Y200271D01*
X90819Y200351D01*
X90747Y200428D01*
X90672Y200503D01*
X90595Y200575D01*
X90515Y200644D01*
X90432Y200710D01*
X90347Y200773D01*
X90260Y200833D01*
X90171Y200889D01*
X90080Y200943D01*
X89987Y200993D01*
X89892Y201039D01*
X89795Y201083D01*
X89697Y201122D01*
X89598Y201158D01*
X89497Y201190D01*
X89396Y201219D01*
X89293Y201244D01*
X89189Y201265D01*
X89085Y201282D01*
X88980Y201296D01*
X88875Y201305D01*
X88770Y201311D01*
X88664Y201313D01*
X88664Y201312D02*
X84036Y201312D01*
X84036Y201313D02*
X83930Y201311D01*
X83825Y201305D01*
X83720Y201296D01*
X83615Y201282D01*
X83511Y201265D01*
X83407Y201244D01*
X83304Y201219D01*
X83203Y201190D01*
X83102Y201158D01*
X83003Y201122D01*
X82905Y201083D01*
X82808Y201039D01*
X82713Y200993D01*
X82620Y200943D01*
X82529Y200889D01*
X82440Y200833D01*
X82353Y200773D01*
X82268Y200710D01*
X82185Y200644D01*
X82105Y200575D01*
X82028Y200503D01*
X81953Y200428D01*
X81881Y200351D01*
X81812Y200271D01*
X81746Y200188D01*
X81683Y200103D01*
X81623Y200016D01*
X81567Y199927D01*
X81513Y199836D01*
X81463Y199743D01*
X81417Y199648D01*
X81373Y199551D01*
X81334Y199453D01*
X81298Y199354D01*
X81266Y199253D01*
X81237Y199152D01*
X81212Y199049D01*
X81191Y198945D01*
X81174Y198841D01*
X81160Y198736D01*
X81151Y198631D01*
X81145Y198526D01*
X81143Y198420D01*
X81143Y195527D01*
X20611Y119511D02*
X20425Y119423D01*
X20238Y119340D01*
X20049Y119261D01*
X19858Y119187D01*
X19665Y119118D01*
X19471Y119053D01*
X19275Y118993D01*
X19078Y118937D01*
X18879Y118886D01*
X18680Y118840D01*
X18479Y118799D01*
X18278Y118763D01*
X18075Y118731D01*
X17872Y118704D01*
X17668Y118682D01*
X17464Y118665D01*
X17260Y118653D01*
X17055Y118645D01*
X16850Y118643D01*
X20610Y119511D02*
X20696Y119542D01*
X20781Y119577D01*
X20864Y119616D01*
X20945Y119659D01*
X21024Y119704D01*
X21102Y119753D01*
X21177Y119806D01*
X21250Y119861D01*
X21320Y119920D01*
X21388Y119981D01*
X21453Y120046D01*
X21515Y120113D01*
X21575Y120182D01*
X21631Y120255D01*
X21684Y120329D01*
X21734Y120406D01*
X21781Y120485D01*
X21824Y120565D01*
X21864Y120648D01*
X21900Y120732D01*
X21933Y120818D01*
X21962Y120904D01*
X21987Y120993D01*
X22008Y121082D01*
X22026Y121171D01*
X22039Y121262D01*
X22049Y121353D01*
X22055Y121444D01*
X22057Y121536D01*
X22055Y121628D01*
X22049Y121719D01*
X22039Y121810D01*
X22026Y121901D01*
X22008Y121990D01*
X21987Y122079D01*
X21962Y122168D01*
X21933Y122254D01*
X21900Y122340D01*
X21864Y122424D01*
X21824Y122507D01*
X21781Y122587D01*
X21734Y122666D01*
X21684Y122743D01*
X21631Y122817D01*
X21575Y122890D01*
X21515Y122959D01*
X21453Y123026D01*
X21388Y123091D01*
X21320Y123152D01*
X21250Y123211D01*
X21177Y123266D01*
X21102Y123319D01*
X21024Y123368D01*
X20945Y123413D01*
X20864Y123456D01*
X20781Y123495D01*
X20696Y123530D01*
X20610Y123561D01*
X20611Y123561D02*
X20425Y123649D01*
X20238Y123732D01*
X20049Y123811D01*
X19858Y123885D01*
X19665Y123954D01*
X19471Y124019D01*
X19275Y124079D01*
X19078Y124135D01*
X18879Y124186D01*
X18680Y124232D01*
X18479Y124273D01*
X18278Y124309D01*
X18075Y124341D01*
X17872Y124368D01*
X17668Y124390D01*
X17464Y124407D01*
X17260Y124419D01*
X17055Y124427D01*
X16850Y124429D01*
X16850Y118643D02*
X16645Y118645D01*
X16440Y118653D01*
X16236Y118665D01*
X16032Y118682D01*
X15828Y118704D01*
X15625Y118731D01*
X15423Y118763D01*
X15221Y118799D01*
X15020Y118840D01*
X14821Y118886D01*
X14622Y118937D01*
X14425Y118993D01*
X14229Y119053D01*
X14035Y119118D01*
X13842Y119187D01*
X13651Y119261D01*
X13462Y119340D01*
X13275Y119423D01*
X13089Y119511D01*
X13090Y119511D02*
X13004Y119542D01*
X12919Y119577D01*
X12836Y119616D01*
X12755Y119659D01*
X12676Y119704D01*
X12598Y119753D01*
X12523Y119806D01*
X12450Y119861D01*
X12380Y119920D01*
X12312Y119981D01*
X12247Y120046D01*
X12185Y120113D01*
X12125Y120182D01*
X12069Y120255D01*
X12016Y120329D01*
X11966Y120406D01*
X11919Y120485D01*
X11876Y120565D01*
X11836Y120648D01*
X11800Y120732D01*
X11767Y120818D01*
X11738Y120904D01*
X11713Y120993D01*
X11692Y121082D01*
X11674Y121171D01*
X11661Y121262D01*
X11651Y121353D01*
X11645Y121444D01*
X11643Y121536D01*
X13089Y123560D02*
X13275Y123648D01*
X13462Y123731D01*
X13651Y123810D01*
X13842Y123884D01*
X14035Y123953D01*
X14229Y124018D01*
X14425Y124078D01*
X14622Y124134D01*
X14821Y124185D01*
X15020Y124231D01*
X15221Y124272D01*
X15423Y124308D01*
X15625Y124340D01*
X15828Y124367D01*
X16032Y124389D01*
X16236Y124406D01*
X16440Y124418D01*
X16645Y124426D01*
X16850Y124428D01*
X13090Y123561D02*
X13004Y123530D01*
X12919Y123495D01*
X12836Y123456D01*
X12755Y123413D01*
X12676Y123368D01*
X12598Y123319D01*
X12523Y123266D01*
X12450Y123211D01*
X12380Y123152D01*
X12312Y123091D01*
X12247Y123026D01*
X12185Y122959D01*
X12125Y122890D01*
X12069Y122817D01*
X12016Y122743D01*
X11966Y122666D01*
X11919Y122587D01*
X11876Y122507D01*
X11836Y122424D01*
X11800Y122340D01*
X11767Y122254D01*
X11738Y122168D01*
X11713Y122079D01*
X11692Y121990D01*
X11674Y121901D01*
X11661Y121810D01*
X11651Y121719D01*
X11645Y121628D01*
X11643Y121536D01*
X13957Y119222D02*
X19743Y123850D01*
X85400Y28643D02*
X86557Y28643D01*
X86557Y34429D01*
X76143Y31536D01*
D11*
X471968Y162700D02*
X471963Y163120D01*
X471948Y163539D01*
X471923Y163958D01*
X471888Y164376D01*
X471843Y164794D01*
X471788Y165210D01*
X471723Y165625D01*
X471648Y166038D01*
X471564Y166449D01*
X471469Y166858D01*
X471365Y167264D01*
X471251Y167668D01*
X471128Y168070D01*
X470995Y168468D01*
X470853Y168862D01*
X470701Y169254D01*
X470540Y169641D01*
X470369Y170025D01*
X470190Y170405D01*
X470190Y170404D02*
X470146Y170526D01*
X470099Y170647D01*
X470048Y170766D01*
X469993Y170884D01*
X469935Y170999D01*
X469874Y171114D01*
X469810Y171226D01*
X469742Y171336D01*
X469671Y171444D01*
X469596Y171551D01*
X469519Y171654D01*
X469438Y171756D01*
X469355Y171855D01*
X469269Y171952D01*
X469180Y172046D01*
X469088Y172137D01*
X468993Y172226D01*
X468896Y172311D01*
X468797Y172394D01*
X468695Y172474D01*
X468590Y172551D01*
X468484Y172625D01*
X468375Y172695D01*
X468264Y172763D01*
X468152Y172827D01*
X468037Y172887D01*
X467921Y172945D01*
X467803Y172998D01*
X467684Y173049D01*
X467563Y173095D01*
X467441Y173139D01*
X467318Y173178D01*
X467193Y173214D01*
X467068Y173246D01*
X466941Y173275D01*
X466814Y173299D01*
X466686Y173320D01*
X466558Y173337D01*
X466429Y173351D01*
X466300Y173360D01*
X466171Y173366D01*
X466041Y173368D01*
X465911Y173366D01*
X465782Y173360D01*
X465653Y173351D01*
X465524Y173337D01*
X465396Y173320D01*
X465268Y173299D01*
X465141Y173275D01*
X465014Y173246D01*
X464889Y173214D01*
X464764Y173178D01*
X464641Y173139D01*
X464519Y173095D01*
X464398Y173049D01*
X464279Y172998D01*
X464161Y172945D01*
X464045Y172887D01*
X463930Y172827D01*
X463818Y172763D01*
X463707Y172695D01*
X463598Y172625D01*
X463492Y172551D01*
X463387Y172474D01*
X463285Y172394D01*
X463186Y172311D01*
X463089Y172226D01*
X462994Y172137D01*
X462902Y172046D01*
X462813Y171952D01*
X462727Y171855D01*
X462644Y171756D01*
X462563Y171654D01*
X462486Y171551D01*
X462411Y171444D01*
X462340Y171336D01*
X462272Y171226D01*
X462208Y171114D01*
X462147Y170999D01*
X462089Y170884D01*
X462034Y170766D01*
X461983Y170647D01*
X461936Y170526D01*
X461892Y170404D01*
X461893Y170405D02*
X461714Y170025D01*
X461543Y169641D01*
X461382Y169254D01*
X461230Y168862D01*
X461088Y168468D01*
X460955Y168070D01*
X460832Y167668D01*
X460718Y167264D01*
X460614Y166858D01*
X460519Y166449D01*
X460435Y166038D01*
X460360Y165625D01*
X460295Y165210D01*
X460240Y164794D01*
X460195Y164376D01*
X460160Y163958D01*
X460135Y163539D01*
X460120Y163120D01*
X460115Y162700D01*
X471968Y162700D02*
X471963Y162280D01*
X471948Y161861D01*
X471923Y161442D01*
X471888Y161023D01*
X471843Y160606D01*
X471788Y160190D01*
X471723Y159775D01*
X471648Y159362D01*
X471564Y158951D01*
X471469Y158542D01*
X471365Y158135D01*
X471251Y157731D01*
X471128Y157330D01*
X470995Y156932D01*
X470853Y156537D01*
X470701Y156146D01*
X470540Y155758D01*
X470369Y155375D01*
X470190Y154995D01*
X470190Y154996D02*
X470146Y154874D01*
X470099Y154753D01*
X470048Y154634D01*
X469993Y154516D01*
X469935Y154401D01*
X469874Y154286D01*
X469810Y154174D01*
X469742Y154064D01*
X469671Y153956D01*
X469596Y153849D01*
X469519Y153746D01*
X469438Y153644D01*
X469355Y153545D01*
X469269Y153448D01*
X469180Y153354D01*
X469088Y153263D01*
X468993Y153174D01*
X468896Y153089D01*
X468797Y153006D01*
X468695Y152926D01*
X468590Y152849D01*
X468484Y152775D01*
X468375Y152705D01*
X468264Y152637D01*
X468152Y152573D01*
X468037Y152513D01*
X467921Y152455D01*
X467803Y152402D01*
X467684Y152351D01*
X467563Y152305D01*
X467441Y152261D01*
X467318Y152222D01*
X467193Y152186D01*
X467068Y152154D01*
X466941Y152125D01*
X466814Y152101D01*
X466686Y152080D01*
X466558Y152063D01*
X466429Y152049D01*
X466300Y152040D01*
X466171Y152034D01*
X466041Y152032D01*
X461892Y154995D02*
X461713Y155375D01*
X461542Y155758D01*
X461381Y156146D01*
X461229Y156537D01*
X461087Y156932D01*
X460954Y157330D01*
X460831Y157731D01*
X460717Y158135D01*
X460613Y158542D01*
X460518Y158951D01*
X460434Y159362D01*
X460359Y159775D01*
X460294Y160190D01*
X460239Y160606D01*
X460194Y161023D01*
X460159Y161442D01*
X460134Y161861D01*
X460119Y162280D01*
X460114Y162700D01*
X461892Y154995D02*
X461936Y154874D01*
X461983Y154753D01*
X462034Y154634D01*
X462089Y154516D01*
X462147Y154400D01*
X462208Y154286D01*
X462272Y154174D01*
X462340Y154064D01*
X462412Y153956D01*
X462486Y153849D01*
X462563Y153746D01*
X462644Y153644D01*
X462727Y153545D01*
X462813Y153448D01*
X462902Y153354D01*
X462994Y153263D01*
X463089Y153174D01*
X463186Y153089D01*
X463285Y153006D01*
X463387Y152926D01*
X463492Y152849D01*
X463598Y152775D01*
X463707Y152705D01*
X463818Y152637D01*
X463930Y152573D01*
X464045Y152513D01*
X464161Y152455D01*
X464279Y152402D01*
X464398Y152351D01*
X464519Y152305D01*
X464641Y152261D01*
X464764Y152222D01*
X464889Y152186D01*
X465014Y152154D01*
X465141Y152125D01*
X465268Y152101D01*
X465396Y152080D01*
X465524Y152063D01*
X465653Y152049D01*
X465782Y152040D01*
X465911Y152034D01*
X466041Y152032D01*
X470783Y156773D02*
X461300Y168627D01*
X708041Y173368D02*
X713968Y168627D01*
X708041Y173368D02*
X708041Y152032D01*
X702115Y152032D02*
X713968Y152032D01*
X944115Y168034D02*
X944117Y168178D01*
X944123Y168323D01*
X944133Y168467D01*
X944146Y168611D01*
X944164Y168754D01*
X944185Y168897D01*
X944211Y169039D01*
X944240Y169181D01*
X944273Y169321D01*
X944309Y169461D01*
X944350Y169600D01*
X944394Y169737D01*
X944442Y169873D01*
X944494Y170008D01*
X944549Y170142D01*
X944608Y170274D01*
X944670Y170404D01*
X944736Y170532D01*
X944806Y170659D01*
X944879Y170784D01*
X944955Y170907D01*
X945034Y171027D01*
X945117Y171146D01*
X945203Y171262D01*
X945292Y171376D01*
X945384Y171487D01*
X945479Y171596D01*
X945577Y171702D01*
X945677Y171806D01*
X945781Y171906D01*
X945887Y172004D01*
X945996Y172099D01*
X946107Y172191D01*
X946221Y172280D01*
X946337Y172366D01*
X946456Y172449D01*
X946576Y172528D01*
X946699Y172604D01*
X946824Y172677D01*
X946950Y172747D01*
X947079Y172813D01*
X947209Y172875D01*
X947341Y172934D01*
X947475Y172989D01*
X947610Y173041D01*
X947746Y173089D01*
X947883Y173133D01*
X948022Y173174D01*
X948162Y173210D01*
X948302Y173243D01*
X948444Y173272D01*
X948586Y173298D01*
X948729Y173319D01*
X948872Y173337D01*
X949016Y173350D01*
X949160Y173360D01*
X949305Y173366D01*
X949449Y173368D01*
X949615Y173366D01*
X949780Y173360D01*
X949946Y173350D01*
X950111Y173336D01*
X950276Y173318D01*
X950440Y173296D01*
X950604Y173270D01*
X950767Y173240D01*
X950929Y173206D01*
X951090Y173169D01*
X951251Y173127D01*
X951410Y173081D01*
X951568Y173032D01*
X951725Y172979D01*
X951881Y172922D01*
X952035Y172861D01*
X952188Y172797D01*
X952339Y172729D01*
X952488Y172657D01*
X952636Y172582D01*
X952782Y172503D01*
X952926Y172421D01*
X953067Y172335D01*
X953207Y172246D01*
X953345Y172153D01*
X953480Y172057D01*
X953613Y171958D01*
X953743Y171856D01*
X953871Y171750D01*
X953996Y171642D01*
X954119Y171531D01*
X954239Y171416D01*
X954356Y171299D01*
X954470Y171179D01*
X954581Y171056D01*
X954690Y170931D01*
X954795Y170803D01*
X954897Y170672D01*
X954996Y170539D01*
X955092Y170404D01*
X955184Y170266D01*
X955273Y170126D01*
X955359Y169984D01*
X955441Y169841D01*
X955520Y169695D01*
X955595Y169547D01*
X955666Y169397D01*
X955734Y169246D01*
X955798Y169093D01*
X955859Y168939D01*
X955916Y168783D01*
X955969Y168626D01*
X945893Y163885D02*
X945786Y163990D01*
X945682Y164097D01*
X945580Y164207D01*
X945482Y164320D01*
X945386Y164435D01*
X945294Y164553D01*
X945204Y164673D01*
X945118Y164795D01*
X945035Y164920D01*
X944956Y165047D01*
X944879Y165175D01*
X944806Y165306D01*
X944737Y165438D01*
X944671Y165573D01*
X944608Y165709D01*
X944549Y165846D01*
X944494Y165985D01*
X944442Y166126D01*
X944394Y166267D01*
X944350Y166410D01*
X944309Y166554D01*
X944273Y166699D01*
X944240Y166845D01*
X944211Y166992D01*
X944185Y167140D01*
X944164Y167288D01*
X944146Y167436D01*
X944133Y167586D01*
X944123Y167735D01*
X944117Y167884D01*
X944115Y168034D01*
X945893Y163885D02*
X955968Y152032D01*
X944115Y152032D01*
X1187041Y152032D02*
X1192968Y152032D01*
X1187041Y152032D02*
X1186888Y152034D01*
X1186736Y152040D01*
X1186584Y152050D01*
X1186432Y152063D01*
X1186280Y152081D01*
X1186129Y152103D01*
X1185978Y152128D01*
X1185829Y152157D01*
X1185680Y152190D01*
X1185532Y152227D01*
X1185384Y152268D01*
X1185239Y152313D01*
X1185094Y152361D01*
X1184950Y152413D01*
X1184808Y152469D01*
X1184668Y152528D01*
X1184528Y152591D01*
X1184391Y152657D01*
X1184255Y152727D01*
X1184122Y152801D01*
X1183990Y152878D01*
X1183860Y152958D01*
X1183732Y153042D01*
X1183607Y153128D01*
X1183484Y153218D01*
X1183363Y153312D01*
X1183244Y153408D01*
X1183128Y153507D01*
X1183015Y153609D01*
X1182904Y153714D01*
X1182796Y153822D01*
X1182691Y153933D01*
X1182589Y154046D01*
X1182490Y154162D01*
X1182394Y154281D01*
X1182300Y154402D01*
X1182210Y154525D01*
X1182124Y154650D01*
X1182040Y154778D01*
X1181960Y154908D01*
X1181883Y155040D01*
X1181809Y155173D01*
X1181739Y155309D01*
X1181673Y155446D01*
X1181610Y155586D01*
X1181551Y155726D01*
X1181495Y155868D01*
X1181443Y156012D01*
X1181395Y156157D01*
X1181350Y156302D01*
X1181309Y156450D01*
X1181272Y156598D01*
X1181239Y156747D01*
X1181210Y156896D01*
X1181185Y157047D01*
X1181163Y157198D01*
X1181145Y157350D01*
X1181132Y157502D01*
X1181122Y157654D01*
X1181116Y157806D01*
X1181114Y157959D01*
X1181116Y158112D01*
X1181122Y158264D01*
X1181132Y158416D01*
X1181145Y158568D01*
X1181163Y158720D01*
X1181185Y158871D01*
X1181210Y159022D01*
X1181239Y159171D01*
X1181272Y159320D01*
X1181309Y159468D01*
X1181350Y159616D01*
X1181395Y159761D01*
X1181443Y159906D01*
X1181495Y160050D01*
X1181551Y160192D01*
X1181610Y160332D01*
X1181673Y160472D01*
X1181739Y160609D01*
X1181809Y160745D01*
X1181883Y160878D01*
X1181960Y161010D01*
X1182040Y161140D01*
X1182124Y161268D01*
X1182210Y161393D01*
X1182300Y161516D01*
X1182394Y161637D01*
X1182490Y161756D01*
X1182589Y161872D01*
X1182691Y161985D01*
X1182796Y162096D01*
X1182904Y162204D01*
X1183015Y162309D01*
X1183128Y162411D01*
X1183244Y162510D01*
X1183363Y162606D01*
X1183484Y162700D01*
X1183607Y162790D01*
X1183732Y162876D01*
X1183860Y162960D01*
X1183990Y163040D01*
X1184122Y163117D01*
X1184255Y163191D01*
X1184391Y163261D01*
X1184528Y163327D01*
X1184668Y163390D01*
X1184808Y163449D01*
X1184950Y163505D01*
X1185094Y163557D01*
X1185239Y163605D01*
X1185384Y163650D01*
X1185532Y163691D01*
X1185680Y163728D01*
X1185829Y163761D01*
X1185978Y163790D01*
X1186129Y163815D01*
X1186280Y163837D01*
X1186432Y163855D01*
X1186584Y163868D01*
X1186736Y163878D01*
X1186888Y163884D01*
X1187041Y163886D01*
X1185856Y173368D02*
X1192968Y173368D01*
X1185856Y173368D02*
X1185719Y173366D01*
X1185583Y173360D01*
X1185447Y173350D01*
X1185311Y173337D01*
X1185175Y173319D01*
X1185040Y173297D01*
X1184906Y173272D01*
X1184773Y173243D01*
X1184640Y173209D01*
X1184508Y173172D01*
X1184378Y173132D01*
X1184249Y173087D01*
X1184121Y173039D01*
X1183994Y172987D01*
X1183870Y172932D01*
X1183746Y172873D01*
X1183625Y172810D01*
X1183505Y172744D01*
X1183388Y172675D01*
X1183272Y172602D01*
X1183158Y172526D01*
X1183047Y172446D01*
X1182938Y172364D01*
X1182832Y172278D01*
X1182728Y172190D01*
X1182627Y172098D01*
X1182528Y172003D01*
X1182432Y171906D01*
X1182339Y171806D01*
X1182249Y171703D01*
X1182162Y171598D01*
X1182077Y171491D01*
X1181996Y171380D01*
X1181919Y171268D01*
X1181844Y171153D01*
X1181773Y171037D01*
X1181705Y170918D01*
X1181641Y170798D01*
X1181580Y170675D01*
X1181523Y170551D01*
X1181469Y170426D01*
X1181419Y170298D01*
X1181373Y170170D01*
X1181330Y170040D01*
X1181292Y169909D01*
X1181257Y169777D01*
X1181225Y169644D01*
X1181198Y169510D01*
X1181174Y169375D01*
X1181155Y169240D01*
X1181139Y169104D01*
X1181127Y168968D01*
X1181119Y168832D01*
X1181115Y168695D01*
X1181115Y168559D01*
X1181119Y168422D01*
X1181127Y168286D01*
X1181139Y168150D01*
X1181155Y168014D01*
X1181174Y167879D01*
X1181198Y167744D01*
X1181225Y167610D01*
X1181257Y167477D01*
X1181292Y167345D01*
X1181330Y167214D01*
X1181373Y167084D01*
X1181419Y166956D01*
X1181469Y166828D01*
X1181523Y166703D01*
X1181580Y166579D01*
X1181641Y166456D01*
X1181705Y166336D01*
X1181773Y166217D01*
X1181844Y166101D01*
X1181919Y165986D01*
X1181996Y165874D01*
X1182077Y165763D01*
X1182162Y165656D01*
X1182249Y165551D01*
X1182339Y165448D01*
X1182432Y165348D01*
X1182528Y165251D01*
X1182627Y165156D01*
X1182728Y165064D01*
X1182832Y164976D01*
X1182938Y164890D01*
X1183047Y164808D01*
X1183158Y164728D01*
X1183272Y164652D01*
X1183388Y164579D01*
X1183505Y164510D01*
X1183625Y164444D01*
X1183746Y164381D01*
X1183870Y164322D01*
X1183994Y164267D01*
X1184121Y164215D01*
X1184249Y164167D01*
X1184378Y164122D01*
X1184508Y164082D01*
X1184640Y164045D01*
X1184773Y164011D01*
X1184906Y163982D01*
X1185040Y163957D01*
X1185175Y163935D01*
X1185311Y163917D01*
X1185447Y163904D01*
X1185583Y163894D01*
X1185719Y163888D01*
X1185856Y163886D01*
X1185856Y163885D02*
X1190597Y163885D01*
X1431227Y173368D02*
X1435968Y156773D01*
X1424115Y156773D01*
X1427671Y152032D02*
X1427671Y161515D01*
X1665856Y152032D02*
X1672968Y152032D01*
X1665856Y152032D02*
X1665721Y152034D01*
X1665585Y152040D01*
X1665450Y152049D01*
X1665316Y152063D01*
X1665181Y152080D01*
X1665048Y152101D01*
X1664914Y152126D01*
X1664782Y152155D01*
X1664651Y152188D01*
X1664520Y152224D01*
X1664391Y152264D01*
X1664263Y152308D01*
X1664136Y152355D01*
X1664010Y152406D01*
X1663887Y152460D01*
X1663764Y152518D01*
X1663644Y152580D01*
X1663525Y152645D01*
X1663408Y152713D01*
X1663293Y152785D01*
X1663180Y152859D01*
X1663069Y152937D01*
X1662961Y153019D01*
X1662855Y153103D01*
X1662751Y153190D01*
X1662650Y153280D01*
X1662552Y153373D01*
X1662456Y153469D01*
X1662363Y153567D01*
X1662273Y153668D01*
X1662186Y153772D01*
X1662102Y153878D01*
X1662020Y153986D01*
X1661942Y154097D01*
X1661868Y154210D01*
X1661796Y154325D01*
X1661728Y154442D01*
X1661663Y154561D01*
X1661601Y154681D01*
X1661543Y154804D01*
X1661489Y154927D01*
X1661438Y155053D01*
X1661391Y155180D01*
X1661347Y155308D01*
X1661307Y155437D01*
X1661271Y155568D01*
X1661238Y155699D01*
X1661209Y155831D01*
X1661184Y155965D01*
X1661163Y156098D01*
X1661146Y156233D01*
X1661132Y156367D01*
X1661123Y156502D01*
X1661117Y156638D01*
X1661115Y156773D01*
X1661115Y159144D01*
X1661117Y159279D01*
X1661123Y159415D01*
X1661132Y159550D01*
X1661146Y159684D01*
X1661163Y159819D01*
X1661184Y159952D01*
X1661209Y160086D01*
X1661238Y160218D01*
X1661271Y160349D01*
X1661307Y160480D01*
X1661347Y160609D01*
X1661391Y160737D01*
X1661438Y160864D01*
X1661489Y160990D01*
X1661543Y161113D01*
X1661601Y161236D01*
X1661663Y161356D01*
X1661728Y161475D01*
X1661796Y161592D01*
X1661868Y161707D01*
X1661942Y161820D01*
X1662020Y161931D01*
X1662102Y162039D01*
X1662186Y162145D01*
X1662273Y162249D01*
X1662363Y162350D01*
X1662456Y162448D01*
X1662552Y162544D01*
X1662650Y162637D01*
X1662751Y162727D01*
X1662855Y162814D01*
X1662961Y162898D01*
X1663069Y162980D01*
X1663180Y163058D01*
X1663293Y163132D01*
X1663408Y163204D01*
X1663525Y163272D01*
X1663644Y163337D01*
X1663764Y163399D01*
X1663887Y163457D01*
X1664010Y163511D01*
X1664136Y163562D01*
X1664263Y163609D01*
X1664391Y163653D01*
X1664520Y163693D01*
X1664651Y163729D01*
X1664782Y163762D01*
X1664914Y163791D01*
X1665048Y163816D01*
X1665181Y163837D01*
X1665316Y163854D01*
X1665450Y163868D01*
X1665585Y163877D01*
X1665721Y163883D01*
X1665856Y163885D01*
X1672968Y163885D01*
X1672968Y173368D01*
X1661115Y173368D01*
X1906856Y163885D02*
X1913968Y163885D01*
X1906856Y163885D02*
X1906721Y163883D01*
X1906585Y163877D01*
X1906450Y163868D01*
X1906316Y163854D01*
X1906181Y163837D01*
X1906048Y163816D01*
X1905914Y163791D01*
X1905782Y163762D01*
X1905651Y163729D01*
X1905520Y163693D01*
X1905391Y163653D01*
X1905263Y163609D01*
X1905136Y163562D01*
X1905010Y163511D01*
X1904887Y163457D01*
X1904764Y163399D01*
X1904644Y163337D01*
X1904525Y163272D01*
X1904408Y163204D01*
X1904293Y163132D01*
X1904180Y163058D01*
X1904069Y162980D01*
X1903961Y162898D01*
X1903855Y162814D01*
X1903751Y162727D01*
X1903650Y162637D01*
X1903552Y162544D01*
X1903456Y162448D01*
X1903363Y162350D01*
X1903273Y162249D01*
X1903186Y162145D01*
X1903102Y162039D01*
X1903020Y161931D01*
X1902942Y161820D01*
X1902868Y161707D01*
X1902796Y161592D01*
X1902728Y161475D01*
X1902663Y161356D01*
X1902601Y161236D01*
X1902543Y161113D01*
X1902489Y160990D01*
X1902438Y160864D01*
X1902391Y160737D01*
X1902347Y160609D01*
X1902307Y160480D01*
X1902271Y160349D01*
X1902238Y160218D01*
X1902209Y160086D01*
X1902184Y159952D01*
X1902163Y159819D01*
X1902146Y159684D01*
X1902132Y159550D01*
X1902123Y159415D01*
X1902117Y159279D01*
X1902115Y159144D01*
X1902115Y157959D01*
X1902114Y157959D02*
X1902116Y157806D01*
X1902122Y157654D01*
X1902132Y157502D01*
X1902145Y157350D01*
X1902163Y157198D01*
X1902185Y157047D01*
X1902210Y156896D01*
X1902239Y156747D01*
X1902272Y156598D01*
X1902309Y156450D01*
X1902350Y156302D01*
X1902395Y156157D01*
X1902443Y156012D01*
X1902495Y155868D01*
X1902551Y155726D01*
X1902610Y155586D01*
X1902673Y155446D01*
X1902739Y155309D01*
X1902809Y155173D01*
X1902883Y155040D01*
X1902960Y154908D01*
X1903040Y154778D01*
X1903124Y154650D01*
X1903210Y154525D01*
X1903300Y154402D01*
X1903394Y154281D01*
X1903490Y154162D01*
X1903589Y154046D01*
X1903691Y153933D01*
X1903796Y153822D01*
X1903904Y153714D01*
X1904015Y153609D01*
X1904128Y153507D01*
X1904244Y153408D01*
X1904363Y153312D01*
X1904484Y153218D01*
X1904607Y153128D01*
X1904732Y153042D01*
X1904860Y152958D01*
X1904990Y152878D01*
X1905122Y152801D01*
X1905255Y152727D01*
X1905391Y152657D01*
X1905528Y152591D01*
X1905668Y152528D01*
X1905808Y152469D01*
X1905950Y152413D01*
X1906094Y152361D01*
X1906239Y152313D01*
X1906384Y152268D01*
X1906532Y152227D01*
X1906680Y152190D01*
X1906829Y152157D01*
X1906978Y152128D01*
X1907129Y152103D01*
X1907280Y152081D01*
X1907432Y152063D01*
X1907584Y152050D01*
X1907736Y152040D01*
X1907888Y152034D01*
X1908041Y152032D01*
X1908194Y152034D01*
X1908346Y152040D01*
X1908498Y152050D01*
X1908650Y152063D01*
X1908802Y152081D01*
X1908953Y152103D01*
X1909104Y152128D01*
X1909253Y152157D01*
X1909402Y152190D01*
X1909550Y152227D01*
X1909698Y152268D01*
X1909843Y152313D01*
X1909988Y152361D01*
X1910132Y152413D01*
X1910274Y152469D01*
X1910414Y152528D01*
X1910554Y152591D01*
X1910691Y152657D01*
X1910827Y152727D01*
X1910960Y152801D01*
X1911092Y152878D01*
X1911222Y152958D01*
X1911350Y153042D01*
X1911475Y153128D01*
X1911598Y153218D01*
X1911719Y153312D01*
X1911838Y153408D01*
X1911954Y153507D01*
X1912067Y153609D01*
X1912178Y153714D01*
X1912286Y153822D01*
X1912391Y153933D01*
X1912493Y154046D01*
X1912592Y154162D01*
X1912688Y154281D01*
X1912782Y154402D01*
X1912872Y154525D01*
X1912958Y154650D01*
X1913042Y154778D01*
X1913122Y154908D01*
X1913199Y155040D01*
X1913273Y155173D01*
X1913343Y155309D01*
X1913409Y155446D01*
X1913472Y155586D01*
X1913531Y155726D01*
X1913587Y155868D01*
X1913639Y156012D01*
X1913687Y156157D01*
X1913732Y156302D01*
X1913773Y156450D01*
X1913810Y156598D01*
X1913843Y156747D01*
X1913872Y156896D01*
X1913897Y157047D01*
X1913919Y157198D01*
X1913937Y157350D01*
X1913950Y157502D01*
X1913960Y157654D01*
X1913966Y157806D01*
X1913968Y157959D01*
X1913968Y163885D01*
X1913965Y164118D01*
X1913957Y164350D01*
X1913942Y164583D01*
X1913922Y164814D01*
X1913897Y165046D01*
X1913865Y165276D01*
X1913828Y165506D01*
X1913786Y165735D01*
X1913738Y165963D01*
X1913684Y166189D01*
X1913624Y166414D01*
X1913560Y166638D01*
X1913489Y166860D01*
X1913414Y167080D01*
X1913333Y167298D01*
X1913246Y167514D01*
X1913154Y167728D01*
X1913058Y167939D01*
X1912955Y168149D01*
X1912848Y168355D01*
X1912736Y168559D01*
X1912619Y168760D01*
X1912497Y168958D01*
X1912370Y169153D01*
X1912238Y169345D01*
X1912102Y169534D01*
X1911961Y169719D01*
X1911815Y169901D01*
X1911666Y170079D01*
X1911511Y170253D01*
X1911353Y170424D01*
X1911191Y170590D01*
X1911024Y170753D01*
X1910853Y170911D01*
X1910679Y171066D01*
X1910501Y171215D01*
X1910319Y171361D01*
X1910134Y171502D01*
X1909945Y171638D01*
X1909754Y171770D01*
X1909558Y171897D01*
X1909360Y172019D01*
X1909159Y172136D01*
X1908955Y172248D01*
X1908749Y172355D01*
X1908540Y172458D01*
X1908328Y172554D01*
X1908114Y172646D01*
X1907898Y172733D01*
X1907680Y172814D01*
X1907460Y172889D01*
X1907238Y172960D01*
X1907014Y173024D01*
X1906789Y173084D01*
X1906563Y173138D01*
X1906335Y173186D01*
X1906106Y173228D01*
X1905877Y173265D01*
X1905646Y173297D01*
X1905415Y173322D01*
X1905183Y173342D01*
X1904950Y173357D01*
X1904718Y173365D01*
X1904485Y173368D01*
X2152968Y173368D02*
X2152968Y170997D01*
X2152968Y173368D02*
X2141115Y173368D01*
X2147041Y152032D01*
X2142227Y93132D02*
X2137485Y93132D01*
X2142227Y93132D02*
X2142362Y93134D01*
X2142498Y93140D01*
X2142633Y93149D01*
X2142767Y93163D01*
X2142902Y93180D01*
X2143035Y93201D01*
X2143169Y93226D01*
X2143301Y93255D01*
X2143432Y93288D01*
X2143563Y93324D01*
X2143692Y93364D01*
X2143820Y93408D01*
X2143947Y93455D01*
X2144073Y93506D01*
X2144196Y93560D01*
X2144319Y93618D01*
X2144439Y93680D01*
X2144558Y93745D01*
X2144675Y93813D01*
X2144790Y93885D01*
X2144903Y93959D01*
X2145014Y94037D01*
X2145122Y94119D01*
X2145228Y94203D01*
X2145332Y94290D01*
X2145433Y94380D01*
X2145531Y94473D01*
X2145627Y94569D01*
X2145720Y94667D01*
X2145810Y94768D01*
X2145897Y94872D01*
X2145981Y94978D01*
X2146063Y95086D01*
X2146141Y95197D01*
X2146215Y95310D01*
X2146287Y95425D01*
X2146355Y95542D01*
X2146420Y95661D01*
X2146482Y95781D01*
X2146540Y95904D01*
X2146594Y96027D01*
X2146645Y96153D01*
X2146692Y96280D01*
X2146736Y96408D01*
X2146776Y96537D01*
X2146812Y96668D01*
X2146845Y96799D01*
X2146874Y96931D01*
X2146899Y97065D01*
X2146920Y97198D01*
X2146937Y97333D01*
X2146951Y97467D01*
X2146960Y97602D01*
X2146966Y97738D01*
X2146968Y97873D01*
X2146968Y109727D01*
X2146966Y109862D01*
X2146960Y109998D01*
X2146951Y110133D01*
X2146937Y110267D01*
X2146920Y110402D01*
X2146899Y110535D01*
X2146874Y110669D01*
X2146845Y110801D01*
X2146812Y110932D01*
X2146776Y111063D01*
X2146736Y111192D01*
X2146692Y111320D01*
X2146645Y111447D01*
X2146594Y111573D01*
X2146540Y111696D01*
X2146482Y111819D01*
X2146420Y111939D01*
X2146355Y112058D01*
X2146287Y112175D01*
X2146215Y112290D01*
X2146141Y112403D01*
X2146063Y112514D01*
X2145981Y112622D01*
X2145897Y112728D01*
X2145810Y112832D01*
X2145720Y112933D01*
X2145627Y113031D01*
X2145531Y113127D01*
X2145433Y113220D01*
X2145332Y113310D01*
X2145228Y113397D01*
X2145122Y113481D01*
X2145014Y113563D01*
X2144903Y113641D01*
X2144790Y113715D01*
X2144675Y113787D01*
X2144558Y113855D01*
X2144439Y113920D01*
X2144319Y113982D01*
X2144196Y114040D01*
X2144073Y114094D01*
X2143947Y114145D01*
X2143820Y114192D01*
X2143692Y114236D01*
X2143563Y114276D01*
X2143432Y114312D01*
X2143301Y114345D01*
X2143169Y114374D01*
X2143035Y114399D01*
X2142902Y114420D01*
X2142767Y114437D01*
X2142633Y114451D01*
X2142498Y114460D01*
X2142362Y114466D01*
X2142227Y114468D01*
X2137485Y114468D01*
X2128887Y107356D02*
X2128887Y93132D01*
X2128887Y107356D02*
X2121775Y107356D01*
X2121775Y104985D01*
X2111552Y93132D02*
X2105626Y93132D01*
X2111552Y93132D02*
X2111668Y93134D01*
X2111785Y93140D01*
X2111901Y93149D01*
X2112016Y93162D01*
X2112131Y93179D01*
X2112246Y93200D01*
X2112359Y93225D01*
X2112472Y93253D01*
X2112584Y93285D01*
X2112695Y93321D01*
X2112805Y93360D01*
X2112913Y93403D01*
X2113020Y93449D01*
X2113125Y93499D01*
X2113228Y93552D01*
X2113330Y93608D01*
X2113430Y93668D01*
X2113528Y93731D01*
X2113623Y93798D01*
X2113717Y93867D01*
X2113808Y93939D01*
X2113897Y94014D01*
X2113983Y94093D01*
X2114066Y94174D01*
X2114147Y94257D01*
X2114226Y94343D01*
X2114301Y94432D01*
X2114373Y94523D01*
X2114442Y94617D01*
X2114509Y94712D01*
X2114572Y94810D01*
X2114632Y94910D01*
X2114688Y95012D01*
X2114741Y95115D01*
X2114791Y95220D01*
X2114837Y95327D01*
X2114880Y95435D01*
X2114919Y95545D01*
X2114955Y95656D01*
X2114987Y95768D01*
X2115015Y95881D01*
X2115040Y95994D01*
X2115061Y96109D01*
X2115078Y96224D01*
X2115091Y96339D01*
X2115100Y96455D01*
X2115106Y96572D01*
X2115108Y96688D01*
X2115108Y102615D01*
X2115106Y102752D01*
X2115100Y102888D01*
X2115090Y103024D01*
X2115077Y103160D01*
X2115059Y103296D01*
X2115037Y103431D01*
X2115012Y103565D01*
X2114983Y103698D01*
X2114949Y103831D01*
X2114912Y103963D01*
X2114872Y104093D01*
X2114827Y104222D01*
X2114779Y104350D01*
X2114727Y104477D01*
X2114672Y104601D01*
X2114613Y104725D01*
X2114550Y104846D01*
X2114484Y104966D01*
X2114415Y105083D01*
X2114342Y105199D01*
X2114266Y105313D01*
X2114186Y105424D01*
X2114104Y105533D01*
X2114018Y105639D01*
X2113930Y105743D01*
X2113838Y105844D01*
X2113743Y105943D01*
X2113646Y106039D01*
X2113546Y106132D01*
X2113443Y106222D01*
X2113338Y106309D01*
X2113231Y106394D01*
X2113120Y106475D01*
X2113008Y106552D01*
X2112893Y106627D01*
X2112777Y106698D01*
X2112658Y106766D01*
X2112538Y106830D01*
X2112415Y106891D01*
X2112291Y106948D01*
X2112166Y107002D01*
X2112038Y107052D01*
X2111910Y107098D01*
X2111780Y107141D01*
X2111649Y107179D01*
X2111517Y107214D01*
X2111384Y107246D01*
X2111250Y107273D01*
X2111115Y107297D01*
X2110980Y107316D01*
X2110844Y107332D01*
X2110708Y107344D01*
X2110572Y107352D01*
X2110435Y107356D01*
X2110299Y107356D01*
X2110162Y107352D01*
X2110026Y107344D01*
X2109890Y107332D01*
X2109754Y107316D01*
X2109619Y107297D01*
X2109484Y107273D01*
X2109350Y107246D01*
X2109217Y107214D01*
X2109085Y107179D01*
X2108954Y107141D01*
X2108824Y107098D01*
X2108696Y107052D01*
X2108568Y107002D01*
X2108443Y106948D01*
X2108319Y106891D01*
X2108196Y106830D01*
X2108076Y106766D01*
X2107957Y106698D01*
X2107841Y106627D01*
X2107726Y106552D01*
X2107614Y106475D01*
X2107503Y106394D01*
X2107396Y106309D01*
X2107291Y106222D01*
X2107188Y106132D01*
X2107088Y106039D01*
X2106991Y105943D01*
X2106896Y105844D01*
X2106804Y105743D01*
X2106716Y105639D01*
X2106630Y105533D01*
X2106548Y105424D01*
X2106468Y105313D01*
X2106392Y105199D01*
X2106319Y105083D01*
X2106250Y104966D01*
X2106184Y104846D01*
X2106121Y104725D01*
X2106062Y104601D01*
X2106007Y104477D01*
X2105955Y104350D01*
X2105907Y104222D01*
X2105862Y104093D01*
X2105822Y103963D01*
X2105785Y103831D01*
X2105751Y103698D01*
X2105722Y103565D01*
X2105697Y103431D01*
X2105675Y103296D01*
X2105657Y103160D01*
X2105644Y103024D01*
X2105634Y102888D01*
X2105628Y102752D01*
X2105626Y102615D01*
X2105626Y100244D01*
X2115108Y100244D01*
X2092977Y101429D02*
X2087643Y101429D01*
X2092977Y101430D02*
X2093105Y101428D01*
X2093232Y101422D01*
X2093360Y101412D01*
X2093487Y101399D01*
X2093613Y101381D01*
X2093739Y101359D01*
X2093865Y101334D01*
X2093989Y101305D01*
X2094112Y101272D01*
X2094235Y101235D01*
X2094356Y101194D01*
X2094476Y101150D01*
X2094594Y101102D01*
X2094711Y101050D01*
X2094826Y100995D01*
X2094940Y100936D01*
X2095052Y100874D01*
X2095161Y100809D01*
X2095269Y100740D01*
X2095374Y100667D01*
X2095477Y100592D01*
X2095578Y100513D01*
X2095676Y100432D01*
X2095772Y100347D01*
X2095865Y100260D01*
X2095956Y100169D01*
X2096043Y100076D01*
X2096128Y99980D01*
X2096209Y99882D01*
X2096288Y99781D01*
X2096363Y99678D01*
X2096436Y99573D01*
X2096505Y99465D01*
X2096570Y99355D01*
X2096632Y99244D01*
X2096691Y99130D01*
X2096746Y99015D01*
X2096798Y98898D01*
X2096846Y98780D01*
X2096890Y98660D01*
X2096931Y98539D01*
X2096968Y98416D01*
X2097001Y98293D01*
X2097030Y98169D01*
X2097055Y98043D01*
X2097077Y97917D01*
X2097095Y97791D01*
X2097108Y97664D01*
X2097118Y97536D01*
X2097124Y97409D01*
X2097126Y97281D01*
X2097124Y97153D01*
X2097118Y97026D01*
X2097108Y96898D01*
X2097095Y96771D01*
X2097077Y96645D01*
X2097055Y96519D01*
X2097030Y96393D01*
X2097001Y96269D01*
X2096968Y96146D01*
X2096931Y96023D01*
X2096890Y95902D01*
X2096846Y95782D01*
X2096798Y95664D01*
X2096746Y95547D01*
X2096691Y95432D01*
X2096632Y95318D01*
X2096570Y95206D01*
X2096505Y95097D01*
X2096436Y94989D01*
X2096363Y94884D01*
X2096288Y94781D01*
X2096209Y94680D01*
X2096128Y94582D01*
X2096043Y94486D01*
X2095956Y94393D01*
X2095865Y94302D01*
X2095772Y94215D01*
X2095676Y94130D01*
X2095578Y94049D01*
X2095477Y93970D01*
X2095374Y93895D01*
X2095269Y93822D01*
X2095161Y93753D01*
X2095052Y93688D01*
X2094940Y93626D01*
X2094826Y93567D01*
X2094711Y93512D01*
X2094594Y93460D01*
X2094476Y93412D01*
X2094356Y93368D01*
X2094235Y93327D01*
X2094112Y93290D01*
X2093989Y93257D01*
X2093865Y93228D01*
X2093739Y93203D01*
X2093613Y93181D01*
X2093487Y93163D01*
X2093360Y93150D01*
X2093232Y93140D01*
X2093105Y93134D01*
X2092977Y93132D01*
X2087643Y93132D01*
X2087643Y103800D01*
X2087645Y103916D01*
X2087651Y104033D01*
X2087660Y104149D01*
X2087673Y104264D01*
X2087690Y104379D01*
X2087711Y104494D01*
X2087736Y104607D01*
X2087764Y104720D01*
X2087796Y104832D01*
X2087832Y104943D01*
X2087871Y105053D01*
X2087914Y105161D01*
X2087960Y105268D01*
X2088010Y105373D01*
X2088063Y105476D01*
X2088119Y105578D01*
X2088179Y105678D01*
X2088242Y105776D01*
X2088309Y105871D01*
X2088378Y105965D01*
X2088450Y106056D01*
X2088525Y106145D01*
X2088604Y106231D01*
X2088685Y106314D01*
X2088768Y106395D01*
X2088854Y106474D01*
X2088943Y106549D01*
X2089034Y106621D01*
X2089128Y106690D01*
X2089223Y106757D01*
X2089321Y106820D01*
X2089421Y106880D01*
X2089523Y106936D01*
X2089626Y106989D01*
X2089731Y107039D01*
X2089838Y107085D01*
X2089946Y107128D01*
X2090056Y107167D01*
X2090167Y107203D01*
X2090279Y107235D01*
X2090392Y107263D01*
X2090505Y107288D01*
X2090620Y107309D01*
X2090735Y107326D01*
X2090850Y107339D01*
X2090966Y107348D01*
X2091083Y107354D01*
X2091199Y107356D01*
X2095941Y107356D01*
X2080006Y107356D02*
X2072894Y107356D01*
X2077635Y114468D02*
X2077635Y96688D01*
X2077633Y96572D01*
X2077627Y96455D01*
X2077618Y96339D01*
X2077605Y96224D01*
X2077588Y96109D01*
X2077567Y95994D01*
X2077542Y95881D01*
X2077514Y95768D01*
X2077482Y95656D01*
X2077446Y95545D01*
X2077407Y95435D01*
X2077364Y95327D01*
X2077318Y95220D01*
X2077268Y95115D01*
X2077215Y95012D01*
X2077159Y94910D01*
X2077099Y94810D01*
X2077036Y94712D01*
X2076969Y94617D01*
X2076900Y94523D01*
X2076828Y94432D01*
X2076753Y94343D01*
X2076674Y94257D01*
X2076593Y94174D01*
X2076510Y94093D01*
X2076424Y94014D01*
X2076335Y93939D01*
X2076244Y93867D01*
X2076150Y93798D01*
X2076055Y93731D01*
X2075957Y93668D01*
X2075857Y93608D01*
X2075755Y93552D01*
X2075652Y93499D01*
X2075547Y93449D01*
X2075440Y93403D01*
X2075332Y93360D01*
X2075222Y93321D01*
X2075111Y93285D01*
X2074999Y93253D01*
X2074886Y93225D01*
X2074773Y93200D01*
X2074658Y93179D01*
X2074543Y93162D01*
X2074428Y93149D01*
X2074312Y93140D01*
X2074195Y93134D01*
X2074079Y93132D01*
X2072894Y93132D01*
X2061443Y93132D02*
X2055517Y93132D01*
X2061443Y93132D02*
X2061559Y93134D01*
X2061676Y93140D01*
X2061792Y93149D01*
X2061907Y93162D01*
X2062022Y93179D01*
X2062137Y93200D01*
X2062250Y93225D01*
X2062363Y93253D01*
X2062475Y93285D01*
X2062586Y93321D01*
X2062696Y93360D01*
X2062804Y93403D01*
X2062911Y93449D01*
X2063016Y93499D01*
X2063119Y93552D01*
X2063221Y93608D01*
X2063321Y93668D01*
X2063419Y93731D01*
X2063514Y93798D01*
X2063608Y93867D01*
X2063699Y93939D01*
X2063788Y94014D01*
X2063874Y94093D01*
X2063957Y94174D01*
X2064038Y94257D01*
X2064117Y94343D01*
X2064192Y94432D01*
X2064264Y94523D01*
X2064333Y94617D01*
X2064400Y94712D01*
X2064463Y94810D01*
X2064523Y94910D01*
X2064579Y95012D01*
X2064632Y95115D01*
X2064682Y95220D01*
X2064728Y95327D01*
X2064771Y95435D01*
X2064810Y95545D01*
X2064846Y95656D01*
X2064878Y95768D01*
X2064906Y95881D01*
X2064931Y95994D01*
X2064952Y96109D01*
X2064969Y96224D01*
X2064982Y96339D01*
X2064991Y96455D01*
X2064997Y96572D01*
X2064999Y96688D01*
X2064999Y102615D01*
X2064997Y102752D01*
X2064991Y102888D01*
X2064981Y103024D01*
X2064968Y103160D01*
X2064950Y103296D01*
X2064928Y103431D01*
X2064903Y103565D01*
X2064874Y103698D01*
X2064840Y103831D01*
X2064803Y103963D01*
X2064763Y104093D01*
X2064718Y104222D01*
X2064670Y104350D01*
X2064618Y104477D01*
X2064563Y104601D01*
X2064504Y104725D01*
X2064441Y104846D01*
X2064375Y104966D01*
X2064306Y105083D01*
X2064233Y105199D01*
X2064157Y105313D01*
X2064077Y105424D01*
X2063995Y105533D01*
X2063909Y105639D01*
X2063821Y105743D01*
X2063729Y105844D01*
X2063634Y105943D01*
X2063537Y106039D01*
X2063437Y106132D01*
X2063334Y106222D01*
X2063229Y106309D01*
X2063122Y106394D01*
X2063011Y106475D01*
X2062899Y106552D01*
X2062784Y106627D01*
X2062668Y106698D01*
X2062549Y106766D01*
X2062429Y106830D01*
X2062306Y106891D01*
X2062182Y106948D01*
X2062057Y107002D01*
X2061929Y107052D01*
X2061801Y107098D01*
X2061671Y107141D01*
X2061540Y107179D01*
X2061408Y107214D01*
X2061275Y107246D01*
X2061141Y107273D01*
X2061006Y107297D01*
X2060871Y107316D01*
X2060735Y107332D01*
X2060599Y107344D01*
X2060463Y107352D01*
X2060326Y107356D01*
X2060190Y107356D01*
X2060053Y107352D01*
X2059917Y107344D01*
X2059781Y107332D01*
X2059645Y107316D01*
X2059510Y107297D01*
X2059375Y107273D01*
X2059241Y107246D01*
X2059108Y107214D01*
X2058976Y107179D01*
X2058845Y107141D01*
X2058715Y107098D01*
X2058587Y107052D01*
X2058459Y107002D01*
X2058334Y106948D01*
X2058210Y106891D01*
X2058087Y106830D01*
X2057967Y106766D01*
X2057848Y106698D01*
X2057732Y106627D01*
X2057617Y106552D01*
X2057505Y106475D01*
X2057394Y106394D01*
X2057287Y106309D01*
X2057182Y106222D01*
X2057079Y106132D01*
X2056979Y106039D01*
X2056882Y105943D01*
X2056787Y105844D01*
X2056695Y105743D01*
X2056607Y105639D01*
X2056521Y105533D01*
X2056439Y105424D01*
X2056359Y105313D01*
X2056283Y105199D01*
X2056210Y105083D01*
X2056141Y104966D01*
X2056075Y104846D01*
X2056012Y104725D01*
X2055953Y104601D01*
X2055898Y104477D01*
X2055846Y104350D01*
X2055798Y104222D01*
X2055753Y104093D01*
X2055713Y103963D01*
X2055676Y103831D01*
X2055642Y103698D01*
X2055613Y103565D01*
X2055588Y103431D01*
X2055566Y103296D01*
X2055548Y103160D01*
X2055535Y103024D01*
X2055525Y102888D01*
X2055519Y102752D01*
X2055517Y102615D01*
X2055517Y100244D01*
X2064999Y100244D01*
X2037534Y93132D02*
X2037534Y114468D01*
X2037534Y93132D02*
X2043461Y93132D01*
X2043577Y93134D01*
X2043694Y93140D01*
X2043810Y93149D01*
X2043925Y93162D01*
X2044040Y93179D01*
X2044155Y93200D01*
X2044268Y93225D01*
X2044381Y93253D01*
X2044493Y93285D01*
X2044604Y93321D01*
X2044714Y93360D01*
X2044822Y93403D01*
X2044929Y93449D01*
X2045034Y93499D01*
X2045137Y93552D01*
X2045239Y93608D01*
X2045339Y93668D01*
X2045437Y93731D01*
X2045532Y93798D01*
X2045626Y93867D01*
X2045717Y93939D01*
X2045806Y94014D01*
X2045892Y94093D01*
X2045975Y94174D01*
X2046056Y94257D01*
X2046135Y94343D01*
X2046210Y94432D01*
X2046282Y94523D01*
X2046351Y94617D01*
X2046418Y94712D01*
X2046481Y94810D01*
X2046541Y94910D01*
X2046597Y95012D01*
X2046650Y95115D01*
X2046700Y95220D01*
X2046746Y95327D01*
X2046789Y95435D01*
X2046828Y95545D01*
X2046864Y95656D01*
X2046896Y95768D01*
X2046924Y95881D01*
X2046949Y95994D01*
X2046970Y96109D01*
X2046987Y96224D01*
X2047000Y96339D01*
X2047009Y96455D01*
X2047015Y96572D01*
X2047017Y96688D01*
X2047017Y103800D01*
X2047015Y103916D01*
X2047009Y104033D01*
X2047000Y104149D01*
X2046987Y104264D01*
X2046970Y104379D01*
X2046949Y104494D01*
X2046924Y104607D01*
X2046896Y104720D01*
X2046864Y104832D01*
X2046828Y104943D01*
X2046789Y105053D01*
X2046746Y105161D01*
X2046700Y105268D01*
X2046650Y105373D01*
X2046597Y105476D01*
X2046541Y105578D01*
X2046481Y105678D01*
X2046418Y105776D01*
X2046351Y105871D01*
X2046282Y105965D01*
X2046210Y106056D01*
X2046135Y106145D01*
X2046056Y106231D01*
X2045975Y106314D01*
X2045892Y106395D01*
X2045806Y106474D01*
X2045717Y106549D01*
X2045626Y106621D01*
X2045532Y106690D01*
X2045437Y106757D01*
X2045339Y106820D01*
X2045239Y106880D01*
X2045137Y106936D01*
X2045034Y106989D01*
X2044929Y107039D01*
X2044822Y107085D01*
X2044714Y107128D01*
X2044604Y107167D01*
X2044493Y107203D01*
X2044381Y107235D01*
X2044268Y107263D01*
X2044155Y107288D01*
X2044040Y107309D01*
X2043925Y107326D01*
X2043810Y107339D01*
X2043694Y107348D01*
X2043577Y107354D01*
X2043461Y107356D01*
X2037534Y107356D01*
X2016170Y114468D02*
X2016170Y93132D01*
X2010243Y93132D01*
X2010127Y93134D01*
X2010010Y93140D01*
X2009894Y93149D01*
X2009779Y93162D01*
X2009664Y93179D01*
X2009549Y93200D01*
X2009436Y93225D01*
X2009323Y93253D01*
X2009211Y93285D01*
X2009100Y93321D01*
X2008990Y93360D01*
X2008882Y93403D01*
X2008775Y93449D01*
X2008670Y93499D01*
X2008567Y93552D01*
X2008465Y93608D01*
X2008365Y93668D01*
X2008267Y93731D01*
X2008172Y93798D01*
X2008078Y93867D01*
X2007987Y93939D01*
X2007898Y94014D01*
X2007812Y94093D01*
X2007729Y94174D01*
X2007648Y94257D01*
X2007569Y94343D01*
X2007494Y94432D01*
X2007422Y94523D01*
X2007353Y94617D01*
X2007286Y94712D01*
X2007223Y94810D01*
X2007163Y94910D01*
X2007107Y95012D01*
X2007054Y95115D01*
X2007004Y95220D01*
X2006958Y95327D01*
X2006915Y95435D01*
X2006876Y95545D01*
X2006840Y95656D01*
X2006808Y95768D01*
X2006780Y95881D01*
X2006755Y95994D01*
X2006734Y96109D01*
X2006717Y96224D01*
X2006704Y96339D01*
X2006695Y96455D01*
X2006689Y96572D01*
X2006687Y96688D01*
X2006687Y103800D01*
X2006689Y103916D01*
X2006695Y104033D01*
X2006704Y104149D01*
X2006717Y104264D01*
X2006734Y104379D01*
X2006755Y104494D01*
X2006780Y104607D01*
X2006808Y104720D01*
X2006840Y104832D01*
X2006876Y104943D01*
X2006915Y105053D01*
X2006958Y105161D01*
X2007004Y105268D01*
X2007054Y105373D01*
X2007107Y105476D01*
X2007163Y105578D01*
X2007223Y105678D01*
X2007286Y105776D01*
X2007353Y105871D01*
X2007422Y105965D01*
X2007494Y106056D01*
X2007569Y106145D01*
X2007648Y106231D01*
X2007729Y106314D01*
X2007812Y106395D01*
X2007898Y106474D01*
X2007987Y106549D01*
X2008078Y106621D01*
X2008172Y106690D01*
X2008267Y106757D01*
X2008365Y106820D01*
X2008465Y106880D01*
X2008567Y106936D01*
X2008670Y106989D01*
X2008775Y107039D01*
X2008882Y107085D01*
X2008990Y107128D01*
X2009100Y107167D01*
X2009211Y107203D01*
X2009323Y107235D01*
X2009436Y107263D01*
X2009549Y107288D01*
X2009664Y107309D01*
X2009779Y107326D01*
X2009894Y107339D01*
X2010010Y107348D01*
X2010127Y107354D01*
X2010243Y107356D01*
X2016170Y107356D01*
X1998883Y86020D02*
X1996513Y86020D01*
X1989401Y107356D01*
X1998883Y107356D02*
X1994142Y93132D01*
X2139856Y76368D02*
X2139856Y59773D01*
X2139858Y59638D01*
X2139864Y59502D01*
X2139873Y59367D01*
X2139887Y59233D01*
X2139904Y59098D01*
X2139925Y58965D01*
X2139950Y58831D01*
X2139979Y58699D01*
X2140012Y58568D01*
X2140048Y58437D01*
X2140088Y58308D01*
X2140132Y58180D01*
X2140179Y58053D01*
X2140230Y57927D01*
X2140284Y57804D01*
X2140342Y57681D01*
X2140404Y57561D01*
X2140469Y57442D01*
X2140537Y57325D01*
X2140609Y57210D01*
X2140683Y57097D01*
X2140761Y56986D01*
X2140843Y56878D01*
X2140927Y56772D01*
X2141014Y56668D01*
X2141104Y56567D01*
X2141197Y56469D01*
X2141293Y56373D01*
X2141391Y56280D01*
X2141492Y56190D01*
X2141596Y56103D01*
X2141702Y56019D01*
X2141810Y55937D01*
X2141921Y55859D01*
X2142034Y55785D01*
X2142149Y55713D01*
X2142266Y55645D01*
X2142385Y55580D01*
X2142505Y55518D01*
X2142628Y55460D01*
X2142751Y55406D01*
X2142877Y55355D01*
X2143004Y55308D01*
X2143132Y55264D01*
X2143261Y55224D01*
X2143392Y55188D01*
X2143523Y55155D01*
X2143656Y55126D01*
X2143789Y55101D01*
X2143922Y55080D01*
X2144057Y55063D01*
X2144191Y55049D01*
X2144326Y55040D01*
X2144462Y55034D01*
X2144597Y55032D01*
X2146968Y55032D01*
X2130407Y59773D02*
X2130407Y64515D01*
X2130405Y64652D01*
X2130399Y64788D01*
X2130389Y64924D01*
X2130376Y65060D01*
X2130358Y65196D01*
X2130336Y65331D01*
X2130311Y65465D01*
X2130282Y65598D01*
X2130248Y65731D01*
X2130211Y65863D01*
X2130171Y65993D01*
X2130126Y66122D01*
X2130078Y66250D01*
X2130026Y66377D01*
X2129971Y66501D01*
X2129912Y66625D01*
X2129849Y66746D01*
X2129783Y66866D01*
X2129714Y66983D01*
X2129641Y67099D01*
X2129565Y67213D01*
X2129485Y67324D01*
X2129403Y67433D01*
X2129317Y67539D01*
X2129229Y67643D01*
X2129137Y67744D01*
X2129042Y67843D01*
X2128945Y67939D01*
X2128845Y68032D01*
X2128742Y68122D01*
X2128637Y68209D01*
X2128530Y68294D01*
X2128419Y68375D01*
X2128307Y68452D01*
X2128192Y68527D01*
X2128076Y68598D01*
X2127957Y68666D01*
X2127837Y68730D01*
X2127714Y68791D01*
X2127590Y68848D01*
X2127465Y68902D01*
X2127337Y68952D01*
X2127209Y68998D01*
X2127079Y69041D01*
X2126948Y69079D01*
X2126816Y69114D01*
X2126683Y69146D01*
X2126549Y69173D01*
X2126414Y69197D01*
X2126279Y69216D01*
X2126143Y69232D01*
X2126007Y69244D01*
X2125871Y69252D01*
X2125734Y69256D01*
X2125598Y69256D01*
X2125461Y69252D01*
X2125325Y69244D01*
X2125189Y69232D01*
X2125053Y69216D01*
X2124918Y69197D01*
X2124783Y69173D01*
X2124649Y69146D01*
X2124516Y69114D01*
X2124384Y69079D01*
X2124253Y69041D01*
X2124123Y68998D01*
X2123995Y68952D01*
X2123867Y68902D01*
X2123742Y68848D01*
X2123618Y68791D01*
X2123495Y68730D01*
X2123375Y68666D01*
X2123256Y68598D01*
X2123140Y68527D01*
X2123025Y68452D01*
X2122913Y68375D01*
X2122802Y68294D01*
X2122695Y68209D01*
X2122590Y68122D01*
X2122487Y68032D01*
X2122387Y67939D01*
X2122290Y67843D01*
X2122195Y67744D01*
X2122103Y67643D01*
X2122015Y67539D01*
X2121929Y67433D01*
X2121847Y67324D01*
X2121767Y67213D01*
X2121691Y67099D01*
X2121618Y66983D01*
X2121549Y66866D01*
X2121483Y66746D01*
X2121420Y66625D01*
X2121361Y66501D01*
X2121306Y66377D01*
X2121254Y66250D01*
X2121206Y66122D01*
X2121161Y65993D01*
X2121121Y65863D01*
X2121084Y65731D01*
X2121050Y65598D01*
X2121021Y65465D01*
X2120996Y65331D01*
X2120974Y65196D01*
X2120956Y65060D01*
X2120943Y64924D01*
X2120933Y64788D01*
X2120927Y64652D01*
X2120925Y64515D01*
X2120924Y64515D02*
X2120924Y59773D01*
X2120925Y59773D02*
X2120927Y59636D01*
X2120933Y59500D01*
X2120943Y59364D01*
X2120956Y59228D01*
X2120974Y59092D01*
X2120996Y58957D01*
X2121021Y58823D01*
X2121050Y58690D01*
X2121084Y58557D01*
X2121121Y58425D01*
X2121161Y58295D01*
X2121206Y58166D01*
X2121254Y58038D01*
X2121306Y57911D01*
X2121361Y57787D01*
X2121420Y57663D01*
X2121483Y57542D01*
X2121549Y57422D01*
X2121618Y57305D01*
X2121691Y57189D01*
X2121767Y57075D01*
X2121847Y56964D01*
X2121929Y56855D01*
X2122015Y56749D01*
X2122103Y56645D01*
X2122195Y56544D01*
X2122290Y56445D01*
X2122387Y56349D01*
X2122487Y56256D01*
X2122590Y56166D01*
X2122695Y56079D01*
X2122802Y55994D01*
X2122913Y55913D01*
X2123025Y55836D01*
X2123140Y55761D01*
X2123256Y55690D01*
X2123375Y55622D01*
X2123495Y55558D01*
X2123618Y55497D01*
X2123742Y55440D01*
X2123867Y55386D01*
X2123995Y55336D01*
X2124123Y55290D01*
X2124253Y55247D01*
X2124384Y55209D01*
X2124516Y55174D01*
X2124649Y55142D01*
X2124783Y55115D01*
X2124918Y55091D01*
X2125053Y55072D01*
X2125189Y55056D01*
X2125325Y55044D01*
X2125461Y55036D01*
X2125598Y55032D01*
X2125734Y55032D01*
X2125871Y55036D01*
X2126007Y55044D01*
X2126143Y55056D01*
X2126279Y55072D01*
X2126414Y55091D01*
X2126549Y55115D01*
X2126683Y55142D01*
X2126816Y55174D01*
X2126948Y55209D01*
X2127079Y55247D01*
X2127209Y55290D01*
X2127337Y55336D01*
X2127465Y55386D01*
X2127590Y55440D01*
X2127714Y55497D01*
X2127837Y55558D01*
X2127957Y55622D01*
X2128076Y55690D01*
X2128192Y55761D01*
X2128307Y55836D01*
X2128419Y55913D01*
X2128530Y55994D01*
X2128637Y56079D01*
X2128742Y56166D01*
X2128845Y56256D01*
X2128945Y56349D01*
X2129042Y56445D01*
X2129137Y56544D01*
X2129229Y56645D01*
X2129317Y56749D01*
X2129403Y56855D01*
X2129485Y56964D01*
X2129565Y57075D01*
X2129641Y57189D01*
X2129714Y57305D01*
X2129783Y57422D01*
X2129849Y57542D01*
X2129912Y57663D01*
X2129971Y57787D01*
X2130026Y57911D01*
X2130078Y58038D01*
X2130126Y58166D01*
X2130171Y58295D01*
X2130211Y58425D01*
X2130248Y58557D01*
X2130282Y58690D01*
X2130311Y58823D01*
X2130336Y58957D01*
X2130358Y59092D01*
X2130376Y59228D01*
X2130389Y59364D01*
X2130399Y59500D01*
X2130405Y59636D01*
X2130407Y59773D01*
X2110534Y63329D02*
X2104607Y60959D01*
X2110534Y63330D02*
X2110635Y63372D01*
X2110734Y63418D01*
X2110832Y63468D01*
X2110927Y63521D01*
X2111021Y63577D01*
X2111113Y63636D01*
X2111202Y63699D01*
X2111290Y63765D01*
X2111374Y63834D01*
X2111457Y63906D01*
X2111536Y63981D01*
X2111613Y64059D01*
X2111688Y64139D01*
X2111759Y64222D01*
X2111827Y64307D01*
X2111892Y64395D01*
X2111954Y64485D01*
X2112013Y64577D01*
X2112069Y64671D01*
X2112121Y64768D01*
X2112169Y64866D01*
X2112214Y64965D01*
X2112256Y65066D01*
X2112294Y65169D01*
X2112328Y65273D01*
X2112359Y65378D01*
X2112385Y65484D01*
X2112408Y65591D01*
X2112428Y65698D01*
X2112443Y65806D01*
X2112454Y65915D01*
X2112462Y66024D01*
X2112466Y66134D01*
X2112465Y66243D01*
X2112461Y66352D01*
X2112453Y66461D01*
X2112442Y66570D01*
X2112426Y66678D01*
X2112406Y66786D01*
X2112383Y66892D01*
X2112356Y66998D01*
X2112325Y67103D01*
X2112290Y67207D01*
X2112252Y67309D01*
X2112210Y67410D01*
X2112165Y67510D01*
X2112116Y67608D01*
X2112063Y67704D01*
X2112008Y67798D01*
X2111949Y67890D01*
X2111886Y67979D01*
X2111821Y68067D01*
X2111752Y68152D01*
X2111681Y68235D01*
X2111606Y68315D01*
X2111529Y68392D01*
X2111449Y68467D01*
X2111366Y68539D01*
X2111281Y68607D01*
X2111194Y68673D01*
X2111104Y68735D01*
X2111012Y68795D01*
X2110918Y68851D01*
X2110823Y68903D01*
X2110725Y68952D01*
X2110626Y68998D01*
X2110525Y69040D01*
X2110422Y69079D01*
X2110319Y69113D01*
X2110214Y69144D01*
X2110108Y69172D01*
X2110001Y69195D01*
X2109894Y69215D01*
X2109785Y69231D01*
X2109677Y69243D01*
X2109568Y69251D01*
X2109458Y69255D01*
X2109349Y69256D01*
X2109349Y69257D02*
X2109025Y69248D01*
X2108702Y69232D01*
X2108379Y69208D01*
X2108057Y69176D01*
X2107736Y69136D01*
X2107416Y69089D01*
X2107097Y69034D01*
X2106779Y68972D01*
X2106463Y68901D01*
X2106149Y68824D01*
X2105837Y68738D01*
X2105527Y68645D01*
X2105219Y68545D01*
X2104914Y68438D01*
X2104611Y68323D01*
X2104311Y68201D01*
X2104015Y68071D01*
X2104608Y60958D02*
X2104507Y60916D01*
X2104408Y60870D01*
X2104310Y60820D01*
X2104215Y60767D01*
X2104121Y60711D01*
X2104029Y60652D01*
X2103940Y60589D01*
X2103852Y60523D01*
X2103768Y60454D01*
X2103685Y60382D01*
X2103606Y60307D01*
X2103529Y60229D01*
X2103454Y60149D01*
X2103383Y60066D01*
X2103315Y59981D01*
X2103250Y59893D01*
X2103188Y59803D01*
X2103129Y59711D01*
X2103073Y59617D01*
X2103021Y59520D01*
X2102973Y59422D01*
X2102928Y59323D01*
X2102886Y59222D01*
X2102848Y59119D01*
X2102814Y59015D01*
X2102783Y58910D01*
X2102757Y58804D01*
X2102734Y58697D01*
X2102714Y58590D01*
X2102699Y58482D01*
X2102688Y58373D01*
X2102680Y58264D01*
X2102676Y58154D01*
X2102677Y58045D01*
X2102681Y57936D01*
X2102689Y57827D01*
X2102700Y57718D01*
X2102716Y57610D01*
X2102736Y57502D01*
X2102759Y57396D01*
X2102786Y57290D01*
X2102817Y57185D01*
X2102852Y57081D01*
X2102890Y56979D01*
X2102932Y56878D01*
X2102977Y56778D01*
X2103026Y56680D01*
X2103079Y56584D01*
X2103134Y56490D01*
X2103193Y56398D01*
X2103256Y56309D01*
X2103321Y56221D01*
X2103390Y56136D01*
X2103461Y56053D01*
X2103536Y55973D01*
X2103613Y55896D01*
X2103693Y55821D01*
X2103776Y55749D01*
X2103861Y55681D01*
X2103948Y55615D01*
X2104038Y55553D01*
X2104130Y55493D01*
X2104224Y55437D01*
X2104319Y55385D01*
X2104417Y55336D01*
X2104516Y55290D01*
X2104617Y55248D01*
X2104720Y55209D01*
X2104823Y55175D01*
X2104928Y55144D01*
X2105034Y55116D01*
X2105141Y55093D01*
X2105248Y55073D01*
X2105357Y55057D01*
X2105465Y55045D01*
X2105574Y55037D01*
X2105684Y55033D01*
X2105793Y55032D01*
X2105793Y55031D02*
X2106268Y55043D01*
X2106743Y55067D01*
X2107217Y55102D01*
X2107691Y55148D01*
X2108163Y55205D01*
X2108633Y55274D01*
X2109102Y55353D01*
X2109569Y55444D01*
X2110033Y55545D01*
X2110495Y55658D01*
X2110954Y55781D01*
X2111410Y55916D01*
X2111863Y56061D01*
X2112312Y56216D01*
X2093521Y55032D02*
X2093521Y76368D01*
X2093521Y69256D02*
X2087594Y69256D01*
X2087478Y69254D01*
X2087361Y69248D01*
X2087245Y69239D01*
X2087130Y69226D01*
X2087015Y69209D01*
X2086900Y69188D01*
X2086787Y69163D01*
X2086674Y69135D01*
X2086562Y69103D01*
X2086451Y69067D01*
X2086341Y69028D01*
X2086233Y68985D01*
X2086126Y68939D01*
X2086021Y68889D01*
X2085918Y68836D01*
X2085816Y68780D01*
X2085716Y68720D01*
X2085618Y68657D01*
X2085523Y68590D01*
X2085429Y68521D01*
X2085338Y68449D01*
X2085249Y68374D01*
X2085163Y68295D01*
X2085080Y68214D01*
X2084999Y68131D01*
X2084920Y68045D01*
X2084845Y67956D01*
X2084773Y67865D01*
X2084704Y67771D01*
X2084637Y67676D01*
X2084574Y67578D01*
X2084514Y67478D01*
X2084458Y67376D01*
X2084405Y67273D01*
X2084355Y67168D01*
X2084309Y67061D01*
X2084266Y66953D01*
X2084227Y66843D01*
X2084191Y66732D01*
X2084159Y66620D01*
X2084131Y66507D01*
X2084106Y66394D01*
X2084085Y66279D01*
X2084068Y66164D01*
X2084055Y66049D01*
X2084046Y65933D01*
X2084040Y65816D01*
X2084038Y65700D01*
X2084038Y55032D01*
X2074034Y58588D02*
X2074034Y69256D01*
X2074034Y58588D02*
X2074032Y58472D01*
X2074026Y58355D01*
X2074017Y58239D01*
X2074004Y58124D01*
X2073987Y58009D01*
X2073966Y57894D01*
X2073941Y57781D01*
X2073913Y57668D01*
X2073881Y57556D01*
X2073845Y57445D01*
X2073806Y57335D01*
X2073763Y57227D01*
X2073717Y57120D01*
X2073667Y57015D01*
X2073614Y56912D01*
X2073558Y56810D01*
X2073498Y56710D01*
X2073435Y56612D01*
X2073368Y56517D01*
X2073299Y56423D01*
X2073227Y56332D01*
X2073152Y56243D01*
X2073073Y56157D01*
X2072992Y56074D01*
X2072909Y55993D01*
X2072823Y55914D01*
X2072734Y55839D01*
X2072643Y55767D01*
X2072549Y55698D01*
X2072454Y55631D01*
X2072356Y55568D01*
X2072256Y55508D01*
X2072154Y55452D01*
X2072051Y55399D01*
X2071946Y55349D01*
X2071839Y55303D01*
X2071731Y55260D01*
X2071621Y55221D01*
X2071510Y55185D01*
X2071398Y55153D01*
X2071285Y55125D01*
X2071172Y55100D01*
X2071057Y55079D01*
X2070942Y55062D01*
X2070827Y55049D01*
X2070711Y55040D01*
X2070594Y55034D01*
X2070478Y55032D01*
X2064552Y55032D01*
X2064552Y69256D01*
X2051207Y63329D02*
X2045873Y63329D01*
X2051207Y63330D02*
X2051335Y63328D01*
X2051462Y63322D01*
X2051590Y63312D01*
X2051717Y63299D01*
X2051843Y63281D01*
X2051969Y63259D01*
X2052095Y63234D01*
X2052219Y63205D01*
X2052342Y63172D01*
X2052465Y63135D01*
X2052586Y63094D01*
X2052706Y63050D01*
X2052824Y63002D01*
X2052941Y62950D01*
X2053056Y62895D01*
X2053170Y62836D01*
X2053282Y62774D01*
X2053391Y62709D01*
X2053499Y62640D01*
X2053604Y62567D01*
X2053707Y62492D01*
X2053808Y62413D01*
X2053906Y62332D01*
X2054002Y62247D01*
X2054095Y62160D01*
X2054186Y62069D01*
X2054273Y61976D01*
X2054358Y61880D01*
X2054439Y61782D01*
X2054518Y61681D01*
X2054593Y61578D01*
X2054666Y61473D01*
X2054735Y61365D01*
X2054800Y61255D01*
X2054862Y61144D01*
X2054921Y61030D01*
X2054976Y60915D01*
X2055028Y60798D01*
X2055076Y60680D01*
X2055120Y60560D01*
X2055161Y60439D01*
X2055198Y60316D01*
X2055231Y60193D01*
X2055260Y60069D01*
X2055285Y59943D01*
X2055307Y59817D01*
X2055325Y59691D01*
X2055338Y59564D01*
X2055348Y59436D01*
X2055354Y59309D01*
X2055356Y59181D01*
X2055354Y59053D01*
X2055348Y58926D01*
X2055338Y58798D01*
X2055325Y58671D01*
X2055307Y58545D01*
X2055285Y58419D01*
X2055260Y58293D01*
X2055231Y58169D01*
X2055198Y58046D01*
X2055161Y57923D01*
X2055120Y57802D01*
X2055076Y57682D01*
X2055028Y57564D01*
X2054976Y57447D01*
X2054921Y57332D01*
X2054862Y57218D01*
X2054800Y57106D01*
X2054735Y56997D01*
X2054666Y56889D01*
X2054593Y56784D01*
X2054518Y56681D01*
X2054439Y56580D01*
X2054358Y56482D01*
X2054273Y56386D01*
X2054186Y56293D01*
X2054095Y56202D01*
X2054002Y56115D01*
X2053906Y56030D01*
X2053808Y55949D01*
X2053707Y55870D01*
X2053604Y55795D01*
X2053499Y55722D01*
X2053391Y55653D01*
X2053282Y55588D01*
X2053170Y55526D01*
X2053056Y55467D01*
X2052941Y55412D01*
X2052824Y55360D01*
X2052706Y55312D01*
X2052586Y55268D01*
X2052465Y55227D01*
X2052342Y55190D01*
X2052219Y55157D01*
X2052095Y55128D01*
X2051969Y55103D01*
X2051843Y55081D01*
X2051717Y55063D01*
X2051590Y55050D01*
X2051462Y55040D01*
X2051335Y55034D01*
X2051207Y55032D01*
X2045873Y55032D01*
X2045873Y65700D01*
X2045875Y65816D01*
X2045881Y65933D01*
X2045890Y66049D01*
X2045903Y66164D01*
X2045920Y66279D01*
X2045941Y66394D01*
X2045966Y66507D01*
X2045994Y66620D01*
X2046026Y66732D01*
X2046062Y66843D01*
X2046101Y66953D01*
X2046144Y67061D01*
X2046190Y67168D01*
X2046240Y67273D01*
X2046293Y67376D01*
X2046349Y67478D01*
X2046409Y67578D01*
X2046472Y67676D01*
X2046539Y67771D01*
X2046608Y67865D01*
X2046680Y67956D01*
X2046755Y68045D01*
X2046834Y68131D01*
X2046915Y68214D01*
X2046998Y68295D01*
X2047084Y68374D01*
X2047173Y68449D01*
X2047264Y68521D01*
X2047358Y68590D01*
X2047453Y68657D01*
X2047551Y68720D01*
X2047651Y68780D01*
X2047753Y68836D01*
X2047856Y68889D01*
X2047961Y68939D01*
X2048068Y68985D01*
X2048176Y69028D01*
X2048286Y69067D01*
X2048397Y69103D01*
X2048509Y69135D01*
X2048622Y69163D01*
X2048735Y69188D01*
X2048850Y69209D01*
X2048965Y69226D01*
X2049080Y69239D01*
X2049196Y69248D01*
X2049313Y69254D01*
X2049429Y69256D01*
X2054171Y69256D01*
X2024089Y76368D02*
X2024089Y55032D01*
X2024089Y76368D02*
X2018163Y76368D01*
X2018010Y76366D01*
X2017858Y76360D01*
X2017706Y76350D01*
X2017554Y76337D01*
X2017402Y76319D01*
X2017251Y76297D01*
X2017100Y76272D01*
X2016951Y76243D01*
X2016802Y76210D01*
X2016654Y76173D01*
X2016506Y76132D01*
X2016361Y76087D01*
X2016216Y76039D01*
X2016072Y75987D01*
X2015930Y75931D01*
X2015790Y75872D01*
X2015650Y75809D01*
X2015513Y75743D01*
X2015377Y75673D01*
X2015244Y75599D01*
X2015112Y75522D01*
X2014982Y75442D01*
X2014854Y75358D01*
X2014729Y75272D01*
X2014606Y75182D01*
X2014485Y75088D01*
X2014366Y74992D01*
X2014250Y74893D01*
X2014137Y74791D01*
X2014026Y74686D01*
X2013918Y74578D01*
X2013813Y74467D01*
X2013711Y74354D01*
X2013612Y74238D01*
X2013516Y74119D01*
X2013422Y73998D01*
X2013332Y73875D01*
X2013246Y73750D01*
X2013162Y73622D01*
X2013082Y73492D01*
X2013005Y73360D01*
X2012931Y73227D01*
X2012861Y73091D01*
X2012795Y72954D01*
X2012732Y72814D01*
X2012673Y72674D01*
X2012617Y72532D01*
X2012565Y72388D01*
X2012517Y72243D01*
X2012472Y72098D01*
X2012431Y71950D01*
X2012394Y71802D01*
X2012361Y71653D01*
X2012332Y71504D01*
X2012307Y71353D01*
X2012285Y71202D01*
X2012267Y71050D01*
X2012254Y70898D01*
X2012244Y70746D01*
X2012238Y70594D01*
X2012236Y70441D01*
X2012238Y70288D01*
X2012244Y70136D01*
X2012254Y69984D01*
X2012267Y69832D01*
X2012285Y69680D01*
X2012307Y69529D01*
X2012332Y69378D01*
X2012361Y69229D01*
X2012394Y69080D01*
X2012431Y68932D01*
X2012472Y68784D01*
X2012517Y68639D01*
X2012565Y68494D01*
X2012617Y68350D01*
X2012673Y68208D01*
X2012732Y68068D01*
X2012795Y67928D01*
X2012861Y67791D01*
X2012931Y67655D01*
X2013005Y67522D01*
X2013082Y67390D01*
X2013162Y67260D01*
X2013246Y67132D01*
X2013332Y67007D01*
X2013422Y66884D01*
X2013516Y66763D01*
X2013612Y66644D01*
X2013711Y66528D01*
X2013813Y66415D01*
X2013918Y66304D01*
X2014026Y66196D01*
X2014137Y66091D01*
X2014250Y65989D01*
X2014366Y65890D01*
X2014485Y65794D01*
X2014606Y65700D01*
X2014729Y65610D01*
X2014854Y65524D01*
X2014982Y65440D01*
X2015112Y65360D01*
X2015244Y65283D01*
X2015377Y65209D01*
X2015513Y65139D01*
X2015650Y65073D01*
X2015790Y65010D01*
X2015930Y64951D01*
X2016072Y64895D01*
X2016216Y64843D01*
X2016361Y64795D01*
X2016506Y64750D01*
X2016654Y64709D01*
X2016802Y64672D01*
X2016951Y64639D01*
X2017100Y64610D01*
X2017251Y64585D01*
X2017402Y64563D01*
X2017554Y64545D01*
X2017706Y64532D01*
X2017858Y64522D01*
X2018010Y64516D01*
X2018163Y64514D01*
X2018163Y64515D02*
X2024089Y64515D01*
X2000882Y55032D02*
X1994956Y55032D01*
X2000882Y55032D02*
X2000998Y55034D01*
X2001115Y55040D01*
X2001231Y55049D01*
X2001346Y55062D01*
X2001461Y55079D01*
X2001576Y55100D01*
X2001689Y55125D01*
X2001802Y55153D01*
X2001914Y55185D01*
X2002025Y55221D01*
X2002135Y55260D01*
X2002243Y55303D01*
X2002350Y55349D01*
X2002455Y55399D01*
X2002558Y55452D01*
X2002660Y55508D01*
X2002760Y55568D01*
X2002858Y55631D01*
X2002953Y55698D01*
X2003047Y55767D01*
X2003138Y55839D01*
X2003227Y55914D01*
X2003313Y55993D01*
X2003396Y56074D01*
X2003477Y56157D01*
X2003556Y56243D01*
X2003631Y56332D01*
X2003703Y56423D01*
X2003772Y56517D01*
X2003839Y56612D01*
X2003902Y56710D01*
X2003962Y56810D01*
X2004018Y56912D01*
X2004071Y57015D01*
X2004121Y57120D01*
X2004167Y57227D01*
X2004210Y57335D01*
X2004249Y57445D01*
X2004285Y57556D01*
X2004317Y57668D01*
X2004345Y57781D01*
X2004370Y57894D01*
X2004391Y58009D01*
X2004408Y58124D01*
X2004421Y58239D01*
X2004430Y58355D01*
X2004436Y58472D01*
X2004438Y58588D01*
X2004438Y64515D01*
X2004436Y64652D01*
X2004430Y64788D01*
X2004420Y64924D01*
X2004407Y65060D01*
X2004389Y65196D01*
X2004367Y65331D01*
X2004342Y65465D01*
X2004313Y65598D01*
X2004279Y65731D01*
X2004242Y65863D01*
X2004202Y65993D01*
X2004157Y66122D01*
X2004109Y66250D01*
X2004057Y66377D01*
X2004002Y66501D01*
X2003943Y66625D01*
X2003880Y66746D01*
X2003814Y66866D01*
X2003745Y66983D01*
X2003672Y67099D01*
X2003596Y67213D01*
X2003516Y67324D01*
X2003434Y67433D01*
X2003348Y67539D01*
X2003260Y67643D01*
X2003168Y67744D01*
X2003073Y67843D01*
X2002976Y67939D01*
X2002876Y68032D01*
X2002773Y68122D01*
X2002668Y68209D01*
X2002561Y68294D01*
X2002450Y68375D01*
X2002338Y68452D01*
X2002223Y68527D01*
X2002107Y68598D01*
X2001988Y68666D01*
X2001868Y68730D01*
X2001745Y68791D01*
X2001621Y68848D01*
X2001496Y68902D01*
X2001368Y68952D01*
X2001240Y68998D01*
X2001110Y69041D01*
X2000979Y69079D01*
X2000847Y69114D01*
X2000714Y69146D01*
X2000580Y69173D01*
X2000445Y69197D01*
X2000310Y69216D01*
X2000174Y69232D01*
X2000038Y69244D01*
X1999902Y69252D01*
X1999765Y69256D01*
X1999629Y69256D01*
X1999492Y69252D01*
X1999356Y69244D01*
X1999220Y69232D01*
X1999084Y69216D01*
X1998949Y69197D01*
X1998814Y69173D01*
X1998680Y69146D01*
X1998547Y69114D01*
X1998415Y69079D01*
X1998284Y69041D01*
X1998154Y68998D01*
X1998026Y68952D01*
X1997898Y68902D01*
X1997773Y68848D01*
X1997649Y68791D01*
X1997526Y68730D01*
X1997406Y68666D01*
X1997287Y68598D01*
X1997171Y68527D01*
X1997056Y68452D01*
X1996944Y68375D01*
X1996833Y68294D01*
X1996726Y68209D01*
X1996621Y68122D01*
X1996518Y68032D01*
X1996418Y67939D01*
X1996321Y67843D01*
X1996226Y67744D01*
X1996134Y67643D01*
X1996046Y67539D01*
X1995960Y67433D01*
X1995878Y67324D01*
X1995798Y67213D01*
X1995722Y67099D01*
X1995649Y66983D01*
X1995580Y66866D01*
X1995514Y66746D01*
X1995451Y66625D01*
X1995392Y66501D01*
X1995337Y66377D01*
X1995285Y66250D01*
X1995237Y66122D01*
X1995192Y65993D01*
X1995152Y65863D01*
X1995115Y65731D01*
X1995081Y65598D01*
X1995052Y65465D01*
X1995027Y65331D01*
X1995005Y65196D01*
X1994987Y65060D01*
X1994974Y64924D01*
X1994964Y64788D01*
X1994958Y64652D01*
X1994956Y64515D01*
X1994956Y62144D01*
X2004438Y62144D01*
X1988127Y69256D02*
X1981015Y69256D01*
X1985756Y76368D02*
X1985756Y58588D01*
X1985754Y58472D01*
X1985748Y58355D01*
X1985739Y58239D01*
X1985726Y58124D01*
X1985709Y58009D01*
X1985688Y57894D01*
X1985663Y57781D01*
X1985635Y57668D01*
X1985603Y57556D01*
X1985567Y57445D01*
X1985528Y57335D01*
X1985485Y57227D01*
X1985439Y57120D01*
X1985389Y57015D01*
X1985336Y56912D01*
X1985280Y56810D01*
X1985220Y56710D01*
X1985157Y56612D01*
X1985090Y56517D01*
X1985021Y56423D01*
X1984949Y56332D01*
X1984874Y56243D01*
X1984795Y56157D01*
X1984714Y56074D01*
X1984631Y55993D01*
X1984545Y55914D01*
X1984456Y55839D01*
X1984365Y55767D01*
X1984271Y55698D01*
X1984176Y55631D01*
X1984078Y55568D01*
X1983978Y55508D01*
X1983876Y55452D01*
X1983773Y55399D01*
X1983668Y55349D01*
X1983561Y55303D01*
X1983453Y55260D01*
X1983343Y55221D01*
X1983232Y55185D01*
X1983120Y55153D01*
X1983007Y55125D01*
X1982894Y55100D01*
X1982779Y55079D01*
X1982664Y55062D01*
X1982549Y55049D01*
X1982433Y55040D01*
X1982316Y55034D01*
X1982200Y55032D01*
X1981015Y55032D01*
X1972283Y55032D02*
X1972283Y69256D01*
X1965171Y69256D01*
X1965171Y66885D01*
X1958636Y69256D02*
X1958636Y55032D01*
X1959228Y75183D02*
X1959228Y76368D01*
X1958043Y76368D01*
X1958043Y75183D01*
X1959228Y75183D01*
X1949458Y69256D02*
X1949458Y55032D01*
X1949458Y69256D02*
X1943531Y69256D01*
X1943415Y69254D01*
X1943298Y69248D01*
X1943182Y69239D01*
X1943067Y69226D01*
X1942952Y69209D01*
X1942837Y69188D01*
X1942724Y69163D01*
X1942611Y69135D01*
X1942499Y69103D01*
X1942388Y69067D01*
X1942278Y69028D01*
X1942170Y68985D01*
X1942063Y68939D01*
X1941958Y68889D01*
X1941855Y68836D01*
X1941753Y68780D01*
X1941653Y68720D01*
X1941555Y68657D01*
X1941460Y68590D01*
X1941366Y68521D01*
X1941275Y68449D01*
X1941186Y68374D01*
X1941100Y68295D01*
X1941017Y68214D01*
X1940936Y68131D01*
X1940857Y68045D01*
X1940782Y67956D01*
X1940710Y67865D01*
X1940641Y67771D01*
X1940574Y67676D01*
X1940511Y67578D01*
X1940451Y67478D01*
X1940395Y67376D01*
X1940342Y67273D01*
X1940292Y67168D01*
X1940246Y67061D01*
X1940203Y66953D01*
X1940164Y66843D01*
X1940128Y66732D01*
X1940096Y66620D01*
X1940068Y66507D01*
X1940043Y66394D01*
X1940022Y66279D01*
X1940005Y66164D01*
X1939992Y66049D01*
X1939983Y65933D01*
X1939977Y65816D01*
X1939975Y65700D01*
X1939975Y55032D01*
D10*
X90057Y122536D02*
X87743Y119643D01*
X90057Y122536D02*
X79643Y122536D01*
X79643Y119643D02*
X79643Y125429D01*
X80643Y96536D02*
X80643Y93643D01*
X80643Y96536D02*
X80645Y96643D01*
X80651Y96750D01*
X80661Y96856D01*
X80675Y96962D01*
X80692Y97068D01*
X80714Y97172D01*
X80739Y97276D01*
X80769Y97379D01*
X80802Y97481D01*
X80838Y97581D01*
X80879Y97680D01*
X80923Y97777D01*
X80971Y97873D01*
X81022Y97967D01*
X81076Y98059D01*
X81134Y98149D01*
X81196Y98236D01*
X81260Y98322D01*
X81327Y98405D01*
X81398Y98485D01*
X81472Y98563D01*
X81548Y98638D01*
X81627Y98710D01*
X81708Y98779D01*
X81793Y98845D01*
X81879Y98908D01*
X81968Y98967D01*
X82059Y99023D01*
X82152Y99076D01*
X82246Y99126D01*
X82343Y99172D01*
X82441Y99214D01*
X82541Y99252D01*
X82642Y99287D01*
X82744Y99319D01*
X82848Y99346D01*
X82952Y99369D01*
X83057Y99389D01*
X83163Y99405D01*
X83269Y99417D01*
X83376Y99425D01*
X83483Y99429D01*
X83589Y99429D01*
X83696Y99425D01*
X83803Y99417D01*
X83909Y99405D01*
X84015Y99389D01*
X84120Y99369D01*
X84224Y99346D01*
X84328Y99319D01*
X84430Y99287D01*
X84531Y99252D01*
X84631Y99214D01*
X84729Y99172D01*
X84826Y99126D01*
X84920Y99076D01*
X85013Y99023D01*
X85104Y98967D01*
X85193Y98908D01*
X85279Y98845D01*
X85364Y98779D01*
X85445Y98710D01*
X85524Y98638D01*
X85600Y98563D01*
X85674Y98485D01*
X85745Y98405D01*
X85812Y98322D01*
X85876Y98236D01*
X85938Y98149D01*
X85996Y98059D01*
X86050Y97967D01*
X86101Y97873D01*
X86149Y97777D01*
X86193Y97680D01*
X86234Y97581D01*
X86270Y97481D01*
X86303Y97379D01*
X86333Y97276D01*
X86358Y97172D01*
X86380Y97068D01*
X86397Y96962D01*
X86411Y96856D01*
X86421Y96750D01*
X86427Y96643D01*
X86429Y96536D01*
X91057Y97114D02*
X91057Y93643D01*
X91057Y97114D02*
X91055Y97208D01*
X91049Y97303D01*
X91040Y97397D01*
X91026Y97490D01*
X91009Y97583D01*
X90988Y97675D01*
X90963Y97766D01*
X90935Y97856D01*
X90903Y97945D01*
X90867Y98032D01*
X90828Y98118D01*
X90785Y98202D01*
X90739Y98285D01*
X90690Y98365D01*
X90637Y98443D01*
X90581Y98520D01*
X90522Y98593D01*
X90461Y98665D01*
X90396Y98733D01*
X90328Y98800D01*
X90258Y98863D01*
X90186Y98923D01*
X90111Y98981D01*
X90033Y99035D01*
X89954Y99086D01*
X89873Y99134D01*
X89789Y99178D01*
X89704Y99219D01*
X89618Y99256D01*
X89530Y99290D01*
X89440Y99321D01*
X89350Y99347D01*
X89258Y99370D01*
X89165Y99389D01*
X89072Y99404D01*
X88979Y99416D01*
X88885Y99424D01*
X88790Y99428D01*
X88696Y99428D01*
X88601Y99424D01*
X88507Y99416D01*
X88414Y99404D01*
X88321Y99389D01*
X88228Y99370D01*
X88136Y99347D01*
X88046Y99321D01*
X87956Y99290D01*
X87868Y99256D01*
X87782Y99219D01*
X87697Y99178D01*
X87613Y99134D01*
X87532Y99086D01*
X87453Y99035D01*
X87375Y98981D01*
X87300Y98923D01*
X87228Y98863D01*
X87158Y98800D01*
X87090Y98733D01*
X87025Y98665D01*
X86964Y98593D01*
X86905Y98520D01*
X86849Y98443D01*
X86796Y98365D01*
X86747Y98285D01*
X86701Y98202D01*
X86658Y98118D01*
X86619Y98032D01*
X86583Y97945D01*
X86551Y97856D01*
X86523Y97766D01*
X86498Y97675D01*
X86477Y97583D01*
X86460Y97490D01*
X86446Y97397D01*
X86437Y97303D01*
X86431Y97208D01*
X86429Y97114D01*
X86429Y94800D01*
X80643Y72114D02*
X80643Y68643D01*
X80643Y72114D02*
X80645Y72207D01*
X80651Y72300D01*
X80660Y72393D01*
X80673Y72485D01*
X80690Y72577D01*
X80710Y72668D01*
X80734Y72758D01*
X80762Y72847D01*
X80793Y72935D01*
X80828Y73021D01*
X80866Y73106D01*
X80908Y73189D01*
X80953Y73271D01*
X81001Y73351D01*
X81053Y73429D01*
X81107Y73504D01*
X81165Y73577D01*
X81225Y73648D01*
X81288Y73717D01*
X81354Y73783D01*
X81423Y73846D01*
X81494Y73906D01*
X81567Y73964D01*
X81643Y74018D01*
X81720Y74070D01*
X81800Y74118D01*
X81882Y74163D01*
X81965Y74205D01*
X82050Y74243D01*
X82136Y74278D01*
X82224Y74309D01*
X82313Y74337D01*
X82403Y74361D01*
X82494Y74381D01*
X82586Y74398D01*
X82678Y74411D01*
X82771Y74420D01*
X82864Y74426D01*
X82957Y74428D01*
X82957Y74429D02*
X84114Y74429D01*
X84114Y74428D02*
X84207Y74426D01*
X84300Y74420D01*
X84393Y74411D01*
X84485Y74398D01*
X84577Y74381D01*
X84668Y74361D01*
X84758Y74337D01*
X84847Y74309D01*
X84935Y74278D01*
X85021Y74243D01*
X85106Y74205D01*
X85189Y74163D01*
X85271Y74118D01*
X85351Y74070D01*
X85429Y74018D01*
X85504Y73964D01*
X85577Y73906D01*
X85648Y73846D01*
X85717Y73783D01*
X85783Y73717D01*
X85846Y73648D01*
X85906Y73577D01*
X85964Y73504D01*
X86018Y73429D01*
X86070Y73351D01*
X86118Y73271D01*
X86163Y73189D01*
X86205Y73106D01*
X86243Y73021D01*
X86278Y72935D01*
X86309Y72847D01*
X86337Y72758D01*
X86361Y72668D01*
X86381Y72577D01*
X86398Y72485D01*
X86411Y72393D01*
X86420Y72300D01*
X86426Y72207D01*
X86428Y72114D01*
X86429Y72114D02*
X86429Y68643D01*
X91057Y68643D01*
X91057Y74429D01*
X22058Y95825D02*
X22056Y95925D01*
X22050Y96024D01*
X22041Y96124D01*
X22027Y96222D01*
X22010Y96321D01*
X21990Y96418D01*
X21965Y96515D01*
X21937Y96611D01*
X21905Y96705D01*
X21869Y96798D01*
X21830Y96890D01*
X21788Y96980D01*
X21742Y97069D01*
X21692Y97156D01*
X21640Y97240D01*
X21584Y97323D01*
X21525Y97404D01*
X21463Y97482D01*
X21398Y97558D01*
X21330Y97631D01*
X21260Y97701D01*
X21187Y97769D01*
X21111Y97834D01*
X21033Y97896D01*
X20952Y97955D01*
X20869Y98011D01*
X20785Y98063D01*
X20698Y98113D01*
X20609Y98159D01*
X20519Y98201D01*
X20427Y98240D01*
X20334Y98276D01*
X20240Y98308D01*
X20144Y98336D01*
X20047Y98361D01*
X19950Y98381D01*
X19851Y98398D01*
X19753Y98412D01*
X19653Y98421D01*
X19554Y98427D01*
X19454Y98429D01*
X22057Y95825D02*
X22055Y95711D01*
X22049Y95598D01*
X22040Y95485D01*
X22026Y95372D01*
X22009Y95259D01*
X21988Y95148D01*
X21963Y95037D01*
X21934Y94927D01*
X21902Y94818D01*
X21866Y94710D01*
X21826Y94603D01*
X21783Y94498D01*
X21736Y94395D01*
X21685Y94293D01*
X21632Y94193D01*
X21574Y94094D01*
X21514Y93998D01*
X21450Y93904D01*
X21383Y93812D01*
X21313Y93722D01*
X21240Y93635D01*
X21165Y93550D01*
X21086Y93468D01*
X21004Y93389D01*
X20920Y93313D01*
X20834Y93239D01*
X20745Y93168D01*
X20653Y93101D01*
X20559Y93036D01*
X20464Y92975D01*
X20366Y92917D01*
X20266Y92863D01*
X20164Y92812D01*
X20061Y92764D01*
X19956Y92720D01*
X19850Y92680D01*
X19743Y92643D01*
X17429Y97561D02*
X17501Y97634D01*
X17576Y97705D01*
X17654Y97772D01*
X17734Y97837D01*
X17816Y97899D01*
X17900Y97958D01*
X17987Y98013D01*
X18076Y98066D01*
X18166Y98115D01*
X18258Y98161D01*
X18352Y98203D01*
X18448Y98242D01*
X18544Y98277D01*
X18642Y98309D01*
X18741Y98337D01*
X18841Y98361D01*
X18942Y98382D01*
X19044Y98399D01*
X19146Y98412D01*
X19248Y98421D01*
X19351Y98427D01*
X19454Y98429D01*
X17429Y97561D02*
X11643Y92643D01*
X11643Y98429D01*
X22057Y69957D02*
X13957Y67643D01*
X13957Y73429D01*
X16271Y71693D02*
X11643Y71693D01*
X17429Y46114D02*
X17429Y42643D01*
X17428Y46114D02*
X17426Y46207D01*
X17420Y46300D01*
X17411Y46393D01*
X17398Y46485D01*
X17381Y46577D01*
X17361Y46668D01*
X17337Y46758D01*
X17309Y46847D01*
X17278Y46935D01*
X17243Y47021D01*
X17205Y47106D01*
X17163Y47189D01*
X17118Y47271D01*
X17070Y47351D01*
X17018Y47429D01*
X16964Y47504D01*
X16906Y47577D01*
X16846Y47648D01*
X16783Y47717D01*
X16717Y47783D01*
X16648Y47846D01*
X16577Y47906D01*
X16504Y47964D01*
X16429Y48018D01*
X16351Y48070D01*
X16271Y48118D01*
X16189Y48163D01*
X16106Y48205D01*
X16021Y48243D01*
X15935Y48278D01*
X15847Y48309D01*
X15758Y48337D01*
X15668Y48361D01*
X15577Y48381D01*
X15485Y48398D01*
X15393Y48411D01*
X15300Y48420D01*
X15207Y48426D01*
X15114Y48428D01*
X15114Y48429D02*
X14536Y48429D01*
X14429Y48427D01*
X14322Y48421D01*
X14216Y48411D01*
X14110Y48397D01*
X14004Y48380D01*
X13900Y48358D01*
X13796Y48333D01*
X13693Y48303D01*
X13591Y48270D01*
X13491Y48234D01*
X13392Y48193D01*
X13295Y48149D01*
X13199Y48101D01*
X13105Y48050D01*
X13013Y47996D01*
X12923Y47938D01*
X12836Y47876D01*
X12750Y47812D01*
X12667Y47745D01*
X12587Y47674D01*
X12509Y47600D01*
X12434Y47524D01*
X12362Y47445D01*
X12293Y47364D01*
X12227Y47279D01*
X12164Y47193D01*
X12105Y47104D01*
X12049Y47013D01*
X11996Y46920D01*
X11946Y46826D01*
X11900Y46729D01*
X11858Y46631D01*
X11820Y46531D01*
X11785Y46430D01*
X11753Y46328D01*
X11726Y46224D01*
X11703Y46120D01*
X11683Y46015D01*
X11667Y45909D01*
X11655Y45803D01*
X11647Y45696D01*
X11643Y45589D01*
X11643Y45483D01*
X11647Y45376D01*
X11655Y45269D01*
X11667Y45163D01*
X11683Y45057D01*
X11703Y44952D01*
X11726Y44848D01*
X11753Y44744D01*
X11785Y44642D01*
X11820Y44541D01*
X11858Y44441D01*
X11900Y44343D01*
X11946Y44246D01*
X11996Y44152D01*
X12049Y44059D01*
X12105Y43968D01*
X12164Y43879D01*
X12227Y43793D01*
X12293Y43708D01*
X12362Y43627D01*
X12434Y43548D01*
X12509Y43472D01*
X12587Y43398D01*
X12667Y43327D01*
X12750Y43260D01*
X12836Y43196D01*
X12923Y43134D01*
X13013Y43076D01*
X13105Y43022D01*
X13199Y42971D01*
X13295Y42923D01*
X13392Y42879D01*
X13491Y42838D01*
X13591Y42802D01*
X13693Y42769D01*
X13796Y42739D01*
X13900Y42714D01*
X14004Y42692D01*
X14110Y42675D01*
X14216Y42661D01*
X14322Y42651D01*
X14429Y42645D01*
X14536Y42643D01*
X17429Y42643D01*
X17564Y42645D01*
X17698Y42651D01*
X17832Y42661D01*
X17966Y42674D01*
X18100Y42692D01*
X18233Y42713D01*
X18365Y42739D01*
X18496Y42768D01*
X18627Y42801D01*
X18756Y42837D01*
X18885Y42878D01*
X19012Y42922D01*
X19138Y42970D01*
X19262Y43021D01*
X19385Y43077D01*
X19506Y43135D01*
X19625Y43197D01*
X19743Y43263D01*
X19859Y43332D01*
X19972Y43404D01*
X20084Y43480D01*
X20193Y43559D01*
X20299Y43641D01*
X20404Y43726D01*
X20506Y43814D01*
X20605Y43905D01*
X20701Y43998D01*
X20795Y44095D01*
X20886Y44194D01*
X20974Y44296D01*
X21059Y44401D01*
X21141Y44507D01*
X21220Y44616D01*
X21296Y44728D01*
X21368Y44841D01*
X21437Y44957D01*
X21503Y45075D01*
X21565Y45194D01*
X21623Y45315D01*
X21678Y45438D01*
X21730Y45562D01*
X21778Y45688D01*
X21822Y45815D01*
X21863Y45944D01*
X21899Y46073D01*
X21932Y46204D01*
X21961Y46335D01*
X21987Y46467D01*
X22008Y46600D01*
X22026Y46734D01*
X22039Y46868D01*
X22049Y47002D01*
X22055Y47136D01*
X22057Y47271D01*
X11643Y138957D02*
X11643Y141271D01*
X11643Y138957D02*
X11645Y138864D01*
X11651Y138771D01*
X11660Y138678D01*
X11673Y138586D01*
X11690Y138494D01*
X11710Y138403D01*
X11734Y138313D01*
X11762Y138224D01*
X11793Y138136D01*
X11828Y138050D01*
X11866Y137965D01*
X11908Y137882D01*
X11953Y137800D01*
X12001Y137720D01*
X12053Y137642D01*
X12107Y137567D01*
X12165Y137494D01*
X12225Y137423D01*
X12288Y137354D01*
X12354Y137288D01*
X12423Y137225D01*
X12494Y137165D01*
X12567Y137107D01*
X12642Y137053D01*
X12720Y137001D01*
X12800Y136953D01*
X12882Y136908D01*
X12965Y136866D01*
X13050Y136828D01*
X13136Y136793D01*
X13224Y136762D01*
X13313Y136734D01*
X13403Y136710D01*
X13494Y136690D01*
X13586Y136673D01*
X13678Y136660D01*
X13771Y136651D01*
X13864Y136645D01*
X13957Y136643D01*
X19743Y136643D01*
X19839Y136645D01*
X19934Y136651D01*
X20029Y136661D01*
X20124Y136675D01*
X20218Y136692D01*
X20311Y136714D01*
X20403Y136739D01*
X20494Y136768D01*
X20584Y136801D01*
X20673Y136838D01*
X20759Y136878D01*
X20844Y136922D01*
X20927Y136969D01*
X21009Y137020D01*
X21088Y137074D01*
X21164Y137131D01*
X21239Y137191D01*
X21310Y137255D01*
X21379Y137321D01*
X21445Y137390D01*
X21509Y137461D01*
X21569Y137536D01*
X21626Y137612D01*
X21680Y137691D01*
X21731Y137772D01*
X21778Y137856D01*
X21822Y137941D01*
X21862Y138027D01*
X21899Y138116D01*
X21932Y138206D01*
X21961Y138297D01*
X21986Y138389D01*
X22008Y138482D01*
X22025Y138576D01*
X22039Y138671D01*
X22049Y138766D01*
X22055Y138861D01*
X22057Y138957D01*
X22057Y141271D01*
X22057Y146640D02*
X11643Y146640D01*
X11643Y151268D01*
X11643Y156784D02*
X22057Y156784D01*
X22057Y162570D02*
X15693Y156784D01*
X18007Y159098D02*
X11643Y162570D01*
X82143Y139614D02*
X92557Y136143D01*
X92557Y143086D02*
X82143Y139614D01*
X82143Y149725D02*
X82143Y152040D01*
X82143Y149725D02*
X82145Y149642D01*
X82151Y149560D01*
X82161Y149478D01*
X82174Y149396D01*
X82192Y149316D01*
X82213Y149236D01*
X82238Y149157D01*
X82267Y149080D01*
X82300Y149004D01*
X82336Y148930D01*
X82376Y148857D01*
X82419Y148786D01*
X82465Y148718D01*
X82514Y148652D01*
X82567Y148588D01*
X82623Y148527D01*
X82681Y148469D01*
X82742Y148413D01*
X82806Y148360D01*
X82872Y148311D01*
X82940Y148265D01*
X83011Y148222D01*
X83084Y148182D01*
X83158Y148146D01*
X83234Y148113D01*
X83311Y148084D01*
X83390Y148059D01*
X83470Y148038D01*
X83550Y148020D01*
X83632Y148007D01*
X83714Y147997D01*
X83796Y147991D01*
X83879Y147989D01*
X83879Y147990D02*
X87350Y147990D01*
X87350Y147989D02*
X87433Y147991D01*
X87515Y147997D01*
X87597Y148007D01*
X87679Y148020D01*
X87759Y148038D01*
X87839Y148059D01*
X87918Y148084D01*
X87995Y148113D01*
X88071Y148146D01*
X88145Y148182D01*
X88218Y148222D01*
X88289Y148265D01*
X88357Y148311D01*
X88423Y148360D01*
X88487Y148413D01*
X88548Y148469D01*
X88606Y148527D01*
X88662Y148588D01*
X88715Y148652D01*
X88764Y148718D01*
X88810Y148786D01*
X88853Y148857D01*
X88893Y148930D01*
X88929Y149004D01*
X88962Y149080D01*
X88991Y149157D01*
X89016Y149236D01*
X89037Y149316D01*
X89055Y149396D01*
X89068Y149478D01*
X89078Y149560D01*
X89084Y149642D01*
X89086Y149725D01*
X89086Y152040D01*
X82143Y158488D02*
X82143Y160803D01*
X82143Y158488D02*
X82145Y158405D01*
X82151Y158323D01*
X82161Y158241D01*
X82174Y158159D01*
X82192Y158079D01*
X82213Y157999D01*
X82238Y157920D01*
X82267Y157843D01*
X82300Y157767D01*
X82336Y157693D01*
X82376Y157620D01*
X82419Y157549D01*
X82465Y157481D01*
X82514Y157415D01*
X82567Y157351D01*
X82623Y157290D01*
X82681Y157232D01*
X82742Y157176D01*
X82806Y157123D01*
X82872Y157074D01*
X82940Y157028D01*
X83011Y156985D01*
X83084Y156945D01*
X83158Y156909D01*
X83234Y156876D01*
X83311Y156847D01*
X83390Y156822D01*
X83470Y156801D01*
X83550Y156783D01*
X83632Y156770D01*
X83714Y156760D01*
X83796Y156754D01*
X83879Y156752D01*
X83879Y156753D02*
X87350Y156753D01*
X87350Y156752D02*
X87433Y156754D01*
X87515Y156760D01*
X87597Y156770D01*
X87679Y156783D01*
X87759Y156801D01*
X87839Y156822D01*
X87918Y156847D01*
X87995Y156876D01*
X88071Y156909D01*
X88145Y156945D01*
X88218Y156985D01*
X88289Y157028D01*
X88357Y157074D01*
X88423Y157123D01*
X88487Y157176D01*
X88548Y157232D01*
X88606Y157290D01*
X88662Y157351D01*
X88715Y157415D01*
X88764Y157481D01*
X88810Y157549D01*
X88853Y157620D01*
X88893Y157693D01*
X88929Y157767D01*
X88962Y157843D01*
X88991Y157920D01*
X89016Y157999D01*
X89037Y158079D01*
X89055Y158159D01*
X89068Y158241D01*
X89078Y158323D01*
X89084Y158405D01*
X89086Y158488D01*
X89086Y160803D01*
D12*
X437620Y172700D02*
X442700Y172700D01*
X442700Y167620D01*
X417300Y167620D02*
X417300Y172700D01*
X422380Y172700D01*
X417300Y152380D02*
X417300Y147300D01*
X422380Y147300D01*
X437620Y147300D02*
X442700Y147300D01*
X442700Y152380D01*
X441938Y176002D02*
X441938Y187178D01*
X438834Y187178D01*
X438723Y187176D01*
X438613Y187170D01*
X438502Y187160D01*
X438392Y187146D01*
X438283Y187129D01*
X438174Y187107D01*
X438066Y187082D01*
X437960Y187052D01*
X437854Y187019D01*
X437749Y186982D01*
X437646Y186942D01*
X437545Y186897D01*
X437445Y186850D01*
X437346Y186798D01*
X437250Y186743D01*
X437156Y186685D01*
X437064Y186624D01*
X436974Y186559D01*
X436886Y186491D01*
X436801Y186420D01*
X436719Y186346D01*
X436639Y186269D01*
X436562Y186189D01*
X436488Y186107D01*
X436417Y186022D01*
X436349Y185934D01*
X436284Y185844D01*
X436223Y185752D01*
X436165Y185658D01*
X436110Y185562D01*
X436058Y185463D01*
X436011Y185363D01*
X435966Y185262D01*
X435926Y185159D01*
X435889Y185054D01*
X435856Y184948D01*
X435826Y184842D01*
X435801Y184734D01*
X435779Y184625D01*
X435762Y184516D01*
X435748Y184406D01*
X435738Y184295D01*
X435732Y184185D01*
X435730Y184074D01*
X435732Y183963D01*
X435738Y183853D01*
X435748Y183742D01*
X435762Y183632D01*
X435779Y183523D01*
X435801Y183414D01*
X435826Y183306D01*
X435856Y183200D01*
X435889Y183094D01*
X435926Y182989D01*
X435966Y182886D01*
X436011Y182785D01*
X436058Y182685D01*
X436110Y182586D01*
X436165Y182490D01*
X436223Y182396D01*
X436284Y182304D01*
X436349Y182214D01*
X436417Y182126D01*
X436488Y182041D01*
X436562Y181959D01*
X436639Y181879D01*
X436719Y181802D01*
X436801Y181728D01*
X436886Y181657D01*
X436974Y181589D01*
X437064Y181524D01*
X437156Y181463D01*
X437250Y181405D01*
X437346Y181350D01*
X437445Y181298D01*
X437545Y181251D01*
X437646Y181206D01*
X437749Y181166D01*
X437854Y181129D01*
X437960Y181096D01*
X438066Y181066D01*
X438174Y181041D01*
X438283Y181019D01*
X438392Y181002D01*
X438502Y180988D01*
X438613Y180978D01*
X438723Y180972D01*
X438834Y180970D01*
X438834Y180969D02*
X441938Y180969D01*
X431722Y176002D02*
X427996Y187178D01*
X424271Y176002D01*
X425202Y178796D02*
X430790Y178796D01*
X419290Y176002D02*
X419290Y187178D01*
X416185Y187178D01*
X416074Y187176D01*
X415964Y187170D01*
X415853Y187160D01*
X415743Y187146D01*
X415634Y187129D01*
X415525Y187107D01*
X415417Y187082D01*
X415311Y187052D01*
X415205Y187019D01*
X415100Y186982D01*
X414997Y186942D01*
X414896Y186897D01*
X414796Y186850D01*
X414697Y186798D01*
X414601Y186743D01*
X414507Y186685D01*
X414415Y186624D01*
X414325Y186559D01*
X414237Y186491D01*
X414152Y186420D01*
X414070Y186346D01*
X413990Y186269D01*
X413913Y186189D01*
X413839Y186107D01*
X413768Y186022D01*
X413700Y185934D01*
X413635Y185844D01*
X413574Y185752D01*
X413516Y185658D01*
X413461Y185562D01*
X413409Y185463D01*
X413362Y185363D01*
X413317Y185262D01*
X413277Y185159D01*
X413240Y185054D01*
X413207Y184948D01*
X413177Y184842D01*
X413152Y184734D01*
X413130Y184625D01*
X413113Y184516D01*
X413099Y184406D01*
X413089Y184295D01*
X413083Y184185D01*
X413081Y184074D01*
X413081Y179106D01*
X413083Y178995D01*
X413089Y178885D01*
X413099Y178774D01*
X413113Y178664D01*
X413130Y178555D01*
X413152Y178446D01*
X413177Y178338D01*
X413207Y178232D01*
X413240Y178126D01*
X413277Y178021D01*
X413317Y177918D01*
X413362Y177817D01*
X413409Y177717D01*
X413461Y177618D01*
X413516Y177522D01*
X413574Y177428D01*
X413635Y177336D01*
X413700Y177246D01*
X413768Y177158D01*
X413839Y177073D01*
X413913Y176991D01*
X413990Y176911D01*
X414070Y176834D01*
X414152Y176760D01*
X414237Y176689D01*
X414325Y176621D01*
X414415Y176556D01*
X414507Y176495D01*
X414601Y176437D01*
X414697Y176382D01*
X414796Y176330D01*
X414896Y176283D01*
X414997Y176238D01*
X415100Y176198D01*
X415205Y176161D01*
X415311Y176128D01*
X415417Y176098D01*
X415525Y176073D01*
X415634Y176051D01*
X415743Y176034D01*
X415853Y176020D01*
X415964Y176010D01*
X416074Y176004D01*
X416185Y176002D01*
X419290Y176002D01*
X407479Y181590D02*
X407476Y181810D01*
X407469Y182030D01*
X407455Y182249D01*
X407437Y182468D01*
X407413Y182687D01*
X407385Y182905D01*
X407351Y183122D01*
X407312Y183338D01*
X407267Y183554D01*
X407218Y183768D01*
X407163Y183981D01*
X407104Y184193D01*
X407039Y184403D01*
X406969Y184611D01*
X406895Y184818D01*
X406815Y185023D01*
X406731Y185226D01*
X406642Y185427D01*
X406548Y185626D01*
X406547Y185626D02*
X406514Y185715D01*
X406478Y185803D01*
X406438Y185889D01*
X406395Y185974D01*
X406348Y186056D01*
X406297Y186137D01*
X406244Y186215D01*
X406187Y186291D01*
X406127Y186365D01*
X406064Y186436D01*
X405999Y186505D01*
X405930Y186571D01*
X405859Y186633D01*
X405785Y186693D01*
X405709Y186750D01*
X405631Y186804D01*
X405550Y186854D01*
X405468Y186901D01*
X405383Y186944D01*
X405297Y186984D01*
X405209Y187021D01*
X405120Y187053D01*
X405030Y187082D01*
X404938Y187108D01*
X404846Y187129D01*
X404752Y187147D01*
X404658Y187160D01*
X404564Y187170D01*
X404469Y187176D01*
X404374Y187178D01*
X404279Y187176D01*
X404184Y187170D01*
X404090Y187160D01*
X403996Y187147D01*
X403902Y187129D01*
X403810Y187108D01*
X403718Y187082D01*
X403628Y187053D01*
X403539Y187021D01*
X403451Y186984D01*
X403365Y186944D01*
X403280Y186901D01*
X403198Y186854D01*
X403117Y186804D01*
X403039Y186750D01*
X402963Y186693D01*
X402889Y186633D01*
X402818Y186571D01*
X402749Y186505D01*
X402684Y186436D01*
X402621Y186365D01*
X402561Y186291D01*
X402504Y186215D01*
X402451Y186137D01*
X402400Y186056D01*
X402353Y185974D01*
X402310Y185889D01*
X402270Y185803D01*
X402234Y185715D01*
X402201Y185626D01*
X402200Y185626D02*
X402106Y185427D01*
X402017Y185226D01*
X401933Y185023D01*
X401853Y184818D01*
X401779Y184611D01*
X401709Y184403D01*
X401644Y184193D01*
X401585Y183981D01*
X401530Y183768D01*
X401481Y183554D01*
X401436Y183338D01*
X401397Y183122D01*
X401363Y182905D01*
X401335Y182687D01*
X401311Y182468D01*
X401293Y182249D01*
X401279Y182030D01*
X401272Y181810D01*
X401269Y181590D01*
X407479Y181590D02*
X407476Y181370D01*
X407469Y181150D01*
X407455Y180931D01*
X407437Y180712D01*
X407413Y180493D01*
X407385Y180275D01*
X407351Y180058D01*
X407312Y179842D01*
X407267Y179626D01*
X407218Y179412D01*
X407163Y179199D01*
X407104Y178988D01*
X407039Y178777D01*
X406969Y178569D01*
X406895Y178362D01*
X406815Y178157D01*
X406731Y177954D01*
X406642Y177753D01*
X406548Y177554D01*
X406547Y177554D02*
X406514Y177465D01*
X406478Y177377D01*
X406438Y177291D01*
X406395Y177206D01*
X406348Y177124D01*
X406297Y177043D01*
X406244Y176965D01*
X406187Y176889D01*
X406127Y176815D01*
X406064Y176744D01*
X405999Y176675D01*
X405930Y176609D01*
X405859Y176547D01*
X405785Y176487D01*
X405709Y176430D01*
X405631Y176376D01*
X405550Y176326D01*
X405468Y176279D01*
X405383Y176236D01*
X405297Y176196D01*
X405209Y176159D01*
X405120Y176127D01*
X405030Y176098D01*
X404938Y176072D01*
X404846Y176051D01*
X404752Y176033D01*
X404658Y176020D01*
X404564Y176010D01*
X404469Y176004D01*
X404374Y176002D01*
X402201Y177554D02*
X402107Y177753D01*
X402018Y177954D01*
X401934Y178157D01*
X401854Y178362D01*
X401780Y178569D01*
X401710Y178777D01*
X401645Y178987D01*
X401586Y179199D01*
X401531Y179412D01*
X401482Y179626D01*
X401437Y179842D01*
X401398Y180058D01*
X401364Y180275D01*
X401336Y180493D01*
X401312Y180712D01*
X401294Y180931D01*
X401280Y181150D01*
X401273Y181370D01*
X401270Y181590D01*
X402201Y177554D02*
X402234Y177465D01*
X402270Y177377D01*
X402310Y177291D01*
X402353Y177206D01*
X402400Y177124D01*
X402451Y177043D01*
X402504Y176965D01*
X402561Y176889D01*
X402621Y176815D01*
X402684Y176744D01*
X402749Y176675D01*
X402818Y176609D01*
X402889Y176547D01*
X402963Y176487D01*
X403039Y176430D01*
X403117Y176376D01*
X403198Y176326D01*
X403280Y176279D01*
X403365Y176236D01*
X403451Y176196D01*
X403539Y176159D01*
X403628Y176127D01*
X403718Y176098D01*
X403810Y176072D01*
X403902Y176051D01*
X403996Y176033D01*
X404090Y176020D01*
X404184Y176010D01*
X404279Y176004D01*
X404374Y176002D01*
X406858Y178486D02*
X401891Y184694D01*
X677620Y172700D02*
X682700Y172700D01*
X682700Y167620D01*
X657300Y167620D02*
X657300Y172700D01*
X662380Y172700D01*
X657300Y152380D02*
X657300Y147300D01*
X662380Y147300D01*
X677620Y147300D02*
X682700Y147300D01*
X682700Y152380D01*
X681938Y176002D02*
X681938Y187178D01*
X678834Y187178D01*
X678723Y187176D01*
X678613Y187170D01*
X678502Y187160D01*
X678392Y187146D01*
X678283Y187129D01*
X678174Y187107D01*
X678066Y187082D01*
X677960Y187052D01*
X677854Y187019D01*
X677749Y186982D01*
X677646Y186942D01*
X677545Y186897D01*
X677445Y186850D01*
X677346Y186798D01*
X677250Y186743D01*
X677156Y186685D01*
X677064Y186624D01*
X676974Y186559D01*
X676886Y186491D01*
X676801Y186420D01*
X676719Y186346D01*
X676639Y186269D01*
X676562Y186189D01*
X676488Y186107D01*
X676417Y186022D01*
X676349Y185934D01*
X676284Y185844D01*
X676223Y185752D01*
X676165Y185658D01*
X676110Y185562D01*
X676058Y185463D01*
X676011Y185363D01*
X675966Y185262D01*
X675926Y185159D01*
X675889Y185054D01*
X675856Y184948D01*
X675826Y184842D01*
X675801Y184734D01*
X675779Y184625D01*
X675762Y184516D01*
X675748Y184406D01*
X675738Y184295D01*
X675732Y184185D01*
X675730Y184074D01*
X675732Y183963D01*
X675738Y183853D01*
X675748Y183742D01*
X675762Y183632D01*
X675779Y183523D01*
X675801Y183414D01*
X675826Y183306D01*
X675856Y183200D01*
X675889Y183094D01*
X675926Y182989D01*
X675966Y182886D01*
X676011Y182785D01*
X676058Y182685D01*
X676110Y182586D01*
X676165Y182490D01*
X676223Y182396D01*
X676284Y182304D01*
X676349Y182214D01*
X676417Y182126D01*
X676488Y182041D01*
X676562Y181959D01*
X676639Y181879D01*
X676719Y181802D01*
X676801Y181728D01*
X676886Y181657D01*
X676974Y181589D01*
X677064Y181524D01*
X677156Y181463D01*
X677250Y181405D01*
X677346Y181350D01*
X677445Y181298D01*
X677545Y181251D01*
X677646Y181206D01*
X677749Y181166D01*
X677854Y181129D01*
X677960Y181096D01*
X678066Y181066D01*
X678174Y181041D01*
X678283Y181019D01*
X678392Y181002D01*
X678502Y180988D01*
X678613Y180978D01*
X678723Y180972D01*
X678834Y180970D01*
X678834Y180969D02*
X681938Y180969D01*
X671722Y176002D02*
X667996Y187178D01*
X664271Y176002D01*
X665202Y178796D02*
X670790Y178796D01*
X659290Y176002D02*
X659290Y187178D01*
X656185Y187178D01*
X656074Y187176D01*
X655964Y187170D01*
X655853Y187160D01*
X655743Y187146D01*
X655634Y187129D01*
X655525Y187107D01*
X655417Y187082D01*
X655311Y187052D01*
X655205Y187019D01*
X655100Y186982D01*
X654997Y186942D01*
X654896Y186897D01*
X654796Y186850D01*
X654697Y186798D01*
X654601Y186743D01*
X654507Y186685D01*
X654415Y186624D01*
X654325Y186559D01*
X654237Y186491D01*
X654152Y186420D01*
X654070Y186346D01*
X653990Y186269D01*
X653913Y186189D01*
X653839Y186107D01*
X653768Y186022D01*
X653700Y185934D01*
X653635Y185844D01*
X653574Y185752D01*
X653516Y185658D01*
X653461Y185562D01*
X653409Y185463D01*
X653362Y185363D01*
X653317Y185262D01*
X653277Y185159D01*
X653240Y185054D01*
X653207Y184948D01*
X653177Y184842D01*
X653152Y184734D01*
X653130Y184625D01*
X653113Y184516D01*
X653099Y184406D01*
X653089Y184295D01*
X653083Y184185D01*
X653081Y184074D01*
X653081Y179106D01*
X653083Y178995D01*
X653089Y178885D01*
X653099Y178774D01*
X653113Y178664D01*
X653130Y178555D01*
X653152Y178446D01*
X653177Y178338D01*
X653207Y178232D01*
X653240Y178126D01*
X653277Y178021D01*
X653317Y177918D01*
X653362Y177817D01*
X653409Y177717D01*
X653461Y177618D01*
X653516Y177522D01*
X653574Y177428D01*
X653635Y177336D01*
X653700Y177246D01*
X653768Y177158D01*
X653839Y177073D01*
X653913Y176991D01*
X653990Y176911D01*
X654070Y176834D01*
X654152Y176760D01*
X654237Y176689D01*
X654325Y176621D01*
X654415Y176556D01*
X654507Y176495D01*
X654601Y176437D01*
X654697Y176382D01*
X654796Y176330D01*
X654896Y176283D01*
X654997Y176238D01*
X655100Y176198D01*
X655205Y176161D01*
X655311Y176128D01*
X655417Y176098D01*
X655525Y176073D01*
X655634Y176051D01*
X655743Y176034D01*
X655853Y176020D01*
X655964Y176010D01*
X656074Y176004D01*
X656185Y176002D01*
X659290Y176002D01*
X647479Y184694D02*
X644374Y187178D01*
X644374Y176002D01*
X641270Y176002D02*
X647479Y176002D01*
X917620Y172700D02*
X922700Y172700D01*
X922700Y167620D01*
X897300Y167620D02*
X897300Y172700D01*
X902380Y172700D01*
X897300Y152380D02*
X897300Y147300D01*
X902380Y147300D01*
X917620Y147300D02*
X922700Y147300D01*
X922700Y152380D01*
X921938Y176002D02*
X921938Y187178D01*
X918834Y187178D01*
X918723Y187176D01*
X918613Y187170D01*
X918502Y187160D01*
X918392Y187146D01*
X918283Y187129D01*
X918174Y187107D01*
X918066Y187082D01*
X917960Y187052D01*
X917854Y187019D01*
X917749Y186982D01*
X917646Y186942D01*
X917545Y186897D01*
X917445Y186850D01*
X917346Y186798D01*
X917250Y186743D01*
X917156Y186685D01*
X917064Y186624D01*
X916974Y186559D01*
X916886Y186491D01*
X916801Y186420D01*
X916719Y186346D01*
X916639Y186269D01*
X916562Y186189D01*
X916488Y186107D01*
X916417Y186022D01*
X916349Y185934D01*
X916284Y185844D01*
X916223Y185752D01*
X916165Y185658D01*
X916110Y185562D01*
X916058Y185463D01*
X916011Y185363D01*
X915966Y185262D01*
X915926Y185159D01*
X915889Y185054D01*
X915856Y184948D01*
X915826Y184842D01*
X915801Y184734D01*
X915779Y184625D01*
X915762Y184516D01*
X915748Y184406D01*
X915738Y184295D01*
X915732Y184185D01*
X915730Y184074D01*
X915732Y183963D01*
X915738Y183853D01*
X915748Y183742D01*
X915762Y183632D01*
X915779Y183523D01*
X915801Y183414D01*
X915826Y183306D01*
X915856Y183200D01*
X915889Y183094D01*
X915926Y182989D01*
X915966Y182886D01*
X916011Y182785D01*
X916058Y182685D01*
X916110Y182586D01*
X916165Y182490D01*
X916223Y182396D01*
X916284Y182304D01*
X916349Y182214D01*
X916417Y182126D01*
X916488Y182041D01*
X916562Y181959D01*
X916639Y181879D01*
X916719Y181802D01*
X916801Y181728D01*
X916886Y181657D01*
X916974Y181589D01*
X917064Y181524D01*
X917156Y181463D01*
X917250Y181405D01*
X917346Y181350D01*
X917445Y181298D01*
X917545Y181251D01*
X917646Y181206D01*
X917749Y181166D01*
X917854Y181129D01*
X917960Y181096D01*
X918066Y181066D01*
X918174Y181041D01*
X918283Y181019D01*
X918392Y181002D01*
X918502Y180988D01*
X918613Y180978D01*
X918723Y180972D01*
X918834Y180970D01*
X918834Y180969D02*
X921938Y180969D01*
X911722Y176002D02*
X907996Y187178D01*
X904271Y176002D01*
X905202Y178796D02*
X910790Y178796D01*
X899290Y176002D02*
X899290Y187178D01*
X896185Y187178D01*
X896074Y187176D01*
X895964Y187170D01*
X895853Y187160D01*
X895743Y187146D01*
X895634Y187129D01*
X895525Y187107D01*
X895417Y187082D01*
X895311Y187052D01*
X895205Y187019D01*
X895100Y186982D01*
X894997Y186942D01*
X894896Y186897D01*
X894796Y186850D01*
X894697Y186798D01*
X894601Y186743D01*
X894507Y186685D01*
X894415Y186624D01*
X894325Y186559D01*
X894237Y186491D01*
X894152Y186420D01*
X894070Y186346D01*
X893990Y186269D01*
X893913Y186189D01*
X893839Y186107D01*
X893768Y186022D01*
X893700Y185934D01*
X893635Y185844D01*
X893574Y185752D01*
X893516Y185658D01*
X893461Y185562D01*
X893409Y185463D01*
X893362Y185363D01*
X893317Y185262D01*
X893277Y185159D01*
X893240Y185054D01*
X893207Y184948D01*
X893177Y184842D01*
X893152Y184734D01*
X893130Y184625D01*
X893113Y184516D01*
X893099Y184406D01*
X893089Y184295D01*
X893083Y184185D01*
X893081Y184074D01*
X893081Y179106D01*
X893083Y178995D01*
X893089Y178885D01*
X893099Y178774D01*
X893113Y178664D01*
X893130Y178555D01*
X893152Y178446D01*
X893177Y178338D01*
X893207Y178232D01*
X893240Y178126D01*
X893277Y178021D01*
X893317Y177918D01*
X893362Y177817D01*
X893409Y177717D01*
X893461Y177618D01*
X893516Y177522D01*
X893574Y177428D01*
X893635Y177336D01*
X893700Y177246D01*
X893768Y177158D01*
X893839Y177073D01*
X893913Y176991D01*
X893990Y176911D01*
X894070Y176834D01*
X894152Y176760D01*
X894237Y176689D01*
X894325Y176621D01*
X894415Y176556D01*
X894507Y176495D01*
X894601Y176437D01*
X894697Y176382D01*
X894796Y176330D01*
X894896Y176283D01*
X894997Y176238D01*
X895100Y176198D01*
X895205Y176161D01*
X895311Y176128D01*
X895417Y176098D01*
X895525Y176073D01*
X895634Y176051D01*
X895743Y176034D01*
X895853Y176020D01*
X895964Y176010D01*
X896074Y176004D01*
X896185Y176002D01*
X899290Y176002D01*
X884064Y187178D02*
X883960Y187176D01*
X883855Y187170D01*
X883751Y187160D01*
X883648Y187147D01*
X883545Y187129D01*
X883442Y187108D01*
X883341Y187083D01*
X883240Y187054D01*
X883141Y187021D01*
X883043Y186985D01*
X882947Y186945D01*
X882852Y186901D01*
X882758Y186854D01*
X882667Y186804D01*
X882578Y186750D01*
X882490Y186693D01*
X882405Y186632D01*
X882322Y186568D01*
X882242Y186502D01*
X882164Y186432D01*
X882088Y186360D01*
X882016Y186284D01*
X881946Y186206D01*
X881880Y186126D01*
X881816Y186043D01*
X881755Y185958D01*
X881698Y185870D01*
X881644Y185781D01*
X881594Y185690D01*
X881547Y185596D01*
X881503Y185501D01*
X881463Y185405D01*
X881427Y185307D01*
X881394Y185208D01*
X881365Y185107D01*
X881340Y185006D01*
X881319Y184903D01*
X881301Y184800D01*
X881288Y184697D01*
X881278Y184593D01*
X881272Y184488D01*
X881270Y184384D01*
X884064Y187179D02*
X884183Y187177D01*
X884301Y187171D01*
X884420Y187161D01*
X884538Y187148D01*
X884655Y187130D01*
X884772Y187108D01*
X884888Y187083D01*
X885003Y187054D01*
X885118Y187021D01*
X885231Y186984D01*
X885342Y186944D01*
X885453Y186900D01*
X885561Y186852D01*
X885668Y186801D01*
X885774Y186746D01*
X885877Y186687D01*
X885979Y186626D01*
X886078Y186561D01*
X886176Y186492D01*
X886270Y186421D01*
X886363Y186346D01*
X886453Y186269D01*
X886540Y186188D01*
X886625Y186105D01*
X886707Y186019D01*
X886786Y185930D01*
X886862Y185839D01*
X886935Y185745D01*
X887004Y185649D01*
X887071Y185550D01*
X887134Y185450D01*
X887194Y185347D01*
X887251Y185243D01*
X887303Y185136D01*
X887353Y185028D01*
X887399Y184919D01*
X887441Y184807D01*
X887479Y184695D01*
X882201Y182211D02*
X882126Y182285D01*
X882054Y182362D01*
X881984Y182441D01*
X881917Y182523D01*
X881853Y182607D01*
X881792Y182693D01*
X881734Y182781D01*
X881679Y182872D01*
X881627Y182964D01*
X881579Y183058D01*
X881534Y183153D01*
X881492Y183251D01*
X881454Y183349D01*
X881419Y183449D01*
X881388Y183550D01*
X881361Y183652D01*
X881337Y183755D01*
X881316Y183858D01*
X881300Y183963D01*
X881287Y184068D01*
X881277Y184173D01*
X881272Y184278D01*
X881270Y184384D01*
X882201Y182211D02*
X887479Y176002D01*
X881270Y176002D01*
X1157620Y172700D02*
X1162700Y172700D01*
X1162700Y167620D01*
X1137300Y167620D02*
X1137300Y172700D01*
X1142380Y172700D01*
X1137300Y152380D02*
X1137300Y147300D01*
X1142380Y147300D01*
X1157620Y147300D02*
X1162700Y147300D01*
X1162700Y152380D01*
X1161938Y176002D02*
X1161938Y187178D01*
X1158834Y187178D01*
X1158723Y187176D01*
X1158613Y187170D01*
X1158502Y187160D01*
X1158392Y187146D01*
X1158283Y187129D01*
X1158174Y187107D01*
X1158066Y187082D01*
X1157960Y187052D01*
X1157854Y187019D01*
X1157749Y186982D01*
X1157646Y186942D01*
X1157545Y186897D01*
X1157445Y186850D01*
X1157346Y186798D01*
X1157250Y186743D01*
X1157156Y186685D01*
X1157064Y186624D01*
X1156974Y186559D01*
X1156886Y186491D01*
X1156801Y186420D01*
X1156719Y186346D01*
X1156639Y186269D01*
X1156562Y186189D01*
X1156488Y186107D01*
X1156417Y186022D01*
X1156349Y185934D01*
X1156284Y185844D01*
X1156223Y185752D01*
X1156165Y185658D01*
X1156110Y185562D01*
X1156058Y185463D01*
X1156011Y185363D01*
X1155966Y185262D01*
X1155926Y185159D01*
X1155889Y185054D01*
X1155856Y184948D01*
X1155826Y184842D01*
X1155801Y184734D01*
X1155779Y184625D01*
X1155762Y184516D01*
X1155748Y184406D01*
X1155738Y184295D01*
X1155732Y184185D01*
X1155730Y184074D01*
X1155732Y183963D01*
X1155738Y183853D01*
X1155748Y183742D01*
X1155762Y183632D01*
X1155779Y183523D01*
X1155801Y183414D01*
X1155826Y183306D01*
X1155856Y183200D01*
X1155889Y183094D01*
X1155926Y182989D01*
X1155966Y182886D01*
X1156011Y182785D01*
X1156058Y182685D01*
X1156110Y182586D01*
X1156165Y182490D01*
X1156223Y182396D01*
X1156284Y182304D01*
X1156349Y182214D01*
X1156417Y182126D01*
X1156488Y182041D01*
X1156562Y181959D01*
X1156639Y181879D01*
X1156719Y181802D01*
X1156801Y181728D01*
X1156886Y181657D01*
X1156974Y181589D01*
X1157064Y181524D01*
X1157156Y181463D01*
X1157250Y181405D01*
X1157346Y181350D01*
X1157445Y181298D01*
X1157545Y181251D01*
X1157646Y181206D01*
X1157749Y181166D01*
X1157854Y181129D01*
X1157960Y181096D01*
X1158066Y181066D01*
X1158174Y181041D01*
X1158283Y181019D01*
X1158392Y181002D01*
X1158502Y180988D01*
X1158613Y180978D01*
X1158723Y180972D01*
X1158834Y180970D01*
X1158834Y180969D02*
X1161938Y180969D01*
X1151722Y176002D02*
X1147996Y187178D01*
X1144271Y176002D01*
X1145202Y178796D02*
X1150790Y178796D01*
X1139290Y176002D02*
X1139290Y187178D01*
X1136185Y187178D01*
X1136074Y187176D01*
X1135964Y187170D01*
X1135853Y187160D01*
X1135743Y187146D01*
X1135634Y187129D01*
X1135525Y187107D01*
X1135417Y187082D01*
X1135311Y187052D01*
X1135205Y187019D01*
X1135100Y186982D01*
X1134997Y186942D01*
X1134896Y186897D01*
X1134796Y186850D01*
X1134697Y186798D01*
X1134601Y186743D01*
X1134507Y186685D01*
X1134415Y186624D01*
X1134325Y186559D01*
X1134237Y186491D01*
X1134152Y186420D01*
X1134070Y186346D01*
X1133990Y186269D01*
X1133913Y186189D01*
X1133839Y186107D01*
X1133768Y186022D01*
X1133700Y185934D01*
X1133635Y185844D01*
X1133574Y185752D01*
X1133516Y185658D01*
X1133461Y185562D01*
X1133409Y185463D01*
X1133362Y185363D01*
X1133317Y185262D01*
X1133277Y185159D01*
X1133240Y185054D01*
X1133207Y184948D01*
X1133177Y184842D01*
X1133152Y184734D01*
X1133130Y184625D01*
X1133113Y184516D01*
X1133099Y184406D01*
X1133089Y184295D01*
X1133083Y184185D01*
X1133081Y184074D01*
X1133081Y179106D01*
X1133083Y178995D01*
X1133089Y178885D01*
X1133099Y178774D01*
X1133113Y178664D01*
X1133130Y178555D01*
X1133152Y178446D01*
X1133177Y178338D01*
X1133207Y178232D01*
X1133240Y178126D01*
X1133277Y178021D01*
X1133317Y177918D01*
X1133362Y177817D01*
X1133409Y177717D01*
X1133461Y177618D01*
X1133516Y177522D01*
X1133574Y177428D01*
X1133635Y177336D01*
X1133700Y177246D01*
X1133768Y177158D01*
X1133839Y177073D01*
X1133913Y176991D01*
X1133990Y176911D01*
X1134070Y176834D01*
X1134152Y176760D01*
X1134237Y176689D01*
X1134325Y176621D01*
X1134415Y176556D01*
X1134507Y176495D01*
X1134601Y176437D01*
X1134697Y176382D01*
X1134796Y176330D01*
X1134896Y176283D01*
X1134997Y176238D01*
X1135100Y176198D01*
X1135205Y176161D01*
X1135311Y176128D01*
X1135417Y176098D01*
X1135525Y176073D01*
X1135634Y176051D01*
X1135743Y176034D01*
X1135853Y176020D01*
X1135964Y176010D01*
X1136074Y176004D01*
X1136185Y176002D01*
X1139290Y176002D01*
X1127479Y176002D02*
X1124374Y176002D01*
X1124263Y176004D01*
X1124153Y176010D01*
X1124042Y176020D01*
X1123932Y176034D01*
X1123823Y176051D01*
X1123714Y176073D01*
X1123606Y176098D01*
X1123500Y176128D01*
X1123394Y176161D01*
X1123289Y176198D01*
X1123186Y176238D01*
X1123085Y176283D01*
X1122985Y176330D01*
X1122886Y176382D01*
X1122790Y176437D01*
X1122696Y176495D01*
X1122604Y176556D01*
X1122514Y176621D01*
X1122426Y176689D01*
X1122341Y176760D01*
X1122259Y176834D01*
X1122179Y176911D01*
X1122102Y176991D01*
X1122028Y177073D01*
X1121957Y177158D01*
X1121889Y177246D01*
X1121824Y177336D01*
X1121763Y177428D01*
X1121705Y177522D01*
X1121650Y177618D01*
X1121598Y177717D01*
X1121551Y177817D01*
X1121506Y177918D01*
X1121466Y178021D01*
X1121429Y178126D01*
X1121396Y178232D01*
X1121366Y178338D01*
X1121341Y178446D01*
X1121319Y178555D01*
X1121302Y178664D01*
X1121288Y178774D01*
X1121278Y178885D01*
X1121272Y178995D01*
X1121270Y179106D01*
X1121272Y179217D01*
X1121278Y179327D01*
X1121288Y179438D01*
X1121302Y179548D01*
X1121319Y179657D01*
X1121341Y179766D01*
X1121366Y179874D01*
X1121396Y179980D01*
X1121429Y180086D01*
X1121466Y180191D01*
X1121506Y180294D01*
X1121551Y180395D01*
X1121598Y180495D01*
X1121650Y180594D01*
X1121705Y180690D01*
X1121763Y180784D01*
X1121824Y180876D01*
X1121889Y180966D01*
X1121957Y181054D01*
X1122028Y181139D01*
X1122102Y181221D01*
X1122179Y181301D01*
X1122259Y181378D01*
X1122341Y181452D01*
X1122426Y181523D01*
X1122514Y181591D01*
X1122604Y181656D01*
X1122696Y181717D01*
X1122790Y181775D01*
X1122886Y181830D01*
X1122985Y181882D01*
X1123085Y181929D01*
X1123186Y181974D01*
X1123289Y182014D01*
X1123394Y182051D01*
X1123500Y182084D01*
X1123606Y182114D01*
X1123714Y182139D01*
X1123823Y182161D01*
X1123932Y182178D01*
X1124042Y182192D01*
X1124153Y182202D01*
X1124263Y182208D01*
X1124374Y182210D01*
X1123753Y187178D02*
X1127479Y187178D01*
X1123753Y187178D02*
X1123654Y187176D01*
X1123556Y187170D01*
X1123457Y187160D01*
X1123360Y187147D01*
X1123262Y187129D01*
X1123166Y187108D01*
X1123070Y187082D01*
X1122976Y187053D01*
X1122883Y187021D01*
X1122791Y186984D01*
X1122701Y186944D01*
X1122612Y186900D01*
X1122525Y186853D01*
X1122440Y186803D01*
X1122358Y186749D01*
X1122277Y186692D01*
X1122199Y186632D01*
X1122123Y186568D01*
X1122050Y186502D01*
X1121979Y186433D01*
X1121911Y186361D01*
X1121847Y186286D01*
X1121785Y186209D01*
X1121726Y186130D01*
X1121671Y186048D01*
X1121618Y185964D01*
X1121570Y185879D01*
X1121524Y185791D01*
X1121482Y185701D01*
X1121444Y185610D01*
X1121410Y185518D01*
X1121379Y185424D01*
X1121352Y185329D01*
X1121328Y185233D01*
X1121309Y185136D01*
X1121293Y185039D01*
X1121281Y184941D01*
X1121273Y184842D01*
X1121269Y184743D01*
X1121269Y184645D01*
X1121273Y184546D01*
X1121281Y184447D01*
X1121293Y184349D01*
X1121309Y184252D01*
X1121328Y184155D01*
X1121352Y184059D01*
X1121379Y183964D01*
X1121410Y183870D01*
X1121444Y183778D01*
X1121482Y183687D01*
X1121524Y183597D01*
X1121570Y183509D01*
X1121618Y183424D01*
X1121671Y183340D01*
X1121726Y183258D01*
X1121785Y183179D01*
X1121847Y183102D01*
X1121911Y183027D01*
X1121979Y182955D01*
X1122050Y182886D01*
X1122123Y182820D01*
X1122199Y182756D01*
X1122277Y182696D01*
X1122358Y182639D01*
X1122440Y182585D01*
X1122525Y182535D01*
X1122612Y182488D01*
X1122701Y182444D01*
X1122791Y182404D01*
X1122883Y182367D01*
X1122976Y182335D01*
X1123070Y182306D01*
X1123166Y182280D01*
X1123262Y182259D01*
X1123360Y182241D01*
X1123457Y182228D01*
X1123556Y182218D01*
X1123654Y182212D01*
X1123753Y182210D01*
X1123753Y182211D02*
X1126237Y182211D01*
X1397620Y172700D02*
X1402700Y172700D01*
X1402700Y167620D01*
X1377300Y167620D02*
X1377300Y172700D01*
X1382380Y172700D01*
X1377300Y152380D02*
X1377300Y147300D01*
X1382380Y147300D01*
X1397620Y147300D02*
X1402700Y147300D01*
X1402700Y152380D01*
X1401938Y176002D02*
X1401938Y187178D01*
X1398834Y187178D01*
X1398723Y187176D01*
X1398613Y187170D01*
X1398502Y187160D01*
X1398392Y187146D01*
X1398283Y187129D01*
X1398174Y187107D01*
X1398066Y187082D01*
X1397960Y187052D01*
X1397854Y187019D01*
X1397749Y186982D01*
X1397646Y186942D01*
X1397545Y186897D01*
X1397445Y186850D01*
X1397346Y186798D01*
X1397250Y186743D01*
X1397156Y186685D01*
X1397064Y186624D01*
X1396974Y186559D01*
X1396886Y186491D01*
X1396801Y186420D01*
X1396719Y186346D01*
X1396639Y186269D01*
X1396562Y186189D01*
X1396488Y186107D01*
X1396417Y186022D01*
X1396349Y185934D01*
X1396284Y185844D01*
X1396223Y185752D01*
X1396165Y185658D01*
X1396110Y185562D01*
X1396058Y185463D01*
X1396011Y185363D01*
X1395966Y185262D01*
X1395926Y185159D01*
X1395889Y185054D01*
X1395856Y184948D01*
X1395826Y184842D01*
X1395801Y184734D01*
X1395779Y184625D01*
X1395762Y184516D01*
X1395748Y184406D01*
X1395738Y184295D01*
X1395732Y184185D01*
X1395730Y184074D01*
X1395732Y183963D01*
X1395738Y183853D01*
X1395748Y183742D01*
X1395762Y183632D01*
X1395779Y183523D01*
X1395801Y183414D01*
X1395826Y183306D01*
X1395856Y183200D01*
X1395889Y183094D01*
X1395926Y182989D01*
X1395966Y182886D01*
X1396011Y182785D01*
X1396058Y182685D01*
X1396110Y182586D01*
X1396165Y182490D01*
X1396223Y182396D01*
X1396284Y182304D01*
X1396349Y182214D01*
X1396417Y182126D01*
X1396488Y182041D01*
X1396562Y181959D01*
X1396639Y181879D01*
X1396719Y181802D01*
X1396801Y181728D01*
X1396886Y181657D01*
X1396974Y181589D01*
X1397064Y181524D01*
X1397156Y181463D01*
X1397250Y181405D01*
X1397346Y181350D01*
X1397445Y181298D01*
X1397545Y181251D01*
X1397646Y181206D01*
X1397749Y181166D01*
X1397854Y181129D01*
X1397960Y181096D01*
X1398066Y181066D01*
X1398174Y181041D01*
X1398283Y181019D01*
X1398392Y181002D01*
X1398502Y180988D01*
X1398613Y180978D01*
X1398723Y180972D01*
X1398834Y180970D01*
X1398834Y180969D02*
X1401938Y180969D01*
X1391722Y176002D02*
X1387996Y187178D01*
X1384271Y176002D01*
X1385202Y178796D02*
X1390790Y178796D01*
X1379290Y176002D02*
X1379290Y187178D01*
X1376185Y187178D01*
X1376074Y187176D01*
X1375964Y187170D01*
X1375853Y187160D01*
X1375743Y187146D01*
X1375634Y187129D01*
X1375525Y187107D01*
X1375417Y187082D01*
X1375311Y187052D01*
X1375205Y187019D01*
X1375100Y186982D01*
X1374997Y186942D01*
X1374896Y186897D01*
X1374796Y186850D01*
X1374697Y186798D01*
X1374601Y186743D01*
X1374507Y186685D01*
X1374415Y186624D01*
X1374325Y186559D01*
X1374237Y186491D01*
X1374152Y186420D01*
X1374070Y186346D01*
X1373990Y186269D01*
X1373913Y186189D01*
X1373839Y186107D01*
X1373768Y186022D01*
X1373700Y185934D01*
X1373635Y185844D01*
X1373574Y185752D01*
X1373516Y185658D01*
X1373461Y185562D01*
X1373409Y185463D01*
X1373362Y185363D01*
X1373317Y185262D01*
X1373277Y185159D01*
X1373240Y185054D01*
X1373207Y184948D01*
X1373177Y184842D01*
X1373152Y184734D01*
X1373130Y184625D01*
X1373113Y184516D01*
X1373099Y184406D01*
X1373089Y184295D01*
X1373083Y184185D01*
X1373081Y184074D01*
X1373081Y179106D01*
X1373083Y178995D01*
X1373089Y178885D01*
X1373099Y178774D01*
X1373113Y178664D01*
X1373130Y178555D01*
X1373152Y178446D01*
X1373177Y178338D01*
X1373207Y178232D01*
X1373240Y178126D01*
X1373277Y178021D01*
X1373317Y177918D01*
X1373362Y177817D01*
X1373409Y177717D01*
X1373461Y177618D01*
X1373516Y177522D01*
X1373574Y177428D01*
X1373635Y177336D01*
X1373700Y177246D01*
X1373768Y177158D01*
X1373839Y177073D01*
X1373913Y176991D01*
X1373990Y176911D01*
X1374070Y176834D01*
X1374152Y176760D01*
X1374237Y176689D01*
X1374325Y176621D01*
X1374415Y176556D01*
X1374507Y176495D01*
X1374601Y176437D01*
X1374697Y176382D01*
X1374796Y176330D01*
X1374896Y176283D01*
X1374997Y176238D01*
X1375100Y176198D01*
X1375205Y176161D01*
X1375311Y176128D01*
X1375417Y176098D01*
X1375525Y176073D01*
X1375634Y176051D01*
X1375743Y176034D01*
X1375853Y176020D01*
X1375964Y176010D01*
X1376074Y176004D01*
X1376185Y176002D01*
X1379290Y176002D01*
X1367479Y178486D02*
X1364995Y187178D01*
X1367479Y178486D02*
X1361270Y178486D01*
X1363133Y180969D02*
X1363133Y176002D01*
X1637620Y172700D02*
X1642700Y172700D01*
X1642700Y167620D01*
X1617300Y167620D02*
X1617300Y172700D01*
X1622380Y172700D01*
X1617300Y152380D02*
X1617300Y147300D01*
X1622380Y147300D01*
X1637620Y147300D02*
X1642700Y147300D01*
X1642700Y152380D01*
X1641938Y176002D02*
X1641938Y187178D01*
X1638834Y187178D01*
X1638723Y187176D01*
X1638613Y187170D01*
X1638502Y187160D01*
X1638392Y187146D01*
X1638283Y187129D01*
X1638174Y187107D01*
X1638066Y187082D01*
X1637960Y187052D01*
X1637854Y187019D01*
X1637749Y186982D01*
X1637646Y186942D01*
X1637545Y186897D01*
X1637445Y186850D01*
X1637346Y186798D01*
X1637250Y186743D01*
X1637156Y186685D01*
X1637064Y186624D01*
X1636974Y186559D01*
X1636886Y186491D01*
X1636801Y186420D01*
X1636719Y186346D01*
X1636639Y186269D01*
X1636562Y186189D01*
X1636488Y186107D01*
X1636417Y186022D01*
X1636349Y185934D01*
X1636284Y185844D01*
X1636223Y185752D01*
X1636165Y185658D01*
X1636110Y185562D01*
X1636058Y185463D01*
X1636011Y185363D01*
X1635966Y185262D01*
X1635926Y185159D01*
X1635889Y185054D01*
X1635856Y184948D01*
X1635826Y184842D01*
X1635801Y184734D01*
X1635779Y184625D01*
X1635762Y184516D01*
X1635748Y184406D01*
X1635738Y184295D01*
X1635732Y184185D01*
X1635730Y184074D01*
X1635732Y183963D01*
X1635738Y183853D01*
X1635748Y183742D01*
X1635762Y183632D01*
X1635779Y183523D01*
X1635801Y183414D01*
X1635826Y183306D01*
X1635856Y183200D01*
X1635889Y183094D01*
X1635926Y182989D01*
X1635966Y182886D01*
X1636011Y182785D01*
X1636058Y182685D01*
X1636110Y182586D01*
X1636165Y182490D01*
X1636223Y182396D01*
X1636284Y182304D01*
X1636349Y182214D01*
X1636417Y182126D01*
X1636488Y182041D01*
X1636562Y181959D01*
X1636639Y181879D01*
X1636719Y181802D01*
X1636801Y181728D01*
X1636886Y181657D01*
X1636974Y181589D01*
X1637064Y181524D01*
X1637156Y181463D01*
X1637250Y181405D01*
X1637346Y181350D01*
X1637445Y181298D01*
X1637545Y181251D01*
X1637646Y181206D01*
X1637749Y181166D01*
X1637854Y181129D01*
X1637960Y181096D01*
X1638066Y181066D01*
X1638174Y181041D01*
X1638283Y181019D01*
X1638392Y181002D01*
X1638502Y180988D01*
X1638613Y180978D01*
X1638723Y180972D01*
X1638834Y180970D01*
X1638834Y180969D02*
X1641938Y180969D01*
X1631722Y176002D02*
X1627996Y187178D01*
X1624271Y176002D01*
X1625202Y178796D02*
X1630790Y178796D01*
X1619290Y176002D02*
X1619290Y187178D01*
X1616185Y187178D01*
X1616074Y187176D01*
X1615964Y187170D01*
X1615853Y187160D01*
X1615743Y187146D01*
X1615634Y187129D01*
X1615525Y187107D01*
X1615417Y187082D01*
X1615311Y187052D01*
X1615205Y187019D01*
X1615100Y186982D01*
X1614997Y186942D01*
X1614896Y186897D01*
X1614796Y186850D01*
X1614697Y186798D01*
X1614601Y186743D01*
X1614507Y186685D01*
X1614415Y186624D01*
X1614325Y186559D01*
X1614237Y186491D01*
X1614152Y186420D01*
X1614070Y186346D01*
X1613990Y186269D01*
X1613913Y186189D01*
X1613839Y186107D01*
X1613768Y186022D01*
X1613700Y185934D01*
X1613635Y185844D01*
X1613574Y185752D01*
X1613516Y185658D01*
X1613461Y185562D01*
X1613409Y185463D01*
X1613362Y185363D01*
X1613317Y185262D01*
X1613277Y185159D01*
X1613240Y185054D01*
X1613207Y184948D01*
X1613177Y184842D01*
X1613152Y184734D01*
X1613130Y184625D01*
X1613113Y184516D01*
X1613099Y184406D01*
X1613089Y184295D01*
X1613083Y184185D01*
X1613081Y184074D01*
X1613081Y179106D01*
X1613083Y178995D01*
X1613089Y178885D01*
X1613099Y178774D01*
X1613113Y178664D01*
X1613130Y178555D01*
X1613152Y178446D01*
X1613177Y178338D01*
X1613207Y178232D01*
X1613240Y178126D01*
X1613277Y178021D01*
X1613317Y177918D01*
X1613362Y177817D01*
X1613409Y177717D01*
X1613461Y177618D01*
X1613516Y177522D01*
X1613574Y177428D01*
X1613635Y177336D01*
X1613700Y177246D01*
X1613768Y177158D01*
X1613839Y177073D01*
X1613913Y176991D01*
X1613990Y176911D01*
X1614070Y176834D01*
X1614152Y176760D01*
X1614237Y176689D01*
X1614325Y176621D01*
X1614415Y176556D01*
X1614507Y176495D01*
X1614601Y176437D01*
X1614697Y176382D01*
X1614796Y176330D01*
X1614896Y176283D01*
X1614997Y176238D01*
X1615100Y176198D01*
X1615205Y176161D01*
X1615311Y176128D01*
X1615417Y176098D01*
X1615525Y176073D01*
X1615634Y176051D01*
X1615743Y176034D01*
X1615853Y176020D01*
X1615964Y176010D01*
X1616074Y176004D01*
X1616185Y176002D01*
X1619290Y176002D01*
X1607479Y176002D02*
X1603753Y176002D01*
X1603655Y176004D01*
X1603558Y176010D01*
X1603461Y176019D01*
X1603364Y176033D01*
X1603268Y176050D01*
X1603173Y176071D01*
X1603079Y176095D01*
X1602985Y176124D01*
X1602893Y176156D01*
X1602802Y176191D01*
X1602713Y176230D01*
X1602625Y176273D01*
X1602539Y176319D01*
X1602455Y176368D01*
X1602373Y176421D01*
X1602293Y176476D01*
X1602215Y176535D01*
X1602140Y176597D01*
X1602067Y176662D01*
X1601997Y176730D01*
X1601929Y176800D01*
X1601864Y176873D01*
X1601802Y176948D01*
X1601743Y177026D01*
X1601688Y177106D01*
X1601635Y177188D01*
X1601586Y177272D01*
X1601540Y177358D01*
X1601497Y177446D01*
X1601458Y177535D01*
X1601423Y177626D01*
X1601391Y177718D01*
X1601362Y177812D01*
X1601338Y177906D01*
X1601317Y178001D01*
X1601300Y178097D01*
X1601286Y178194D01*
X1601277Y178291D01*
X1601271Y178388D01*
X1601269Y178486D01*
X1601270Y178486D02*
X1601270Y179727D01*
X1601269Y179727D02*
X1601271Y179825D01*
X1601277Y179922D01*
X1601286Y180019D01*
X1601300Y180116D01*
X1601317Y180212D01*
X1601338Y180307D01*
X1601362Y180401D01*
X1601391Y180495D01*
X1601423Y180587D01*
X1601458Y180678D01*
X1601497Y180767D01*
X1601540Y180855D01*
X1601586Y180941D01*
X1601635Y181025D01*
X1601688Y181107D01*
X1601743Y181187D01*
X1601802Y181265D01*
X1601864Y181340D01*
X1601929Y181413D01*
X1601997Y181483D01*
X1602067Y181551D01*
X1602140Y181616D01*
X1602215Y181678D01*
X1602293Y181737D01*
X1602373Y181792D01*
X1602455Y181845D01*
X1602539Y181894D01*
X1602625Y181940D01*
X1602713Y181983D01*
X1602802Y182022D01*
X1602893Y182057D01*
X1602985Y182089D01*
X1603079Y182118D01*
X1603173Y182142D01*
X1603268Y182163D01*
X1603364Y182180D01*
X1603461Y182194D01*
X1603558Y182203D01*
X1603655Y182209D01*
X1603753Y182211D01*
X1607479Y182211D01*
X1607479Y187178D01*
X1601270Y187178D01*
X1877620Y172700D02*
X1882700Y172700D01*
X1882700Y167620D01*
X1857300Y167620D02*
X1857300Y172700D01*
X1862380Y172700D01*
X1857300Y152380D02*
X1857300Y147300D01*
X1862380Y147300D01*
X1877620Y147300D02*
X1882700Y147300D01*
X1882700Y152380D01*
X1881938Y176002D02*
X1881938Y187178D01*
X1878834Y187178D01*
X1878723Y187176D01*
X1878613Y187170D01*
X1878502Y187160D01*
X1878392Y187146D01*
X1878283Y187129D01*
X1878174Y187107D01*
X1878066Y187082D01*
X1877960Y187052D01*
X1877854Y187019D01*
X1877749Y186982D01*
X1877646Y186942D01*
X1877545Y186897D01*
X1877445Y186850D01*
X1877346Y186798D01*
X1877250Y186743D01*
X1877156Y186685D01*
X1877064Y186624D01*
X1876974Y186559D01*
X1876886Y186491D01*
X1876801Y186420D01*
X1876719Y186346D01*
X1876639Y186269D01*
X1876562Y186189D01*
X1876488Y186107D01*
X1876417Y186022D01*
X1876349Y185934D01*
X1876284Y185844D01*
X1876223Y185752D01*
X1876165Y185658D01*
X1876110Y185562D01*
X1876058Y185463D01*
X1876011Y185363D01*
X1875966Y185262D01*
X1875926Y185159D01*
X1875889Y185054D01*
X1875856Y184948D01*
X1875826Y184842D01*
X1875801Y184734D01*
X1875779Y184625D01*
X1875762Y184516D01*
X1875748Y184406D01*
X1875738Y184295D01*
X1875732Y184185D01*
X1875730Y184074D01*
X1875732Y183963D01*
X1875738Y183853D01*
X1875748Y183742D01*
X1875762Y183632D01*
X1875779Y183523D01*
X1875801Y183414D01*
X1875826Y183306D01*
X1875856Y183200D01*
X1875889Y183094D01*
X1875926Y182989D01*
X1875966Y182886D01*
X1876011Y182785D01*
X1876058Y182685D01*
X1876110Y182586D01*
X1876165Y182490D01*
X1876223Y182396D01*
X1876284Y182304D01*
X1876349Y182214D01*
X1876417Y182126D01*
X1876488Y182041D01*
X1876562Y181959D01*
X1876639Y181879D01*
X1876719Y181802D01*
X1876801Y181728D01*
X1876886Y181657D01*
X1876974Y181589D01*
X1877064Y181524D01*
X1877156Y181463D01*
X1877250Y181405D01*
X1877346Y181350D01*
X1877445Y181298D01*
X1877545Y181251D01*
X1877646Y181206D01*
X1877749Y181166D01*
X1877854Y181129D01*
X1877960Y181096D01*
X1878066Y181066D01*
X1878174Y181041D01*
X1878283Y181019D01*
X1878392Y181002D01*
X1878502Y180988D01*
X1878613Y180978D01*
X1878723Y180972D01*
X1878834Y180970D01*
X1878834Y180969D02*
X1881938Y180969D01*
X1871722Y176002D02*
X1867996Y187178D01*
X1864271Y176002D01*
X1865202Y178796D02*
X1870790Y178796D01*
X1859290Y176002D02*
X1859290Y187178D01*
X1856185Y187178D01*
X1856074Y187176D01*
X1855964Y187170D01*
X1855853Y187160D01*
X1855743Y187146D01*
X1855634Y187129D01*
X1855525Y187107D01*
X1855417Y187082D01*
X1855311Y187052D01*
X1855205Y187019D01*
X1855100Y186982D01*
X1854997Y186942D01*
X1854896Y186897D01*
X1854796Y186850D01*
X1854697Y186798D01*
X1854601Y186743D01*
X1854507Y186685D01*
X1854415Y186624D01*
X1854325Y186559D01*
X1854237Y186491D01*
X1854152Y186420D01*
X1854070Y186346D01*
X1853990Y186269D01*
X1853913Y186189D01*
X1853839Y186107D01*
X1853768Y186022D01*
X1853700Y185934D01*
X1853635Y185844D01*
X1853574Y185752D01*
X1853516Y185658D01*
X1853461Y185562D01*
X1853409Y185463D01*
X1853362Y185363D01*
X1853317Y185262D01*
X1853277Y185159D01*
X1853240Y185054D01*
X1853207Y184948D01*
X1853177Y184842D01*
X1853152Y184734D01*
X1853130Y184625D01*
X1853113Y184516D01*
X1853099Y184406D01*
X1853089Y184295D01*
X1853083Y184185D01*
X1853081Y184074D01*
X1853081Y179106D01*
X1853083Y178995D01*
X1853089Y178885D01*
X1853099Y178774D01*
X1853113Y178664D01*
X1853130Y178555D01*
X1853152Y178446D01*
X1853177Y178338D01*
X1853207Y178232D01*
X1853240Y178126D01*
X1853277Y178021D01*
X1853317Y177918D01*
X1853362Y177817D01*
X1853409Y177717D01*
X1853461Y177618D01*
X1853516Y177522D01*
X1853574Y177428D01*
X1853635Y177336D01*
X1853700Y177246D01*
X1853768Y177158D01*
X1853839Y177073D01*
X1853913Y176991D01*
X1853990Y176911D01*
X1854070Y176834D01*
X1854152Y176760D01*
X1854237Y176689D01*
X1854325Y176621D01*
X1854415Y176556D01*
X1854507Y176495D01*
X1854601Y176437D01*
X1854697Y176382D01*
X1854796Y176330D01*
X1854896Y176283D01*
X1854997Y176238D01*
X1855100Y176198D01*
X1855205Y176161D01*
X1855311Y176128D01*
X1855417Y176098D01*
X1855525Y176073D01*
X1855634Y176051D01*
X1855743Y176034D01*
X1855853Y176020D01*
X1855964Y176010D01*
X1856074Y176004D01*
X1856185Y176002D01*
X1859290Y176002D01*
X1847479Y182211D02*
X1843753Y182211D01*
X1843655Y182209D01*
X1843558Y182203D01*
X1843461Y182194D01*
X1843364Y182180D01*
X1843268Y182163D01*
X1843173Y182142D01*
X1843079Y182118D01*
X1842985Y182089D01*
X1842893Y182057D01*
X1842802Y182022D01*
X1842713Y181983D01*
X1842625Y181940D01*
X1842539Y181894D01*
X1842455Y181845D01*
X1842373Y181792D01*
X1842293Y181737D01*
X1842215Y181678D01*
X1842140Y181616D01*
X1842067Y181551D01*
X1841997Y181483D01*
X1841929Y181413D01*
X1841864Y181340D01*
X1841802Y181265D01*
X1841743Y181187D01*
X1841688Y181107D01*
X1841635Y181025D01*
X1841586Y180941D01*
X1841540Y180855D01*
X1841497Y180767D01*
X1841458Y180678D01*
X1841423Y180587D01*
X1841391Y180495D01*
X1841362Y180401D01*
X1841338Y180307D01*
X1841317Y180212D01*
X1841300Y180116D01*
X1841286Y180019D01*
X1841277Y179922D01*
X1841271Y179825D01*
X1841269Y179727D01*
X1841270Y179727D02*
X1841270Y179106D01*
X1841272Y178995D01*
X1841278Y178885D01*
X1841288Y178774D01*
X1841302Y178664D01*
X1841319Y178555D01*
X1841341Y178446D01*
X1841366Y178338D01*
X1841396Y178232D01*
X1841429Y178126D01*
X1841466Y178021D01*
X1841506Y177918D01*
X1841551Y177817D01*
X1841598Y177717D01*
X1841650Y177618D01*
X1841705Y177522D01*
X1841763Y177428D01*
X1841824Y177336D01*
X1841889Y177246D01*
X1841957Y177158D01*
X1842028Y177073D01*
X1842102Y176991D01*
X1842179Y176911D01*
X1842259Y176834D01*
X1842341Y176760D01*
X1842426Y176689D01*
X1842514Y176621D01*
X1842604Y176556D01*
X1842696Y176495D01*
X1842790Y176437D01*
X1842886Y176382D01*
X1842985Y176330D01*
X1843085Y176283D01*
X1843186Y176238D01*
X1843289Y176198D01*
X1843394Y176161D01*
X1843500Y176128D01*
X1843606Y176098D01*
X1843714Y176073D01*
X1843823Y176051D01*
X1843932Y176034D01*
X1844042Y176020D01*
X1844153Y176010D01*
X1844263Y176004D01*
X1844374Y176002D01*
X1844485Y176004D01*
X1844595Y176010D01*
X1844706Y176020D01*
X1844816Y176034D01*
X1844925Y176051D01*
X1845034Y176073D01*
X1845142Y176098D01*
X1845248Y176128D01*
X1845354Y176161D01*
X1845459Y176198D01*
X1845562Y176238D01*
X1845663Y176283D01*
X1845763Y176330D01*
X1845862Y176382D01*
X1845958Y176437D01*
X1846052Y176495D01*
X1846144Y176556D01*
X1846234Y176621D01*
X1846322Y176689D01*
X1846407Y176760D01*
X1846489Y176834D01*
X1846569Y176911D01*
X1846646Y176991D01*
X1846720Y177073D01*
X1846791Y177158D01*
X1846859Y177246D01*
X1846924Y177336D01*
X1846985Y177428D01*
X1847043Y177522D01*
X1847098Y177618D01*
X1847150Y177717D01*
X1847197Y177817D01*
X1847242Y177918D01*
X1847282Y178021D01*
X1847319Y178126D01*
X1847352Y178232D01*
X1847382Y178338D01*
X1847407Y178446D01*
X1847429Y178555D01*
X1847446Y178664D01*
X1847460Y178774D01*
X1847470Y178885D01*
X1847476Y178995D01*
X1847478Y179106D01*
X1847479Y179106D02*
X1847479Y182211D01*
X1847477Y182350D01*
X1847471Y182489D01*
X1847461Y182628D01*
X1847448Y182767D01*
X1847430Y182905D01*
X1847409Y183043D01*
X1847384Y183180D01*
X1847354Y183316D01*
X1847322Y183452D01*
X1847285Y183586D01*
X1847244Y183719D01*
X1847200Y183851D01*
X1847152Y183982D01*
X1847101Y184112D01*
X1847046Y184240D01*
X1846987Y184366D01*
X1846925Y184491D01*
X1846859Y184614D01*
X1846790Y184735D01*
X1846718Y184854D01*
X1846642Y184970D01*
X1846563Y185085D01*
X1846481Y185198D01*
X1846395Y185308D01*
X1846307Y185416D01*
X1846216Y185521D01*
X1846121Y185623D01*
X1846024Y185723D01*
X1845924Y185820D01*
X1845822Y185915D01*
X1845717Y186006D01*
X1845609Y186094D01*
X1845499Y186180D01*
X1845386Y186262D01*
X1845272Y186341D01*
X1845155Y186417D01*
X1845036Y186489D01*
X1844915Y186558D01*
X1844792Y186624D01*
X1844667Y186686D01*
X1844541Y186745D01*
X1844413Y186800D01*
X1844283Y186851D01*
X1844153Y186899D01*
X1844020Y186943D01*
X1843887Y186984D01*
X1843753Y187021D01*
X1843617Y187053D01*
X1843481Y187083D01*
X1843344Y187108D01*
X1843206Y187129D01*
X1843068Y187147D01*
X1842930Y187160D01*
X1842791Y187170D01*
X1842651Y187176D01*
X1842512Y187178D01*
X2117620Y172700D02*
X2122700Y172700D01*
X2122700Y167620D01*
X2097300Y167620D02*
X2097300Y172700D01*
X2102380Y172700D01*
X2097300Y152380D02*
X2097300Y147300D01*
X2102380Y147300D01*
X2117620Y147300D02*
X2122700Y147300D01*
X2122700Y152380D01*
X2121938Y176002D02*
X2121938Y187178D01*
X2118834Y187178D01*
X2118723Y187176D01*
X2118613Y187170D01*
X2118502Y187160D01*
X2118392Y187146D01*
X2118283Y187129D01*
X2118174Y187107D01*
X2118066Y187082D01*
X2117960Y187052D01*
X2117854Y187019D01*
X2117749Y186982D01*
X2117646Y186942D01*
X2117545Y186897D01*
X2117445Y186850D01*
X2117346Y186798D01*
X2117250Y186743D01*
X2117156Y186685D01*
X2117064Y186624D01*
X2116974Y186559D01*
X2116886Y186491D01*
X2116801Y186420D01*
X2116719Y186346D01*
X2116639Y186269D01*
X2116562Y186189D01*
X2116488Y186107D01*
X2116417Y186022D01*
X2116349Y185934D01*
X2116284Y185844D01*
X2116223Y185752D01*
X2116165Y185658D01*
X2116110Y185562D01*
X2116058Y185463D01*
X2116011Y185363D01*
X2115966Y185262D01*
X2115926Y185159D01*
X2115889Y185054D01*
X2115856Y184948D01*
X2115826Y184842D01*
X2115801Y184734D01*
X2115779Y184625D01*
X2115762Y184516D01*
X2115748Y184406D01*
X2115738Y184295D01*
X2115732Y184185D01*
X2115730Y184074D01*
X2115732Y183963D01*
X2115738Y183853D01*
X2115748Y183742D01*
X2115762Y183632D01*
X2115779Y183523D01*
X2115801Y183414D01*
X2115826Y183306D01*
X2115856Y183200D01*
X2115889Y183094D01*
X2115926Y182989D01*
X2115966Y182886D01*
X2116011Y182785D01*
X2116058Y182685D01*
X2116110Y182586D01*
X2116165Y182490D01*
X2116223Y182396D01*
X2116284Y182304D01*
X2116349Y182214D01*
X2116417Y182126D01*
X2116488Y182041D01*
X2116562Y181959D01*
X2116639Y181879D01*
X2116719Y181802D01*
X2116801Y181728D01*
X2116886Y181657D01*
X2116974Y181589D01*
X2117064Y181524D01*
X2117156Y181463D01*
X2117250Y181405D01*
X2117346Y181350D01*
X2117445Y181298D01*
X2117545Y181251D01*
X2117646Y181206D01*
X2117749Y181166D01*
X2117854Y181129D01*
X2117960Y181096D01*
X2118066Y181066D01*
X2118174Y181041D01*
X2118283Y181019D01*
X2118392Y181002D01*
X2118502Y180988D01*
X2118613Y180978D01*
X2118723Y180972D01*
X2118834Y180970D01*
X2118834Y180969D02*
X2121938Y180969D01*
X2111722Y176002D02*
X2107996Y187178D01*
X2104271Y176002D01*
X2105202Y178796D02*
X2110790Y178796D01*
X2099290Y176002D02*
X2099290Y187178D01*
X2096185Y187178D01*
X2096074Y187176D01*
X2095964Y187170D01*
X2095853Y187160D01*
X2095743Y187146D01*
X2095634Y187129D01*
X2095525Y187107D01*
X2095417Y187082D01*
X2095311Y187052D01*
X2095205Y187019D01*
X2095100Y186982D01*
X2094997Y186942D01*
X2094896Y186897D01*
X2094796Y186850D01*
X2094697Y186798D01*
X2094601Y186743D01*
X2094507Y186685D01*
X2094415Y186624D01*
X2094325Y186559D01*
X2094237Y186491D01*
X2094152Y186420D01*
X2094070Y186346D01*
X2093990Y186269D01*
X2093913Y186189D01*
X2093839Y186107D01*
X2093768Y186022D01*
X2093700Y185934D01*
X2093635Y185844D01*
X2093574Y185752D01*
X2093516Y185658D01*
X2093461Y185562D01*
X2093409Y185463D01*
X2093362Y185363D01*
X2093317Y185262D01*
X2093277Y185159D01*
X2093240Y185054D01*
X2093207Y184948D01*
X2093177Y184842D01*
X2093152Y184734D01*
X2093130Y184625D01*
X2093113Y184516D01*
X2093099Y184406D01*
X2093089Y184295D01*
X2093083Y184185D01*
X2093081Y184074D01*
X2093081Y179106D01*
X2093083Y178995D01*
X2093089Y178885D01*
X2093099Y178774D01*
X2093113Y178664D01*
X2093130Y178555D01*
X2093152Y178446D01*
X2093177Y178338D01*
X2093207Y178232D01*
X2093240Y178126D01*
X2093277Y178021D01*
X2093317Y177918D01*
X2093362Y177817D01*
X2093409Y177717D01*
X2093461Y177618D01*
X2093516Y177522D01*
X2093574Y177428D01*
X2093635Y177336D01*
X2093700Y177246D01*
X2093768Y177158D01*
X2093839Y177073D01*
X2093913Y176991D01*
X2093990Y176911D01*
X2094070Y176834D01*
X2094152Y176760D01*
X2094237Y176689D01*
X2094325Y176621D01*
X2094415Y176556D01*
X2094507Y176495D01*
X2094601Y176437D01*
X2094697Y176382D01*
X2094796Y176330D01*
X2094896Y176283D01*
X2094997Y176238D01*
X2095100Y176198D01*
X2095205Y176161D01*
X2095311Y176128D01*
X2095417Y176098D01*
X2095525Y176073D01*
X2095634Y176051D01*
X2095743Y176034D01*
X2095853Y176020D01*
X2095964Y176010D01*
X2096074Y176004D01*
X2096185Y176002D01*
X2099290Y176002D01*
X2087479Y185936D02*
X2087479Y187178D01*
X2081270Y187178D01*
X2084374Y176002D01*
M02*
