G04 EAGLE Gerber RS-274X export*
G75*
%MOMM*%
%FSLAX34Y34*%
%LPD*%
%INTop Copper*%
%IPPOS*%
%AMOC8*
5,1,8,0,0,1.08239X$1,22.5*%
G01*
%ADD10C,1.320800*%
%ADD11P,2.749271X8X202.500000*%
%ADD12P,1.649562X8X292.500000*%
%ADD13R,1.300000X1.500000*%
%ADD14C,0.304800*%
%ADD15C,0.609600*%
%ADD16C,0.254000*%
%ADD17C,1.016000*%
%ADD18C,0.812800*%


D10*
X348717Y200401D02*
X353235Y187989D01*
X329366Y179302D02*
X324849Y191714D01*
X205508Y148277D02*
X210025Y135866D01*
X186157Y127178D02*
X181640Y139590D01*
X300981Y183026D02*
X305498Y170615D01*
X281630Y161928D02*
X277113Y174339D01*
X229376Y156964D02*
X233894Y144553D01*
X257762Y153240D02*
X253244Y165652D01*
X157772Y130902D02*
X162289Y118491D01*
X138421Y109804D02*
X133903Y122215D01*
X159965Y50611D02*
X164483Y38199D01*
X188351Y46886D02*
X183834Y59298D01*
X207702Y67985D02*
X212219Y55574D01*
X236087Y64261D02*
X231570Y76672D01*
X255438Y85360D02*
X259956Y72948D01*
X283824Y81636D02*
X279306Y94047D01*
X303175Y102734D02*
X307692Y90323D01*
X331560Y99010D02*
X327043Y111422D01*
X350911Y120109D02*
X355428Y107698D01*
X379297Y116385D02*
X374779Y128796D01*
D11*
X430000Y160000D03*
X670000Y160000D03*
X910000Y160000D03*
X1150000Y160000D03*
X1390000Y160000D03*
X1630000Y160000D03*
X1870000Y160000D03*
X2110000Y160000D03*
D12*
X38100Y173200D03*
X38100Y147800D03*
X38100Y122400D03*
X38100Y97000D03*
X38100Y71600D03*
X38100Y46200D03*
X63500Y173200D03*
X63500Y147800D03*
X63500Y122400D03*
X63500Y97000D03*
X63500Y71600D03*
X63500Y46200D03*
D13*
X43800Y196300D03*
X62800Y196300D03*
D14*
X63500Y195600D01*
D15*
X63500Y173200D01*
D16*
X50800Y160500D01*
X32839Y160500D01*
X14339Y142000D01*
X14339Y38661D02*
X29000Y24000D01*
X14339Y38661D02*
X14339Y142000D01*
X186000Y88000D02*
X317341Y136341D01*
X334000Y153000D01*
X334000Y167000D02*
X347000Y180000D01*
X347000Y190219D01*
X350976Y194195D01*
X334000Y167000D02*
X334000Y153000D01*
X171199Y73199D02*
X136162Y108236D01*
X136162Y116009D01*
X172788Y28788D02*
X168000Y24000D01*
X172788Y28788D02*
X173027Y28875D01*
X173160Y29160D01*
X178000Y34000D01*
X178000Y41164D01*
X171199Y59849D01*
X171199Y73199D01*
X168000Y24000D02*
X29000Y24000D01*
X171199Y73199D02*
X186000Y88000D01*
D17*
X38100Y173200D02*
X38100Y190600D01*
X43800Y196300D01*
X43800Y205800D01*
X55776Y217776D01*
X359224Y217776D02*
X377000Y200000D01*
X359224Y217776D02*
X55776Y217776D01*
X377000Y200000D02*
X377000Y122628D01*
D18*
X377038Y122591D01*
D14*
X38100Y147800D02*
X23000Y132700D01*
X23000Y40000D02*
X32000Y31000D01*
X148819Y31000D01*
X162224Y44405D01*
X23000Y40000D02*
X23000Y132700D01*
D16*
X114700Y195000D02*
X314000Y195000D01*
X76200Y142539D02*
X68761Y135100D01*
X50800Y135100D02*
X38100Y122400D01*
X76200Y156500D02*
X114700Y195000D01*
X68761Y135100D02*
X50800Y135100D01*
X76200Y142539D02*
X76200Y156500D01*
X314000Y195000D02*
X323492Y185508D01*
X327108Y185508D01*
X50800Y109700D02*
X38100Y97000D01*
X50800Y109700D02*
X68761Y109700D01*
X89350Y130289D01*
X89350Y149689D01*
X117961Y178300D01*
X269205Y178300D02*
X279371Y168133D01*
X269205Y178300D02*
X117961Y178300D01*
X50800Y84300D02*
X38100Y71600D01*
X50800Y84300D02*
X68761Y84300D01*
X102050Y117589D01*
X102050Y138429D01*
X124221Y160600D01*
X221794Y160600D01*
X231635Y150759D01*
X50800Y58900D02*
X38100Y46200D01*
X50800Y58900D02*
X68761Y58900D01*
X114750Y104889D01*
X114750Y132168D01*
X125582Y143000D01*
X174283Y143000D02*
X183899Y133384D01*
X174283Y143000D02*
X125582Y143000D01*
X66400Y122400D02*
X63500Y122400D01*
X66400Y122400D02*
X83000Y139000D01*
X83000Y153320D01*
X116330Y186650D01*
X293410Y186650D01*
X303240Y176821D01*
X95700Y127659D02*
X65041Y97000D01*
X63500Y97000D01*
X95700Y127659D02*
X95700Y147059D01*
X118591Y169950D01*
X244999Y169950D01*
X255503Y159446D01*
X108400Y114959D02*
X65041Y71600D01*
X63500Y71600D01*
X108400Y114959D02*
X108400Y134798D01*
X125852Y152250D01*
X197588Y152250D01*
X207767Y142071D01*
X121100Y102259D02*
X65041Y46200D01*
X63500Y46200D01*
X121100Y102259D02*
X121100Y129000D01*
X127100Y135000D01*
X152000Y135000D01*
X160030Y126970D01*
X160030Y124697D01*
M02*
