G04 EAGLE Gerber RS-274X export*
G75*
%MOMM*%
%FSLAX34Y34*%
%LPD*%
%INSilkscreen Top*%
%IPPOS*%
%AMOC8*
5,1,8,0,0,1.08239X$1,22.5*%
G01*
%ADD10C,0.228600*%
%ADD11C,0.406400*%
%ADD12C,0.152400*%
%ADD13C,0.127000*%

G36*
X1834050Y54631D02*
X1834050Y54631D01*
X1834101Y54633D01*
X1834133Y54651D01*
X1834169Y54659D01*
X1834208Y54692D01*
X1834253Y54716D01*
X1834274Y54746D01*
X1834302Y54769D01*
X1834323Y54816D01*
X1834353Y54858D01*
X1834361Y54900D01*
X1834373Y54928D01*
X1834372Y54958D01*
X1834380Y55000D01*
X1834380Y115000D01*
X1834369Y115050D01*
X1834367Y115101D01*
X1834349Y115133D01*
X1834341Y115169D01*
X1834308Y115208D01*
X1834284Y115253D01*
X1834254Y115274D01*
X1834231Y115302D01*
X1834184Y115323D01*
X1834142Y115353D01*
X1834100Y115361D01*
X1834072Y115373D01*
X1834042Y115372D01*
X1834000Y115380D01*
X1814000Y115380D01*
X1813950Y115369D01*
X1813899Y115367D01*
X1813867Y115349D01*
X1813831Y115341D01*
X1813792Y115308D01*
X1813747Y115284D01*
X1813726Y115254D01*
X1813698Y115231D01*
X1813677Y115184D01*
X1813647Y115142D01*
X1813639Y115100D01*
X1813627Y115072D01*
X1813628Y115042D01*
X1813620Y115000D01*
X1813620Y75380D01*
X1794380Y75380D01*
X1794380Y95000D01*
X1794369Y95050D01*
X1794367Y95101D01*
X1794349Y95133D01*
X1794341Y95169D01*
X1794308Y95208D01*
X1794284Y95253D01*
X1794254Y95274D01*
X1794231Y95302D01*
X1794184Y95323D01*
X1794142Y95353D01*
X1794100Y95361D01*
X1794072Y95373D01*
X1794042Y95372D01*
X1794000Y95380D01*
X1774000Y95380D01*
X1773950Y95369D01*
X1773899Y95367D01*
X1773867Y95349D01*
X1773831Y95341D01*
X1773792Y95308D01*
X1773747Y95284D01*
X1773726Y95254D01*
X1773698Y95231D01*
X1773677Y95184D01*
X1773647Y95142D01*
X1773639Y95100D01*
X1773627Y95072D01*
X1773628Y95042D01*
X1773620Y95000D01*
X1773620Y55000D01*
X1773631Y54950D01*
X1773633Y54899D01*
X1773651Y54867D01*
X1773659Y54831D01*
X1773692Y54792D01*
X1773716Y54747D01*
X1773746Y54726D01*
X1773769Y54698D01*
X1773816Y54677D01*
X1773858Y54647D01*
X1773900Y54639D01*
X1773928Y54627D01*
X1773958Y54628D01*
X1774000Y54620D01*
X1834000Y54620D01*
X1834050Y54631D01*
G37*
G36*
X1874050Y54631D02*
X1874050Y54631D01*
X1874101Y54633D01*
X1874133Y54651D01*
X1874169Y54659D01*
X1874208Y54692D01*
X1874253Y54716D01*
X1874274Y54746D01*
X1874302Y54769D01*
X1874323Y54816D01*
X1874353Y54858D01*
X1874361Y54900D01*
X1874373Y54928D01*
X1874372Y54958D01*
X1874380Y55000D01*
X1874380Y94620D01*
X1893620Y94620D01*
X1893620Y75000D01*
X1893631Y74950D01*
X1893633Y74899D01*
X1893651Y74867D01*
X1893659Y74831D01*
X1893692Y74792D01*
X1893716Y74747D01*
X1893746Y74726D01*
X1893769Y74698D01*
X1893816Y74677D01*
X1893858Y74647D01*
X1893900Y74639D01*
X1893928Y74627D01*
X1893958Y74628D01*
X1894000Y74620D01*
X1914000Y74620D01*
X1914050Y74631D01*
X1914101Y74633D01*
X1914133Y74651D01*
X1914169Y74659D01*
X1914208Y74692D01*
X1914253Y74716D01*
X1914274Y74746D01*
X1914302Y74769D01*
X1914323Y74816D01*
X1914353Y74858D01*
X1914361Y74900D01*
X1914373Y74928D01*
X1914372Y74958D01*
X1914380Y75000D01*
X1914380Y115000D01*
X1914369Y115050D01*
X1914367Y115101D01*
X1914349Y115133D01*
X1914341Y115169D01*
X1914308Y115208D01*
X1914284Y115253D01*
X1914254Y115274D01*
X1914231Y115302D01*
X1914184Y115323D01*
X1914142Y115353D01*
X1914100Y115361D01*
X1914072Y115373D01*
X1914042Y115372D01*
X1914000Y115380D01*
X1854000Y115380D01*
X1853950Y115369D01*
X1853899Y115367D01*
X1853867Y115349D01*
X1853831Y115341D01*
X1853792Y115308D01*
X1853747Y115284D01*
X1853726Y115254D01*
X1853698Y115231D01*
X1853677Y115184D01*
X1853647Y115142D01*
X1853639Y115100D01*
X1853627Y115072D01*
X1853628Y115042D01*
X1853620Y115000D01*
X1853620Y55000D01*
X1853631Y54950D01*
X1853633Y54899D01*
X1853651Y54867D01*
X1853659Y54831D01*
X1853692Y54792D01*
X1853716Y54747D01*
X1853746Y54726D01*
X1853769Y54698D01*
X1853816Y54677D01*
X1853858Y54647D01*
X1853900Y54639D01*
X1853928Y54627D01*
X1853958Y54628D01*
X1854000Y54620D01*
X1874000Y54620D01*
X1874050Y54631D01*
G37*
D10*
X15443Y181143D02*
X25857Y184614D01*
X15443Y188086D01*
X25857Y194725D02*
X25857Y197040D01*
X25857Y194725D02*
X25855Y194642D01*
X25849Y194560D01*
X25839Y194478D01*
X25826Y194396D01*
X25808Y194316D01*
X25787Y194236D01*
X25762Y194157D01*
X25733Y194080D01*
X25700Y194004D01*
X25664Y193930D01*
X25624Y193857D01*
X25581Y193786D01*
X25535Y193718D01*
X25486Y193652D01*
X25433Y193588D01*
X25377Y193527D01*
X25319Y193469D01*
X25258Y193413D01*
X25194Y193360D01*
X25128Y193311D01*
X25060Y193265D01*
X24989Y193222D01*
X24917Y193182D01*
X24842Y193146D01*
X24766Y193113D01*
X24689Y193084D01*
X24610Y193059D01*
X24530Y193038D01*
X24450Y193020D01*
X24368Y193007D01*
X24286Y192997D01*
X24204Y192991D01*
X24121Y192989D01*
X24121Y192990D02*
X20650Y192990D01*
X20650Y192989D02*
X20567Y192991D01*
X20485Y192997D01*
X20403Y193007D01*
X20321Y193020D01*
X20241Y193038D01*
X20161Y193059D01*
X20082Y193084D01*
X20005Y193113D01*
X19929Y193146D01*
X19855Y193182D01*
X19782Y193222D01*
X19711Y193265D01*
X19643Y193311D01*
X19577Y193360D01*
X19513Y193413D01*
X19452Y193469D01*
X19394Y193527D01*
X19338Y193588D01*
X19285Y193652D01*
X19236Y193718D01*
X19190Y193786D01*
X19147Y193857D01*
X19107Y193930D01*
X19071Y194004D01*
X19038Y194080D01*
X19009Y194157D01*
X18984Y194236D01*
X18963Y194316D01*
X18945Y194396D01*
X18932Y194478D01*
X18922Y194560D01*
X18916Y194642D01*
X18914Y194725D01*
X18914Y197040D01*
X25857Y203488D02*
X25857Y205803D01*
X25857Y203488D02*
X25855Y203405D01*
X25849Y203323D01*
X25839Y203241D01*
X25826Y203159D01*
X25808Y203079D01*
X25787Y202999D01*
X25762Y202920D01*
X25733Y202843D01*
X25700Y202767D01*
X25664Y202693D01*
X25624Y202620D01*
X25581Y202549D01*
X25535Y202481D01*
X25486Y202415D01*
X25433Y202351D01*
X25377Y202290D01*
X25319Y202232D01*
X25258Y202176D01*
X25194Y202123D01*
X25128Y202074D01*
X25060Y202028D01*
X24989Y201985D01*
X24917Y201945D01*
X24842Y201909D01*
X24766Y201876D01*
X24689Y201847D01*
X24610Y201822D01*
X24530Y201801D01*
X24450Y201783D01*
X24368Y201770D01*
X24286Y201760D01*
X24204Y201754D01*
X24121Y201752D01*
X24121Y201753D02*
X20650Y201753D01*
X20650Y201752D02*
X20567Y201754D01*
X20485Y201760D01*
X20403Y201770D01*
X20321Y201783D01*
X20241Y201801D01*
X20161Y201822D01*
X20082Y201847D01*
X20005Y201876D01*
X19929Y201909D01*
X19855Y201945D01*
X19782Y201985D01*
X19711Y202028D01*
X19643Y202074D01*
X19577Y202123D01*
X19513Y202176D01*
X19452Y202232D01*
X19394Y202290D01*
X19338Y202351D01*
X19285Y202415D01*
X19236Y202481D01*
X19190Y202549D01*
X19147Y202620D01*
X19107Y202693D01*
X19071Y202767D01*
X19038Y202843D01*
X19009Y202920D01*
X18984Y202999D01*
X18963Y203079D01*
X18945Y203159D01*
X18932Y203241D01*
X18922Y203323D01*
X18916Y203405D01*
X18914Y203488D01*
X18914Y205803D01*
D11*
X462032Y162700D02*
X462037Y163120D01*
X462052Y163539D01*
X462077Y163958D01*
X462112Y164376D01*
X462157Y164794D01*
X462212Y165210D01*
X462277Y165625D01*
X462352Y166038D01*
X462436Y166449D01*
X462531Y166858D01*
X462635Y167264D01*
X462749Y167668D01*
X462872Y168070D01*
X463005Y168468D01*
X463147Y168862D01*
X463299Y169254D01*
X463460Y169641D01*
X463631Y170025D01*
X463810Y170405D01*
X463810Y170404D02*
X463854Y170526D01*
X463901Y170647D01*
X463952Y170766D01*
X464007Y170884D01*
X464065Y170999D01*
X464126Y171114D01*
X464190Y171226D01*
X464258Y171336D01*
X464329Y171444D01*
X464404Y171551D01*
X464481Y171654D01*
X464562Y171756D01*
X464645Y171855D01*
X464731Y171952D01*
X464820Y172046D01*
X464912Y172137D01*
X465007Y172226D01*
X465104Y172311D01*
X465203Y172394D01*
X465305Y172474D01*
X465410Y172551D01*
X465516Y172625D01*
X465625Y172695D01*
X465736Y172763D01*
X465848Y172827D01*
X465963Y172887D01*
X466079Y172945D01*
X466197Y172998D01*
X466316Y173049D01*
X466437Y173095D01*
X466559Y173139D01*
X466682Y173178D01*
X466807Y173214D01*
X466932Y173246D01*
X467059Y173275D01*
X467186Y173299D01*
X467314Y173320D01*
X467442Y173337D01*
X467571Y173351D01*
X467700Y173360D01*
X467829Y173366D01*
X467959Y173368D01*
X468089Y173366D01*
X468218Y173360D01*
X468347Y173351D01*
X468476Y173337D01*
X468604Y173320D01*
X468732Y173299D01*
X468859Y173275D01*
X468986Y173246D01*
X469111Y173214D01*
X469236Y173178D01*
X469359Y173139D01*
X469481Y173095D01*
X469602Y173049D01*
X469721Y172998D01*
X469839Y172945D01*
X469955Y172887D01*
X470070Y172827D01*
X470182Y172763D01*
X470293Y172695D01*
X470402Y172625D01*
X470508Y172551D01*
X470613Y172474D01*
X470715Y172394D01*
X470814Y172311D01*
X470911Y172226D01*
X471006Y172137D01*
X471098Y172046D01*
X471187Y171952D01*
X471273Y171855D01*
X471356Y171756D01*
X471437Y171654D01*
X471514Y171551D01*
X471589Y171444D01*
X471660Y171336D01*
X471728Y171226D01*
X471792Y171114D01*
X471853Y170999D01*
X471911Y170884D01*
X471966Y170766D01*
X472017Y170647D01*
X472064Y170526D01*
X472108Y170404D01*
X472107Y170405D02*
X472286Y170025D01*
X472457Y169641D01*
X472618Y169254D01*
X472770Y168862D01*
X472912Y168468D01*
X473045Y168070D01*
X473168Y167668D01*
X473282Y167264D01*
X473386Y166858D01*
X473481Y166449D01*
X473565Y166038D01*
X473640Y165625D01*
X473705Y165210D01*
X473760Y164794D01*
X473805Y164376D01*
X473840Y163958D01*
X473865Y163539D01*
X473880Y163120D01*
X473885Y162700D01*
X462032Y162700D02*
X462037Y162280D01*
X462052Y161861D01*
X462077Y161442D01*
X462112Y161023D01*
X462157Y160606D01*
X462212Y160190D01*
X462277Y159775D01*
X462352Y159362D01*
X462436Y158951D01*
X462531Y158542D01*
X462635Y158135D01*
X462749Y157731D01*
X462872Y157330D01*
X463005Y156932D01*
X463147Y156537D01*
X463299Y156146D01*
X463460Y155758D01*
X463631Y155375D01*
X463810Y154995D01*
X463854Y154874D01*
X463901Y154753D01*
X463952Y154634D01*
X464007Y154516D01*
X464065Y154400D01*
X464126Y154286D01*
X464190Y154174D01*
X464258Y154064D01*
X464330Y153956D01*
X464404Y153849D01*
X464481Y153746D01*
X464562Y153644D01*
X464645Y153545D01*
X464731Y153448D01*
X464820Y153354D01*
X464912Y153263D01*
X465007Y153174D01*
X465104Y153089D01*
X465203Y153006D01*
X465305Y152926D01*
X465410Y152849D01*
X465516Y152775D01*
X465625Y152705D01*
X465736Y152637D01*
X465848Y152573D01*
X465963Y152513D01*
X466079Y152455D01*
X466197Y152402D01*
X466316Y152351D01*
X466437Y152305D01*
X466559Y152261D01*
X466682Y152222D01*
X466807Y152186D01*
X466932Y152154D01*
X467059Y152125D01*
X467186Y152101D01*
X467314Y152080D01*
X467442Y152063D01*
X467571Y152049D01*
X467700Y152040D01*
X467829Y152034D01*
X467959Y152032D01*
X472108Y154995D02*
X472287Y155375D01*
X472458Y155758D01*
X472619Y156146D01*
X472771Y156537D01*
X472913Y156932D01*
X473046Y157330D01*
X473169Y157731D01*
X473283Y158135D01*
X473387Y158542D01*
X473482Y158951D01*
X473566Y159362D01*
X473641Y159775D01*
X473706Y160190D01*
X473761Y160606D01*
X473806Y161023D01*
X473841Y161442D01*
X473866Y161861D01*
X473881Y162280D01*
X473886Y162700D01*
X472108Y154996D02*
X472064Y154874D01*
X472017Y154753D01*
X471966Y154634D01*
X471911Y154516D01*
X471853Y154401D01*
X471792Y154286D01*
X471728Y154174D01*
X471660Y154064D01*
X471589Y153956D01*
X471514Y153849D01*
X471437Y153746D01*
X471356Y153644D01*
X471273Y153545D01*
X471187Y153448D01*
X471098Y153354D01*
X471006Y153263D01*
X470911Y153174D01*
X470814Y153089D01*
X470715Y153006D01*
X470613Y152926D01*
X470508Y152849D01*
X470402Y152775D01*
X470293Y152705D01*
X470182Y152637D01*
X470070Y152573D01*
X469955Y152513D01*
X469839Y152455D01*
X469721Y152402D01*
X469602Y152351D01*
X469481Y152305D01*
X469359Y152261D01*
X469236Y152222D01*
X469111Y152186D01*
X468986Y152154D01*
X468859Y152125D01*
X468732Y152101D01*
X468604Y152080D01*
X468476Y152063D01*
X468347Y152049D01*
X468218Y152040D01*
X468089Y152034D01*
X467959Y152032D01*
X463217Y156773D02*
X472700Y168627D01*
X702032Y168627D02*
X707959Y173368D01*
X707959Y152032D01*
X713885Y152032D02*
X702032Y152032D01*
X948551Y173368D02*
X948695Y173366D01*
X948840Y173360D01*
X948984Y173350D01*
X949128Y173337D01*
X949271Y173319D01*
X949414Y173298D01*
X949556Y173272D01*
X949698Y173243D01*
X949838Y173210D01*
X949978Y173174D01*
X950117Y173133D01*
X950254Y173089D01*
X950390Y173041D01*
X950525Y172989D01*
X950659Y172934D01*
X950791Y172875D01*
X950921Y172813D01*
X951049Y172747D01*
X951176Y172677D01*
X951301Y172604D01*
X951424Y172528D01*
X951544Y172449D01*
X951663Y172366D01*
X951779Y172280D01*
X951893Y172191D01*
X952004Y172099D01*
X952113Y172004D01*
X952219Y171906D01*
X952323Y171806D01*
X952423Y171702D01*
X952521Y171596D01*
X952616Y171487D01*
X952708Y171376D01*
X952797Y171262D01*
X952883Y171146D01*
X952966Y171027D01*
X953045Y170907D01*
X953121Y170784D01*
X953194Y170659D01*
X953264Y170532D01*
X953330Y170404D01*
X953392Y170274D01*
X953451Y170142D01*
X953506Y170008D01*
X953558Y169873D01*
X953606Y169737D01*
X953650Y169600D01*
X953691Y169461D01*
X953727Y169321D01*
X953760Y169181D01*
X953789Y169039D01*
X953815Y168897D01*
X953836Y168754D01*
X953854Y168611D01*
X953867Y168467D01*
X953877Y168323D01*
X953883Y168178D01*
X953885Y168034D01*
X948551Y173368D02*
X948385Y173366D01*
X948220Y173360D01*
X948054Y173350D01*
X947889Y173336D01*
X947724Y173318D01*
X947560Y173296D01*
X947396Y173270D01*
X947233Y173240D01*
X947071Y173206D01*
X946910Y173169D01*
X946749Y173127D01*
X946590Y173081D01*
X946432Y173032D01*
X946275Y172979D01*
X946119Y172922D01*
X945965Y172861D01*
X945812Y172797D01*
X945661Y172729D01*
X945512Y172657D01*
X945364Y172582D01*
X945218Y172503D01*
X945074Y172421D01*
X944933Y172335D01*
X944793Y172246D01*
X944655Y172153D01*
X944520Y172057D01*
X944387Y171958D01*
X944257Y171856D01*
X944129Y171750D01*
X944004Y171642D01*
X943881Y171531D01*
X943761Y171416D01*
X943644Y171299D01*
X943530Y171179D01*
X943419Y171056D01*
X943310Y170931D01*
X943205Y170803D01*
X943103Y170672D01*
X943004Y170539D01*
X942908Y170404D01*
X942816Y170266D01*
X942727Y170126D01*
X942641Y169985D01*
X942559Y169841D01*
X942480Y169695D01*
X942405Y169547D01*
X942334Y169397D01*
X942266Y169246D01*
X942202Y169093D01*
X942141Y168939D01*
X942084Y168783D01*
X942031Y168626D01*
X952107Y163885D02*
X952214Y163990D01*
X952318Y164097D01*
X952420Y164207D01*
X952518Y164320D01*
X952614Y164435D01*
X952706Y164553D01*
X952796Y164673D01*
X952882Y164795D01*
X952965Y164920D01*
X953044Y165047D01*
X953121Y165175D01*
X953194Y165306D01*
X953263Y165438D01*
X953329Y165573D01*
X953392Y165709D01*
X953451Y165846D01*
X953506Y165985D01*
X953558Y166126D01*
X953606Y166267D01*
X953650Y166410D01*
X953691Y166554D01*
X953727Y166699D01*
X953760Y166845D01*
X953789Y166992D01*
X953815Y167140D01*
X953836Y167288D01*
X953854Y167436D01*
X953867Y167586D01*
X953877Y167735D01*
X953883Y167884D01*
X953885Y168034D01*
X952107Y163885D02*
X942032Y152032D01*
X953885Y152032D01*
X1182032Y152032D02*
X1187959Y152032D01*
X1188112Y152034D01*
X1188264Y152040D01*
X1188416Y152050D01*
X1188568Y152063D01*
X1188720Y152081D01*
X1188871Y152103D01*
X1189022Y152128D01*
X1189171Y152157D01*
X1189320Y152190D01*
X1189468Y152227D01*
X1189616Y152268D01*
X1189761Y152313D01*
X1189906Y152361D01*
X1190050Y152413D01*
X1190192Y152469D01*
X1190332Y152528D01*
X1190472Y152591D01*
X1190609Y152657D01*
X1190745Y152727D01*
X1190878Y152801D01*
X1191010Y152878D01*
X1191140Y152958D01*
X1191268Y153042D01*
X1191393Y153128D01*
X1191516Y153218D01*
X1191637Y153312D01*
X1191756Y153408D01*
X1191872Y153507D01*
X1191985Y153609D01*
X1192096Y153714D01*
X1192204Y153822D01*
X1192309Y153933D01*
X1192411Y154046D01*
X1192510Y154162D01*
X1192606Y154281D01*
X1192700Y154402D01*
X1192790Y154525D01*
X1192876Y154650D01*
X1192960Y154778D01*
X1193040Y154908D01*
X1193117Y155040D01*
X1193191Y155173D01*
X1193261Y155309D01*
X1193327Y155446D01*
X1193390Y155586D01*
X1193449Y155726D01*
X1193505Y155868D01*
X1193557Y156012D01*
X1193605Y156157D01*
X1193650Y156302D01*
X1193691Y156450D01*
X1193728Y156598D01*
X1193761Y156747D01*
X1193790Y156896D01*
X1193815Y157047D01*
X1193837Y157198D01*
X1193855Y157350D01*
X1193868Y157502D01*
X1193878Y157654D01*
X1193884Y157806D01*
X1193886Y157959D01*
X1193884Y158112D01*
X1193878Y158264D01*
X1193868Y158416D01*
X1193855Y158568D01*
X1193837Y158720D01*
X1193815Y158871D01*
X1193790Y159022D01*
X1193761Y159171D01*
X1193728Y159320D01*
X1193691Y159468D01*
X1193650Y159616D01*
X1193605Y159761D01*
X1193557Y159906D01*
X1193505Y160050D01*
X1193449Y160192D01*
X1193390Y160332D01*
X1193327Y160472D01*
X1193261Y160609D01*
X1193191Y160745D01*
X1193117Y160878D01*
X1193040Y161010D01*
X1192960Y161140D01*
X1192876Y161268D01*
X1192790Y161393D01*
X1192700Y161516D01*
X1192606Y161637D01*
X1192510Y161756D01*
X1192411Y161872D01*
X1192309Y161985D01*
X1192204Y162096D01*
X1192096Y162204D01*
X1191985Y162309D01*
X1191872Y162411D01*
X1191756Y162510D01*
X1191637Y162606D01*
X1191516Y162700D01*
X1191393Y162790D01*
X1191268Y162876D01*
X1191140Y162960D01*
X1191010Y163040D01*
X1190878Y163117D01*
X1190745Y163191D01*
X1190609Y163261D01*
X1190472Y163327D01*
X1190332Y163390D01*
X1190192Y163449D01*
X1190050Y163505D01*
X1189906Y163557D01*
X1189761Y163605D01*
X1189616Y163650D01*
X1189468Y163691D01*
X1189320Y163728D01*
X1189171Y163761D01*
X1189022Y163790D01*
X1188871Y163815D01*
X1188720Y163837D01*
X1188568Y163855D01*
X1188416Y163868D01*
X1188264Y163878D01*
X1188112Y163884D01*
X1187959Y163886D01*
X1189144Y173368D02*
X1182032Y173368D01*
X1189144Y173368D02*
X1189281Y173366D01*
X1189417Y173360D01*
X1189553Y173350D01*
X1189689Y173337D01*
X1189825Y173319D01*
X1189960Y173297D01*
X1190094Y173272D01*
X1190227Y173243D01*
X1190360Y173209D01*
X1190492Y173172D01*
X1190622Y173132D01*
X1190751Y173087D01*
X1190879Y173039D01*
X1191006Y172987D01*
X1191130Y172932D01*
X1191254Y172873D01*
X1191375Y172810D01*
X1191495Y172744D01*
X1191612Y172675D01*
X1191728Y172602D01*
X1191842Y172526D01*
X1191953Y172446D01*
X1192062Y172364D01*
X1192168Y172278D01*
X1192272Y172190D01*
X1192373Y172098D01*
X1192472Y172003D01*
X1192568Y171906D01*
X1192661Y171806D01*
X1192751Y171703D01*
X1192838Y171598D01*
X1192923Y171491D01*
X1193004Y171380D01*
X1193081Y171268D01*
X1193156Y171153D01*
X1193227Y171037D01*
X1193295Y170918D01*
X1193359Y170798D01*
X1193420Y170675D01*
X1193477Y170551D01*
X1193531Y170426D01*
X1193581Y170298D01*
X1193627Y170170D01*
X1193670Y170040D01*
X1193708Y169909D01*
X1193743Y169777D01*
X1193775Y169644D01*
X1193802Y169510D01*
X1193826Y169375D01*
X1193845Y169240D01*
X1193861Y169104D01*
X1193873Y168968D01*
X1193881Y168832D01*
X1193885Y168695D01*
X1193885Y168559D01*
X1193881Y168422D01*
X1193873Y168286D01*
X1193861Y168150D01*
X1193845Y168014D01*
X1193826Y167879D01*
X1193802Y167744D01*
X1193775Y167610D01*
X1193743Y167477D01*
X1193708Y167345D01*
X1193670Y167214D01*
X1193627Y167084D01*
X1193581Y166956D01*
X1193531Y166828D01*
X1193477Y166703D01*
X1193420Y166579D01*
X1193359Y166456D01*
X1193295Y166336D01*
X1193227Y166217D01*
X1193156Y166101D01*
X1193081Y165986D01*
X1193004Y165874D01*
X1192923Y165763D01*
X1192838Y165656D01*
X1192751Y165551D01*
X1192661Y165448D01*
X1192568Y165348D01*
X1192472Y165251D01*
X1192373Y165156D01*
X1192272Y165064D01*
X1192168Y164976D01*
X1192062Y164890D01*
X1191953Y164808D01*
X1191842Y164728D01*
X1191728Y164652D01*
X1191612Y164579D01*
X1191495Y164510D01*
X1191375Y164444D01*
X1191254Y164381D01*
X1191130Y164322D01*
X1191006Y164267D01*
X1190879Y164215D01*
X1190751Y164167D01*
X1190622Y164122D01*
X1190492Y164082D01*
X1190360Y164045D01*
X1190227Y164011D01*
X1190094Y163982D01*
X1189960Y163957D01*
X1189825Y163935D01*
X1189689Y163917D01*
X1189553Y163904D01*
X1189417Y163894D01*
X1189281Y163888D01*
X1189144Y163886D01*
X1189144Y163885D02*
X1184403Y163885D01*
X1422032Y156773D02*
X1426773Y173368D01*
X1422032Y156773D02*
X1433885Y156773D01*
X1430329Y152032D02*
X1430329Y161515D01*
X1662032Y152032D02*
X1669144Y152032D01*
X1669279Y152034D01*
X1669415Y152040D01*
X1669550Y152049D01*
X1669684Y152063D01*
X1669819Y152080D01*
X1669952Y152101D01*
X1670086Y152126D01*
X1670218Y152155D01*
X1670349Y152188D01*
X1670480Y152224D01*
X1670609Y152264D01*
X1670737Y152308D01*
X1670864Y152355D01*
X1670990Y152406D01*
X1671113Y152460D01*
X1671236Y152518D01*
X1671356Y152580D01*
X1671475Y152645D01*
X1671592Y152713D01*
X1671707Y152785D01*
X1671820Y152859D01*
X1671931Y152937D01*
X1672039Y153019D01*
X1672145Y153103D01*
X1672249Y153190D01*
X1672350Y153280D01*
X1672448Y153373D01*
X1672544Y153469D01*
X1672637Y153567D01*
X1672727Y153668D01*
X1672814Y153772D01*
X1672898Y153878D01*
X1672980Y153986D01*
X1673058Y154097D01*
X1673132Y154210D01*
X1673204Y154325D01*
X1673272Y154442D01*
X1673337Y154561D01*
X1673399Y154681D01*
X1673457Y154804D01*
X1673511Y154927D01*
X1673562Y155053D01*
X1673609Y155180D01*
X1673653Y155308D01*
X1673693Y155437D01*
X1673729Y155568D01*
X1673762Y155699D01*
X1673791Y155831D01*
X1673816Y155965D01*
X1673837Y156098D01*
X1673854Y156233D01*
X1673868Y156367D01*
X1673877Y156502D01*
X1673883Y156638D01*
X1673885Y156773D01*
X1673885Y159144D01*
X1673883Y159279D01*
X1673877Y159415D01*
X1673868Y159550D01*
X1673854Y159684D01*
X1673837Y159819D01*
X1673816Y159952D01*
X1673791Y160086D01*
X1673762Y160218D01*
X1673729Y160349D01*
X1673693Y160480D01*
X1673653Y160609D01*
X1673609Y160737D01*
X1673562Y160864D01*
X1673511Y160990D01*
X1673457Y161113D01*
X1673399Y161236D01*
X1673337Y161356D01*
X1673272Y161475D01*
X1673204Y161592D01*
X1673132Y161707D01*
X1673058Y161820D01*
X1672980Y161931D01*
X1672898Y162039D01*
X1672814Y162145D01*
X1672727Y162249D01*
X1672637Y162350D01*
X1672544Y162448D01*
X1672448Y162544D01*
X1672350Y162637D01*
X1672249Y162727D01*
X1672145Y162814D01*
X1672039Y162898D01*
X1671931Y162980D01*
X1671820Y163058D01*
X1671707Y163132D01*
X1671592Y163204D01*
X1671475Y163272D01*
X1671356Y163337D01*
X1671236Y163399D01*
X1671113Y163457D01*
X1670990Y163511D01*
X1670864Y163562D01*
X1670737Y163609D01*
X1670609Y163653D01*
X1670480Y163693D01*
X1670349Y163729D01*
X1670218Y163762D01*
X1670086Y163791D01*
X1669952Y163816D01*
X1669819Y163837D01*
X1669684Y163854D01*
X1669550Y163868D01*
X1669415Y163877D01*
X1669279Y163883D01*
X1669144Y163885D01*
X1662032Y163885D01*
X1662032Y173368D01*
X1673885Y173368D01*
X1902032Y163885D02*
X1909144Y163885D01*
X1909279Y163883D01*
X1909415Y163877D01*
X1909550Y163868D01*
X1909684Y163854D01*
X1909819Y163837D01*
X1909952Y163816D01*
X1910086Y163791D01*
X1910218Y163762D01*
X1910349Y163729D01*
X1910480Y163693D01*
X1910609Y163653D01*
X1910737Y163609D01*
X1910864Y163562D01*
X1910990Y163511D01*
X1911113Y163457D01*
X1911236Y163399D01*
X1911356Y163337D01*
X1911475Y163272D01*
X1911592Y163204D01*
X1911707Y163132D01*
X1911820Y163058D01*
X1911931Y162980D01*
X1912039Y162898D01*
X1912145Y162814D01*
X1912249Y162727D01*
X1912350Y162637D01*
X1912448Y162544D01*
X1912544Y162448D01*
X1912637Y162350D01*
X1912727Y162249D01*
X1912814Y162145D01*
X1912898Y162039D01*
X1912980Y161931D01*
X1913058Y161820D01*
X1913132Y161707D01*
X1913204Y161592D01*
X1913272Y161475D01*
X1913337Y161356D01*
X1913399Y161236D01*
X1913457Y161113D01*
X1913511Y160990D01*
X1913562Y160864D01*
X1913609Y160737D01*
X1913653Y160609D01*
X1913693Y160480D01*
X1913729Y160349D01*
X1913762Y160218D01*
X1913791Y160086D01*
X1913816Y159952D01*
X1913837Y159819D01*
X1913854Y159684D01*
X1913868Y159550D01*
X1913877Y159415D01*
X1913883Y159279D01*
X1913885Y159144D01*
X1913885Y157959D01*
X1913886Y157959D02*
X1913884Y157806D01*
X1913878Y157654D01*
X1913868Y157502D01*
X1913855Y157350D01*
X1913837Y157198D01*
X1913815Y157047D01*
X1913790Y156896D01*
X1913761Y156747D01*
X1913728Y156598D01*
X1913691Y156450D01*
X1913650Y156302D01*
X1913605Y156157D01*
X1913557Y156012D01*
X1913505Y155868D01*
X1913449Y155726D01*
X1913390Y155586D01*
X1913327Y155446D01*
X1913261Y155309D01*
X1913191Y155173D01*
X1913117Y155040D01*
X1913040Y154908D01*
X1912960Y154778D01*
X1912876Y154650D01*
X1912790Y154525D01*
X1912700Y154402D01*
X1912606Y154281D01*
X1912510Y154162D01*
X1912411Y154046D01*
X1912309Y153933D01*
X1912204Y153822D01*
X1912096Y153714D01*
X1911985Y153609D01*
X1911872Y153507D01*
X1911756Y153408D01*
X1911637Y153312D01*
X1911516Y153218D01*
X1911393Y153128D01*
X1911268Y153042D01*
X1911140Y152958D01*
X1911010Y152878D01*
X1910878Y152801D01*
X1910745Y152727D01*
X1910609Y152657D01*
X1910472Y152591D01*
X1910332Y152528D01*
X1910192Y152469D01*
X1910050Y152413D01*
X1909906Y152361D01*
X1909761Y152313D01*
X1909616Y152268D01*
X1909468Y152227D01*
X1909320Y152190D01*
X1909171Y152157D01*
X1909022Y152128D01*
X1908871Y152103D01*
X1908720Y152081D01*
X1908568Y152063D01*
X1908416Y152050D01*
X1908264Y152040D01*
X1908112Y152034D01*
X1907959Y152032D01*
X1907806Y152034D01*
X1907654Y152040D01*
X1907502Y152050D01*
X1907350Y152063D01*
X1907198Y152081D01*
X1907047Y152103D01*
X1906896Y152128D01*
X1906747Y152157D01*
X1906598Y152190D01*
X1906450Y152227D01*
X1906302Y152268D01*
X1906157Y152313D01*
X1906012Y152361D01*
X1905868Y152413D01*
X1905726Y152469D01*
X1905586Y152528D01*
X1905446Y152591D01*
X1905309Y152657D01*
X1905173Y152727D01*
X1905040Y152801D01*
X1904908Y152878D01*
X1904778Y152958D01*
X1904650Y153042D01*
X1904525Y153128D01*
X1904402Y153218D01*
X1904281Y153312D01*
X1904162Y153408D01*
X1904046Y153507D01*
X1903933Y153609D01*
X1903822Y153714D01*
X1903714Y153822D01*
X1903609Y153933D01*
X1903507Y154046D01*
X1903408Y154162D01*
X1903312Y154281D01*
X1903218Y154402D01*
X1903128Y154525D01*
X1903042Y154650D01*
X1902958Y154778D01*
X1902878Y154908D01*
X1902801Y155040D01*
X1902727Y155173D01*
X1902657Y155309D01*
X1902591Y155446D01*
X1902528Y155586D01*
X1902469Y155726D01*
X1902413Y155868D01*
X1902361Y156012D01*
X1902313Y156157D01*
X1902268Y156302D01*
X1902227Y156450D01*
X1902190Y156598D01*
X1902157Y156747D01*
X1902128Y156896D01*
X1902103Y157047D01*
X1902081Y157198D01*
X1902063Y157350D01*
X1902050Y157502D01*
X1902040Y157654D01*
X1902034Y157806D01*
X1902032Y157959D01*
X1902032Y163885D01*
X1902035Y164118D01*
X1902043Y164350D01*
X1902058Y164583D01*
X1902078Y164814D01*
X1902103Y165046D01*
X1902135Y165276D01*
X1902172Y165506D01*
X1902214Y165735D01*
X1902262Y165963D01*
X1902316Y166189D01*
X1902376Y166414D01*
X1902440Y166638D01*
X1902511Y166860D01*
X1902586Y167080D01*
X1902667Y167298D01*
X1902754Y167514D01*
X1902846Y167728D01*
X1902942Y167939D01*
X1903045Y168149D01*
X1903152Y168355D01*
X1903264Y168559D01*
X1903381Y168760D01*
X1903503Y168958D01*
X1903630Y169153D01*
X1903762Y169345D01*
X1903898Y169534D01*
X1904039Y169719D01*
X1904185Y169901D01*
X1904334Y170079D01*
X1904489Y170253D01*
X1904647Y170424D01*
X1904809Y170590D01*
X1904976Y170753D01*
X1905147Y170911D01*
X1905321Y171066D01*
X1905499Y171215D01*
X1905681Y171361D01*
X1905866Y171502D01*
X1906055Y171638D01*
X1906247Y171770D01*
X1906442Y171897D01*
X1906640Y172019D01*
X1906841Y172136D01*
X1907045Y172248D01*
X1907251Y172355D01*
X1907460Y172458D01*
X1907672Y172554D01*
X1907886Y172646D01*
X1908102Y172733D01*
X1908320Y172814D01*
X1908540Y172889D01*
X1908762Y172960D01*
X1908986Y173024D01*
X1909211Y173084D01*
X1909437Y173138D01*
X1909665Y173186D01*
X1909894Y173228D01*
X1910124Y173265D01*
X1910354Y173297D01*
X1910585Y173322D01*
X1910817Y173342D01*
X1911050Y173357D01*
X1911282Y173365D01*
X1911515Y173368D01*
X2142032Y173368D02*
X2142032Y170997D01*
X2142032Y173368D02*
X2153885Y173368D01*
X2147959Y152032D01*
D10*
X76600Y28643D02*
X75443Y28643D01*
X75443Y34429D01*
X85857Y31536D01*
X84071Y187193D02*
X84071Y188929D01*
X89857Y188929D01*
X89857Y185457D01*
X89855Y185361D01*
X89849Y185266D01*
X89839Y185171D01*
X89825Y185076D01*
X89808Y184982D01*
X89786Y184889D01*
X89761Y184797D01*
X89732Y184706D01*
X89699Y184616D01*
X89662Y184527D01*
X89622Y184441D01*
X89578Y184356D01*
X89531Y184273D01*
X89480Y184191D01*
X89426Y184112D01*
X89369Y184036D01*
X89309Y183961D01*
X89245Y183890D01*
X89179Y183821D01*
X89110Y183755D01*
X89039Y183691D01*
X88964Y183631D01*
X88888Y183574D01*
X88809Y183520D01*
X88728Y183469D01*
X88644Y183422D01*
X88559Y183378D01*
X88473Y183338D01*
X88384Y183301D01*
X88294Y183268D01*
X88203Y183239D01*
X88111Y183214D01*
X88018Y183192D01*
X87924Y183175D01*
X87829Y183161D01*
X87734Y183151D01*
X87639Y183145D01*
X87543Y183143D01*
X81757Y183143D01*
X81661Y183145D01*
X81566Y183151D01*
X81471Y183161D01*
X81376Y183175D01*
X81282Y183192D01*
X81189Y183214D01*
X81097Y183239D01*
X81006Y183268D01*
X80916Y183301D01*
X80827Y183338D01*
X80741Y183378D01*
X80656Y183422D01*
X80573Y183469D01*
X80491Y183520D01*
X80412Y183574D01*
X80336Y183631D01*
X80261Y183691D01*
X80190Y183755D01*
X80121Y183821D01*
X80055Y183890D01*
X79991Y183961D01*
X79931Y184036D01*
X79874Y184112D01*
X79820Y184191D01*
X79769Y184272D01*
X79722Y184356D01*
X79678Y184441D01*
X79638Y184527D01*
X79601Y184616D01*
X79568Y184706D01*
X79539Y184797D01*
X79514Y184889D01*
X79492Y184982D01*
X79475Y185076D01*
X79461Y185171D01*
X79451Y185266D01*
X79445Y185361D01*
X79443Y185457D01*
X79443Y188929D01*
X79443Y195335D02*
X89857Y195335D01*
X89857Y201121D02*
X79443Y195335D01*
X79443Y201121D02*
X89857Y201121D01*
X89857Y207527D02*
X79443Y207527D01*
X79443Y210420D01*
X79445Y210526D01*
X79451Y210631D01*
X79460Y210736D01*
X79474Y210841D01*
X79491Y210945D01*
X79512Y211049D01*
X79537Y211152D01*
X79566Y211253D01*
X79598Y211354D01*
X79634Y211453D01*
X79673Y211551D01*
X79717Y211648D01*
X79763Y211743D01*
X79813Y211836D01*
X79867Y211927D01*
X79923Y212016D01*
X79983Y212103D01*
X80046Y212188D01*
X80112Y212271D01*
X80181Y212351D01*
X80253Y212428D01*
X80328Y212503D01*
X80405Y212575D01*
X80485Y212644D01*
X80568Y212710D01*
X80653Y212773D01*
X80740Y212833D01*
X80829Y212889D01*
X80920Y212943D01*
X81013Y212993D01*
X81108Y213039D01*
X81205Y213083D01*
X81303Y213122D01*
X81402Y213158D01*
X81503Y213190D01*
X81604Y213219D01*
X81707Y213244D01*
X81811Y213265D01*
X81915Y213282D01*
X82020Y213296D01*
X82125Y213305D01*
X82230Y213311D01*
X82336Y213313D01*
X82336Y213312D02*
X86964Y213312D01*
X86964Y213313D02*
X87070Y213311D01*
X87175Y213305D01*
X87280Y213296D01*
X87385Y213282D01*
X87489Y213265D01*
X87593Y213244D01*
X87696Y213219D01*
X87797Y213190D01*
X87898Y213158D01*
X87997Y213122D01*
X88095Y213083D01*
X88192Y213039D01*
X88287Y212993D01*
X88380Y212943D01*
X88471Y212889D01*
X88560Y212833D01*
X88647Y212773D01*
X88732Y212710D01*
X88815Y212644D01*
X88895Y212575D01*
X88972Y212503D01*
X89047Y212428D01*
X89119Y212351D01*
X89188Y212271D01*
X89254Y212188D01*
X89317Y212103D01*
X89377Y212016D01*
X89433Y211927D01*
X89487Y211836D01*
X89537Y211743D01*
X89583Y211648D01*
X89627Y211551D01*
X89666Y211453D01*
X89702Y211354D01*
X89734Y211253D01*
X89763Y211152D01*
X89788Y211049D01*
X89809Y210945D01*
X89826Y210841D01*
X89840Y210736D01*
X89849Y210631D01*
X89855Y210526D01*
X89857Y210420D01*
X89857Y207527D01*
X17150Y118643D02*
X16945Y118645D01*
X16740Y118653D01*
X16536Y118665D01*
X16332Y118682D01*
X16128Y118704D01*
X15925Y118731D01*
X15723Y118763D01*
X15521Y118799D01*
X15320Y118840D01*
X15121Y118886D01*
X14922Y118937D01*
X14725Y118993D01*
X14529Y119053D01*
X14335Y119118D01*
X14142Y119187D01*
X13951Y119261D01*
X13762Y119340D01*
X13575Y119423D01*
X13389Y119511D01*
X13390Y119511D02*
X13304Y119542D01*
X13219Y119577D01*
X13136Y119616D01*
X13055Y119659D01*
X12976Y119704D01*
X12898Y119753D01*
X12823Y119806D01*
X12750Y119861D01*
X12680Y119920D01*
X12612Y119981D01*
X12547Y120046D01*
X12485Y120113D01*
X12425Y120182D01*
X12369Y120255D01*
X12316Y120329D01*
X12266Y120406D01*
X12219Y120485D01*
X12176Y120565D01*
X12136Y120648D01*
X12100Y120732D01*
X12067Y120818D01*
X12038Y120904D01*
X12013Y120993D01*
X11992Y121082D01*
X11974Y121171D01*
X11961Y121262D01*
X11951Y121353D01*
X11945Y121444D01*
X11943Y121536D01*
X11945Y121628D01*
X11951Y121719D01*
X11961Y121810D01*
X11974Y121901D01*
X11992Y121990D01*
X12013Y122079D01*
X12038Y122168D01*
X12067Y122254D01*
X12100Y122340D01*
X12136Y122424D01*
X12176Y122507D01*
X12219Y122587D01*
X12266Y122666D01*
X12316Y122743D01*
X12369Y122817D01*
X12425Y122890D01*
X12485Y122959D01*
X12547Y123026D01*
X12612Y123091D01*
X12680Y123152D01*
X12750Y123211D01*
X12823Y123266D01*
X12898Y123319D01*
X12976Y123368D01*
X13055Y123413D01*
X13136Y123456D01*
X13219Y123495D01*
X13304Y123530D01*
X13390Y123561D01*
X13389Y123560D02*
X13575Y123648D01*
X13762Y123731D01*
X13951Y123810D01*
X14142Y123884D01*
X14335Y123953D01*
X14529Y124018D01*
X14725Y124078D01*
X14922Y124134D01*
X15121Y124185D01*
X15320Y124231D01*
X15521Y124272D01*
X15723Y124308D01*
X15925Y124340D01*
X16128Y124367D01*
X16332Y124389D01*
X16536Y124406D01*
X16740Y124418D01*
X16945Y124426D01*
X17150Y124428D01*
X17150Y118643D02*
X17355Y118645D01*
X17560Y118653D01*
X17764Y118665D01*
X17968Y118682D01*
X18172Y118704D01*
X18375Y118731D01*
X18577Y118763D01*
X18779Y118799D01*
X18980Y118840D01*
X19179Y118886D01*
X19378Y118937D01*
X19575Y118993D01*
X19771Y119053D01*
X19965Y119118D01*
X20158Y119187D01*
X20349Y119261D01*
X20538Y119340D01*
X20725Y119423D01*
X20911Y119511D01*
X20910Y119511D02*
X20996Y119542D01*
X21081Y119577D01*
X21164Y119616D01*
X21245Y119659D01*
X21324Y119704D01*
X21402Y119753D01*
X21477Y119806D01*
X21550Y119861D01*
X21620Y119920D01*
X21688Y119981D01*
X21753Y120046D01*
X21815Y120113D01*
X21875Y120182D01*
X21931Y120255D01*
X21984Y120329D01*
X22034Y120406D01*
X22081Y120485D01*
X22124Y120565D01*
X22164Y120648D01*
X22200Y120732D01*
X22233Y120818D01*
X22262Y120904D01*
X22287Y120993D01*
X22308Y121082D01*
X22326Y121171D01*
X22339Y121262D01*
X22349Y121353D01*
X22355Y121444D01*
X22357Y121536D01*
X20911Y123560D02*
X20725Y123648D01*
X20538Y123731D01*
X20349Y123810D01*
X20158Y123884D01*
X19965Y123953D01*
X19771Y124018D01*
X19575Y124078D01*
X19378Y124134D01*
X19179Y124185D01*
X18980Y124231D01*
X18779Y124272D01*
X18577Y124308D01*
X18375Y124340D01*
X18172Y124367D01*
X17968Y124389D01*
X17764Y124406D01*
X17560Y124418D01*
X17355Y124426D01*
X17150Y124428D01*
X20910Y123561D02*
X20996Y123530D01*
X21081Y123495D01*
X21164Y123456D01*
X21245Y123413D01*
X21324Y123368D01*
X21402Y123319D01*
X21477Y123266D01*
X21550Y123211D01*
X21620Y123152D01*
X21688Y123091D01*
X21753Y123026D01*
X21815Y122959D01*
X21875Y122890D01*
X21931Y122817D01*
X21984Y122743D01*
X22034Y122666D01*
X22081Y122587D01*
X22124Y122507D01*
X22164Y122424D01*
X22200Y122340D01*
X22233Y122254D01*
X22262Y122168D01*
X22287Y122079D01*
X22308Y121990D01*
X22326Y121901D01*
X22339Y121810D01*
X22349Y121719D01*
X22355Y121628D01*
X22357Y121536D01*
X20043Y119222D02*
X14257Y123850D01*
X78943Y121536D02*
X81257Y118643D01*
X78943Y121536D02*
X89357Y121536D01*
X89357Y118643D02*
X89357Y124429D01*
X90357Y96536D02*
X90357Y93643D01*
X90357Y96536D02*
X90355Y96643D01*
X90349Y96750D01*
X90339Y96856D01*
X90325Y96962D01*
X90308Y97068D01*
X90286Y97172D01*
X90261Y97276D01*
X90231Y97379D01*
X90198Y97481D01*
X90162Y97581D01*
X90121Y97680D01*
X90077Y97777D01*
X90029Y97873D01*
X89978Y97967D01*
X89924Y98059D01*
X89866Y98149D01*
X89804Y98236D01*
X89740Y98322D01*
X89673Y98405D01*
X89602Y98485D01*
X89528Y98563D01*
X89452Y98638D01*
X89373Y98710D01*
X89292Y98779D01*
X89207Y98845D01*
X89121Y98908D01*
X89032Y98967D01*
X88941Y99023D01*
X88848Y99076D01*
X88754Y99126D01*
X88657Y99172D01*
X88559Y99214D01*
X88459Y99252D01*
X88358Y99287D01*
X88256Y99319D01*
X88152Y99346D01*
X88048Y99369D01*
X87943Y99389D01*
X87837Y99405D01*
X87731Y99417D01*
X87624Y99425D01*
X87517Y99429D01*
X87411Y99429D01*
X87304Y99425D01*
X87197Y99417D01*
X87091Y99405D01*
X86985Y99389D01*
X86880Y99369D01*
X86776Y99346D01*
X86672Y99319D01*
X86570Y99287D01*
X86469Y99252D01*
X86369Y99214D01*
X86271Y99172D01*
X86174Y99126D01*
X86080Y99076D01*
X85987Y99023D01*
X85896Y98967D01*
X85807Y98908D01*
X85721Y98845D01*
X85636Y98779D01*
X85555Y98710D01*
X85476Y98638D01*
X85400Y98563D01*
X85326Y98485D01*
X85255Y98405D01*
X85188Y98322D01*
X85124Y98236D01*
X85062Y98149D01*
X85004Y98059D01*
X84950Y97967D01*
X84899Y97873D01*
X84851Y97777D01*
X84807Y97680D01*
X84766Y97581D01*
X84730Y97481D01*
X84697Y97379D01*
X84667Y97276D01*
X84642Y97172D01*
X84620Y97068D01*
X84603Y96962D01*
X84589Y96856D01*
X84579Y96750D01*
X84573Y96643D01*
X84571Y96536D01*
X79943Y97114D02*
X79943Y93643D01*
X79943Y97114D02*
X79945Y97208D01*
X79951Y97303D01*
X79960Y97397D01*
X79974Y97490D01*
X79991Y97583D01*
X80012Y97675D01*
X80037Y97766D01*
X80065Y97856D01*
X80097Y97945D01*
X80133Y98032D01*
X80172Y98118D01*
X80215Y98202D01*
X80261Y98285D01*
X80310Y98365D01*
X80363Y98443D01*
X80419Y98520D01*
X80478Y98593D01*
X80539Y98665D01*
X80604Y98733D01*
X80672Y98800D01*
X80742Y98863D01*
X80814Y98923D01*
X80889Y98981D01*
X80967Y99035D01*
X81046Y99086D01*
X81127Y99134D01*
X81211Y99178D01*
X81296Y99219D01*
X81382Y99256D01*
X81470Y99290D01*
X81560Y99321D01*
X81650Y99347D01*
X81742Y99370D01*
X81835Y99389D01*
X81928Y99404D01*
X82021Y99416D01*
X82115Y99424D01*
X82210Y99428D01*
X82304Y99428D01*
X82399Y99424D01*
X82493Y99416D01*
X82586Y99404D01*
X82679Y99389D01*
X82772Y99370D01*
X82864Y99347D01*
X82954Y99321D01*
X83044Y99290D01*
X83132Y99256D01*
X83218Y99219D01*
X83303Y99178D01*
X83387Y99134D01*
X83468Y99086D01*
X83547Y99035D01*
X83625Y98981D01*
X83700Y98923D01*
X83772Y98863D01*
X83842Y98800D01*
X83910Y98733D01*
X83975Y98665D01*
X84036Y98593D01*
X84095Y98520D01*
X84151Y98443D01*
X84204Y98365D01*
X84253Y98285D01*
X84299Y98202D01*
X84342Y98118D01*
X84381Y98032D01*
X84417Y97945D01*
X84449Y97856D01*
X84477Y97766D01*
X84502Y97675D01*
X84523Y97583D01*
X84540Y97490D01*
X84554Y97397D01*
X84563Y97303D01*
X84569Y97208D01*
X84571Y97114D01*
X84571Y94800D01*
X89357Y72114D02*
X89357Y68643D01*
X89357Y72114D02*
X89355Y72207D01*
X89349Y72300D01*
X89340Y72393D01*
X89327Y72485D01*
X89310Y72577D01*
X89290Y72668D01*
X89266Y72758D01*
X89238Y72847D01*
X89207Y72935D01*
X89172Y73021D01*
X89134Y73106D01*
X89092Y73189D01*
X89047Y73271D01*
X88999Y73351D01*
X88947Y73429D01*
X88893Y73504D01*
X88835Y73577D01*
X88775Y73648D01*
X88712Y73717D01*
X88646Y73783D01*
X88577Y73846D01*
X88506Y73906D01*
X88433Y73964D01*
X88358Y74018D01*
X88280Y74070D01*
X88200Y74118D01*
X88118Y74163D01*
X88035Y74205D01*
X87950Y74243D01*
X87864Y74278D01*
X87776Y74309D01*
X87687Y74337D01*
X87597Y74361D01*
X87506Y74381D01*
X87414Y74398D01*
X87322Y74411D01*
X87229Y74420D01*
X87136Y74426D01*
X87043Y74428D01*
X87043Y74429D02*
X85886Y74429D01*
X85886Y74428D02*
X85790Y74426D01*
X85695Y74420D01*
X85600Y74410D01*
X85505Y74396D01*
X85411Y74379D01*
X85318Y74357D01*
X85226Y74332D01*
X85135Y74303D01*
X85045Y74270D01*
X84956Y74233D01*
X84870Y74193D01*
X84785Y74149D01*
X84702Y74102D01*
X84620Y74051D01*
X84541Y73997D01*
X84465Y73940D01*
X84390Y73880D01*
X84319Y73816D01*
X84250Y73750D01*
X84184Y73681D01*
X84120Y73610D01*
X84060Y73535D01*
X84003Y73459D01*
X83949Y73380D01*
X83898Y73299D01*
X83851Y73215D01*
X83807Y73130D01*
X83767Y73044D01*
X83730Y72955D01*
X83697Y72865D01*
X83668Y72774D01*
X83643Y72682D01*
X83621Y72589D01*
X83604Y72495D01*
X83590Y72400D01*
X83580Y72305D01*
X83574Y72210D01*
X83572Y72114D01*
X83571Y72114D02*
X83571Y68643D01*
X78943Y68643D01*
X78943Y74429D01*
X15547Y98429D02*
X15447Y98427D01*
X15348Y98421D01*
X15248Y98412D01*
X15150Y98398D01*
X15051Y98381D01*
X14954Y98361D01*
X14857Y98336D01*
X14761Y98308D01*
X14667Y98276D01*
X14574Y98240D01*
X14482Y98201D01*
X14392Y98159D01*
X14303Y98113D01*
X14216Y98063D01*
X14132Y98011D01*
X14049Y97955D01*
X13968Y97896D01*
X13890Y97834D01*
X13814Y97769D01*
X13741Y97701D01*
X13671Y97631D01*
X13603Y97558D01*
X13538Y97482D01*
X13476Y97404D01*
X13417Y97323D01*
X13361Y97240D01*
X13309Y97156D01*
X13259Y97069D01*
X13213Y96980D01*
X13171Y96890D01*
X13132Y96798D01*
X13096Y96705D01*
X13064Y96611D01*
X13036Y96515D01*
X13011Y96418D01*
X12991Y96321D01*
X12974Y96222D01*
X12960Y96124D01*
X12951Y96024D01*
X12945Y95925D01*
X12943Y95825D01*
X12945Y95711D01*
X12951Y95598D01*
X12960Y95485D01*
X12974Y95372D01*
X12991Y95259D01*
X13012Y95148D01*
X13037Y95037D01*
X13066Y94927D01*
X13098Y94818D01*
X13134Y94710D01*
X13174Y94603D01*
X13217Y94498D01*
X13264Y94395D01*
X13315Y94293D01*
X13368Y94193D01*
X13426Y94094D01*
X13486Y93998D01*
X13550Y93904D01*
X13617Y93812D01*
X13687Y93722D01*
X13760Y93635D01*
X13835Y93550D01*
X13914Y93468D01*
X13996Y93389D01*
X14080Y93313D01*
X14166Y93239D01*
X14255Y93168D01*
X14347Y93101D01*
X14441Y93036D01*
X14536Y92975D01*
X14634Y92917D01*
X14734Y92863D01*
X14836Y92812D01*
X14939Y92764D01*
X15044Y92720D01*
X15150Y92680D01*
X15257Y92643D01*
X17572Y97560D02*
X17499Y97634D01*
X17424Y97704D01*
X17347Y97772D01*
X17267Y97836D01*
X17185Y97898D01*
X17100Y97957D01*
X17013Y98013D01*
X16925Y98065D01*
X16834Y98114D01*
X16742Y98160D01*
X16648Y98202D01*
X16553Y98241D01*
X16456Y98276D01*
X16358Y98308D01*
X16259Y98336D01*
X16159Y98360D01*
X16059Y98381D01*
X15957Y98398D01*
X15855Y98411D01*
X15753Y98420D01*
X15650Y98426D01*
X15547Y98428D01*
X17571Y97561D02*
X23357Y92643D01*
X23357Y98429D01*
X12943Y69957D02*
X21043Y67643D01*
X21043Y73429D01*
X18729Y71693D02*
X23357Y71693D01*
X17571Y46114D02*
X17571Y42643D01*
X17572Y46114D02*
X17574Y46207D01*
X17580Y46300D01*
X17589Y46393D01*
X17602Y46485D01*
X17619Y46577D01*
X17639Y46668D01*
X17663Y46758D01*
X17691Y46847D01*
X17722Y46935D01*
X17757Y47021D01*
X17795Y47106D01*
X17837Y47189D01*
X17882Y47271D01*
X17930Y47351D01*
X17982Y47429D01*
X18036Y47504D01*
X18094Y47577D01*
X18154Y47648D01*
X18217Y47717D01*
X18283Y47783D01*
X18352Y47846D01*
X18423Y47906D01*
X18496Y47964D01*
X18572Y48018D01*
X18649Y48070D01*
X18729Y48118D01*
X18811Y48163D01*
X18894Y48205D01*
X18979Y48243D01*
X19065Y48278D01*
X19153Y48309D01*
X19242Y48337D01*
X19332Y48361D01*
X19423Y48381D01*
X19515Y48398D01*
X19607Y48411D01*
X19700Y48420D01*
X19793Y48426D01*
X19886Y48428D01*
X19886Y48429D02*
X20464Y48429D01*
X20571Y48427D01*
X20678Y48421D01*
X20784Y48411D01*
X20890Y48397D01*
X20996Y48380D01*
X21100Y48358D01*
X21204Y48333D01*
X21307Y48303D01*
X21409Y48270D01*
X21509Y48234D01*
X21608Y48193D01*
X21705Y48149D01*
X21801Y48101D01*
X21895Y48050D01*
X21987Y47996D01*
X22077Y47938D01*
X22164Y47876D01*
X22250Y47812D01*
X22333Y47745D01*
X22413Y47674D01*
X22491Y47600D01*
X22566Y47524D01*
X22638Y47445D01*
X22707Y47364D01*
X22773Y47279D01*
X22836Y47193D01*
X22895Y47104D01*
X22951Y47013D01*
X23004Y46920D01*
X23054Y46826D01*
X23100Y46729D01*
X23142Y46631D01*
X23180Y46531D01*
X23215Y46430D01*
X23247Y46328D01*
X23274Y46224D01*
X23297Y46120D01*
X23317Y46015D01*
X23333Y45909D01*
X23345Y45803D01*
X23353Y45696D01*
X23357Y45589D01*
X23357Y45483D01*
X23353Y45376D01*
X23345Y45269D01*
X23333Y45163D01*
X23317Y45057D01*
X23297Y44952D01*
X23274Y44848D01*
X23247Y44744D01*
X23215Y44642D01*
X23180Y44541D01*
X23142Y44441D01*
X23100Y44343D01*
X23054Y44246D01*
X23004Y44152D01*
X22951Y44059D01*
X22895Y43968D01*
X22836Y43879D01*
X22773Y43793D01*
X22707Y43708D01*
X22638Y43627D01*
X22566Y43548D01*
X22491Y43472D01*
X22413Y43398D01*
X22333Y43327D01*
X22250Y43260D01*
X22164Y43196D01*
X22077Y43134D01*
X21987Y43076D01*
X21895Y43022D01*
X21801Y42971D01*
X21705Y42923D01*
X21608Y42879D01*
X21509Y42838D01*
X21409Y42802D01*
X21307Y42769D01*
X21204Y42739D01*
X21100Y42714D01*
X20996Y42692D01*
X20890Y42675D01*
X20784Y42661D01*
X20678Y42651D01*
X20571Y42645D01*
X20464Y42643D01*
X17571Y42643D01*
X17436Y42645D01*
X17302Y42651D01*
X17168Y42661D01*
X17034Y42674D01*
X16900Y42692D01*
X16767Y42713D01*
X16635Y42739D01*
X16503Y42768D01*
X16373Y42801D01*
X16243Y42837D01*
X16115Y42878D01*
X15988Y42922D01*
X15862Y42970D01*
X15738Y43022D01*
X15615Y43077D01*
X15494Y43135D01*
X15374Y43198D01*
X15257Y43263D01*
X15141Y43332D01*
X15027Y43405D01*
X14916Y43480D01*
X14807Y43559D01*
X14700Y43641D01*
X14596Y43726D01*
X14494Y43814D01*
X14394Y43905D01*
X14298Y43999D01*
X14204Y44095D01*
X14113Y44195D01*
X14025Y44297D01*
X13940Y44401D01*
X13858Y44508D01*
X13779Y44617D01*
X13704Y44728D01*
X13631Y44842D01*
X13562Y44957D01*
X13497Y45075D01*
X13434Y45194D01*
X13376Y45316D01*
X13321Y45439D01*
X13269Y45563D01*
X13221Y45689D01*
X13177Y45816D01*
X13136Y45944D01*
X13100Y46074D01*
X13067Y46204D01*
X13038Y46336D01*
X13012Y46468D01*
X12991Y46601D01*
X12973Y46735D01*
X12960Y46868D01*
X12950Y47003D01*
X12944Y47137D01*
X12942Y47272D01*
X22357Y138957D02*
X22357Y141271D01*
X22357Y138957D02*
X22355Y138861D01*
X22349Y138766D01*
X22339Y138671D01*
X22325Y138576D01*
X22308Y138482D01*
X22286Y138389D01*
X22261Y138297D01*
X22232Y138206D01*
X22199Y138116D01*
X22162Y138027D01*
X22122Y137941D01*
X22078Y137856D01*
X22031Y137773D01*
X21980Y137691D01*
X21926Y137612D01*
X21869Y137536D01*
X21809Y137461D01*
X21745Y137390D01*
X21679Y137321D01*
X21610Y137255D01*
X21539Y137191D01*
X21464Y137131D01*
X21388Y137074D01*
X21309Y137020D01*
X21228Y136969D01*
X21144Y136922D01*
X21059Y136878D01*
X20973Y136838D01*
X20884Y136801D01*
X20794Y136768D01*
X20703Y136739D01*
X20611Y136714D01*
X20518Y136692D01*
X20424Y136675D01*
X20329Y136661D01*
X20234Y136651D01*
X20139Y136645D01*
X20043Y136643D01*
X14257Y136643D01*
X14161Y136645D01*
X14066Y136651D01*
X13971Y136661D01*
X13876Y136675D01*
X13782Y136692D01*
X13689Y136714D01*
X13597Y136739D01*
X13506Y136768D01*
X13416Y136801D01*
X13327Y136838D01*
X13241Y136878D01*
X13156Y136922D01*
X13073Y136969D01*
X12991Y137020D01*
X12912Y137074D01*
X12836Y137131D01*
X12761Y137191D01*
X12690Y137255D01*
X12621Y137321D01*
X12555Y137390D01*
X12491Y137461D01*
X12431Y137536D01*
X12374Y137612D01*
X12320Y137691D01*
X12269Y137772D01*
X12222Y137856D01*
X12178Y137941D01*
X12138Y138027D01*
X12101Y138116D01*
X12068Y138206D01*
X12039Y138297D01*
X12014Y138389D01*
X11992Y138482D01*
X11975Y138576D01*
X11961Y138671D01*
X11951Y138766D01*
X11945Y138861D01*
X11943Y138957D01*
X11943Y141271D01*
X11943Y146640D02*
X22357Y146640D01*
X22357Y151268D01*
X22357Y156784D02*
X11943Y156784D01*
X11943Y162570D02*
X18307Y156784D01*
X15993Y159098D02*
X22357Y162570D01*
D11*
X1952773Y92132D02*
X1957515Y92132D01*
X1952773Y92132D02*
X1952638Y92134D01*
X1952502Y92140D01*
X1952367Y92149D01*
X1952233Y92163D01*
X1952098Y92180D01*
X1951965Y92201D01*
X1951831Y92226D01*
X1951699Y92255D01*
X1951568Y92288D01*
X1951437Y92324D01*
X1951308Y92364D01*
X1951180Y92408D01*
X1951053Y92455D01*
X1950927Y92506D01*
X1950804Y92560D01*
X1950681Y92618D01*
X1950561Y92680D01*
X1950442Y92745D01*
X1950325Y92813D01*
X1950210Y92885D01*
X1950097Y92959D01*
X1949986Y93037D01*
X1949878Y93119D01*
X1949772Y93203D01*
X1949668Y93290D01*
X1949567Y93380D01*
X1949469Y93473D01*
X1949373Y93569D01*
X1949280Y93667D01*
X1949190Y93768D01*
X1949103Y93872D01*
X1949019Y93978D01*
X1948937Y94086D01*
X1948859Y94197D01*
X1948785Y94310D01*
X1948713Y94425D01*
X1948645Y94542D01*
X1948580Y94661D01*
X1948518Y94781D01*
X1948460Y94904D01*
X1948406Y95027D01*
X1948355Y95153D01*
X1948308Y95280D01*
X1948264Y95408D01*
X1948224Y95537D01*
X1948188Y95668D01*
X1948155Y95799D01*
X1948126Y95931D01*
X1948101Y96065D01*
X1948080Y96198D01*
X1948063Y96333D01*
X1948049Y96467D01*
X1948040Y96602D01*
X1948034Y96738D01*
X1948032Y96873D01*
X1948032Y108727D01*
X1948034Y108862D01*
X1948040Y108998D01*
X1948049Y109133D01*
X1948063Y109267D01*
X1948080Y109402D01*
X1948101Y109535D01*
X1948126Y109669D01*
X1948155Y109801D01*
X1948188Y109932D01*
X1948224Y110063D01*
X1948264Y110192D01*
X1948308Y110320D01*
X1948355Y110447D01*
X1948406Y110573D01*
X1948460Y110696D01*
X1948518Y110819D01*
X1948580Y110939D01*
X1948645Y111058D01*
X1948713Y111175D01*
X1948785Y111290D01*
X1948859Y111403D01*
X1948937Y111514D01*
X1949019Y111622D01*
X1949103Y111728D01*
X1949190Y111832D01*
X1949280Y111933D01*
X1949373Y112031D01*
X1949469Y112127D01*
X1949567Y112220D01*
X1949668Y112310D01*
X1949772Y112397D01*
X1949878Y112481D01*
X1949986Y112563D01*
X1950097Y112641D01*
X1950210Y112715D01*
X1950325Y112787D01*
X1950442Y112855D01*
X1950561Y112920D01*
X1950681Y112982D01*
X1950803Y113040D01*
X1950927Y113094D01*
X1951053Y113145D01*
X1951180Y113192D01*
X1951308Y113236D01*
X1951437Y113276D01*
X1951568Y113312D01*
X1951699Y113345D01*
X1951831Y113374D01*
X1951965Y113399D01*
X1952098Y113420D01*
X1952233Y113437D01*
X1952367Y113451D01*
X1952502Y113460D01*
X1952638Y113466D01*
X1952773Y113468D01*
X1957515Y113468D01*
X1966113Y106356D02*
X1966113Y92132D01*
X1966113Y106356D02*
X1973225Y106356D01*
X1973225Y103985D01*
X1983448Y92132D02*
X1989374Y92132D01*
X1983448Y92132D02*
X1983332Y92134D01*
X1983215Y92140D01*
X1983099Y92149D01*
X1982984Y92162D01*
X1982869Y92179D01*
X1982754Y92200D01*
X1982641Y92225D01*
X1982528Y92253D01*
X1982416Y92285D01*
X1982305Y92321D01*
X1982195Y92360D01*
X1982087Y92403D01*
X1981980Y92449D01*
X1981875Y92499D01*
X1981772Y92552D01*
X1981670Y92608D01*
X1981570Y92668D01*
X1981472Y92731D01*
X1981377Y92798D01*
X1981283Y92867D01*
X1981192Y92939D01*
X1981103Y93014D01*
X1981017Y93093D01*
X1980934Y93174D01*
X1980853Y93257D01*
X1980774Y93343D01*
X1980699Y93432D01*
X1980627Y93523D01*
X1980558Y93617D01*
X1980491Y93712D01*
X1980428Y93810D01*
X1980368Y93910D01*
X1980312Y94012D01*
X1980259Y94115D01*
X1980209Y94220D01*
X1980163Y94327D01*
X1980120Y94435D01*
X1980081Y94545D01*
X1980045Y94656D01*
X1980013Y94768D01*
X1979985Y94881D01*
X1979960Y94994D01*
X1979939Y95109D01*
X1979922Y95224D01*
X1979909Y95339D01*
X1979900Y95455D01*
X1979894Y95572D01*
X1979892Y95688D01*
X1979892Y101615D01*
X1979894Y101752D01*
X1979900Y101888D01*
X1979910Y102024D01*
X1979923Y102160D01*
X1979941Y102296D01*
X1979963Y102431D01*
X1979988Y102565D01*
X1980017Y102698D01*
X1980051Y102831D01*
X1980088Y102963D01*
X1980128Y103093D01*
X1980173Y103222D01*
X1980221Y103350D01*
X1980273Y103477D01*
X1980328Y103601D01*
X1980387Y103725D01*
X1980450Y103846D01*
X1980516Y103966D01*
X1980585Y104083D01*
X1980658Y104199D01*
X1980734Y104313D01*
X1980814Y104424D01*
X1980896Y104533D01*
X1980982Y104639D01*
X1981070Y104743D01*
X1981162Y104844D01*
X1981257Y104943D01*
X1981354Y105039D01*
X1981454Y105132D01*
X1981557Y105222D01*
X1981662Y105309D01*
X1981769Y105394D01*
X1981880Y105475D01*
X1981992Y105552D01*
X1982107Y105627D01*
X1982223Y105698D01*
X1982342Y105766D01*
X1982462Y105830D01*
X1982585Y105891D01*
X1982709Y105948D01*
X1982834Y106002D01*
X1982962Y106052D01*
X1983090Y106098D01*
X1983220Y106141D01*
X1983351Y106179D01*
X1983483Y106214D01*
X1983616Y106246D01*
X1983750Y106273D01*
X1983885Y106297D01*
X1984020Y106316D01*
X1984156Y106332D01*
X1984292Y106344D01*
X1984428Y106352D01*
X1984565Y106356D01*
X1984701Y106356D01*
X1984838Y106352D01*
X1984974Y106344D01*
X1985110Y106332D01*
X1985246Y106316D01*
X1985381Y106297D01*
X1985516Y106273D01*
X1985650Y106246D01*
X1985783Y106214D01*
X1985915Y106179D01*
X1986046Y106141D01*
X1986176Y106098D01*
X1986304Y106052D01*
X1986432Y106002D01*
X1986557Y105948D01*
X1986681Y105891D01*
X1986804Y105830D01*
X1986924Y105766D01*
X1987043Y105698D01*
X1987159Y105627D01*
X1987274Y105552D01*
X1987386Y105475D01*
X1987497Y105394D01*
X1987604Y105309D01*
X1987709Y105222D01*
X1987812Y105132D01*
X1987912Y105039D01*
X1988009Y104943D01*
X1988104Y104844D01*
X1988196Y104743D01*
X1988284Y104639D01*
X1988370Y104533D01*
X1988452Y104424D01*
X1988532Y104313D01*
X1988608Y104199D01*
X1988681Y104083D01*
X1988750Y103966D01*
X1988816Y103846D01*
X1988879Y103725D01*
X1988938Y103601D01*
X1988993Y103477D01*
X1989045Y103350D01*
X1989093Y103222D01*
X1989138Y103093D01*
X1989178Y102963D01*
X1989215Y102831D01*
X1989249Y102698D01*
X1989278Y102565D01*
X1989303Y102431D01*
X1989325Y102296D01*
X1989343Y102160D01*
X1989356Y102024D01*
X1989366Y101888D01*
X1989372Y101752D01*
X1989374Y101615D01*
X1989374Y99244D01*
X1979892Y99244D01*
X2002023Y100429D02*
X2007357Y100429D01*
X2002023Y100430D02*
X2001895Y100428D01*
X2001768Y100422D01*
X2001640Y100412D01*
X2001513Y100399D01*
X2001387Y100381D01*
X2001261Y100359D01*
X2001135Y100334D01*
X2001011Y100305D01*
X2000888Y100272D01*
X2000765Y100235D01*
X2000644Y100194D01*
X2000524Y100150D01*
X2000406Y100102D01*
X2000289Y100050D01*
X2000174Y99995D01*
X2000060Y99936D01*
X1999949Y99874D01*
X1999839Y99809D01*
X1999731Y99740D01*
X1999626Y99667D01*
X1999523Y99592D01*
X1999422Y99513D01*
X1999324Y99432D01*
X1999228Y99347D01*
X1999135Y99260D01*
X1999044Y99169D01*
X1998957Y99076D01*
X1998872Y98980D01*
X1998791Y98882D01*
X1998712Y98781D01*
X1998637Y98678D01*
X1998564Y98573D01*
X1998495Y98465D01*
X1998430Y98356D01*
X1998368Y98244D01*
X1998309Y98130D01*
X1998254Y98015D01*
X1998202Y97898D01*
X1998154Y97780D01*
X1998110Y97660D01*
X1998069Y97539D01*
X1998032Y97416D01*
X1997999Y97293D01*
X1997970Y97169D01*
X1997945Y97043D01*
X1997923Y96917D01*
X1997905Y96791D01*
X1997892Y96664D01*
X1997882Y96536D01*
X1997876Y96409D01*
X1997874Y96281D01*
X1997876Y96153D01*
X1997882Y96026D01*
X1997892Y95898D01*
X1997905Y95771D01*
X1997923Y95645D01*
X1997945Y95519D01*
X1997970Y95393D01*
X1997999Y95269D01*
X1998032Y95146D01*
X1998069Y95023D01*
X1998110Y94902D01*
X1998154Y94782D01*
X1998202Y94664D01*
X1998254Y94547D01*
X1998309Y94432D01*
X1998368Y94318D01*
X1998430Y94207D01*
X1998495Y94097D01*
X1998564Y93989D01*
X1998637Y93884D01*
X1998712Y93781D01*
X1998791Y93680D01*
X1998872Y93582D01*
X1998957Y93486D01*
X1999044Y93393D01*
X1999135Y93302D01*
X1999228Y93215D01*
X1999324Y93130D01*
X1999422Y93049D01*
X1999523Y92970D01*
X1999626Y92895D01*
X1999731Y92822D01*
X1999839Y92753D01*
X1999949Y92688D01*
X2000060Y92626D01*
X2000174Y92567D01*
X2000289Y92512D01*
X2000406Y92460D01*
X2000524Y92412D01*
X2000644Y92368D01*
X2000765Y92327D01*
X2000888Y92290D01*
X2001011Y92257D01*
X2001135Y92228D01*
X2001261Y92203D01*
X2001387Y92181D01*
X2001513Y92163D01*
X2001640Y92150D01*
X2001768Y92140D01*
X2001895Y92134D01*
X2002023Y92132D01*
X2007357Y92132D01*
X2007357Y102800D01*
X2007355Y102916D01*
X2007349Y103033D01*
X2007340Y103149D01*
X2007327Y103264D01*
X2007310Y103379D01*
X2007289Y103494D01*
X2007264Y103607D01*
X2007236Y103720D01*
X2007204Y103832D01*
X2007168Y103943D01*
X2007129Y104053D01*
X2007086Y104161D01*
X2007040Y104268D01*
X2006990Y104373D01*
X2006937Y104476D01*
X2006881Y104578D01*
X2006821Y104678D01*
X2006758Y104776D01*
X2006691Y104871D01*
X2006622Y104965D01*
X2006550Y105056D01*
X2006475Y105145D01*
X2006396Y105231D01*
X2006315Y105314D01*
X2006232Y105395D01*
X2006146Y105474D01*
X2006057Y105549D01*
X2005966Y105621D01*
X2005872Y105690D01*
X2005777Y105757D01*
X2005679Y105820D01*
X2005579Y105880D01*
X2005477Y105936D01*
X2005374Y105989D01*
X2005269Y106039D01*
X2005162Y106085D01*
X2005054Y106128D01*
X2004944Y106167D01*
X2004833Y106203D01*
X2004721Y106235D01*
X2004608Y106263D01*
X2004495Y106288D01*
X2004380Y106309D01*
X2004265Y106326D01*
X2004150Y106339D01*
X2004034Y106348D01*
X2003917Y106354D01*
X2003801Y106356D01*
X1999059Y106356D01*
X2014994Y106356D02*
X2022106Y106356D01*
X2017365Y113468D02*
X2017365Y95688D01*
X2017367Y95572D01*
X2017373Y95455D01*
X2017382Y95339D01*
X2017395Y95224D01*
X2017412Y95109D01*
X2017433Y94994D01*
X2017458Y94881D01*
X2017486Y94768D01*
X2017518Y94656D01*
X2017554Y94545D01*
X2017593Y94435D01*
X2017636Y94327D01*
X2017682Y94220D01*
X2017732Y94115D01*
X2017785Y94012D01*
X2017841Y93910D01*
X2017901Y93810D01*
X2017964Y93712D01*
X2018031Y93617D01*
X2018100Y93523D01*
X2018172Y93432D01*
X2018247Y93343D01*
X2018326Y93257D01*
X2018407Y93174D01*
X2018490Y93093D01*
X2018576Y93014D01*
X2018665Y92939D01*
X2018756Y92867D01*
X2018850Y92798D01*
X2018945Y92731D01*
X2019043Y92668D01*
X2019143Y92608D01*
X2019245Y92552D01*
X2019348Y92499D01*
X2019453Y92449D01*
X2019560Y92403D01*
X2019668Y92360D01*
X2019778Y92321D01*
X2019889Y92285D01*
X2020001Y92253D01*
X2020114Y92225D01*
X2020227Y92200D01*
X2020342Y92179D01*
X2020457Y92162D01*
X2020572Y92149D01*
X2020688Y92140D01*
X2020805Y92134D01*
X2020921Y92132D01*
X2022106Y92132D01*
X2033557Y92132D02*
X2039483Y92132D01*
X2033557Y92132D02*
X2033441Y92134D01*
X2033324Y92140D01*
X2033208Y92149D01*
X2033093Y92162D01*
X2032978Y92179D01*
X2032863Y92200D01*
X2032750Y92225D01*
X2032637Y92253D01*
X2032525Y92285D01*
X2032414Y92321D01*
X2032304Y92360D01*
X2032196Y92403D01*
X2032089Y92449D01*
X2031984Y92499D01*
X2031881Y92552D01*
X2031779Y92608D01*
X2031679Y92668D01*
X2031581Y92731D01*
X2031486Y92798D01*
X2031392Y92867D01*
X2031301Y92939D01*
X2031212Y93014D01*
X2031126Y93093D01*
X2031043Y93174D01*
X2030962Y93257D01*
X2030883Y93343D01*
X2030808Y93432D01*
X2030736Y93523D01*
X2030667Y93617D01*
X2030600Y93712D01*
X2030537Y93810D01*
X2030477Y93910D01*
X2030421Y94012D01*
X2030368Y94115D01*
X2030318Y94220D01*
X2030272Y94327D01*
X2030229Y94435D01*
X2030190Y94545D01*
X2030154Y94656D01*
X2030122Y94768D01*
X2030094Y94881D01*
X2030069Y94994D01*
X2030048Y95109D01*
X2030031Y95224D01*
X2030018Y95339D01*
X2030009Y95455D01*
X2030003Y95572D01*
X2030001Y95688D01*
X2030001Y101615D01*
X2030003Y101752D01*
X2030009Y101888D01*
X2030019Y102024D01*
X2030032Y102160D01*
X2030050Y102296D01*
X2030072Y102431D01*
X2030097Y102565D01*
X2030126Y102698D01*
X2030160Y102831D01*
X2030197Y102963D01*
X2030237Y103093D01*
X2030282Y103222D01*
X2030330Y103350D01*
X2030382Y103477D01*
X2030437Y103601D01*
X2030496Y103725D01*
X2030559Y103846D01*
X2030625Y103966D01*
X2030694Y104083D01*
X2030767Y104199D01*
X2030843Y104313D01*
X2030923Y104424D01*
X2031005Y104533D01*
X2031091Y104639D01*
X2031179Y104743D01*
X2031271Y104844D01*
X2031366Y104943D01*
X2031463Y105039D01*
X2031563Y105132D01*
X2031666Y105222D01*
X2031771Y105309D01*
X2031878Y105394D01*
X2031989Y105475D01*
X2032101Y105552D01*
X2032216Y105627D01*
X2032332Y105698D01*
X2032451Y105766D01*
X2032571Y105830D01*
X2032694Y105891D01*
X2032818Y105948D01*
X2032943Y106002D01*
X2033071Y106052D01*
X2033199Y106098D01*
X2033329Y106141D01*
X2033460Y106179D01*
X2033592Y106214D01*
X2033725Y106246D01*
X2033859Y106273D01*
X2033994Y106297D01*
X2034129Y106316D01*
X2034265Y106332D01*
X2034401Y106344D01*
X2034537Y106352D01*
X2034674Y106356D01*
X2034810Y106356D01*
X2034947Y106352D01*
X2035083Y106344D01*
X2035219Y106332D01*
X2035355Y106316D01*
X2035490Y106297D01*
X2035625Y106273D01*
X2035759Y106246D01*
X2035892Y106214D01*
X2036024Y106179D01*
X2036155Y106141D01*
X2036285Y106098D01*
X2036413Y106052D01*
X2036541Y106002D01*
X2036666Y105948D01*
X2036790Y105891D01*
X2036913Y105830D01*
X2037033Y105766D01*
X2037152Y105698D01*
X2037268Y105627D01*
X2037383Y105552D01*
X2037495Y105475D01*
X2037606Y105394D01*
X2037713Y105309D01*
X2037818Y105222D01*
X2037921Y105132D01*
X2038021Y105039D01*
X2038118Y104943D01*
X2038213Y104844D01*
X2038305Y104743D01*
X2038393Y104639D01*
X2038479Y104533D01*
X2038561Y104424D01*
X2038641Y104313D01*
X2038717Y104199D01*
X2038790Y104083D01*
X2038859Y103966D01*
X2038925Y103846D01*
X2038988Y103725D01*
X2039047Y103601D01*
X2039102Y103477D01*
X2039154Y103350D01*
X2039202Y103222D01*
X2039247Y103093D01*
X2039287Y102963D01*
X2039324Y102831D01*
X2039358Y102698D01*
X2039387Y102565D01*
X2039412Y102431D01*
X2039434Y102296D01*
X2039452Y102160D01*
X2039465Y102024D01*
X2039475Y101888D01*
X2039481Y101752D01*
X2039483Y101615D01*
X2039483Y99244D01*
X2030001Y99244D01*
X2057466Y92132D02*
X2057466Y113468D01*
X2057466Y92132D02*
X2051539Y92132D01*
X2051423Y92134D01*
X2051306Y92140D01*
X2051190Y92149D01*
X2051075Y92162D01*
X2050960Y92179D01*
X2050845Y92200D01*
X2050732Y92225D01*
X2050619Y92253D01*
X2050507Y92285D01*
X2050396Y92321D01*
X2050286Y92360D01*
X2050178Y92403D01*
X2050071Y92449D01*
X2049966Y92499D01*
X2049863Y92552D01*
X2049761Y92608D01*
X2049661Y92668D01*
X2049563Y92731D01*
X2049468Y92798D01*
X2049374Y92867D01*
X2049283Y92939D01*
X2049194Y93014D01*
X2049108Y93093D01*
X2049025Y93174D01*
X2048944Y93257D01*
X2048865Y93343D01*
X2048790Y93432D01*
X2048718Y93523D01*
X2048649Y93617D01*
X2048582Y93712D01*
X2048519Y93810D01*
X2048459Y93910D01*
X2048403Y94012D01*
X2048350Y94115D01*
X2048300Y94220D01*
X2048254Y94327D01*
X2048211Y94435D01*
X2048172Y94545D01*
X2048136Y94656D01*
X2048104Y94768D01*
X2048076Y94881D01*
X2048051Y94994D01*
X2048030Y95109D01*
X2048013Y95224D01*
X2048000Y95339D01*
X2047991Y95455D01*
X2047985Y95572D01*
X2047983Y95688D01*
X2047983Y102800D01*
X2047985Y102916D01*
X2047991Y103033D01*
X2048000Y103149D01*
X2048013Y103264D01*
X2048030Y103379D01*
X2048051Y103494D01*
X2048076Y103607D01*
X2048104Y103720D01*
X2048136Y103832D01*
X2048172Y103943D01*
X2048211Y104053D01*
X2048254Y104161D01*
X2048300Y104268D01*
X2048350Y104373D01*
X2048403Y104476D01*
X2048459Y104578D01*
X2048519Y104678D01*
X2048582Y104776D01*
X2048649Y104871D01*
X2048718Y104965D01*
X2048790Y105056D01*
X2048865Y105145D01*
X2048944Y105231D01*
X2049025Y105314D01*
X2049108Y105395D01*
X2049194Y105474D01*
X2049283Y105549D01*
X2049374Y105621D01*
X2049468Y105690D01*
X2049563Y105757D01*
X2049661Y105820D01*
X2049761Y105880D01*
X2049863Y105936D01*
X2049966Y105989D01*
X2050071Y106039D01*
X2050178Y106085D01*
X2050286Y106128D01*
X2050396Y106167D01*
X2050507Y106203D01*
X2050619Y106235D01*
X2050732Y106263D01*
X2050845Y106288D01*
X2050960Y106309D01*
X2051075Y106326D01*
X2051190Y106339D01*
X2051306Y106348D01*
X2051423Y106354D01*
X2051539Y106356D01*
X2057466Y106356D01*
X2078830Y113468D02*
X2078830Y92132D01*
X2084757Y92132D01*
X2084873Y92134D01*
X2084990Y92140D01*
X2085106Y92149D01*
X2085221Y92162D01*
X2085336Y92179D01*
X2085451Y92200D01*
X2085564Y92225D01*
X2085677Y92253D01*
X2085789Y92285D01*
X2085900Y92321D01*
X2086010Y92360D01*
X2086118Y92403D01*
X2086225Y92449D01*
X2086330Y92499D01*
X2086433Y92552D01*
X2086535Y92608D01*
X2086635Y92668D01*
X2086733Y92731D01*
X2086828Y92798D01*
X2086922Y92867D01*
X2087013Y92939D01*
X2087102Y93014D01*
X2087188Y93093D01*
X2087271Y93174D01*
X2087352Y93257D01*
X2087431Y93343D01*
X2087506Y93432D01*
X2087578Y93523D01*
X2087647Y93617D01*
X2087714Y93712D01*
X2087777Y93810D01*
X2087837Y93910D01*
X2087893Y94012D01*
X2087946Y94115D01*
X2087996Y94220D01*
X2088042Y94327D01*
X2088085Y94435D01*
X2088124Y94545D01*
X2088160Y94656D01*
X2088192Y94768D01*
X2088220Y94881D01*
X2088245Y94994D01*
X2088266Y95109D01*
X2088283Y95224D01*
X2088296Y95339D01*
X2088305Y95455D01*
X2088311Y95572D01*
X2088313Y95688D01*
X2088313Y102800D01*
X2088311Y102916D01*
X2088305Y103033D01*
X2088296Y103149D01*
X2088283Y103264D01*
X2088266Y103379D01*
X2088245Y103494D01*
X2088220Y103607D01*
X2088192Y103720D01*
X2088160Y103832D01*
X2088124Y103943D01*
X2088085Y104053D01*
X2088042Y104161D01*
X2087996Y104268D01*
X2087946Y104373D01*
X2087893Y104476D01*
X2087837Y104578D01*
X2087777Y104678D01*
X2087714Y104776D01*
X2087647Y104871D01*
X2087578Y104965D01*
X2087506Y105056D01*
X2087431Y105145D01*
X2087352Y105231D01*
X2087271Y105314D01*
X2087188Y105395D01*
X2087102Y105474D01*
X2087013Y105549D01*
X2086922Y105621D01*
X2086828Y105690D01*
X2086733Y105757D01*
X2086635Y105820D01*
X2086535Y105880D01*
X2086433Y105936D01*
X2086330Y105989D01*
X2086225Y106039D01*
X2086118Y106085D01*
X2086010Y106128D01*
X2085900Y106167D01*
X2085789Y106203D01*
X2085677Y106235D01*
X2085564Y106263D01*
X2085451Y106288D01*
X2085336Y106309D01*
X2085221Y106326D01*
X2085106Y106339D01*
X2084990Y106348D01*
X2084873Y106354D01*
X2084757Y106356D01*
X2078830Y106356D01*
X2096117Y85020D02*
X2098487Y85020D01*
X2105599Y106356D01*
X2096117Y106356D02*
X2100858Y92132D01*
X1955144Y75368D02*
X1955144Y58773D01*
X1955142Y58638D01*
X1955136Y58502D01*
X1955127Y58367D01*
X1955113Y58233D01*
X1955096Y58098D01*
X1955075Y57965D01*
X1955050Y57831D01*
X1955021Y57699D01*
X1954988Y57568D01*
X1954952Y57437D01*
X1954912Y57308D01*
X1954868Y57180D01*
X1954821Y57053D01*
X1954770Y56927D01*
X1954716Y56804D01*
X1954658Y56681D01*
X1954596Y56561D01*
X1954531Y56442D01*
X1954463Y56325D01*
X1954391Y56210D01*
X1954317Y56097D01*
X1954239Y55986D01*
X1954157Y55878D01*
X1954073Y55772D01*
X1953986Y55668D01*
X1953896Y55567D01*
X1953803Y55469D01*
X1953707Y55373D01*
X1953609Y55280D01*
X1953508Y55190D01*
X1953404Y55103D01*
X1953298Y55019D01*
X1953190Y54937D01*
X1953079Y54859D01*
X1952966Y54785D01*
X1952851Y54713D01*
X1952734Y54645D01*
X1952615Y54580D01*
X1952495Y54518D01*
X1952372Y54460D01*
X1952249Y54406D01*
X1952123Y54355D01*
X1951996Y54308D01*
X1951868Y54264D01*
X1951739Y54224D01*
X1951608Y54188D01*
X1951477Y54155D01*
X1951345Y54126D01*
X1951211Y54101D01*
X1951078Y54080D01*
X1950943Y54063D01*
X1950809Y54049D01*
X1950674Y54040D01*
X1950538Y54034D01*
X1950403Y54032D01*
X1948032Y54032D01*
X1964593Y58773D02*
X1964593Y63515D01*
X1964595Y63652D01*
X1964601Y63788D01*
X1964611Y63924D01*
X1964624Y64060D01*
X1964642Y64196D01*
X1964664Y64331D01*
X1964689Y64465D01*
X1964718Y64598D01*
X1964752Y64731D01*
X1964789Y64863D01*
X1964829Y64993D01*
X1964874Y65122D01*
X1964922Y65250D01*
X1964974Y65377D01*
X1965029Y65501D01*
X1965088Y65625D01*
X1965151Y65746D01*
X1965217Y65866D01*
X1965286Y65983D01*
X1965359Y66099D01*
X1965435Y66213D01*
X1965515Y66324D01*
X1965597Y66433D01*
X1965683Y66539D01*
X1965771Y66643D01*
X1965863Y66744D01*
X1965958Y66843D01*
X1966055Y66939D01*
X1966155Y67032D01*
X1966258Y67122D01*
X1966363Y67209D01*
X1966470Y67294D01*
X1966581Y67375D01*
X1966693Y67452D01*
X1966808Y67527D01*
X1966924Y67598D01*
X1967043Y67666D01*
X1967163Y67730D01*
X1967286Y67791D01*
X1967410Y67848D01*
X1967535Y67902D01*
X1967663Y67952D01*
X1967791Y67998D01*
X1967921Y68041D01*
X1968052Y68079D01*
X1968184Y68114D01*
X1968317Y68146D01*
X1968451Y68173D01*
X1968586Y68197D01*
X1968721Y68216D01*
X1968857Y68232D01*
X1968993Y68244D01*
X1969129Y68252D01*
X1969266Y68256D01*
X1969402Y68256D01*
X1969539Y68252D01*
X1969675Y68244D01*
X1969811Y68232D01*
X1969947Y68216D01*
X1970082Y68197D01*
X1970217Y68173D01*
X1970351Y68146D01*
X1970484Y68114D01*
X1970616Y68079D01*
X1970747Y68041D01*
X1970877Y67998D01*
X1971005Y67952D01*
X1971133Y67902D01*
X1971258Y67848D01*
X1971382Y67791D01*
X1971505Y67730D01*
X1971625Y67666D01*
X1971744Y67598D01*
X1971860Y67527D01*
X1971975Y67452D01*
X1972087Y67375D01*
X1972198Y67294D01*
X1972305Y67209D01*
X1972410Y67122D01*
X1972513Y67032D01*
X1972613Y66939D01*
X1972710Y66843D01*
X1972805Y66744D01*
X1972897Y66643D01*
X1972985Y66539D01*
X1973071Y66433D01*
X1973153Y66324D01*
X1973233Y66213D01*
X1973309Y66099D01*
X1973382Y65983D01*
X1973451Y65866D01*
X1973517Y65746D01*
X1973580Y65625D01*
X1973639Y65501D01*
X1973694Y65377D01*
X1973746Y65250D01*
X1973794Y65122D01*
X1973839Y64993D01*
X1973879Y64863D01*
X1973916Y64731D01*
X1973950Y64598D01*
X1973979Y64465D01*
X1974004Y64331D01*
X1974026Y64196D01*
X1974044Y64060D01*
X1974057Y63924D01*
X1974067Y63788D01*
X1974073Y63652D01*
X1974075Y63515D01*
X1974076Y63515D02*
X1974076Y58773D01*
X1974075Y58773D02*
X1974073Y58636D01*
X1974067Y58500D01*
X1974057Y58364D01*
X1974044Y58228D01*
X1974026Y58092D01*
X1974004Y57957D01*
X1973979Y57823D01*
X1973950Y57690D01*
X1973916Y57557D01*
X1973879Y57425D01*
X1973839Y57295D01*
X1973794Y57166D01*
X1973746Y57038D01*
X1973694Y56911D01*
X1973639Y56787D01*
X1973580Y56663D01*
X1973517Y56542D01*
X1973451Y56422D01*
X1973382Y56305D01*
X1973309Y56189D01*
X1973233Y56075D01*
X1973153Y55964D01*
X1973071Y55855D01*
X1972985Y55749D01*
X1972897Y55645D01*
X1972805Y55544D01*
X1972710Y55445D01*
X1972613Y55349D01*
X1972513Y55256D01*
X1972410Y55166D01*
X1972305Y55079D01*
X1972198Y54994D01*
X1972087Y54913D01*
X1971975Y54836D01*
X1971860Y54761D01*
X1971744Y54690D01*
X1971625Y54622D01*
X1971505Y54558D01*
X1971382Y54497D01*
X1971258Y54440D01*
X1971133Y54386D01*
X1971005Y54336D01*
X1970877Y54290D01*
X1970747Y54247D01*
X1970616Y54209D01*
X1970484Y54174D01*
X1970351Y54142D01*
X1970217Y54115D01*
X1970082Y54091D01*
X1969947Y54072D01*
X1969811Y54056D01*
X1969675Y54044D01*
X1969539Y54036D01*
X1969402Y54032D01*
X1969266Y54032D01*
X1969129Y54036D01*
X1968993Y54044D01*
X1968857Y54056D01*
X1968721Y54072D01*
X1968586Y54091D01*
X1968451Y54115D01*
X1968317Y54142D01*
X1968184Y54174D01*
X1968052Y54209D01*
X1967921Y54247D01*
X1967791Y54290D01*
X1967663Y54336D01*
X1967535Y54386D01*
X1967410Y54440D01*
X1967286Y54497D01*
X1967163Y54558D01*
X1967043Y54622D01*
X1966924Y54690D01*
X1966808Y54761D01*
X1966693Y54836D01*
X1966581Y54913D01*
X1966470Y54994D01*
X1966363Y55079D01*
X1966258Y55166D01*
X1966155Y55256D01*
X1966055Y55349D01*
X1965958Y55445D01*
X1965863Y55544D01*
X1965771Y55645D01*
X1965683Y55749D01*
X1965597Y55855D01*
X1965515Y55964D01*
X1965435Y56075D01*
X1965359Y56189D01*
X1965286Y56305D01*
X1965217Y56422D01*
X1965151Y56542D01*
X1965088Y56663D01*
X1965029Y56787D01*
X1964974Y56911D01*
X1964922Y57038D01*
X1964874Y57166D01*
X1964829Y57295D01*
X1964789Y57425D01*
X1964752Y57557D01*
X1964718Y57690D01*
X1964689Y57823D01*
X1964664Y57957D01*
X1964642Y58092D01*
X1964624Y58228D01*
X1964611Y58364D01*
X1964601Y58500D01*
X1964595Y58636D01*
X1964593Y58773D01*
X1984466Y62329D02*
X1990393Y59959D01*
X1984466Y62330D02*
X1984365Y62372D01*
X1984266Y62418D01*
X1984168Y62468D01*
X1984073Y62521D01*
X1983979Y62577D01*
X1983887Y62636D01*
X1983798Y62699D01*
X1983710Y62765D01*
X1983626Y62834D01*
X1983543Y62906D01*
X1983464Y62981D01*
X1983387Y63059D01*
X1983312Y63139D01*
X1983241Y63222D01*
X1983173Y63307D01*
X1983108Y63395D01*
X1983046Y63485D01*
X1982987Y63577D01*
X1982931Y63671D01*
X1982879Y63768D01*
X1982831Y63866D01*
X1982786Y63965D01*
X1982744Y64066D01*
X1982706Y64169D01*
X1982672Y64273D01*
X1982641Y64378D01*
X1982615Y64484D01*
X1982592Y64591D01*
X1982572Y64698D01*
X1982557Y64806D01*
X1982546Y64915D01*
X1982538Y65024D01*
X1982534Y65134D01*
X1982535Y65243D01*
X1982539Y65352D01*
X1982547Y65461D01*
X1982558Y65570D01*
X1982574Y65678D01*
X1982594Y65786D01*
X1982617Y65892D01*
X1982644Y65998D01*
X1982675Y66103D01*
X1982710Y66207D01*
X1982748Y66309D01*
X1982790Y66410D01*
X1982835Y66510D01*
X1982884Y66608D01*
X1982937Y66704D01*
X1982992Y66798D01*
X1983051Y66890D01*
X1983114Y66979D01*
X1983179Y67067D01*
X1983248Y67152D01*
X1983319Y67235D01*
X1983394Y67315D01*
X1983471Y67392D01*
X1983551Y67467D01*
X1983634Y67539D01*
X1983719Y67607D01*
X1983806Y67673D01*
X1983896Y67735D01*
X1983988Y67795D01*
X1984082Y67851D01*
X1984177Y67903D01*
X1984275Y67952D01*
X1984374Y67998D01*
X1984475Y68040D01*
X1984578Y68079D01*
X1984681Y68113D01*
X1984786Y68144D01*
X1984892Y68172D01*
X1984999Y68195D01*
X1985106Y68215D01*
X1985215Y68231D01*
X1985323Y68243D01*
X1985432Y68251D01*
X1985542Y68255D01*
X1985651Y68256D01*
X1985651Y68257D02*
X1985975Y68248D01*
X1986298Y68232D01*
X1986621Y68208D01*
X1986943Y68176D01*
X1987264Y68136D01*
X1987584Y68089D01*
X1987903Y68034D01*
X1988221Y67972D01*
X1988537Y67901D01*
X1988851Y67824D01*
X1989163Y67738D01*
X1989473Y67645D01*
X1989781Y67545D01*
X1990086Y67438D01*
X1990389Y67323D01*
X1990689Y67201D01*
X1990985Y67071D01*
X1990392Y59958D02*
X1990493Y59916D01*
X1990592Y59870D01*
X1990690Y59820D01*
X1990785Y59767D01*
X1990879Y59711D01*
X1990971Y59652D01*
X1991060Y59589D01*
X1991148Y59523D01*
X1991232Y59454D01*
X1991315Y59382D01*
X1991394Y59307D01*
X1991471Y59229D01*
X1991546Y59149D01*
X1991617Y59066D01*
X1991685Y58981D01*
X1991750Y58893D01*
X1991812Y58803D01*
X1991871Y58711D01*
X1991927Y58617D01*
X1991979Y58520D01*
X1992027Y58422D01*
X1992072Y58323D01*
X1992114Y58222D01*
X1992152Y58119D01*
X1992186Y58015D01*
X1992217Y57910D01*
X1992243Y57804D01*
X1992266Y57697D01*
X1992286Y57590D01*
X1992301Y57482D01*
X1992312Y57373D01*
X1992320Y57264D01*
X1992324Y57154D01*
X1992323Y57045D01*
X1992319Y56936D01*
X1992311Y56827D01*
X1992300Y56718D01*
X1992284Y56610D01*
X1992264Y56502D01*
X1992241Y56396D01*
X1992214Y56290D01*
X1992183Y56185D01*
X1992148Y56081D01*
X1992110Y55979D01*
X1992068Y55878D01*
X1992023Y55778D01*
X1991974Y55680D01*
X1991921Y55584D01*
X1991866Y55490D01*
X1991807Y55398D01*
X1991744Y55309D01*
X1991679Y55221D01*
X1991610Y55136D01*
X1991539Y55053D01*
X1991464Y54973D01*
X1991387Y54896D01*
X1991307Y54821D01*
X1991224Y54749D01*
X1991139Y54681D01*
X1991052Y54615D01*
X1990962Y54553D01*
X1990870Y54493D01*
X1990776Y54437D01*
X1990681Y54385D01*
X1990583Y54336D01*
X1990484Y54290D01*
X1990383Y54248D01*
X1990280Y54209D01*
X1990177Y54175D01*
X1990072Y54144D01*
X1989966Y54116D01*
X1989859Y54093D01*
X1989752Y54073D01*
X1989643Y54057D01*
X1989535Y54045D01*
X1989426Y54037D01*
X1989316Y54033D01*
X1989207Y54032D01*
X1988732Y54044D01*
X1988257Y54068D01*
X1987783Y54103D01*
X1987309Y54149D01*
X1986837Y54206D01*
X1986367Y54275D01*
X1985898Y54354D01*
X1985431Y54445D01*
X1984967Y54546D01*
X1984505Y54659D01*
X1984046Y54782D01*
X1983590Y54917D01*
X1983137Y55062D01*
X1982688Y55217D01*
X2001479Y54032D02*
X2001479Y75368D01*
X2001479Y68256D02*
X2007406Y68256D01*
X2007522Y68254D01*
X2007639Y68248D01*
X2007755Y68239D01*
X2007870Y68226D01*
X2007985Y68209D01*
X2008100Y68188D01*
X2008213Y68163D01*
X2008326Y68135D01*
X2008438Y68103D01*
X2008549Y68067D01*
X2008659Y68028D01*
X2008767Y67985D01*
X2008874Y67939D01*
X2008979Y67889D01*
X2009082Y67836D01*
X2009184Y67780D01*
X2009284Y67720D01*
X2009382Y67657D01*
X2009477Y67590D01*
X2009571Y67521D01*
X2009662Y67449D01*
X2009751Y67374D01*
X2009837Y67295D01*
X2009920Y67214D01*
X2010001Y67131D01*
X2010080Y67045D01*
X2010155Y66956D01*
X2010227Y66865D01*
X2010296Y66771D01*
X2010363Y66676D01*
X2010426Y66578D01*
X2010486Y66478D01*
X2010542Y66376D01*
X2010595Y66273D01*
X2010645Y66168D01*
X2010691Y66061D01*
X2010734Y65953D01*
X2010773Y65843D01*
X2010809Y65732D01*
X2010841Y65620D01*
X2010869Y65507D01*
X2010894Y65394D01*
X2010915Y65279D01*
X2010932Y65164D01*
X2010945Y65049D01*
X2010954Y64933D01*
X2010960Y64816D01*
X2010962Y64700D01*
X2010962Y54032D01*
X2020966Y57588D02*
X2020966Y68256D01*
X2020966Y57588D02*
X2020968Y57472D01*
X2020974Y57355D01*
X2020983Y57239D01*
X2020996Y57124D01*
X2021013Y57009D01*
X2021034Y56894D01*
X2021059Y56781D01*
X2021087Y56668D01*
X2021119Y56556D01*
X2021155Y56445D01*
X2021194Y56335D01*
X2021237Y56227D01*
X2021283Y56120D01*
X2021333Y56015D01*
X2021386Y55912D01*
X2021442Y55810D01*
X2021502Y55710D01*
X2021565Y55612D01*
X2021632Y55517D01*
X2021701Y55423D01*
X2021773Y55332D01*
X2021848Y55243D01*
X2021927Y55157D01*
X2022008Y55074D01*
X2022091Y54993D01*
X2022177Y54914D01*
X2022266Y54839D01*
X2022357Y54767D01*
X2022451Y54698D01*
X2022546Y54631D01*
X2022644Y54568D01*
X2022744Y54508D01*
X2022846Y54452D01*
X2022949Y54399D01*
X2023054Y54349D01*
X2023161Y54303D01*
X2023269Y54260D01*
X2023379Y54221D01*
X2023490Y54185D01*
X2023602Y54153D01*
X2023715Y54125D01*
X2023828Y54100D01*
X2023943Y54079D01*
X2024058Y54062D01*
X2024173Y54049D01*
X2024289Y54040D01*
X2024406Y54034D01*
X2024522Y54032D01*
X2030448Y54032D01*
X2030448Y68256D01*
X2043793Y62329D02*
X2049127Y62329D01*
X2043793Y62330D02*
X2043665Y62328D01*
X2043538Y62322D01*
X2043410Y62312D01*
X2043283Y62299D01*
X2043157Y62281D01*
X2043031Y62259D01*
X2042905Y62234D01*
X2042781Y62205D01*
X2042658Y62172D01*
X2042535Y62135D01*
X2042414Y62094D01*
X2042294Y62050D01*
X2042176Y62002D01*
X2042059Y61950D01*
X2041944Y61895D01*
X2041830Y61836D01*
X2041719Y61774D01*
X2041609Y61709D01*
X2041501Y61640D01*
X2041396Y61567D01*
X2041293Y61492D01*
X2041192Y61413D01*
X2041094Y61332D01*
X2040998Y61247D01*
X2040905Y61160D01*
X2040814Y61069D01*
X2040727Y60976D01*
X2040642Y60880D01*
X2040561Y60782D01*
X2040482Y60681D01*
X2040407Y60578D01*
X2040334Y60473D01*
X2040265Y60365D01*
X2040200Y60256D01*
X2040138Y60144D01*
X2040079Y60030D01*
X2040024Y59915D01*
X2039972Y59798D01*
X2039924Y59680D01*
X2039880Y59560D01*
X2039839Y59439D01*
X2039802Y59316D01*
X2039769Y59193D01*
X2039740Y59069D01*
X2039715Y58943D01*
X2039693Y58817D01*
X2039675Y58691D01*
X2039662Y58564D01*
X2039652Y58436D01*
X2039646Y58309D01*
X2039644Y58181D01*
X2039646Y58053D01*
X2039652Y57926D01*
X2039662Y57798D01*
X2039675Y57671D01*
X2039693Y57545D01*
X2039715Y57419D01*
X2039740Y57293D01*
X2039769Y57169D01*
X2039802Y57046D01*
X2039839Y56923D01*
X2039880Y56802D01*
X2039924Y56682D01*
X2039972Y56564D01*
X2040024Y56447D01*
X2040079Y56332D01*
X2040138Y56218D01*
X2040200Y56107D01*
X2040265Y55997D01*
X2040334Y55889D01*
X2040407Y55784D01*
X2040482Y55681D01*
X2040561Y55580D01*
X2040642Y55482D01*
X2040727Y55386D01*
X2040814Y55293D01*
X2040905Y55202D01*
X2040998Y55115D01*
X2041094Y55030D01*
X2041192Y54949D01*
X2041293Y54870D01*
X2041396Y54795D01*
X2041501Y54722D01*
X2041609Y54653D01*
X2041719Y54588D01*
X2041830Y54526D01*
X2041944Y54467D01*
X2042059Y54412D01*
X2042176Y54360D01*
X2042294Y54312D01*
X2042414Y54268D01*
X2042535Y54227D01*
X2042658Y54190D01*
X2042781Y54157D01*
X2042905Y54128D01*
X2043031Y54103D01*
X2043157Y54081D01*
X2043283Y54063D01*
X2043410Y54050D01*
X2043538Y54040D01*
X2043665Y54034D01*
X2043793Y54032D01*
X2049127Y54032D01*
X2049127Y64700D01*
X2049125Y64816D01*
X2049119Y64933D01*
X2049110Y65049D01*
X2049097Y65164D01*
X2049080Y65279D01*
X2049059Y65394D01*
X2049034Y65507D01*
X2049006Y65620D01*
X2048974Y65732D01*
X2048938Y65843D01*
X2048899Y65953D01*
X2048856Y66061D01*
X2048810Y66168D01*
X2048760Y66273D01*
X2048707Y66376D01*
X2048651Y66478D01*
X2048591Y66578D01*
X2048528Y66676D01*
X2048461Y66771D01*
X2048392Y66865D01*
X2048320Y66956D01*
X2048245Y67045D01*
X2048166Y67131D01*
X2048085Y67214D01*
X2048002Y67295D01*
X2047916Y67374D01*
X2047827Y67449D01*
X2047736Y67521D01*
X2047642Y67590D01*
X2047547Y67657D01*
X2047449Y67720D01*
X2047349Y67780D01*
X2047247Y67836D01*
X2047144Y67889D01*
X2047039Y67939D01*
X2046932Y67985D01*
X2046824Y68028D01*
X2046714Y68067D01*
X2046603Y68103D01*
X2046491Y68135D01*
X2046378Y68163D01*
X2046265Y68188D01*
X2046150Y68209D01*
X2046035Y68226D01*
X2045920Y68239D01*
X2045804Y68248D01*
X2045687Y68254D01*
X2045571Y68256D01*
X2040830Y68256D01*
X2070911Y75368D02*
X2070911Y54032D01*
X2070911Y75368D02*
X2076837Y75368D01*
X2076990Y75366D01*
X2077142Y75360D01*
X2077294Y75350D01*
X2077446Y75337D01*
X2077598Y75319D01*
X2077749Y75297D01*
X2077900Y75272D01*
X2078049Y75243D01*
X2078198Y75210D01*
X2078346Y75173D01*
X2078494Y75132D01*
X2078639Y75087D01*
X2078784Y75039D01*
X2078928Y74987D01*
X2079070Y74931D01*
X2079210Y74872D01*
X2079350Y74809D01*
X2079487Y74743D01*
X2079623Y74673D01*
X2079756Y74599D01*
X2079888Y74522D01*
X2080018Y74442D01*
X2080146Y74358D01*
X2080271Y74272D01*
X2080394Y74182D01*
X2080515Y74088D01*
X2080634Y73992D01*
X2080750Y73893D01*
X2080863Y73791D01*
X2080974Y73686D01*
X2081082Y73578D01*
X2081187Y73467D01*
X2081289Y73354D01*
X2081388Y73238D01*
X2081484Y73119D01*
X2081578Y72998D01*
X2081668Y72875D01*
X2081754Y72750D01*
X2081838Y72622D01*
X2081918Y72492D01*
X2081995Y72360D01*
X2082069Y72227D01*
X2082139Y72091D01*
X2082205Y71954D01*
X2082268Y71814D01*
X2082327Y71674D01*
X2082383Y71532D01*
X2082435Y71388D01*
X2082483Y71243D01*
X2082528Y71098D01*
X2082569Y70950D01*
X2082606Y70802D01*
X2082639Y70653D01*
X2082668Y70504D01*
X2082693Y70353D01*
X2082715Y70202D01*
X2082733Y70050D01*
X2082746Y69898D01*
X2082756Y69746D01*
X2082762Y69594D01*
X2082764Y69441D01*
X2082762Y69288D01*
X2082756Y69136D01*
X2082746Y68984D01*
X2082733Y68832D01*
X2082715Y68680D01*
X2082693Y68529D01*
X2082668Y68378D01*
X2082639Y68229D01*
X2082606Y68080D01*
X2082569Y67932D01*
X2082528Y67784D01*
X2082483Y67639D01*
X2082435Y67494D01*
X2082383Y67350D01*
X2082327Y67208D01*
X2082268Y67068D01*
X2082205Y66928D01*
X2082139Y66791D01*
X2082069Y66655D01*
X2081995Y66522D01*
X2081918Y66390D01*
X2081838Y66260D01*
X2081754Y66132D01*
X2081668Y66007D01*
X2081578Y65884D01*
X2081484Y65763D01*
X2081388Y65644D01*
X2081289Y65528D01*
X2081187Y65415D01*
X2081082Y65304D01*
X2080974Y65196D01*
X2080863Y65091D01*
X2080750Y64989D01*
X2080634Y64890D01*
X2080515Y64794D01*
X2080394Y64700D01*
X2080271Y64610D01*
X2080146Y64524D01*
X2080018Y64440D01*
X2079888Y64360D01*
X2079756Y64283D01*
X2079623Y64209D01*
X2079487Y64139D01*
X2079350Y64073D01*
X2079210Y64010D01*
X2079070Y63951D01*
X2078928Y63895D01*
X2078784Y63843D01*
X2078639Y63795D01*
X2078494Y63750D01*
X2078346Y63709D01*
X2078198Y63672D01*
X2078049Y63639D01*
X2077900Y63610D01*
X2077749Y63585D01*
X2077598Y63563D01*
X2077446Y63545D01*
X2077294Y63532D01*
X2077142Y63522D01*
X2076990Y63516D01*
X2076837Y63514D01*
X2076837Y63515D02*
X2070911Y63515D01*
X2094118Y54032D02*
X2100044Y54032D01*
X2094118Y54032D02*
X2094002Y54034D01*
X2093885Y54040D01*
X2093769Y54049D01*
X2093654Y54062D01*
X2093539Y54079D01*
X2093424Y54100D01*
X2093311Y54125D01*
X2093198Y54153D01*
X2093086Y54185D01*
X2092975Y54221D01*
X2092865Y54260D01*
X2092757Y54303D01*
X2092650Y54349D01*
X2092545Y54399D01*
X2092442Y54452D01*
X2092340Y54508D01*
X2092240Y54568D01*
X2092142Y54631D01*
X2092047Y54698D01*
X2091953Y54767D01*
X2091862Y54839D01*
X2091773Y54914D01*
X2091687Y54993D01*
X2091604Y55074D01*
X2091523Y55157D01*
X2091444Y55243D01*
X2091369Y55332D01*
X2091297Y55423D01*
X2091228Y55517D01*
X2091161Y55612D01*
X2091098Y55710D01*
X2091038Y55810D01*
X2090982Y55912D01*
X2090929Y56015D01*
X2090879Y56120D01*
X2090833Y56227D01*
X2090790Y56335D01*
X2090751Y56445D01*
X2090715Y56556D01*
X2090683Y56668D01*
X2090655Y56781D01*
X2090630Y56894D01*
X2090609Y57009D01*
X2090592Y57124D01*
X2090579Y57239D01*
X2090570Y57355D01*
X2090564Y57472D01*
X2090562Y57588D01*
X2090562Y63515D01*
X2090564Y63652D01*
X2090570Y63788D01*
X2090580Y63924D01*
X2090593Y64060D01*
X2090611Y64196D01*
X2090633Y64331D01*
X2090658Y64465D01*
X2090687Y64598D01*
X2090721Y64731D01*
X2090758Y64863D01*
X2090798Y64993D01*
X2090843Y65122D01*
X2090891Y65250D01*
X2090943Y65377D01*
X2090998Y65501D01*
X2091057Y65625D01*
X2091120Y65746D01*
X2091186Y65866D01*
X2091255Y65983D01*
X2091328Y66099D01*
X2091404Y66213D01*
X2091484Y66324D01*
X2091566Y66433D01*
X2091652Y66539D01*
X2091740Y66643D01*
X2091832Y66744D01*
X2091927Y66843D01*
X2092024Y66939D01*
X2092124Y67032D01*
X2092227Y67122D01*
X2092332Y67209D01*
X2092439Y67294D01*
X2092550Y67375D01*
X2092662Y67452D01*
X2092777Y67527D01*
X2092893Y67598D01*
X2093012Y67666D01*
X2093132Y67730D01*
X2093255Y67791D01*
X2093379Y67848D01*
X2093504Y67902D01*
X2093632Y67952D01*
X2093760Y67998D01*
X2093890Y68041D01*
X2094021Y68079D01*
X2094153Y68114D01*
X2094286Y68146D01*
X2094420Y68173D01*
X2094555Y68197D01*
X2094690Y68216D01*
X2094826Y68232D01*
X2094962Y68244D01*
X2095098Y68252D01*
X2095235Y68256D01*
X2095371Y68256D01*
X2095508Y68252D01*
X2095644Y68244D01*
X2095780Y68232D01*
X2095916Y68216D01*
X2096051Y68197D01*
X2096186Y68173D01*
X2096320Y68146D01*
X2096453Y68114D01*
X2096585Y68079D01*
X2096716Y68041D01*
X2096846Y67998D01*
X2096974Y67952D01*
X2097102Y67902D01*
X2097227Y67848D01*
X2097351Y67791D01*
X2097474Y67730D01*
X2097594Y67666D01*
X2097713Y67598D01*
X2097829Y67527D01*
X2097944Y67452D01*
X2098056Y67375D01*
X2098167Y67294D01*
X2098274Y67209D01*
X2098379Y67122D01*
X2098482Y67032D01*
X2098582Y66939D01*
X2098679Y66843D01*
X2098774Y66744D01*
X2098866Y66643D01*
X2098954Y66539D01*
X2099040Y66433D01*
X2099122Y66324D01*
X2099202Y66213D01*
X2099278Y66099D01*
X2099351Y65983D01*
X2099420Y65866D01*
X2099486Y65746D01*
X2099549Y65625D01*
X2099608Y65501D01*
X2099663Y65377D01*
X2099715Y65250D01*
X2099763Y65122D01*
X2099808Y64993D01*
X2099848Y64863D01*
X2099885Y64731D01*
X2099919Y64598D01*
X2099948Y64465D01*
X2099973Y64331D01*
X2099995Y64196D01*
X2100013Y64060D01*
X2100026Y63924D01*
X2100036Y63788D01*
X2100042Y63652D01*
X2100044Y63515D01*
X2100044Y61144D01*
X2090562Y61144D01*
X2106873Y68256D02*
X2113985Y68256D01*
X2109244Y75368D02*
X2109244Y57588D01*
X2109246Y57472D01*
X2109252Y57355D01*
X2109261Y57239D01*
X2109274Y57124D01*
X2109291Y57009D01*
X2109312Y56894D01*
X2109337Y56781D01*
X2109365Y56668D01*
X2109397Y56556D01*
X2109433Y56445D01*
X2109472Y56335D01*
X2109515Y56227D01*
X2109561Y56120D01*
X2109611Y56015D01*
X2109664Y55912D01*
X2109720Y55810D01*
X2109780Y55710D01*
X2109843Y55612D01*
X2109910Y55517D01*
X2109979Y55423D01*
X2110051Y55332D01*
X2110126Y55243D01*
X2110205Y55157D01*
X2110286Y55074D01*
X2110369Y54993D01*
X2110455Y54914D01*
X2110544Y54839D01*
X2110635Y54767D01*
X2110729Y54698D01*
X2110824Y54631D01*
X2110922Y54568D01*
X2111022Y54508D01*
X2111124Y54452D01*
X2111227Y54399D01*
X2111332Y54349D01*
X2111439Y54303D01*
X2111547Y54260D01*
X2111657Y54221D01*
X2111768Y54185D01*
X2111880Y54153D01*
X2111993Y54125D01*
X2112106Y54100D01*
X2112221Y54079D01*
X2112336Y54062D01*
X2112451Y54049D01*
X2112567Y54040D01*
X2112684Y54034D01*
X2112800Y54032D01*
X2113985Y54032D01*
X2122717Y54032D02*
X2122717Y68256D01*
X2129829Y68256D01*
X2129829Y65885D01*
X2136364Y68256D02*
X2136364Y54032D01*
X2135772Y74183D02*
X2135772Y75368D01*
X2136957Y75368D01*
X2136957Y74183D01*
X2135772Y74183D01*
X2145542Y68256D02*
X2145542Y54032D01*
X2145542Y68256D02*
X2151469Y68256D01*
X2151585Y68254D01*
X2151702Y68248D01*
X2151818Y68239D01*
X2151933Y68226D01*
X2152048Y68209D01*
X2152163Y68188D01*
X2152276Y68163D01*
X2152389Y68135D01*
X2152501Y68103D01*
X2152612Y68067D01*
X2152722Y68028D01*
X2152830Y67985D01*
X2152937Y67939D01*
X2153042Y67889D01*
X2153145Y67836D01*
X2153247Y67780D01*
X2153347Y67720D01*
X2153445Y67657D01*
X2153540Y67590D01*
X2153634Y67521D01*
X2153725Y67449D01*
X2153814Y67374D01*
X2153900Y67295D01*
X2153983Y67214D01*
X2154064Y67131D01*
X2154143Y67045D01*
X2154218Y66956D01*
X2154290Y66865D01*
X2154359Y66771D01*
X2154426Y66676D01*
X2154489Y66578D01*
X2154549Y66478D01*
X2154605Y66376D01*
X2154658Y66273D01*
X2154708Y66168D01*
X2154754Y66061D01*
X2154797Y65953D01*
X2154836Y65843D01*
X2154872Y65732D01*
X2154904Y65620D01*
X2154932Y65507D01*
X2154957Y65394D01*
X2154978Y65279D01*
X2154995Y65164D01*
X2155008Y65049D01*
X2155017Y64933D01*
X2155023Y64816D01*
X2155025Y64700D01*
X2155025Y54032D01*
D10*
X90857Y141614D02*
X80443Y138143D01*
X80443Y145086D02*
X90857Y141614D01*
X90857Y151725D02*
X90857Y154040D01*
X90857Y151725D02*
X90855Y151642D01*
X90849Y151560D01*
X90839Y151478D01*
X90826Y151396D01*
X90808Y151316D01*
X90787Y151236D01*
X90762Y151157D01*
X90733Y151080D01*
X90700Y151004D01*
X90664Y150930D01*
X90624Y150857D01*
X90581Y150786D01*
X90535Y150718D01*
X90486Y150652D01*
X90433Y150588D01*
X90377Y150527D01*
X90319Y150469D01*
X90258Y150413D01*
X90194Y150360D01*
X90128Y150311D01*
X90060Y150265D01*
X89989Y150222D01*
X89917Y150182D01*
X89842Y150146D01*
X89766Y150113D01*
X89689Y150084D01*
X89610Y150059D01*
X89530Y150038D01*
X89450Y150020D01*
X89368Y150007D01*
X89286Y149997D01*
X89204Y149991D01*
X89121Y149989D01*
X89121Y149990D02*
X85650Y149990D01*
X85650Y149989D02*
X85567Y149991D01*
X85485Y149997D01*
X85403Y150007D01*
X85321Y150020D01*
X85241Y150038D01*
X85161Y150059D01*
X85082Y150084D01*
X85005Y150113D01*
X84929Y150146D01*
X84855Y150182D01*
X84782Y150222D01*
X84711Y150265D01*
X84643Y150311D01*
X84577Y150360D01*
X84513Y150413D01*
X84452Y150469D01*
X84394Y150527D01*
X84338Y150588D01*
X84285Y150652D01*
X84236Y150718D01*
X84190Y150786D01*
X84147Y150857D01*
X84107Y150930D01*
X84071Y151004D01*
X84038Y151080D01*
X84009Y151157D01*
X83984Y151236D01*
X83963Y151316D01*
X83945Y151396D01*
X83932Y151478D01*
X83922Y151560D01*
X83916Y151642D01*
X83914Y151725D01*
X83914Y154040D01*
X90857Y160488D02*
X90857Y162803D01*
X90857Y160488D02*
X90855Y160405D01*
X90849Y160323D01*
X90839Y160241D01*
X90826Y160159D01*
X90808Y160079D01*
X90787Y159999D01*
X90762Y159920D01*
X90733Y159843D01*
X90700Y159767D01*
X90664Y159693D01*
X90624Y159620D01*
X90581Y159549D01*
X90535Y159481D01*
X90486Y159415D01*
X90433Y159351D01*
X90377Y159290D01*
X90319Y159232D01*
X90258Y159176D01*
X90194Y159123D01*
X90128Y159074D01*
X90060Y159028D01*
X89989Y158985D01*
X89917Y158945D01*
X89842Y158909D01*
X89766Y158876D01*
X89689Y158847D01*
X89610Y158822D01*
X89530Y158801D01*
X89450Y158783D01*
X89368Y158770D01*
X89286Y158760D01*
X89204Y158754D01*
X89121Y158752D01*
X89121Y158753D02*
X85650Y158753D01*
X85650Y158752D02*
X85567Y158754D01*
X85485Y158760D01*
X85403Y158770D01*
X85321Y158783D01*
X85241Y158801D01*
X85161Y158822D01*
X85082Y158847D01*
X85005Y158876D01*
X84929Y158909D01*
X84855Y158945D01*
X84782Y158985D01*
X84711Y159028D01*
X84643Y159074D01*
X84577Y159123D01*
X84513Y159176D01*
X84452Y159232D01*
X84394Y159290D01*
X84338Y159351D01*
X84285Y159415D01*
X84236Y159481D01*
X84190Y159549D01*
X84147Y159620D01*
X84107Y159693D01*
X84071Y159767D01*
X84038Y159843D01*
X84009Y159920D01*
X83984Y159999D01*
X83963Y160079D01*
X83945Y160159D01*
X83932Y160241D01*
X83922Y160323D01*
X83916Y160405D01*
X83914Y160488D01*
X83914Y162803D01*
D12*
X147249Y48415D02*
X385931Y135288D01*
X365951Y190185D02*
X127269Y103312D01*
X147249Y48415D01*
X385931Y135288D02*
X379416Y153189D01*
X372466Y172284D02*
X365951Y190185D01*
X372466Y172284D02*
X372233Y172196D01*
X372002Y172102D01*
X371773Y172003D01*
X371547Y171898D01*
X371324Y171787D01*
X371103Y171671D01*
X370885Y171550D01*
X370670Y171423D01*
X370459Y171291D01*
X370250Y171154D01*
X370046Y171012D01*
X369844Y170864D01*
X369647Y170712D01*
X369453Y170556D01*
X369263Y170394D01*
X369077Y170228D01*
X368895Y170057D01*
X368718Y169882D01*
X368545Y169702D01*
X368376Y169519D01*
X368212Y169331D01*
X368052Y169140D01*
X367897Y168944D01*
X367748Y168745D01*
X367603Y168542D01*
X367463Y168335D01*
X367328Y168126D01*
X367198Y167913D01*
X367074Y167697D01*
X366955Y167477D01*
X366841Y167255D01*
X366733Y167031D01*
X366630Y166804D01*
X366533Y166574D01*
X366442Y166342D01*
X366356Y166108D01*
X366277Y165871D01*
X366203Y165633D01*
X366134Y165393D01*
X366072Y165152D01*
X366016Y164909D01*
X365966Y164665D01*
X365921Y164419D01*
X365883Y164173D01*
X365851Y163926D01*
X365825Y163678D01*
X365805Y163429D01*
X365791Y163180D01*
X365783Y162931D01*
X365781Y162682D01*
X365786Y162432D01*
X365796Y162183D01*
X365813Y161934D01*
X365836Y161686D01*
X365864Y161438D01*
X365899Y161191D01*
X365940Y160945D01*
X365987Y160701D01*
X366040Y160457D01*
X366099Y160215D01*
X366164Y159974D01*
X366235Y159735D01*
X366311Y159497D01*
X366394Y159262D01*
X366482Y159029D01*
X366576Y158798D01*
X366675Y158569D01*
X366780Y158343D01*
X366891Y158120D01*
X367007Y157899D01*
X367128Y157681D01*
X367255Y157466D01*
X367387Y157255D01*
X367524Y157046D01*
X367666Y156842D01*
X367814Y156640D01*
X367966Y156443D01*
X368122Y156249D01*
X368284Y156059D01*
X368450Y155873D01*
X368621Y155691D01*
X368796Y155514D01*
X368976Y155341D01*
X369159Y155172D01*
X369347Y155008D01*
X369538Y154848D01*
X369734Y154693D01*
X369933Y154544D01*
X370136Y154399D01*
X370343Y154259D01*
X370552Y154124D01*
X370765Y153994D01*
X370981Y153870D01*
X371201Y153751D01*
X371423Y153637D01*
X371647Y153529D01*
X371874Y153426D01*
X372104Y153329D01*
X372336Y153238D01*
X372570Y153152D01*
X372807Y153073D01*
X373045Y152999D01*
X373285Y152930D01*
X373526Y152868D01*
X373769Y152812D01*
X374013Y152762D01*
X374259Y152717D01*
X374505Y152679D01*
X374752Y152647D01*
X375000Y152621D01*
X375249Y152601D01*
X375498Y152587D01*
X375747Y152579D01*
X375996Y152577D01*
X376246Y152582D01*
X376495Y152592D01*
X376744Y152609D01*
X376992Y152632D01*
X377240Y152660D01*
X377487Y152695D01*
X377733Y152736D01*
X377977Y152783D01*
X378221Y152836D01*
X378463Y152895D01*
X378704Y152960D01*
X378943Y153031D01*
X379181Y153107D01*
X379416Y153190D01*
X370498Y191059D02*
X381000Y194882D01*
X370073Y192226D02*
X370922Y189892D01*
X381424Y193715D02*
X380575Y196048D01*
X373399Y183089D02*
X374248Y180755D01*
X373398Y183088D02*
X373366Y183181D01*
X373338Y183274D01*
X373314Y183369D01*
X373294Y183464D01*
X373277Y183560D01*
X373264Y183657D01*
X373255Y183754D01*
X373250Y183851D01*
X373248Y183949D01*
X373250Y184046D01*
X373257Y184144D01*
X373267Y184241D01*
X373280Y184337D01*
X373298Y184433D01*
X373319Y184528D01*
X373344Y184623D01*
X373373Y184716D01*
X373405Y184808D01*
X373441Y184899D01*
X373481Y184988D01*
X373524Y185075D01*
X373570Y185161D01*
X373620Y185245D01*
X373673Y185327D01*
X373729Y185407D01*
X373788Y185484D01*
X373850Y185559D01*
X373915Y185632D01*
X373983Y185702D01*
X374054Y185769D01*
X374127Y185834D01*
X374203Y185895D01*
X374281Y185954D01*
X374361Y186009D01*
X374443Y186062D01*
X374528Y186111D01*
X374614Y186156D01*
X374702Y186198D01*
X374791Y186237D01*
X374882Y186272D01*
X374883Y186272D02*
X380717Y188396D01*
X380810Y188428D01*
X380903Y188456D01*
X380998Y188480D01*
X381093Y188500D01*
X381189Y188517D01*
X381286Y188530D01*
X381383Y188539D01*
X381480Y188544D01*
X381578Y188546D01*
X381675Y188544D01*
X381773Y188537D01*
X381870Y188527D01*
X381966Y188514D01*
X382062Y188496D01*
X382157Y188475D01*
X382252Y188450D01*
X382345Y188421D01*
X382437Y188389D01*
X382528Y188353D01*
X382617Y188313D01*
X382704Y188270D01*
X382790Y188224D01*
X382874Y188174D01*
X382956Y188121D01*
X383036Y188065D01*
X383113Y188006D01*
X383188Y187944D01*
X383261Y187879D01*
X383331Y187811D01*
X383398Y187740D01*
X383463Y187667D01*
X383524Y187591D01*
X383583Y187513D01*
X383638Y187433D01*
X383691Y187351D01*
X383740Y187266D01*
X383785Y187180D01*
X383827Y187092D01*
X383866Y187003D01*
X383901Y186912D01*
X383901Y186911D02*
X384750Y184578D01*
X383989Y179406D02*
X387385Y177338D01*
X376883Y173516D01*
X375821Y176433D02*
X377945Y170599D01*
X224431Y112122D02*
X224855Y110955D01*
X224431Y112122D02*
X230265Y114245D01*
X231170Y102681D01*
X238144Y107863D02*
X237505Y116880D01*
X238144Y107863D02*
X243979Y109986D01*
X241379Y111683D02*
X243078Y107015D01*
X250093Y109569D02*
X246270Y120071D01*
X247969Y115403D02*
X253803Y117526D01*
X252105Y122194D02*
X255927Y111692D01*
X263486Y114443D02*
X265820Y115293D01*
X263487Y114443D02*
X263394Y114411D01*
X263301Y114383D01*
X263206Y114359D01*
X263111Y114339D01*
X263015Y114322D01*
X262918Y114309D01*
X262821Y114300D01*
X262724Y114295D01*
X262626Y114293D01*
X262529Y114295D01*
X262431Y114302D01*
X262334Y114312D01*
X262238Y114325D01*
X262142Y114343D01*
X262047Y114364D01*
X261952Y114389D01*
X261859Y114418D01*
X261767Y114450D01*
X261676Y114486D01*
X261587Y114526D01*
X261500Y114569D01*
X261414Y114615D01*
X261330Y114665D01*
X261248Y114718D01*
X261168Y114774D01*
X261091Y114833D01*
X261016Y114895D01*
X260943Y114960D01*
X260873Y115028D01*
X260806Y115099D01*
X260741Y115172D01*
X260680Y115248D01*
X260621Y115326D01*
X260566Y115406D01*
X260513Y115488D01*
X260464Y115573D01*
X260419Y115659D01*
X260377Y115747D01*
X260338Y115836D01*
X260303Y115927D01*
X260303Y115928D02*
X258179Y121762D01*
X258147Y121855D01*
X258119Y121948D01*
X258095Y122043D01*
X258075Y122138D01*
X258058Y122234D01*
X258045Y122331D01*
X258036Y122428D01*
X258031Y122525D01*
X258029Y122623D01*
X258031Y122720D01*
X258038Y122818D01*
X258048Y122915D01*
X258061Y123011D01*
X258079Y123107D01*
X258100Y123202D01*
X258125Y123297D01*
X258154Y123390D01*
X258186Y123482D01*
X258222Y123573D01*
X258262Y123662D01*
X258305Y123749D01*
X258351Y123835D01*
X258401Y123919D01*
X258454Y124001D01*
X258510Y124081D01*
X258569Y124158D01*
X258631Y124233D01*
X258696Y124306D01*
X258764Y124376D01*
X258835Y124443D01*
X258908Y124508D01*
X258984Y124569D01*
X259062Y124628D01*
X259142Y124683D01*
X259224Y124736D01*
X259309Y124785D01*
X259395Y124830D01*
X259483Y124872D01*
X259572Y124911D01*
X259663Y124946D01*
X259664Y124945D02*
X261997Y125795D01*
X270142Y116866D02*
X273642Y118140D01*
X273643Y118140D02*
X273734Y118175D01*
X273823Y118214D01*
X273911Y118256D01*
X273997Y118301D01*
X274082Y118350D01*
X274164Y118403D01*
X274244Y118458D01*
X274322Y118517D01*
X274398Y118578D01*
X274471Y118643D01*
X274542Y118710D01*
X274610Y118780D01*
X274675Y118853D01*
X274737Y118928D01*
X274796Y119005D01*
X274852Y119085D01*
X274905Y119167D01*
X274955Y119251D01*
X275001Y119337D01*
X275044Y119424D01*
X275084Y119513D01*
X275120Y119604D01*
X275152Y119696D01*
X275181Y119789D01*
X275206Y119884D01*
X275227Y119979D01*
X275245Y120075D01*
X275258Y120171D01*
X275268Y120268D01*
X275275Y120366D01*
X275277Y120463D01*
X275275Y120561D01*
X275270Y120658D01*
X275261Y120755D01*
X275248Y120852D01*
X275231Y120948D01*
X275211Y121043D01*
X275187Y121138D01*
X275159Y121231D01*
X275127Y121324D01*
X275127Y121323D02*
X274702Y122490D01*
X274702Y122491D02*
X274667Y122582D01*
X274628Y122671D01*
X274586Y122759D01*
X274541Y122845D01*
X274492Y122930D01*
X274439Y123012D01*
X274384Y123092D01*
X274325Y123170D01*
X274264Y123246D01*
X274199Y123319D01*
X274132Y123390D01*
X274062Y123458D01*
X273989Y123523D01*
X273914Y123585D01*
X273837Y123644D01*
X273757Y123700D01*
X273675Y123753D01*
X273591Y123803D01*
X273505Y123849D01*
X273418Y123892D01*
X273329Y123932D01*
X273238Y123968D01*
X273146Y124000D01*
X273053Y124029D01*
X272958Y124054D01*
X272863Y124075D01*
X272767Y124093D01*
X272671Y124106D01*
X272574Y124116D01*
X272476Y124123D01*
X272379Y124125D01*
X272281Y124123D01*
X272184Y124118D01*
X272087Y124109D01*
X271990Y124096D01*
X271894Y124079D01*
X271799Y124059D01*
X271704Y124035D01*
X271611Y124007D01*
X271518Y123975D01*
X271519Y123974D02*
X268018Y122700D01*
X266319Y127368D01*
X272154Y129491D01*
X277060Y131277D02*
X277485Y130110D01*
X277060Y131277D02*
X282894Y133401D01*
X283800Y121837D01*
X290774Y127018D02*
X290134Y136036D01*
X290774Y127018D02*
X296608Y129142D01*
X294008Y130838D02*
X295707Y126171D01*
X302722Y128724D02*
X298899Y139226D01*
X308556Y130847D01*
X304734Y141349D01*
X76200Y166850D02*
X76200Y179550D01*
X76200Y166850D02*
X69850Y160500D01*
X76200Y154150D01*
X76200Y141450D01*
X69850Y135100D01*
X76200Y179550D02*
X69850Y185900D01*
X69850Y135100D02*
X76200Y128750D01*
X76200Y116050D01*
X69850Y109700D01*
X76200Y103350D02*
X76200Y90650D01*
X69850Y84300D01*
X76200Y77950D01*
X76200Y65250D01*
X69850Y58900D01*
X76200Y103350D02*
X69850Y109700D01*
X69850Y58900D02*
X76200Y52550D01*
X76200Y39850D01*
X69850Y33500D01*
X31750Y33500D01*
X31750Y160500D02*
X25400Y166850D01*
X25400Y141450D02*
X31750Y135100D01*
X25400Y141450D02*
X25400Y154150D01*
X31750Y160500D01*
X31750Y185900D02*
X69850Y185900D01*
X31750Y185900D02*
X25400Y179550D01*
X25400Y166850D01*
X25400Y116050D02*
X31750Y109700D01*
X25400Y116050D02*
X25400Y128750D01*
X31750Y135100D01*
X25400Y90650D02*
X31750Y84300D01*
X25400Y65250D02*
X31750Y58900D01*
X25400Y65250D02*
X25400Y77950D01*
X31750Y84300D01*
X25400Y103350D02*
X31750Y109700D01*
X25400Y103350D02*
X25400Y90650D01*
X25400Y39850D02*
X31750Y33500D01*
X25400Y39850D02*
X25400Y52550D01*
X31750Y58900D01*
D13*
X12065Y171295D02*
X9525Y174470D01*
X20955Y174470D01*
X20955Y171295D02*
X20955Y177645D01*
X80645Y43660D02*
X83185Y40485D01*
X80645Y43660D02*
X92075Y43660D01*
X92075Y40485D02*
X92075Y46835D01*
X80645Y55408D02*
X80647Y55512D01*
X80653Y55617D01*
X80662Y55721D01*
X80675Y55824D01*
X80693Y55927D01*
X80713Y56029D01*
X80738Y56131D01*
X80766Y56231D01*
X80798Y56331D01*
X80834Y56429D01*
X80873Y56526D01*
X80915Y56621D01*
X80961Y56715D01*
X81011Y56807D01*
X81063Y56897D01*
X81119Y56985D01*
X81179Y57071D01*
X81241Y57155D01*
X81306Y57236D01*
X81374Y57315D01*
X81446Y57392D01*
X81519Y57465D01*
X81596Y57537D01*
X81675Y57605D01*
X81756Y57670D01*
X81840Y57732D01*
X81926Y57792D01*
X82014Y57848D01*
X82104Y57900D01*
X82196Y57950D01*
X82290Y57996D01*
X82385Y58038D01*
X82482Y58077D01*
X82580Y58113D01*
X82680Y58145D01*
X82780Y58173D01*
X82882Y58198D01*
X82984Y58218D01*
X83087Y58236D01*
X83190Y58249D01*
X83294Y58258D01*
X83399Y58264D01*
X83503Y58266D01*
X80645Y55408D02*
X80647Y55290D01*
X80653Y55171D01*
X80662Y55053D01*
X80675Y54936D01*
X80693Y54819D01*
X80713Y54702D01*
X80738Y54586D01*
X80766Y54471D01*
X80799Y54358D01*
X80834Y54245D01*
X80874Y54133D01*
X80916Y54023D01*
X80963Y53914D01*
X81013Y53806D01*
X81066Y53701D01*
X81123Y53597D01*
X81183Y53495D01*
X81246Y53395D01*
X81313Y53297D01*
X81382Y53201D01*
X81455Y53108D01*
X81531Y53017D01*
X81609Y52928D01*
X81691Y52842D01*
X81775Y52759D01*
X81861Y52678D01*
X81951Y52601D01*
X82042Y52526D01*
X82136Y52454D01*
X82233Y52385D01*
X82331Y52320D01*
X82432Y52257D01*
X82535Y52198D01*
X82639Y52142D01*
X82745Y52090D01*
X82853Y52041D01*
X82962Y51996D01*
X83073Y51954D01*
X83185Y51916D01*
X85725Y57313D02*
X85650Y57389D01*
X85571Y57464D01*
X85490Y57535D01*
X85406Y57604D01*
X85320Y57669D01*
X85232Y57731D01*
X85142Y57791D01*
X85050Y57847D01*
X84955Y57900D01*
X84859Y57949D01*
X84761Y57995D01*
X84662Y58038D01*
X84561Y58077D01*
X84459Y58112D01*
X84356Y58144D01*
X84252Y58172D01*
X84147Y58197D01*
X84040Y58218D01*
X83934Y58235D01*
X83827Y58248D01*
X83719Y58257D01*
X83611Y58263D01*
X83503Y58265D01*
X85725Y57313D02*
X92075Y51915D01*
X92075Y58265D01*
X111075Y95246D02*
X111073Y95346D01*
X111067Y95445D01*
X111057Y95545D01*
X111044Y95643D01*
X111026Y95742D01*
X111005Y95839D01*
X110980Y95935D01*
X110951Y96031D01*
X110918Y96125D01*
X110882Y96218D01*
X110842Y96309D01*
X110798Y96399D01*
X110751Y96487D01*
X110701Y96573D01*
X110647Y96657D01*
X110590Y96739D01*
X110530Y96818D01*
X110466Y96896D01*
X110400Y96970D01*
X110331Y97042D01*
X110259Y97111D01*
X110185Y97177D01*
X110107Y97241D01*
X110028Y97301D01*
X109946Y97358D01*
X109862Y97412D01*
X109776Y97462D01*
X109688Y97509D01*
X109598Y97553D01*
X109507Y97593D01*
X109414Y97629D01*
X109320Y97662D01*
X109224Y97691D01*
X109128Y97716D01*
X109031Y97737D01*
X108932Y97755D01*
X108834Y97768D01*
X108734Y97778D01*
X108635Y97784D01*
X108535Y97786D01*
X111075Y95246D02*
X111073Y95105D01*
X111068Y94964D01*
X111058Y94823D01*
X111045Y94682D01*
X111029Y94542D01*
X111008Y94402D01*
X110984Y94263D01*
X110956Y94124D01*
X110925Y93987D01*
X110890Y93850D01*
X110852Y93714D01*
X110810Y93579D01*
X110764Y93446D01*
X110715Y93313D01*
X110662Y93182D01*
X110606Y93053D01*
X110547Y92924D01*
X110484Y92798D01*
X110418Y92673D01*
X110349Y92550D01*
X110276Y92429D01*
X110200Y92310D01*
X110121Y92192D01*
X110040Y92077D01*
X109955Y91965D01*
X109867Y91854D01*
X109776Y91746D01*
X109683Y91640D01*
X109586Y91537D01*
X109487Y91436D01*
X102185Y91754D02*
X102085Y91756D01*
X101986Y91762D01*
X101886Y91772D01*
X101788Y91785D01*
X101689Y91803D01*
X101592Y91824D01*
X101496Y91849D01*
X101400Y91878D01*
X101306Y91911D01*
X101213Y91947D01*
X101122Y91987D01*
X101032Y92031D01*
X100944Y92078D01*
X100858Y92128D01*
X100774Y92182D01*
X100692Y92239D01*
X100613Y92299D01*
X100535Y92363D01*
X100461Y92429D01*
X100389Y92498D01*
X100320Y92570D01*
X100254Y92644D01*
X100190Y92722D01*
X100130Y92801D01*
X100073Y92883D01*
X100019Y92967D01*
X99969Y93053D01*
X99922Y93141D01*
X99878Y93231D01*
X99838Y93322D01*
X99802Y93415D01*
X99769Y93509D01*
X99740Y93605D01*
X99715Y93701D01*
X99694Y93798D01*
X99676Y93897D01*
X99663Y93995D01*
X99653Y94095D01*
X99647Y94194D01*
X99645Y94294D01*
X99647Y94427D01*
X99652Y94560D01*
X99662Y94693D01*
X99675Y94826D01*
X99692Y94958D01*
X99712Y95090D01*
X99736Y95221D01*
X99764Y95351D01*
X99795Y95481D01*
X99830Y95609D01*
X99869Y95737D01*
X99911Y95863D01*
X99957Y95988D01*
X100006Y96112D01*
X100058Y96235D01*
X100114Y96356D01*
X100174Y96475D01*
X100236Y96593D01*
X100302Y96708D01*
X100371Y96822D01*
X100444Y96934D01*
X100519Y97044D01*
X100598Y97152D01*
X104408Y93023D02*
X104356Y92939D01*
X104301Y92856D01*
X104242Y92776D01*
X104181Y92698D01*
X104117Y92623D01*
X104049Y92550D01*
X103979Y92479D01*
X103907Y92412D01*
X103832Y92347D01*
X103754Y92285D01*
X103674Y92226D01*
X103592Y92170D01*
X103508Y92118D01*
X103422Y92069D01*
X103334Y92023D01*
X103244Y91980D01*
X103153Y91941D01*
X103060Y91906D01*
X102966Y91874D01*
X102871Y91846D01*
X102775Y91821D01*
X102678Y91801D01*
X102580Y91783D01*
X102482Y91770D01*
X102383Y91761D01*
X102284Y91755D01*
X102185Y91753D01*
X106312Y96516D02*
X106364Y96600D01*
X106419Y96683D01*
X106478Y96763D01*
X106539Y96841D01*
X106603Y96916D01*
X106671Y96989D01*
X106741Y97060D01*
X106813Y97127D01*
X106888Y97192D01*
X106966Y97254D01*
X107046Y97313D01*
X107128Y97369D01*
X107212Y97421D01*
X107298Y97470D01*
X107386Y97516D01*
X107476Y97559D01*
X107567Y97598D01*
X107660Y97633D01*
X107754Y97665D01*
X107849Y97693D01*
X107945Y97718D01*
X108042Y97738D01*
X108140Y97756D01*
X108238Y97769D01*
X108337Y97778D01*
X108436Y97784D01*
X108535Y97786D01*
X106313Y96516D02*
X104408Y93024D01*
X99645Y101850D02*
X111075Y105660D01*
X99645Y109470D01*
X102185Y113915D02*
X99645Y117090D01*
X111075Y117090D01*
X111075Y113915D02*
X111075Y120265D01*
D12*
X35362Y215250D02*
X35365Y215470D01*
X35372Y215690D01*
X35386Y215909D01*
X35404Y216128D01*
X35428Y216347D01*
X35456Y216565D01*
X35490Y216782D01*
X35529Y216998D01*
X35574Y217214D01*
X35623Y217428D01*
X35678Y217641D01*
X35737Y217853D01*
X35802Y218063D01*
X35872Y218271D01*
X35946Y218478D01*
X36026Y218683D01*
X36110Y218886D01*
X36199Y219087D01*
X36293Y219286D01*
X36326Y219375D01*
X36362Y219463D01*
X36402Y219549D01*
X36445Y219634D01*
X36492Y219716D01*
X36543Y219797D01*
X36596Y219875D01*
X36653Y219951D01*
X36713Y220025D01*
X36776Y220096D01*
X36841Y220165D01*
X36910Y220231D01*
X36981Y220293D01*
X37055Y220353D01*
X37131Y220410D01*
X37209Y220464D01*
X37290Y220514D01*
X37372Y220561D01*
X37457Y220604D01*
X37543Y220644D01*
X37631Y220681D01*
X37720Y220713D01*
X37810Y220742D01*
X37902Y220768D01*
X37994Y220789D01*
X38088Y220807D01*
X38182Y220820D01*
X38276Y220830D01*
X38371Y220836D01*
X38466Y220838D01*
X38561Y220836D01*
X38656Y220830D01*
X38750Y220820D01*
X38844Y220807D01*
X38938Y220789D01*
X39030Y220768D01*
X39122Y220742D01*
X39212Y220713D01*
X39301Y220681D01*
X39389Y220644D01*
X39475Y220604D01*
X39560Y220561D01*
X39642Y220514D01*
X39723Y220464D01*
X39801Y220410D01*
X39877Y220353D01*
X39951Y220293D01*
X40022Y220231D01*
X40091Y220165D01*
X40156Y220096D01*
X40219Y220025D01*
X40279Y219951D01*
X40336Y219875D01*
X40389Y219797D01*
X40440Y219716D01*
X40487Y219633D01*
X40530Y219549D01*
X40570Y219463D01*
X40606Y219375D01*
X40639Y219286D01*
X40640Y219286D02*
X40734Y219087D01*
X40823Y218886D01*
X40907Y218683D01*
X40987Y218478D01*
X41061Y218271D01*
X41131Y218063D01*
X41196Y217853D01*
X41255Y217641D01*
X41310Y217428D01*
X41359Y217214D01*
X41404Y216998D01*
X41443Y216782D01*
X41477Y216565D01*
X41505Y216347D01*
X41529Y216128D01*
X41547Y215909D01*
X41561Y215690D01*
X41568Y215470D01*
X41571Y215250D01*
X35362Y215250D02*
X35365Y215030D01*
X35372Y214810D01*
X35386Y214591D01*
X35404Y214372D01*
X35428Y214153D01*
X35456Y213935D01*
X35490Y213718D01*
X35529Y213502D01*
X35574Y213286D01*
X35623Y213072D01*
X35678Y212859D01*
X35737Y212648D01*
X35802Y212437D01*
X35872Y212229D01*
X35946Y212022D01*
X36026Y211817D01*
X36110Y211614D01*
X36199Y211413D01*
X36293Y211214D01*
X36326Y211125D01*
X36362Y211037D01*
X36402Y210951D01*
X36445Y210866D01*
X36492Y210784D01*
X36543Y210703D01*
X36596Y210625D01*
X36653Y210549D01*
X36713Y210475D01*
X36776Y210404D01*
X36841Y210335D01*
X36910Y210269D01*
X36981Y210207D01*
X37055Y210147D01*
X37131Y210090D01*
X37209Y210036D01*
X37290Y209986D01*
X37372Y209939D01*
X37457Y209896D01*
X37543Y209856D01*
X37631Y209819D01*
X37720Y209787D01*
X37810Y209758D01*
X37902Y209732D01*
X37994Y209711D01*
X38088Y209693D01*
X38182Y209680D01*
X38276Y209670D01*
X38371Y209664D01*
X38466Y209662D01*
X40640Y211214D02*
X40734Y211413D01*
X40823Y211614D01*
X40907Y211817D01*
X40987Y212022D01*
X41061Y212229D01*
X41131Y212437D01*
X41196Y212647D01*
X41255Y212859D01*
X41310Y213072D01*
X41359Y213286D01*
X41404Y213502D01*
X41443Y213718D01*
X41477Y213935D01*
X41505Y214153D01*
X41529Y214372D01*
X41547Y214591D01*
X41561Y214810D01*
X41568Y215030D01*
X41571Y215250D01*
X40639Y211214D02*
X40606Y211125D01*
X40570Y211037D01*
X40530Y210951D01*
X40487Y210866D01*
X40440Y210784D01*
X40389Y210703D01*
X40336Y210625D01*
X40279Y210549D01*
X40219Y210475D01*
X40156Y210404D01*
X40091Y210335D01*
X40022Y210269D01*
X39951Y210207D01*
X39877Y210147D01*
X39801Y210090D01*
X39723Y210036D01*
X39642Y209986D01*
X39560Y209939D01*
X39475Y209896D01*
X39389Y209856D01*
X39301Y209819D01*
X39212Y209787D01*
X39122Y209758D01*
X39030Y209732D01*
X38938Y209711D01*
X38844Y209693D01*
X38750Y209680D01*
X38656Y209670D01*
X38561Y209664D01*
X38466Y209662D01*
X35983Y212146D02*
X40950Y218354D01*
X46157Y210283D02*
X46157Y209662D01*
X46157Y210283D02*
X46778Y210283D01*
X46778Y209662D01*
X46157Y209662D01*
X51364Y218354D02*
X54468Y220838D01*
X54468Y209662D01*
X51364Y209662D02*
X57573Y209662D01*
X63034Y211525D02*
X63034Y217113D01*
X63034Y211525D02*
X63036Y211441D01*
X63041Y211358D01*
X63051Y211275D01*
X63064Y211192D01*
X63081Y211110D01*
X63101Y211029D01*
X63125Y210949D01*
X63153Y210870D01*
X63184Y210793D01*
X63218Y210717D01*
X63256Y210642D01*
X63298Y210569D01*
X63342Y210499D01*
X63390Y210430D01*
X63440Y210363D01*
X63494Y210299D01*
X63550Y210238D01*
X63610Y210178D01*
X63671Y210122D01*
X63735Y210068D01*
X63802Y210018D01*
X63871Y209970D01*
X63941Y209926D01*
X64014Y209884D01*
X64089Y209846D01*
X64165Y209812D01*
X64242Y209781D01*
X64321Y209753D01*
X64401Y209729D01*
X64482Y209709D01*
X64564Y209692D01*
X64647Y209679D01*
X64730Y209669D01*
X64813Y209664D01*
X64897Y209662D01*
X68001Y209662D01*
X68001Y217113D01*
M02*
